<?xml version="1.0" encoding="utf-8"?>
<!-- Generator: Adobe Illustrator 23.0.2, SVG Export Plug-In . SVG Version: 6.00 Build 0)  -->
<svg version="1.1" id="Layer_1" xmlns="http://www.w3.org/2000/svg" xmlns:xlink="http://www.w3.org/1999/xlink" x="0px" y="0px"
	 viewBox="0 0 39.97 43.77" style="enable-background:new 0 0 39.97 43.77;" xml:space="preserve">
<style type="text/css">
	.st0{fill:#DCB326;}
	.st1{fill:#ECC53A;}
</style>
<g id="XMLID_1986_">
	<path id="XMLID_1997_" class="st0" d="M12.02,19.58c-0.09,0-0.18-0.01-0.27-0.04c-2.57-0.79-4.78-1.84-6.55-3.13
		c-1.56-1.14-2.8-2.46-3.68-3.93c-2.03-3.4-1.5-6.41-1.3-7.25c0.53-2.11,2.85-2.8,4.71-3c1.81-0.2,3.49,0.01,3.56,0.02
		c0.5,0.06,0.85,0.52,0.79,1.02c-0.06,0.5-0.52,0.85-1.01,0.79c-0.03,0-1.57-0.19-3.17-0.01C4.22,4.14,3.5,4.33,2.96,4.6
		C2.42,4.88,2.1,5.23,1.99,5.67C1.82,6.34,1.4,8.74,3.08,11.54c0.75,1.26,1.83,2.41,3.19,3.4c1.61,1.17,3.63,2.13,6.01,2.86
		c0.48,0.15,0.75,0.66,0.6,1.14C12.77,19.33,12.41,19.58,12.02,19.58z"/>
	<path id="XMLID_1996_" class="st0" d="M28.8,20.35c-0.28,0-0.55-0.13-0.73-0.37c-0.3-0.4-0.21-0.97,0.19-1.27
		c3.95-2.92,6.77-5.7,8.38-8.25c1.49-2.36,1.62-4.02,1.46-5c-0.19-1.22-0.91-1.89-1.32-2.02c-1.42-0.47-3.4-0.15-4.04,0.02
		c-0.49,0.13-0.98-0.17-1.11-0.65s0.17-0.98,0.65-1.11c0.12-0.03,2.86-0.72,5.07,0.02c1.04,0.35,2.23,1.55,2.54,3.46
		c0.2,1.29,0.07,3.41-1.72,6.25c-1.73,2.75-4.71,5.69-8.84,8.75C29.18,20.3,28.99,20.35,28.8,20.35z"/>
	<path id="XMLID_1994_" class="st1" d="M29.68,22.03c2.1-3.36,4.52-12.51,4.41-14.83c-0.11-2.32,0.34-5.82,0-6.44
		c-0.34-0.62-1.99-0.62-1.99-0.62s-8.43,0.33-11.61,0c-3.17-0.33-12.28,0-12.28,0S6.46,0.7,6.46,1.91c0,1.21-0.06,9.72,2.48,15.39
		c2.39,5.35,5.18,7.86,8.26,8.84c0,0.05,0.01,0.11,0.01,0.16c0,0,0.44,0.7,0.55,3.54c0.11,2.84-0.33,7.8-0.55,8.46
		c-0.22,0.66-2.54,1.1-5.74,1.76c0,0-1.43,1.88-1.54,2.71c-0.11,0.82,0.77,0.71,1.32,0.71c0.55,0,8.82,0.49,17.54,0.15
		c0,0,1.54-0.04,1.99-0.87c0.44-0.83-1.21-2.04-1.99-2.93c-0.77-0.88-4.85-0.55-5.74-1.54c0,0-0.18-8.33,0.02-12.24
		C25.78,25.39,28.47,23.98,29.68,22.03z"/>
	<g id="XMLID_1992_">
		<path id="XMLID_1993_" class="st0" d="M24.22,41.35c-2.54-0.17-8.27,0-10.59,0c-1.47,0-2.32,0.05-3.06,0.06
			c-0.17,0.28-0.33,0.56-0.45,0.82c1.92,0.01,6.67-0.09,9.69-0.05c3.64,0.06,9.76,0,10.53,0c0.15,0,0.3-0.02,0.44-0.05
			c-0.1-0.25-0.3-0.52-0.54-0.79C28.55,41.39,25.86,41.45,24.22,41.35z"/>
	</g>
</g>
</svg>
