<?xml version="1.0" encoding="utf-8"?>
<!-- Generator: Adobe Illustrator 23.0.2, SVG Export Plug-In . SVG Version: 6.00 Build 0)  -->
<svg version="1.1" xmlns="http://www.w3.org/2000/svg" xmlns:xlink="http://www.w3.org/1999/xlink" x="0px" y="0px"
	 viewBox="0 0 99.28 122.09" style="enable-background:new 0 0 99.28 122.09;" xml:space="preserve">
<style type="text/css">
	.st0{display:none;}
	.st1{display:inline;}
	.st2{fill:#FFFFFF;}
	.st3{fill:#09376E;}
	.st4{fill:#448CC7;}
	.st5{fill:none;stroke:#C3E1F7;stroke-width:2;stroke-miterlimit:10;}
	.st6{fill:none;stroke:#448CC7;stroke-width:2;stroke-linecap:round;stroke-linejoin:round;stroke-miterlimit:10;}
	.st7{opacity:0.28;}
	.st8{clip-path:url(#SVGID_2_);}
	.st9{fill:none;stroke:#448CC7;stroke-miterlimit:10;}
</style>
<g id="Layer_1" class="st0">
	<g class="st1">
		<g>
			<path class="st2" d="M79.04,115.55c0,2.61-12.39,4.73-27.68,4.73c-15.29,0-27.68-2.12-27.68-4.73c0-2.61,12.39-4.73,27.68-4.73
				C66.65,110.82,79.04,112.94,79.04,115.55z"/>
			<rect x="41.58" y="82.51" class="st3" width="19.57" height="32.89"/>
			<g>
				<path class="st4" d="M62.82,115.24c0,0.5-0.41,0.91-0.91,0.91H40.82c-0.5,0-0.91-0.41-0.91-0.91l0,0c0-0.5,0.41-0.91,0.91-0.91
					h21.09C62.41,114.34,62.82,114.74,62.82,115.24L62.82,115.24z"/>
				<path class="st4" d="M62.82,109.1c0,0.5-0.41,0.91-0.91,0.91H40.82c-0.5,0-0.91-0.41-0.91-0.91l0,0c0-0.5,0.41-0.91,0.91-0.91
					h21.09C62.41,108.19,62.82,108.6,62.82,109.1L62.82,109.1z"/>
				<path class="st4" d="M62.82,102.95c0,0.5-0.41,0.91-0.91,0.91H40.82c-0.5,0-0.91-0.41-0.91-0.91l0,0c0-0.5,0.41-0.91,0.91-0.91
					h21.09C62.41,102.04,62.82,102.45,62.82,102.95L62.82,102.95z"/>
				<path class="st4" d="M62.82,96.81c0,0.5-0.41,0.91-0.91,0.91H40.82c-0.5,0-0.91-0.41-0.91-0.91l0,0c0-0.5,0.41-0.91,0.91-0.91
					h21.09C62.41,95.9,62.82,96.3,62.82,96.81L62.82,96.81z"/>
				<path class="st4" d="M62.82,90.66c0,0.5-0.41,0.91-0.91,0.91H40.82c-0.5,0-0.91-0.41-0.91-0.91l0,0c0-0.5,0.41-0.91,0.91-0.91
					h21.09C62.41,89.75,62.82,90.16,62.82,90.66L62.82,90.66z"/>
			</g>
		</g>
		<path class="st2" d="M95.6,80.66l-7.88-18.43v-3.61c0-0.32-0.03-0.64-0.09-0.94c-1.14-15.72-14.24-28.12-30.24-28.12v23.85h-1.21
			c-2.88,0-5.21,2.33-5.21,5.21v1.3H27.04c0.01,14.55,10.26,26.69,23.93,29.63v7.75c0,2.88,2.33,5.21,5.21,5.21h26.33
			c2.88,0,5.21-2.33,5.21-5.21V82.35h6.77C95.5,82.35,96,81.59,95.6,80.66z"/>
		<path class="st4" d="M57.37,84.99V59.88h25.1C82.46,46.03,71.23,34.8,57.38,34.8c-13.86,0-25.09,11.23-25.09,25.09
			C32.28,73.75,43.52,84.98,57.37,84.99z"/>
		<path class="st2" d="M53.58,25.96C53.58,25.96,53.58,25.96,53.58,25.96c-16.75,0-30.32,13.57-30.32,30.32c0,0.01,0,0.01,0,0.02
			h30.32V25.96z"/>
		
			<ellipse transform="matrix(0.2281 -0.9736 0.9736 0.2281 -14.0271 102.0944)" class="st3" cx="57.38" cy="59.89" rx="16.6" ry="16.6"/>
		<path class="st5" d="M57.36,62.19c0,0,0,27.89,0,29.78c0,1.9-0.28,3.64,2.6,3.64c5.2,0,19.83,0,19.83,0"/>
		
			<ellipse transform="matrix(0.1606 -0.987 0.987 0.1606 -10.9554 106.9056)" class="st2" cx="57.38" cy="59.89" rx="8.79" ry="8.79"/>
		<path class="st4" d="M61.09,59.89c0,2.05-1.66,3.71-3.71,3.71c-2.05,0-3.71-1.66-3.71-3.71c0-2.05,1.66-3.71,3.71-3.71
			C59.43,56.18,61.09,57.84,61.09,59.89z"/>
		<path class="st4" d="M89.73,62.42h-8.35c-2.45,0-4.44,2.2-4.44,4.91c0,2.71,1.99,4.91,4.44,4.91h12.15L89.73,62.42z"/>
		<path class="st4" d="M78.85,88.57c-0.87,0-1.57,0.7-1.57,1.57v13.79h5.22c3.46,0,6.27-2.81,6.27-6.27v-9.09H78.85z"/>
	</g>
</g>
<g id="Layer_2">
	<g>
		<g>
			<g>
				<g>
					<polyline class="st6" points="53.05,40.17 53.05,16.5 60.36,11.95 60.36,4 					"/>
					<polyline class="st6" points="46.23,40.17 46.23,15.73 38.92,11.18 38.92,4 					"/>
				</g>
				<g>
					<g>
						<polyline class="st6" points="59.64,41.04 59.64,22.58 70.03,16.12 70.03,4 						"/>
					</g>
					<g>
						<polyline class="st6" points="39.64,41.04 39.64,22.58 29.24,16.12 29.24,4 						"/>
					</g>
				</g>
				<g>
					<g>
						<g>
							<polyline class="st6" points="67.56,49.02 67.56,27.81 80.71,18.65 80.71,4 							"/>
						</g>
					</g>
					<g>
						<g>
							<polyline class="st6" points="31.71,49.02 31.71,27.81 18.56,18.65 18.56,4 							"/>
						</g>
					</g>
				</g>
				<g>
					<path class="st3" d="M18.56,0c1.94,0,3.51,1.57,3.51,3.51c0,1.94-1.57,3.51-3.51,3.51c-1.94,0-3.51-1.57-3.51-3.51
						C15.06,1.57,16.63,0,18.56,0z"/>
					<path class="st3" d="M80.71,0c1.94,0,3.51,1.57,3.51,3.51c0,1.94-1.57,3.51-3.51,3.51c-1.94,0-3.51-1.57-3.51-3.51
						C77.21,1.57,78.78,0,80.71,0z"/>
				</g>
				<g>
					<path class="st3" d="M69.85,0c1.94,0,3.51,1.57,3.51,3.51c0,1.94-1.57,3.51-3.51,3.51c-1.94,0-3.51-1.57-3.51-3.51
						C66.35,1.57,67.92,0,69.85,0z"/>
					<path class="st3" d="M60.18,0c1.94,0,3.51,1.57,3.51,3.51c0,1.94-1.57,3.51-3.51,3.51c-1.94,0-3.51-1.57-3.51-3.51
						C56.67,1.57,58.24,0,60.18,0z"/>
					<path class="st3" d="M39.1,0c1.94,0,3.51,1.57,3.51,3.51c0,1.94-1.57,3.51-3.51,3.51c-1.94,0-3.51-1.57-3.51-3.51
						C35.59,1.57,37.16,0,39.1,0z"/>
					<path class="st3" d="M29.42,0c1.94,0,3.51,1.57,3.51,3.51c0,1.94-1.57,3.51-3.51,3.51c-1.94,0-3.51-1.57-3.51-3.51
						C25.92,1.57,27.49,0,29.42,0z"/>
				</g>
			</g>
			<g>
				<g>
					<polyline class="st6" points="46.23,82.48 46.23,105.59 38.92,110.14 38.92,118.09 					"/>
					<polyline class="st6" points="53.05,82.48 53.05,106.36 60.36,110.91 60.36,118.09 					"/>
				</g>
				<g>
					<g>
						<polyline class="st6" points="39.64,80.42 39.64,99.51 29.24,105.98 29.24,118.09 						"/>
					</g>
					<g>
						<polyline class="st6" points="59.64,80.42 59.64,99.51 70.03,105.98 70.03,118.09 						"/>
					</g>
				</g>
				<g>
					<g>
						<g>
							<polyline class="st6" points="31.71,73.08 31.71,94.28 18.56,103.45 18.56,118.09 							"/>
						</g>
					</g>
					<g>
						<g>
							<polyline class="st6" points="67.56,73.08 67.56,94.28 80.71,103.45 80.71,118.09 							"/>
						</g>
					</g>
				</g>
				<g>
					<path class="st3" d="M80.71,122.09c-1.94,0-3.51-1.57-3.51-3.51c0-1.94,1.57-3.51,3.51-3.51c1.94,0,3.51,1.57,3.51,3.51
						C84.22,120.53,82.65,122.09,80.71,122.09z"/>
					<path class="st3" d="M18.56,122.09c-1.94,0-3.51-1.57-3.51-3.51c0-1.94,1.57-3.51,3.51-3.51c1.94,0,3.51,1.57,3.51,3.51
						C22.07,120.53,20.5,122.09,18.56,122.09z"/>
				</g>
				<g>
					<path class="st3" d="M29.42,122.09c-1.94,0-3.51-1.57-3.51-3.51c0-1.94,1.57-3.51,3.51-3.51c1.94,0,3.51,1.57,3.51,3.51
						C32.93,120.53,31.36,122.09,29.42,122.09z"/>
					<path class="st3" d="M39.1,122.09c-1.94,0-3.51-1.57-3.51-3.51c0-1.94,1.57-3.51,3.51-3.51c1.94,0,3.51,1.57,3.51,3.51
						C42.61,120.53,41.04,122.09,39.1,122.09z"/>
					<path class="st3" d="M60.18,122.09c-1.94,0-3.51-1.57-3.51-3.51c0-1.94,1.57-3.51,3.51-3.51c1.94,0,3.51,1.57,3.51,3.51
						C63.68,120.53,62.11,122.09,60.18,122.09z"/>
					<path class="st3" d="M69.85,122.09c-1.94,0-3.51-1.57-3.51-3.51c0-1.94,1.57-3.51,3.51-3.51c1.94,0,3.51,1.57,3.51,3.51
						C73.36,120.53,71.79,122.09,69.85,122.09z"/>
				</g>
			</g>
		</g>
		<g>
			<path class="st2" d="M99.28,61.05c0,0-22.22,29.38-49.64,29.38S0,61.05,0,61.05s22.22-29.38,49.64-29.38S99.28,61.05,99.28,61.05
				z"/>
			
				<ellipse transform="matrix(0.2316 -0.9728 0.9728 0.2316 -21.245 95.198)" class="st4" cx="49.64" cy="61.05" rx="23.28" ry="23.28"/>
			
				<ellipse transform="matrix(0.7071 -0.7071 0.7071 0.7071 -28.628 52.9804)" class="st3" cx="49.64" cy="61.05" rx="19.83" ry="19.83"/>
			<path class="st4" d="M57.49,61.05c0,4.34-3.51,7.85-7.85,7.85c-4.34,0-7.85-3.51-7.85-7.85c0-4.34,3.51-7.85,7.85-7.85
				C53.97,53.2,57.49,56.71,57.49,61.05z"/>
			<g class="st7">
				<defs>
					
						<ellipse id="SVGID_1_" transform="matrix(0.7071 -0.7071 0.7071 0.7071 -28.628 52.9804)" class="st7" cx="49.64" cy="61.05" rx="19.83" ry="19.83"/>
				</defs>
				<clipPath id="SVGID_2_">
					<use xlink:href="#SVGID_1_"  style="overflow:visible;"/>
				</clipPath>
				<g class="st8">
					<g>
						<g>
							<polyline class="st9" points="42.95,38.6 42.95,46.76 46.12,48.42 46.12,55.23 							"/>
							<polyline class="st9" points="56.33,38.6 56.33,46.76 53.15,48.42 53.15,55.23 							"/>
						</g>
						<g>
							<polyline class="st9" points="56.33,83.5 56.33,75.33 53.15,73.67 53.15,66.87 							"/>
							<polyline class="st9" points="42.95,83.5 42.95,75.33 46.12,73.67 46.12,66.87 							"/>
						</g>
					</g>
					<g>
						<g>
							<polyline class="st9" points="27.19,67.74 35.35,67.74 37.02,64.56 43.82,64.56 							"/>
							<polyline class="st9" points="27.19,54.36 35.35,54.36 37.02,57.53 43.82,57.53 							"/>
						</g>
						<g>
							<polyline class="st9" points="72.09,54.36 63.93,54.36 62.26,57.53 55.46,57.53 							"/>
							<polyline class="st9" points="72.09,67.74 63.93,67.74 62.26,64.56 55.46,64.56 							"/>
						</g>
					</g>
				</g>
			</g>
			<path class="st2" d="M47.65,53.97c0,1.99-1.62,3.61-3.61,3.61c-1.99,0-3.61-1.62-3.61-3.61c0-1.99,1.62-3.61,3.61-3.61
				C46.03,50.36,47.65,51.98,47.65,53.97z"/>
		</g>
	</g>
</g>
</svg>
