<?xml version="1.0" encoding="utf-8"?>
<!-- Generator: Adobe Illustrator 23.0.2, SVG Export Plug-In . SVG Version: 6.00 Build 0)  -->
<svg version="1.1" xmlns="http://www.w3.org/2000/svg" xmlns:xlink="http://www.w3.org/1999/xlink" x="0px" y="0px"
	 viewBox="0 0 63.95 111.16" style="enable-background:new 0 0 63.95 111.16;" xml:space="preserve">
<style type="text/css">
	.st0{display:none;}
	.st1{display:inline;}
	.st2{fill:#FFFFFF;}
	.st3{fill:#09376E;}
	.st4{fill:#448CC7;}
	.st5{fill:none;stroke:#C3E1F7;stroke-width:2;stroke-miterlimit:10;}
	.st6{fill:none;stroke:#448CC7;stroke-width:2;stroke-linecap:round;stroke-linejoin:round;stroke-miterlimit:10;}
	.st7{opacity:0.28;}
	.st8{clip-path:url(#SVGID_2_);}
	.st9{fill:none;stroke:#448CC7;stroke-miterlimit:10;}
	.st10{fill:none;stroke:#09376E;stroke-width:2.4;stroke-miterlimit:10;}
	.st11{fill:none;stroke:#09376E;stroke-width:3;stroke-miterlimit:10;}
</style>
<g id="Layer_1" class="st0">
	<g class="st1">
		<g>
			<path class="st2" d="M50.87,97.77c0,2.61-12.39,4.73-27.68,4.73c-15.29,0-27.68-2.12-27.68-4.73c0-2.61,12.39-4.73,27.68-4.73
				C38.47,93.04,50.87,95.16,50.87,97.77z"/>
			<rect x="13.4" y="64.73" class="st3" width="19.57" height="32.89"/>
			<g>
				<path class="st4" d="M34.64,97.46c0,0.5-0.41,0.91-0.91,0.91H12.64c-0.5,0-0.91-0.41-0.91-0.91l0,0c0-0.5,0.41-0.91,0.91-0.91
					h21.09C34.23,96.55,34.64,96.96,34.64,97.46L34.64,97.46z"/>
				<path class="st4" d="M34.64,91.32c0,0.5-0.41,0.91-0.91,0.91H12.64c-0.5,0-0.91-0.41-0.91-0.91l0,0c0-0.5,0.41-0.91,0.91-0.91
					h21.09C34.23,90.41,34.64,90.81,34.64,91.32L34.64,91.32z"/>
				<path class="st4" d="M34.64,85.17c0,0.5-0.41,0.91-0.91,0.91H12.64c-0.5,0-0.91-0.41-0.91-0.91l0,0c0-0.5,0.41-0.91,0.91-0.91
					h21.09C34.23,84.26,34.64,84.67,34.64,85.17L34.64,85.17z"/>
				<path class="st4" d="M34.64,79.03c0,0.5-0.41,0.91-0.91,0.91H12.64c-0.5,0-0.91-0.41-0.91-0.91l0,0c0-0.5,0.41-0.91,0.91-0.91
					h21.09C34.23,78.12,34.64,78.52,34.64,79.03L34.64,79.03z"/>
				<path class="st4" d="M34.64,72.88c0,0.5-0.41,0.91-0.91,0.91H12.64c-0.5,0-0.91-0.41-0.91-0.91l0,0c0-0.5,0.41-0.91,0.91-0.91
					h21.09C34.23,71.97,34.64,72.38,34.64,72.88L34.64,72.88z"/>
			</g>
		</g>
		<path class="st2" d="M67.42,62.88l-7.88-18.43v-3.61c0-0.32-0.03-0.64-0.09-0.94c-1.14-15.72-14.24-28.12-30.24-28.12v23.85H28
			c-2.88,0-5.21,2.33-5.21,5.21v1.3H-1.14c0.01,14.55,10.26,26.69,23.93,29.63v7.75c0,2.88,2.33,5.21,5.21,5.21h26.33
			c2.88,0,5.21-2.33,5.21-5.21V64.57h6.77C67.32,64.57,67.82,63.81,67.42,62.88z"/>
		<path class="st4" d="M29.2,67.21V42.1h25.1C54.28,28.25,43.05,17.02,29.2,17.02c-13.86,0-25.09,11.23-25.09,25.09
			C4.11,55.97,15.34,67.2,29.2,67.21z"/>
		<path class="st2" d="M25.4,8.18C25.4,8.18,25.4,8.18,25.4,8.18C8.66,8.18-4.92,21.75-4.92,38.5c0,0.01,0,0.01,0,0.02H25.4V8.18z"
			/>
		
			<ellipse transform="matrix(0.2281 -0.9736 0.9736 0.2281 -18.463 60.9368)" class="st3" cx="29.2" cy="42.11" rx="16.6" ry="16.6"/>
		<path class="st5" d="M29.19,44.41c0,0,0,27.89,0,29.78s-0.28,3.64,2.6,3.64c5.2,0,19.83,0,19.83,0"/>
		
			<ellipse transform="matrix(0.1606 -0.987 0.987 0.1606 -17.0554 64.1705)" class="st2" cx="29.2" cy="42.11" rx="8.79" ry="8.79"/>
		<path class="st4" d="M32.91,42.11c0,2.05-1.66,3.71-3.71,3.71c-2.05,0-3.71-1.66-3.71-3.71s1.66-3.71,3.71-3.71
			C31.25,38.4,32.91,40.06,32.91,42.11z"/>
		<path class="st4" d="M61.55,44.64H53.2c-2.45,0-4.44,2.2-4.44,4.91c0,2.71,1.99,4.91,4.44,4.91h12.15L61.55,44.64z"/>
		<path class="st4" d="M50.68,70.79c-0.87,0-1.57,0.7-1.57,1.57v13.79h5.22c3.46,0,6.27-2.81,6.27-6.27v-9.09H50.68z"/>
	</g>
</g>
<g id="Layer_2" class="st0">
	<g class="st1">
		<g>
			<g>
				<g>
					<polyline class="st6" points="24.87,22.39 24.87,-1.28 32.18,-5.83 32.18,-13.78 					"/>
					<polyline class="st6" points="18.05,22.39 18.05,-2.05 10.74,-6.6 10.74,-13.78 					"/>
				</g>
				<g>
					<g>
						<polyline class="st6" points="31.46,23.26 31.46,4.8 41.86,-1.67 41.86,-13.78 						"/>
					</g>
					<g>
						<polyline class="st6" points="11.47,23.26 11.47,4.8 1.07,-1.67 1.07,-13.78 						"/>
					</g>
				</g>
				<g>
					<g>
						<g>
							<polyline class="st6" points="39.39,31.24 39.39,10.03 52.54,0.87 52.54,-13.78 							"/>
						</g>
					</g>
					<g>
						<g>
							<polyline class="st6" points="3.54,31.24 3.54,10.03 -9.61,0.87 -9.61,-13.78 							"/>
						</g>
					</g>
				</g>
				<g>
					<path class="st3" d="M-9.61-17.78c1.94,0,3.51,1.57,3.51,3.51c0,1.94-1.57,3.51-3.51,3.51c-1.94,0-3.51-1.57-3.51-3.51
						C-13.12-16.21-11.55-17.78-9.61-17.78z"/>
					<path class="st3" d="M52.54-17.78c1.94,0,3.51,1.57,3.51,3.51c0,1.94-1.57,3.51-3.51,3.51c-1.94,0-3.51-1.57-3.51-3.51
						C49.03-16.21,50.6-17.78,52.54-17.78z"/>
				</g>
				<g>
					<path class="st3" d="M41.68-17.78c1.94,0,3.51,1.57,3.51,3.51c0,1.94-1.57,3.51-3.51,3.51c-1.94,0-3.51-1.57-3.51-3.51
						C38.17-16.21,39.74-17.78,41.68-17.78z"/>
					<path class="st3" d="M32-17.78c1.94,0,3.51,1.57,3.51,3.51c0,1.94-1.57,3.51-3.51,3.51c-1.94,0-3.51-1.57-3.51-3.51
						C28.5-16.21,30.07-17.78,32-17.78z"/>
					<path class="st3" d="M10.92-17.78c1.94,0,3.51,1.57,3.51,3.51c0,1.94-1.57,3.51-3.51,3.51c-1.94,0-3.51-1.57-3.51-3.51
						C7.42-16.21,8.99-17.78,10.92-17.78z"/>
					<path class="st3" d="M1.25-17.78c1.94,0,3.51,1.57,3.51,3.51c0,1.94-1.57,3.51-3.51,3.51c-1.94,0-3.51-1.57-3.51-3.51
						C-2.26-16.21-0.69-17.78,1.25-17.78z"/>
				</g>
			</g>
			<g>
				<g>
					<polyline class="st6" points="18.05,64.7 18.05,87.81 10.74,92.36 10.74,100.31 					"/>
					<polyline class="st6" points="24.87,64.7 24.87,88.58 32.18,93.13 32.18,100.31 					"/>
				</g>
				<g>
					<g>
						<polyline class="st6" points="11.47,62.64 11.47,81.73 1.07,88.2 1.07,100.31 						"/>
					</g>
					<g>
						<polyline class="st6" points="31.46,62.64 31.46,81.73 41.86,88.2 41.86,100.31 						"/>
					</g>
				</g>
				<g>
					<g>
						<g>
							<polyline class="st6" points="3.54,55.29 3.54,76.5 -9.61,85.67 -9.61,100.31 							"/>
						</g>
					</g>
					<g>
						<g>
							<polyline class="st6" points="39.39,55.29 39.39,76.5 52.54,85.67 52.54,100.31 							"/>
						</g>
					</g>
				</g>
				<g>
					<path class="st3" d="M52.54,104.31c-1.94,0-3.51-1.57-3.51-3.51c0-1.94,1.57-3.51,3.51-3.51c1.94,0,3.51,1.57,3.51,3.51
						C56.04,102.74,54.47,104.31,52.54,104.31z"/>
					<path class="st3" d="M-9.61,104.31c-1.94,0-3.51-1.57-3.51-3.51c0-1.94,1.57-3.51,3.51-3.51c1.94,0,3.51,1.57,3.51,3.51
						C-6.11,102.74-7.68,104.31-9.61,104.31z"/>
				</g>
				<g>
					<path class="st3" d="M1.25,104.31c-1.94,0-3.51-1.57-3.51-3.51c0-1.94,1.57-3.51,3.51-3.51c1.94,0,3.51,1.57,3.51,3.51
						C4.75,102.74,3.19,104.31,1.25,104.31z"/>
					<path class="st3" d="M10.92,104.31c-1.94,0-3.51-1.57-3.51-3.51c0-1.94,1.57-3.51,3.51-3.51c1.94,0,3.51,1.57,3.51,3.51
						C14.43,102.74,12.86,104.31,10.92,104.31z"/>
					<path class="st3" d="M32,104.31c-1.94,0-3.51-1.57-3.51-3.51c0-1.94,1.57-3.51,3.51-3.51c1.94,0,3.51,1.57,3.51,3.51
						C35.51,102.74,33.94,104.31,32,104.31z"/>
					<path class="st3" d="M41.68,104.31c-1.94,0-3.51-1.57-3.51-3.51c0-1.94,1.57-3.51,3.51-3.51c1.94,0,3.51,1.57,3.51,3.51
						C45.18,102.74,43.61,104.31,41.68,104.31z"/>
				</g>
			</g>
		</g>
		<g>
			<path class="st2" d="M71.1,43.27c0,0-22.22,29.38-49.64,29.38s-49.64-29.38-49.64-29.38s22.22-29.38,49.64-29.38
				S71.1,43.27,71.1,43.27z"/>
			
				<ellipse transform="matrix(0.2316 -0.9728 0.9728 0.2316 -25.5976 54.1252)" class="st4" cx="21.46" cy="43.27" rx="23.28" ry="23.28"/>
			
				<ellipse transform="matrix(0.7071 -0.7071 0.7071 0.7071 -24.3074 27.8491)" class="st3" cx="21.46" cy="43.27" rx="19.83" ry="19.83"/>
			<path class="st4" d="M29.31,43.27c0,4.34-3.51,7.85-7.85,7.85c-4.34,0-7.85-3.51-7.85-7.85c0-4.34,3.51-7.85,7.85-7.85
				C25.8,35.42,29.31,38.93,29.31,43.27z"/>
			<g class="st7">
				<defs>
					
						<ellipse id="SVGID_1_" transform="matrix(0.7071 -0.7071 0.7071 0.7071 -24.3074 27.8491)" class="st7" cx="21.46" cy="43.27" rx="19.83" ry="19.83"/>
				</defs>
				<clipPath id="SVGID_2_">
					<use xlink:href="#SVGID_1_"  style="overflow:visible;"/>
				</clipPath>
				<g class="st8">
					<g>
						<g>
							<polyline class="st9" points="14.77,20.82 14.77,28.98 17.95,30.64 17.95,37.45 							"/>
							<polyline class="st9" points="28.15,20.82 28.15,28.98 24.98,30.64 24.98,37.45 							"/>
						</g>
						<g>
							<polyline class="st9" points="28.15,65.72 28.15,57.55 24.98,55.89 24.98,49.09 							"/>
							<polyline class="st9" points="14.77,65.72 14.77,57.55 17.95,55.89 17.95,49.09 							"/>
						</g>
					</g>
					<g>
						<g>
							<polyline class="st9" points="-0.99,49.95 7.18,49.95 8.84,46.78 15.64,46.78 							"/>
							<polyline class="st9" points="-0.99,36.58 7.18,36.58 8.84,39.75 15.64,39.75 							"/>
						</g>
						<g>
							<polyline class="st9" points="43.91,36.58 35.75,36.58 34.09,39.75 27.28,39.75 							"/>
							<polyline class="st9" points="43.91,49.95 35.75,49.95 34.09,46.78 27.28,46.78 							"/>
						</g>
					</g>
				</g>
			</g>
			<path class="st2" d="M19.47,36.19c0,1.99-1.62,3.61-3.61,3.61s-3.61-1.62-3.61-3.61c0-1.99,1.62-3.61,3.61-3.61
				S19.47,34.19,19.47,36.19z"/>
		</g>
	</g>
</g>
<g id="Layer_3">
	<g>
		<path class="st3" d="M11.91,29.43c0,3.1-1.3,5.62-2.89,5.62c-1.6,0-2.89-2.51-2.89-5.62s1.3-5.61,2.89-5.61
			C10.61,23.82,11.91,26.33,11.91,29.43z"/>
		<ellipse class="st3" cx="54.94" cy="29.43" rx="2.89" ry="5.61"/>
	</g>
	<g>
		<path class="st4" d="M16.96,35.63c0,1.2-0.97,2.17-2.17,2.17h-4.35c-1.2,0-2.17-0.97-2.17-2.17V22.95c0-1.2,0.97-2.17,2.17-2.17
			h4.35c1.2,0,2.17,0.97,2.17,2.17V35.63z"/>
		<path class="st4" d="M55.68,35.63c0,1.2-0.97,2.17-2.17,2.17h-4.35c-1.2,0-2.17-0.97-2.17-2.17V22.95c0-1.2,0.97-2.17,2.17-2.17
			h4.35c1.2,0,2.17,0.97,2.17,2.17V35.63z"/>
	</g>
	<g>
		<path class="st10" d="M43.48,94.53c0,6.35-5.15,11.5-11.5,11.5l0,0c-6.35,0-11.5-5.15-11.5-11.5V83.87
			c0-6.35,5.15-14.34,11.5-14.34l0,0c6.35,0,11.5,7.99,11.5,14.34V94.53z"/>
		<g>
			<g>
				<rect x="34.39" y="101.54" class="st4" width="2.64" height="7.08"/>
			</g>
			<g>
				<rect x="26.93" y="101.54" class="st4" width="2.64" height="7.08"/>
			</g>
		</g>
		<path class="st3" d="M35.52,109.64c0,0.84-0.68,1.52-1.52,1.52h-4.05c-0.84,0-1.52-0.68-1.52-1.52v-9.12
			c0-0.84,0.68-1.52,1.52-1.52H34c0.84,0,1.52,0.68,1.52,1.52V109.64z"/>
		<g>
			<path class="st4" d="M31.25,88.92c0,2.09-1.7,3.79-3.79,3.79h-6.6c-2.09,0-3.79-1.7-3.79-3.79V81.1c0-2.09,1.7-3.79,3.79-3.79
				h6.6c2.09,0,3.79,1.7,3.79,3.79V88.92z"/>
			<path class="st4" d="M46.88,88.92c0,2.09-1.7,3.79-3.79,3.79h-6.6c-2.09,0-3.79-1.7-3.79-3.79V81.1c0-2.09,1.7-3.79,3.79-3.79
				h6.6c2.09,0,3.79,1.7,3.79,3.79V88.92z"/>
		</g>
		<g>
			<g>
				<g>
					<path class="st11" d="M14.23,63.42c0,0-17.2,1.88-11.05,26.85"/>
					<g>
						<path class="st4" d="M4.9,100.79c-0.51,0.08-0.98-0.26-1.07-0.76l-0.94-6.87c-0.08-0.51,0.26-0.98,0.76-1.07l0,0
							c0.51-0.08,0.98,0.26,1.07,0.76l0.94,6.87C5.75,100.23,5.41,100.71,4.9,100.79L4.9,100.79z"/>
						<path class="st4" d="M7.72,103.05c-0.35,0.38-0.94,0.4-1.31,0.05l-2.18-2.03c-0.38-0.35-0.4-0.94-0.05-1.31l0,0
							c0.35-0.38,0.94-0.4,1.31-0.05l2.18,2.03C8.05,102.09,8.07,102.68,7.72,103.05L7.72,103.05z"/>
						<path class="st3" d="M5.82,100.28c-0.1,0.59-0.65,0.98-1.24,0.89c-0.59-0.1-0.98-0.65-0.89-1.24c0.1-0.59,0.65-0.98,1.24-0.89
							S5.92,99.69,5.82,100.28z"/>
					</g>
					<g>
						<path class="st4" d="M9.5,98.84c-0.41,0.31-0.99,0.24-1.3-0.16l-4.1-5.6c-0.31-0.41-0.24-0.99,0.16-1.3l0,0
							c0.41-0.31,0.99-0.24,1.3,0.16l4.1,5.6C9.98,97.94,9.91,98.53,9.5,98.84L9.5,98.84z"/>
						<path class="st4" d="M12.93,99.52c-0.17,0.48-0.7,0.74-1.19,0.56l-2.8-1.01c-0.48-0.17-0.74-0.7-0.56-1.19l0,0
							c0.17-0.48,0.7-0.74,1.19-0.56l2.8,1.01C12.85,98.5,13.1,99.03,12.93,99.52L12.93,99.52z"/>
						<path class="st3" d="M10.02,98.23c-0.03,0.59-0.54,1.05-1.13,1.02c-0.59-0.03-1.05-0.54-1.02-1.13
							c0.03-0.59,0.54-1.05,1.13-1.02C9.6,97.13,10.05,97.64,10.02,98.23z"/>
					</g>
					<g>
						<path class="st4" d="M10.09,90.34c0.02,0.56-0.42,1.04-0.98,1.06l-4.49,0.16c-0.56,0.02-1.04-0.42-1.06-0.98l0,0
							C3.54,90,3.98,89.53,4.55,89.51l4.49-0.16C9.59,89.33,10.07,89.77,10.09,90.34L10.09,90.34z"/>
						<path class="st4" d="M12.91,91.8c-0.2,0.53-0.79,0.79-1.32,0.58l-2.4-0.98c-0.53-0.2-0.79-0.79-0.58-1.32l0,0
							c0.2-0.53,0.79-0.79,1.32-0.58l2.4,0.98C12.85,90.68,13.11,91.27,12.91,91.8L12.91,91.8z"/>
						<path class="st3" d="M10.28,90.24c0.03,0.59-0.42,1.1-1.01,1.13c-0.59,0.03-1.1-0.42-1.13-1.01c-0.03-0.59,0.42-1.1,1.01-1.13
							C9.74,89.19,10.25,89.65,10.28,90.24z"/>
					</g>
					<path class="st2" d="M7.9,92.9c0.3,0.88-0.17,1.84-1.05,2.14l-3.1,1.06c-0.88,0.3-1.84-0.17-2.14-1.05L0.09,90.6
						c-0.3-0.88,0.17-1.84,1.05-2.14l3.1-1.06c0.88-0.3,1.84,0.17,2.14,1.05L7.9,92.9z"/>
				</g>
				<path class="st4" d="M18.2,67.6c0,0.91-0.74,1.64-1.64,1.64h-2.48c-0.91,0-1.64-0.74-1.64-1.64v-7.39
					c0-0.91,0.74-1.64,1.64-1.64h2.48c0.91,0,1.64,0.74,1.64,1.64V67.6z"/>
			</g>
			<g>
				<g>
					<path class="st11" d="M49.72,63.42c0,0,17.2,1.88,11.05,26.85"/>
					<g>
						<path class="st4" d="M59.05,100.79c0.51,0.08,0.98-0.26,1.07-0.76l0.94-6.87c0.08-0.51-0.26-0.98-0.76-1.07l0,0
							c-0.51-0.08-0.98,0.26-1.07,0.76l-0.94,6.87C58.2,100.23,58.55,100.71,59.05,100.79L59.05,100.79z"/>
						<path class="st4" d="M56.23,103.05c0.35,0.38,0.94,0.4,1.31,0.05l2.18-2.03c0.38-0.35,0.4-0.94,0.05-1.31l0,0
							c-0.35-0.38-0.94-0.4-1.31-0.05l-2.18,2.03C55.91,102.09,55.88,102.68,56.23,103.05L56.23,103.05z"/>
						<path class="st3" d="M58.13,100.28c0.1,0.59,0.65,0.98,1.24,0.89c0.59-0.1,0.98-0.65,0.89-1.24c-0.1-0.59-0.65-0.98-1.24-0.89
							C58.43,99.14,58.03,99.69,58.13,100.28z"/>
					</g>
					<g>
						<path class="st4" d="M54.45,98.84c0.41,0.31,0.99,0.24,1.3-0.16l4.1-5.6c0.31-0.41,0.24-0.99-0.16-1.3l0,0
							c-0.41-0.31-0.99-0.24-1.3,0.16l-4.1,5.6C53.97,97.94,54.04,98.53,54.45,98.84L54.45,98.84z"/>
						<path class="st4" d="M51.03,99.52c0.17,0.48,0.7,0.74,1.19,0.56l2.8-1.01c0.48-0.17,0.74-0.7,0.56-1.19l0,0
							c-0.17-0.48-0.7-0.74-1.19-0.56l-2.8,1.01C51.11,98.5,50.86,99.03,51.03,99.52L51.03,99.52z"/>
						<path class="st3" d="M53.93,98.23c0.03,0.59,0.54,1.05,1.13,1.02c0.59-0.03,1.05-0.54,1.02-1.13
							c-0.03-0.59-0.54-1.05-1.13-1.02C54.35,97.13,53.9,97.64,53.93,98.23z"/>
					</g>
					<g>
						<path class="st4" d="M53.87,90.34c-0.02,0.56,0.42,1.04,0.98,1.06l4.49,0.16c0.56,0.02,1.04-0.42,1.06-0.98l0,0
							c0.02-0.56-0.42-1.04-0.98-1.06l-4.49-0.16C54.36,89.33,53.89,89.77,53.87,90.34L53.87,90.34z"/>
						<path class="st4" d="M51.04,91.8c0.2,0.53,0.79,0.79,1.32,0.58l2.4-0.98c0.53-0.2,0.79-0.79,0.58-1.32l0,0
							c-0.2-0.53-0.79-0.79-1.32-0.58l-2.4,0.98C51.1,90.68,50.84,91.27,51.04,91.8L51.04,91.8z"/>
						<path class="st3" d="M53.67,90.24c-0.03,0.59,0.42,1.1,1.01,1.13c0.59,0.03,1.1-0.42,1.13-1.01c0.03-0.59-0.42-1.1-1.01-1.13
							C54.21,89.19,53.71,89.65,53.67,90.24z"/>
					</g>
					<path class="st2" d="M56.06,92.9c-0.3,0.88,0.17,1.84,1.05,2.14l3.1,1.06c0.88,0.3,1.84-0.17,2.14-1.05l1.51-4.44
						c0.3-0.88-0.17-1.84-1.05-2.14l-3.1-1.06c-0.88-0.3-1.84,0.17-2.14,1.05L56.06,92.9z"/>
				</g>
				<path class="st4" d="M45.76,67.6c0,0.91,0.74,1.64,1.64,1.64h2.48c0.91,0,1.64-0.74,1.64-1.64v-7.39c0-0.91-0.74-1.64-1.64-1.64
					H47.4c-0.91,0-1.64,0.74-1.64,1.64V67.6z"/>
			</g>
		</g>
		<rect x="28.31" y="47.86" class="st3" width="7.33" height="14.02"/>
		<path class="st4" d="M38.43,64.18c0,0.95-0.77,1.72-1.72,1.72h-9.47c-0.95,0-1.72-0.77-1.72-1.72v-7.75
			c0-0.95,0.77-1.72,1.72-1.72h9.47c0.95,0,1.72,0.77,1.72,1.72V64.18z"/>
		<path class="st2" d="M49.26,60.01c0-2.04-1.65-3.69-3.69-3.69H18.38c-2.04,0-3.69,1.65-3.69,3.69v8.38h0v7.96
			c0,9.55,7.74,17.28,17.28,17.28c9.55,0,17.28-7.74,17.28-17.28v-7.96h0V60.01z"/>
		<path class="st9" d="M31.98,13.47"/>
		<g>
			<path class="st2" d="M46.38,15.96v15.83c0,6.93-6.45,10.65-14.41,10.65s-14.41-3.72-14.41-10.65V15.96
				c-1.54,1.24-2.87,2.68-3.94,4.27v22.38c3.72,5.52,10.55,8.71,18.35,8.71s14.63-3.19,18.35-8.71V20.23
				C49.26,18.64,47.92,17.21,46.38,15.96z"/>
		</g>
		<path class="st3" d="M31.98,42.44c7.96,0,14.41-3.72,14.41-10.65V15.96C42.59,12.89,37.53,11,31.98,11
			c-5.56,0-10.61,1.88-14.41,4.96v15.83C17.57,38.72,24.02,42.44,31.98,42.44z"/>
		<g>
			<path class="st4" d="M44.56,65.94c0,2.32-1.88,4.19-4.19,4.19c-2.32,0-4.19-1.88-4.19-4.19c0-2.32,1.88-4.19,4.19-4.19
				C42.68,61.75,44.56,63.62,44.56,65.94z"/>
			<path class="st3" d="M42.35,65.94c0,1.1-0.89,1.99-1.99,1.99c-1.1,0-1.99-0.89-1.99-1.99c0-1.1,0.89-1.99,1.99-1.99
				C41.46,63.95,42.35,64.84,42.35,65.94z"/>
			<path class="st4" d="M41.72,75.67c0,0.75-0.61,1.35-1.35,1.35c-0.75,0-1.35-0.61-1.35-1.35c0-0.75,0.61-1.35,1.35-1.35
				C41.11,74.32,41.72,74.93,41.72,75.67z"/>
			<path class="st4" d="M41.72,80.75c0,0.75-0.61,1.35-1.35,1.35c-0.75,0-1.35-0.61-1.35-1.35s0.61-1.35,1.35-1.35
				C41.11,79.4,41.72,80.01,41.72,80.75z"/>
			<path class="st4" d="M33.74,64.29c0,0.24-0.2,0.44-0.44,0.44H19.83c-0.24,0-0.44-0.2-0.44-0.44l0,0c0-0.24,0.2-0.44,0.44-0.44
				H33.3C33.55,63.84,33.74,64.04,33.74,64.29L33.74,64.29z"/>
			<path class="st4" d="M33.74,67.6c0,0.24-0.2,0.44-0.44,0.44H19.83c-0.24,0-0.44-0.2-0.44-0.44l0,0c0-0.24,0.2-0.44,0.44-0.44
				H33.3C33.55,67.16,33.74,67.35,33.74,67.6L33.74,67.6z"/>
		</g>
		<path class="st9" d="M31.98,4.23"/>
		<path class="st2" d="M37.13,11.76c0,0.69-2.31,1.26-5.15,1.26s-5.15-0.56-5.15-1.26c0-0.69,2.31-1.26,5.15-1.26
			S37.13,11.07,37.13,11.76z"/>
		<line class="st9" x1="31.98" y1="11.62" x2="31.98" y2="4.23"/>
		<path class="st3" d="M34.88,2.91c0,1.61-1.3,2.91-2.91,2.91c-1.61,0-2.91-1.3-2.91-2.91c0-1.61,1.3-2.91,2.91-2.91
			C33.58,0,34.88,1.3,34.88,2.91z"/>
		<g>
			<path class="st4" d="M28.31,30.31c0,1.09-0.88,1.97-1.97,1.97l0,0c-1.09,0-1.97-0.88-1.97-1.97v-5.25c0-1.09,0.88-1.97,1.97-1.97
				l0,0c1.09,0,1.97,0.88,1.97,1.97V30.31z"/>
			<path class="st4" d="M39.58,30.31c0,1.09-0.88,1.97-1.97,1.97l0,0c-1.09,0-1.97-0.88-1.97-1.97v-5.25c0-1.09,0.88-1.97,1.97-1.97
				l0,0c1.09,0,1.97,0.88,1.97,1.97V30.31z"/>
		</g>
	</g>
</g>
</svg>
