<?xml version="1.0" encoding="utf-8"?>
<!-- Generator: Adobe Illustrator 23.0.2, SVG Export Plug-In . SVG Version: 6.00 Build 0)  -->
<svg version="1.1" id="Layer_1" xmlns="http://www.w3.org/2000/svg" xmlns:xlink="http://www.w3.org/1999/xlink" x="0px" y="0px"
	 viewBox="0 0 195.48 195.48" style="enable-background:new 0 0 195.48 195.48;" xml:space="preserve">
<style type="text/css">
	.st0{fill:#FFC907;}
	.st1{fill:#BF8F08;}
	.st2{fill:#EF5E25;}
	.st3{fill:#E3DECA;}
	.st4{fill:#FCF8DD;}
	.st5{fill:#C4BFAB;}
	.st6{fill:#DD4212;}
</style>
<g>
	<path class="st0" d="M195.48,97.74c0,53.98-43.76,97.74-97.74,97.74C43.76,195.48,0,151.72,0,97.74C0,43.76,43.76,0,97.74,0
		C151.72,0,195.48,43.76,195.48,97.74z"/>
	<path class="st1" d="M31.86,147.8l65.88,47.68c57.69-1.48,97.74-47.24,97.74-97.74c0-1.65-0.83-11.74-0.91-13.37l-30.95-29.98
		L31.86,147.8z"/>
	<g>
		<g>
			<g>
				<path class="st2" d="M97.74,54.39c-39.04-15.1-65.88,0-65.88,0v93.4c25.95-12.9,65.88,0,65.88,0s39.93-12.9,65.88,0v-93.4
					C163.62,54.39,136.79,39.29,97.74,54.39z"/>
			</g>
			<g>
				<path class="st3" d="M97.74,59.33v82.78c0,0-36.44-11.43-60.13,0V59.33C37.62,59.33,62.11,45.94,97.74,59.33z"/>
				<path class="st4" d="M97.74,59.33v82.78c0,0,36.44-11.43,60.12,0V59.33C157.86,59.33,133.37,45.94,97.74,59.33z"/>
			</g>
		</g>
		<g>
			<g>
				<path class="st5" d="M91.93,68.93c-26.79-9.76-48.17-0.13-48.38-0.03l-0.87-1.87c0.22-0.1,22.33-10.1,49.95-0.03L91.93,68.93z"
					/>
			</g>
			<g>
				<path class="st5" d="M91.93,74.07c-26.79-9.76-48.17-0.13-48.38-0.03l-0.87-1.87c0.22-0.1,22.33-10.1,49.95-0.03L91.93,74.07z"
					/>
			</g>
			<g>
				<path class="st5" d="M91.93,79.22c-26.79-9.76-48.17-0.13-48.38-0.03l-0.87-1.87c0.22-0.1,22.33-10.1,49.95-0.03L91.93,79.22z"
					/>
			</g>
			<g>
				<path class="st5" d="M43.07,83.97l-0.78-1.91c0.4-0.16,10.04-4.04,25.39-3.87l-0.02,2.06C52.77,80.1,43.17,83.93,43.07,83.97z"
					/>
			</g>
			<g>
				<path class="st5" d="M91.93,100.85c-26.79-9.77-48.17-0.13-48.38-0.03l-0.87-1.87c0.22-0.1,22.33-10.1,49.95-0.03L91.93,100.85z
					"/>
			</g>
			<g>
				<path class="st5" d="M91.93,105.99c-26.79-9.77-48.17-0.13-48.38-0.03l-0.87-1.87c0.22-0.1,22.33-10.1,49.95-0.03L91.93,105.99z
					"/>
			</g>
			<g>
				<path class="st5" d="M91.93,123.5c-26.79-9.77-48.17-0.13-48.38-0.03l-0.87-1.87c0.22-0.1,22.33-10.1,49.95-0.03L91.93,123.5z"
					/>
			</g>
			<g>
				<path class="st5" d="M91.93,128.65c-26.79-9.76-48.17-0.13-48.38-0.03l-0.87-1.87c0.22-0.1,22.33-10.1,49.95-0.03L91.93,128.65z
					"/>
			</g>
			<g>
				<path class="st5" d="M91.93,133.79c-26.79-9.77-48.17-0.13-48.38-0.03l-0.87-1.87c0.22-0.1,22.33-10.1,49.95-0.03L91.93,133.79z
					"/>
			</g>
		</g>
		<g>
			<g>
				<path class="st5" d="M152.07,68.93c-26.79-9.77-48.17-0.13-48.38-0.03l-0.86-1.87c0.22-0.1,22.33-10.1,49.95-0.03L152.07,68.93z
					"/>
			</g>
			<g>
				<path class="st5" d="M152.07,74.07c-26.79-9.76-48.17-0.13-48.38-0.03l-0.86-1.87c0.22-0.1,22.33-10.1,49.95-0.03L152.07,74.07z
					"/>
			</g>
			<g>
				<path class="st5" d="M152.07,79.22c-26.79-9.77-48.17-0.13-48.38-0.03l-0.86-1.87c0.22-0.1,22.33-10.1,49.95-0.03L152.07,79.22z
					"/>
			</g>
			<g>
				<path class="st5" d="M152.07,84.37c-26.79-9.77-48.17-0.13-48.38-0.03l-0.86-1.87c0.22-0.1,22.33-10.1,49.95-0.03L152.07,84.37z
					"/>
			</g>
			<g>
				<path class="st5" d="M152.07,89.52c-26.79-9.76-48.17-0.13-48.38-0.03l-0.86-1.87c0.22-0.1,22.33-10.1,49.95-0.03L152.07,89.52z
					"/>
			</g>
			<g>
				<path class="st5" d="M152.07,94.67c-26.79-9.76-48.17-0.13-48.38-0.03l-0.86-1.87c0.22-0.1,22.33-10.1,49.95-0.03L152.07,94.67z
					"/>
			</g>
			<g>
				<path class="st5" d="M152.41,99.6l0.78-1.91c-0.4-0.16-10.04-4.03-25.39-3.87l0.02,2.06C142.72,95.73,152.32,99.56,152.41,99.6z
					"/>
			</g>
			<path class="st5" d="M102.83,109.57v19.8c0,0,15.62-8,49.95,0v-19.8C152.78,109.57,133.31,99.84,102.83,109.57z"/>
		</g>
		<path class="st6" d="M110.99,95.95V55.39c-3.3,0.72-6.74,1.67-10.29,2.88v37.68l5.15-5.17L110.99,95.95z"/>
	</g>
</g>
</svg>
