<svg id="Layer_1" data-name="Layer 1" xmlns="http://www.w3.org/2000/svg" viewBox="0 0 106.43 140.65"><title>composer</title><path d="M172,121.51l18.72-7.63.31-6.61,3.25-6.71.71-7.43,3.66-11.19,4.07-9.35-.31-2.24-.61-2,.41-2.34-.72-2.74.41-1.93-3.66-4.47L182,62.53l.72,2.14-1.52,2.54,1.42,4.38L180.36,76l3.15,9.46L190.22,89c-.31.1-8.54-.72-8.54-.72l1.93,4-2.24,6.2-2.64,1.32-2.24.72-4.38,5.08-3.25,8,2.75,7.94ZM103.19,65.34l16.6,1.9,2.14,10.55-3.59,8.53,2,1.46,3.48,9.65,4,4.49,2.8,1.69,4.94,4.71,5.72,4.27-2,4.37.33,3.25L139,122l-1.24,3.48-12-3.48.34-2-1.69-2.24.56-2.14-16.37-12-1.24-3-3.59-1.11-.11-25.7-1.47-3.71,1-4.71Z" transform="translate(-97.15 -4.69)" style="fill:#7d6a4c"/><path d="M187.56,84.32a6.23,6.23,0,0,0-.91-.13,1.37,1.37,0,0,0-.29,0,.58.58,0,0,0-.54.43,2.22,2.22,0,0,0-.09.37.53.53,0,0,0,0,.13l2.46.9h.06C188.22,85.29,188.45,84.52,187.56,84.32ZM187,92.69l.1.14a1.86,1.86,0,0,1,.1.2,13.11,13.11,0,0,1,1,1.31h0s0,0,0,0c0-.33.2-1.18,0-1.46S187.35,92.68,187,92.69Zm7.1-8.69a.14.14,0,1,0-.07.26A.14.14,0,0,0,194.07,84Zm0-15.35c0,.83,0,1.32.93,1.32s1.59.07,1.63-1c0-.37.11-1.09-.2-1.37s-.86-.13-1.17-.15c-1-.09-1.26.11-1.19,1.18Zm-3.17,6.74c.17-.21.07-.76.06-1s0-1-.16-1.21c-.28-.37-1.66-.25-2,0s-.49,2,0,2.25c.3.12,1.83.24,2.08,0Zm-53.36,42.12s0-.08.05-.11a.62.62,0,0,0,.06-.3c0-.12,0-.28,0-.42a1.63,1.63,0,0,0,0-.31.17.17,0,0,1-.06-.11v-.06a1.06,1.06,0,0,0,0-.25,6.49,6.49,0,0,0-.06-.75h-.42c-.46,0-1.22-.21-1.63,0s-.33.46-.34.8,0,.39,0,.56,0,.07,0,.1c0,.51,0,.83.55,1a3.92,3.92,0,0,0,1.64,0c0-.09.09-.13.21-.13Zm1.63-2.11-.2-.06a3.7,3.7,0,0,1-1,.16c0,.11.05.24.05.35a2,2,0,0,1,0,.35.2.2,0,0,1,0,.13c0,.14,0,.27,0,.32v0a.32.32,0,0,0,0,.13.2.2,0,0,0,0,.07c0,.1,0,.22.06.35s0,.14,0,.28h.24a1.56,1.56,0,0,1,.16-.69c.21-.48.56-1,.76-1.41h-.09Zm-1,2.81a.43.43,0,0,1,0,.1.06.06,0,0,1,0,0h-.19c0,.42,0,.84,0,1.26,0,.14,0,.28,0,.42s.3.27.48.32a5.87,5.87,0,0,1,.59,0v0a10.33,10.33,0,0,0-.46-2.07Zm.18,2.63a.71.71,0,0,0-.29.16c-.19.25-.09.87-.07,1.21v.1a1.88,1.88,0,0,0,.62-.47,1.81,1.81,0,0,0,.39-1.07l-.56.07Zm34.18-3.13c.56,0,1.16.11,1.5-.19a2,2,0,0,0,.23-1.12,2.13,2.13,0,0,0-.21-1.13,4.54,4.54,0,0,0-2.1-.1.93.93,0,0,0-.27.81c0,.17,0,.35,0,.52a2.44,2.44,0,0,1-.05.48s0,0,0,.07a4.66,4.66,0,0,0,.16.49s0,0,0,.11h.49c.09,0,.16,0,.19.06Zm23.28-33.45c-.48-.07-1.45-.15-1.7.3a3.54,3.54,0,0,0,.11,2c.27.34,1.08.27,1.66.23h.27a.73.73,0,0,1-.11-.26.86.86,0,0,1,0-.17,1.35,1.35,0,0,1,.18-.7l0-.08h0v0C196,84.94,196.66,84.41,195.79,84.26ZM110.21,69.84c.41.21,2,.23,2.15-.25s-.41-2,.37-2.18a1,1,0,0,0-.58-.1c-.59.42-1.67-.28-2.14.3C109.7,68,109.76,69.6,110.21,69.84Zm77.84,42.72a.75.75,0,0,0-.43-.2c-.48-.07-1.41-.14-1.71.25a2.92,2.92,0,0,0-.07,2,.88.88,0,0,0,.65.24,5.05,5.05,0,0,1,.87,0l.17,0,.44,0c.05,0,.11,0,.15-.07l0-.52c0-.56,0-1.11,0-1.67Zm-7.3-3.07c-.06,0-.08,0-.1,0h.1c-.77,0-.6.79-.59,1.35,0,.85-.07,1.1.8,1.13.48,0,1.31.17,1.62-.31s0-1.14.08-1.7a.59.59,0,0,1,.07-.2c-.09-.11-.21-.32-.3-.32h-.23A5,5,0,0,1,180.75,109.49Zm-57.77.07c-.41,0-1.47-.15-1.73.21s-.12,1.47-.1,2a.61.61,0,0,0,.14.07.23.23,0,0,0,.1-.15s0,.08,0,.12l-.05.06c.12.07.21.14.31.21a5,5,0,0,1,1.44,0c.74,0,.56-.75.56-1.27s.13-1.14-.65-1.21Zm61.43-45.32H185a.5.5,0,0,1,.39-.24,1.14,1.14,0,0,0,.06-.29.29.29,0,0,1-.07-.16,7.81,7.81,0,0,0-.14-1h0c-.66.41-1,.11-.83,1.18A2,2,0,0,1,184.41,64.24Zm.41,2.82c.53,0,.46-1.18.46-1.51,0-.14.06-.31.06-.46a.52.52,0,0,1-.4-.38h-.64a9.76,9.76,0,0,1-1.48,2,1.94,1.94,0,0,1,0,.34C183.44,67.14,184.23,67,184.82,67.06Zm6.06,17.32a3.24,3.24,0,0,0-2.11,0c-.49.41,0,1.31-.34,1.84l.59.4a1.59,1.59,0,0,1,.27.18l.09.06,0,0a.24.24,0,0,1,.34,0c.38-.2.94.14,1.22-.28a3.47,3.47,0,0,0-.1-2.14ZM106.58,95.6c-.42-.38-1.42.05-2-.22a11.53,11.53,0,0,0-.38,1.91,2.74,2.74,0,0,0,.07.69h0c.66,0,2.56.35,2.45-.69-.06-.49.19-1.33-.2-1.69ZM190.85,95c.38-.34.17-1.45.17-1.86,0-.68-1.63-.63-2.08-.43-.68.31-.24,1.36-.51,2a1,1,0,0,0,.33.45c.47,0,1.68.22,2.09-.13Zm5.29-33.52c.37,0,.54-.46.58-.92a1.59,1.59,0,0,0,.1.45s0,0,0,.05,0,0,0,0c.2.45.64.37.91.37.56,0,1.32.14,1.5-.39a8.08,8.08,0,0,0,.06-1.86A1.16,1.16,0,0,0,199,59a3,3,0,0,0-.84,0c-.36,0-1,0-1.27.28a1.31,1.31,0,0,0-.22.72,2.05,2.05,0,0,0-.16-.62c-.38-.66-1.25,0-1.6-.49l-.26.1a.54.54,0,0,1-.55.43c0,.3-.07.75-.07,1.13a1.7,1.7,0,0,0,.16.74c.31.43,1.49.22,1.91.22Zm-68.63,58.94c.57,0,1.23.17,1.58-.25a3.33,3.33,0,0,0,.07-2c-.18-.31-1.69-.34-2-.17-.56.28-.29,1.14-.43,1.71.07.33.49.57.76.71l.05,0ZM175,106.82c-.38,0-.47.34-.47.72s0,.49,0,.67v.07c0,.13,0,.23,0,.32,0,.41.14.57.73.61.29,0,1.24.17,1.52-.07l.07-.07a3.41,3.41,0,0,0,.26-1.08c0-.4-.18-.76-.18-1.13h0a3.43,3.43,0,0,0-.56-.05Zm-60.26-2.89c-.41,0-1.52-.21-1.87.1s-.2,1.23-.16,1.69c0,.06,0,.1,0,.14a4.1,4.1,0,0,0,.71.55.63.63,0,0,1,.3,0h0c.64-.22,1.35.26,1.44-.72,0-.46.25-1.8-.45-1.8Zm76.18-13.12a3.29,3.29,0,0,1,0-.54,7.46,7.46,0,0,0-1.79-.45h-.42a3.81,3.81,0,0,0,0,2.09c.17.4.46.43.87.45s1.18.16,1.44-.14.05-.84.07-1.26A.2.2,0,0,1,190.92,90.81Zm-8.34,25.83c0-.4.14-.87,0-1.14s-1.24-.37-1.73-.34l0,0c-.2.2-.34,0-.44,0s0,0,0,0,0,0,0,0a3.53,3.53,0,0,0-.21,2.11.6.6,0,0,0,.24.38c.16.09.35,0,.58,0a1.52,1.52,0,0,1,.36-.12,2.65,2.65,0,0,1,.79-.07l.73-.34a.28.28,0,0,1-.18,0,.84.84,0,0,0,.18,0,.51.51,0,0,1-.25-.45Zm-8.52-7-.08,0,.06,0a9.36,9.36,0,0,0-1.76-.07c-.22.49-.45,1-.67,1.46.11.37,0,.76.42,1a3.59,3.59,0,0,0,1.53,0c1-.19.47-1.33.73-2.14a1.51,1.51,0,0,1-.11-.22ZM118,82.68c-.07-.43,0-1.2-.43-1.2a4.93,4.93,0,0,0-1.76,0c-.39.21-.27.79-.3,1.21s-.14.86.17,1.14a2.78,2.78,0,0,0,1.28.31,6.23,6.23,0,0,1,.69-.76l.06-.06h0c.1-.21.19-.44.28-.65Zm19.36,38.19a3,3,0,0,0-1.66-.08c-.47.1-.5.24-.54.73,0,.32-.17,1.34.08,1.59s1.35.15,1.7.15h0c.14-.42.5-.54.78-.8a.3.3,0,0,1,0-.1c-.13-.46.12-1.22-.36-1.49Zm50.81-29c.14-.45.17-1.67-.27-1.94a3.51,3.51,0,0,0-2,0c-.3.25-.17.63-.14,1a.17.17,0,0,1,0,.07,3.16,3.16,0,0,1,0,.69l.7.63c.07,0,.14.08.2.1C187.29,92.16,188,92.66,188.21,91.89Zm-79.34,3.62c-1.1.09-1.66-.22-1.74,1.12,0,.35-.17,1,.12,1.23a.6.6,0,0,0,.47.11h0a.71.71,0,0,1,.54.08s0,0,.06.06c.28-.21.9-.73,1-.21a.37.37,0,0,1,0,.19c.37-.59.63-2.68-.48-2.58Zm76.88-31.77c0,.38.25.48.64.53s1.48.12,1.75-.21a4.36,4.36,0,0,0,.1-1.62c0-.46-.14-.74-.69-.76-.37.12-.75.24-1.1.38a3.6,3.6,0,0,1-.75.34,6.15,6.15,0,0,1,.16,1.13A.19.19,0,0,1,185.75,63.74Zm-61.39,48.65c-.58.2-.35.74-.42,1.24,0,.07,0,.15,0,.22v.09a1.73,1.73,0,0,1,.28.26s0,0,0,.06c.25.2.52.39.77.58a.38.38,0,0,1,.13-.06.57.57,0,0,1,.18,0,.81.81,0,0,1,.31.09.82.82,0,0,0,.69-.2c.25-.28.07-1.43.07-1.8C126.43,112.09,124.81,112.23,124.36,112.39Zm7.08,8.36a4.26,4.26,0,0,0-1.51,0c-.55.26-.39,1.17-.36,1.75v.17a23,23,0,0,0,2.47.64.76.76,0,0,1,0-.15c0-.26.06-.52,0-.79,0-.7.21-1.53-.63-1.67Zm48.68-8.15a7.36,7.36,0,0,0,.57,2.35,3.16,3.16,0,0,1,1.33-.11c.42,0,.5-.21.57-.58a4.2,4.2,0,0,0,0-1.58C182.31,112.09,180.62,112.29,180.12,112.6Zm-4.83-6.16a3.72,3.72,0,0,1,1-.06,1,1,0,0,1,.56.25c-.08-.74-.26-1.47-.31-2.22,0-.28.31-1.57,0-1.7-.1,0-.27.13-.48.37-.58.67-1.41,2.08-1.63,2.3.21.62.07,1.16.91,1.06Zm26.49-36a1.34,1.34,0,0,0-.4-.23h0v0H201l-.32,0-.06,0a2.2,2.2,0,0,1-.83.4,5.43,5.43,0,0,0,0,1.15c0,.35-.05.7.29.9a2.3,2.3,0,0,0,1.15.09l.58-.1V73c-.19,0-.43,0-.68,0a2.18,2.18,0,0,0-1.08.09c-.45.26-.21.82-.2,1.24,0,.78,0,.93.3,1.07.14.06.33.13.64.23.34-.86,1-1.58,1-2.56a.76.76,0,0,0,.11-.47c.12-.62.27-1.23.42-1.84a1.49,1.49,0,0,1-.58-.28Zm-17,5.36a5.82,5.82,0,0,1-1.18,0,15.31,15.31,0,0,0-.48,2,1.49,1.49,0,0,1,.48.52c.55,0,1.46.17,1.73-.26a2.13,2.13,0,0,0,.06-.91c0-.55.15-1.29-.61-1.32ZM177,118.45a.25.25,0,0,1,0,.07.19.19,0,0,0,0-.07v-.06h0c-.11-.51-.54-.42-1-.42s-1.11-.15-1.39.16a2.36,2.36,0,0,0,0,2,.8.8,0,0,0,.35.44v0c.7-.34,1.49-.69,2.25-1a.64.64,0,0,1-.24-.52c0-.19.06-.44,0-.64Zm7.82-17.3a3.65,3.65,0,0,1-1.54-.13,9.52,9.52,0,0,0,0,2.82c.07-.68,1.73.12,2.09-.53a4.11,4.11,0,0,0,.08-1.53c0-.45-.06-.69-.61-.63Zm.54-33.5c0-.25-2.36-.56-2.56.35a6.38,6.38,0,0,0,1.11,2,4.88,4.88,0,0,1,.54-.18.21.21,0,0,1,.25.1.72.72,0,0,0,.58-.17c.36-.41,0-1.59.08-2.07Zm6.49,19.44c-.83.23-.16.83-.5,1.33a.93.93,0,0,1,.13.15,2.82,2.82,0,0,1,.69.24,1,1,0,0,1,.55.74c.36,0,.83.12,1-.18a4.19,4.19,0,0,0,0-2.11c-.3-.34-1.47-.28-1.87-.17ZM119.56,98.81a7.24,7.24,0,0,1-1.23.06,5.45,5.45,0,0,0,0,1.41c.11.54.52.49,1,.5.7,0,1.52.14,1.59-.79-.24-.46-.61-.85-.83-1.33A2.39,2.39,0,0,1,119.56,98.81Zm-2.92-6.23a15,15,0,0,0-1.21,2c.15.55.55.55,1,.55s1.26.18,1.52-.27A4.12,4.12,0,0,0,118,93C117.72,92.45,117.1,92.86,116.64,92.58ZM125,102.77a.35.35,0,0,1,.15.15c0,.13-.1.23-.27.3s-.59-.13-.86-.17h0c.08,0,0,0,0,0,0,.65,1.54.79,2,.56s.42-.62.41-1a.5.5,0,0,1-.41-.54.62.62,0,0,1,0-.19,15.42,15.42,0,0,1-2.16-2.19h0C124,100.8,123.84,102,125,102.77Zm59.85,1.09a5.83,5.83,0,0,1-1.56,0v.61a8.5,8.5,0,0,0,.13,1.88c.7,0,1.87.33,2-.57a6.68,6.68,0,0,0,.07-.88c0-.54-.14-1.09-.65-1.09Zm.1,8.15c.61-.23.45-.68.47-1.27s.22-1.19-.45-1.19a2.62,2.62,0,0,1-1.21-.12c.07.51.12,1,.19,1.61l-.59-.56-.39-.38a1.28,1.28,0,0,1,0,.18c0,.49-.19,1.42.16,1.66a4.52,4.52,0,0,0,1.83.07Zm-.29-13.63c-.35-.14-.78.12-1-.27a8.57,8.57,0,0,0-.33,2.8c.9-.42,2.07.38,2.13-.93,0-.18.07-.59.07-.94a1.06,1.06,0,0,0-.07-.45c-.16-.28-.47-.21-.76-.21ZM113,89.93c-.42.26-.28,1-.26,1.41,0,1.16.52,1,1.53,1h.06A9.61,9.61,0,0,0,115,90h0a3.55,3.55,0,0,0-2-.06Zm85.7-11h-.35a.64.64,0,0,0,.25,0h-.27a.26.26,0,0,1-.24-.24V78.6c-.64-.06-1.32,0-1.36.67,0,.13,0,.3,0,.48a2.54,2.54,0,0,0,.19,1.14.61.61,0,0,0,.37.25.21.21,0,0,1,.18-.07h.79c-.07-.14-.21-.13-.37-.15.17,0,.35,0,.43.15h.14a18.33,18.33,0,0,0,.92-2,4.17,4.17,0,0,1-.63-.1s0,0,0,0Zm-63.33,30.54h-.05c-.16.58-.47,2.44.32,2.54a4.79,4.79,0,0,0,1.73,0c.55-.22.16-.58.42-1a6.76,6.76,0,0,0-2.42-1.56Zm56.32-47.13a2.39,2.39,0,0,1,.31-.42,3,3,0,0,0-.52,0,.74.74,0,0,0-.11.52C191.51,62.32,191.47,62.27,191.68,62.33Zm-.14-.91.06,0c.27,0,.53,0,.8,0h1.34a3.8,3.8,0,0,0,.11-1.61h-.59v-.47a5.38,5.38,0,0,0-.72.3s-.06,0-.08.07a3.57,3.57,0,0,1-1.17.76v.67s0,0,0,0a1.1,1.1,0,0,0,.21.23Zm.66,2.85c.58,0,1.47.21,1.62-.49a5.57,5.57,0,0,0-.1-1.29,1.42,1.42,0,0,0,0-.54c-.22,0-.45,0-.67,0l-.24.14a.29.29,0,0,0,.13-.14q-.45,0-.9,0a2.24,2.24,0,0,0-.33.43c-.19-.06-.17,0-.32.14,0,.92-.28,1.75.84,1.78Zm-14.4,47.65H178a2.61,2.61,0,0,1,.39,0c-.26-.83-.59-1.64-.91-2.46a3.14,3.14,0,0,0-.16.75,2.76,2.76,0,0,0,.06,1.3.75.75,0,0,0,.44.45Zm.45.46-.43,0-.09,0a.42.42,0,0,0-.31.15c-.27.32-.09,1.25-.07,1.62a1.51,1.51,0,0,0,0,.34.64.64,0,0,1,.18.25,1.59,1.59,0,0,0,.76.08c.45,0,1,.12,1.42-.18a.47.47,0,0,0,.14-.14c-.43-.72-.87-1.43-1.32-2.14A1.72,1.72,0,0,0,178.25,112.38ZM118.09,68.17l-2.63-.41c-.85-.11-1.83-.22-2.68-.34a7.72,7.72,0,0,0,0,1.86c0,.77.47.61,1.17.58.48,0,1,.14,1.22-.4s-.14-1,.24-1.61c.44,1-.39,2,1,2,.36,0,1.1.16,1.4-.07s.22-1.28.26-1.62a.15.15,0,0,1,0,0h0s0,0,0,0Zm-12.23,27c1.07.1.93-.78.92-1.67s-.86-.77-1.69-.79a13,13,0,0,0-.45,2.48C105,95.18,105.45,95.11,105.86,95.15Zm11,11.53h0c-1,0-1.07,0-1.33.91a.34.34,0,0,0,0,.14v0c.71.52,1.41,1,2.25,1.57l0,0a2.24,2.24,0,0,0,.35-1.38,2.54,2.54,0,0,0-.1-.81c-.2-.5-.66-.4-1.17-.4Zm3.41-28.35c0-.31,0-.64.07-1-.09-.51-.19-1-.27-1.53H118.9c-.38,0-.46.18-.55.48a6.61,6.61,0,0,0,0,1.54c.2.66,1.2.51,1.88.47ZM173.63,118c-.38,0-.76,0-1.15,0a.25.25,0,0,1-.18.08h-.37a9.36,9.36,0,0,0,.69,2.23,3.73,3.73,0,0,1,.46.09c.33-.12.9.23,1.07-.45,0,0,0,0,0,0a4.34,4.34,0,0,0,.08-.8C174.27,118.54,174.12,118,173.63,118Zm11.27-11.22h-1.5c.11.86.22,1.71.35,2.59.59-.27,1.45.19,1.66-.58.12-.51.24-2-.51-2Zm.47-10.46a1.1,1.1,0,0,1,0-.26.24.24,0,0,0-.28-.27H185a1.87,1.87,0,0,0-1.23,1.3.32.32,0,0,0,0,.09c0,.29-.09.57-.13.87.45,0,1.34.13,1.72-.27a5.61,5.61,0,0,1,0-1.08,3.35,3.35,0,0,1,.07-.37Zm7.31-6.4s0,0,0,0c.24.3,1.1,1.21.57,1.28-.16,0-.59-.3-.74-.36a5.63,5.63,0,0,0-1.11-.39v.05a1,1,0,0,0,0,.17.22.22,0,0,1-.06.2c0,.5-.07,1.17.3,1.4a2.9,2.9,0,0,0,2,0c.38-.29.31-1.47.21-1.9-.13-.59-.6-.46-1.14-.45Zm-87.37,0a3,3,0,0,1-.36.81l.12,1.52,0,.13v0c1,0,1.66.22,1.69-.89,0-.43.16-1.24-.2-1.53s-.86,0-1.27-.07Zm16.42,11.21s-.08-.06-.09-.08l0,0c-.54.3-.82,2.09-.28,2.51.21.17.73.08,1,.08.61,0,1.31.1,1.42-.67a19,19,0,0,1-2.1-1.9.23.23,0,0,0,.09.08Zm17.32,11.19s0,0,0,0c-.27.17-.64,0-.83.28s-.13,1-.14,1.32c-.06,1,.32.85.87,1a.16.16,0,0,1,.17,0,1.64,1.64,0,0,0,.38.1h.08a2.43,2.43,0,0,0,.47-1.3,2.14,2.14,0,0,0-1-1.36ZM201.5,65a.24.24,0,0,1-.14.09h-.05c-.24,0-.71-.05-.9.12s-.17.51-.22.72l-.08.38c0,.06,0,.13,0,.18.49.19,1.26.51,1.55.3.14-.1.21-.85.23-1a3.15,3.15,0,0,0,.05-.52,1.67,1.67,0,0,1-.16-.59h-.08a.25.25,0,0,1-.16.34ZM134.55,112c.36-.51.42-1.82-.23-2a.67.67,0,0,1-.28.1l-.43,0a1.85,1.85,0,0,1-.47,0c-.21.3-.42.59-.65.88a.6.6,0,0,1-.18.7.51.51,0,0,1-.2.28s0,0,0,0h0s0,0,0,0c.68.18,2.1.35,2.41-.07ZM184.93,73a.23.23,0,0,1-.13.06c-.12,0-.24,0-.36,0a.52.52,0,0,1-.38.28.37.37,0,0,1-.05.11v0a7.45,7.45,0,0,1-.3,2c.63,0,1.44.18,1.66-.47.14-.46.26-2-.44-2Zm.45-1.28c0-.31.15-1.08-.07-1.35a.84.84,0,0,0-.63-.18.27.27,0,0,1-.1.06,2,2,0,0,0-.35.11,2.14,2.14,0,0,1,.22,2.21.08.08,0,0,0,0,0l.33,0h0l.1,0c.33-.12.44-.27.44-.9Zm14.07-6.61c0-.48-.54-.56-1-.56-.27,0-.54,0-.73,0-.67,0-.85.69-.75,1.31a1.67,1.67,0,0,0,.2.62c.74-.72,1.57-.31,2.45-.14a1.34,1.34,0,0,1-.09-.26,4.85,4.85,0,0,1,0-1Zm-17.52,44.09h.31a8.85,8.85,0,0,1-1.07-2.59.87.87,0,0,0-.31.14.26.26,0,0,1-.35,0c-.36.07-.46.55-.46,1a9.77,9.77,0,0,0,.12,1c.16.66,1.09.52,1.76.46Zm2.27-28c.35-.23.74,0,1.05-.27s.12-1.34.14-1.75c.05-.77-1-.47-1.63-.46,0,0,0,.1,0,.15a.53.53,0,0,1-.13.34c.18.68.35,1.31.55,2ZM191,96.15a.15.15,0,0,1,0-.11c0-.86-1.49-.53-2-.52a0,0,0,0,0,0,0A20,20,0,0,1,190,98H190c-.05,0-.06,0-.06,0,.34,0,.82.1,1-.19s.1-1.17.09-1.64ZM119.09,73c-1-.08-.75,1-.74,1.68,0,1.19.85.53,1.66.93l-.54-2.93A.32.32,0,0,1,119.09,73Zm54.84,36.09c.32-.25.21-.8.21-1.17h0c0-.56,0-.87-.21-1-.05,0-.07-.08-.13-.08h-.65c-.29.78-.55,1.57-.79,2.38h0c.38,0,1.2.15,1.54-.1ZM129.2,121.28c0,.12,0,.25,0,0s0-.09,0,0c-.08-.62-1-.56-1.66-.5a.25.25,0,0,1-.31.08l-.11,0a7.18,7.18,0,0,0,0,.8.19.19,0,0,0,0,.08v0a.76.76,0,0,0,.34.53,6.94,6.94,0,0,0,1.91.47.75.75,0,0,1-.06-.13,3.69,3.69,0,0,1-.11-1.28ZM118.48,97.76a4.12,4.12,0,0,0,.93-.05,1.17,1.17,0,0,0,.44-.18q-.1-.8-.27-1.59a1.58,1.58,0,0,1-.27-.31,1,1,0,0,1-.1-.17c-.32.06-.69.09-.84.38a3.72,3.72,0,0,0,0,1.49A.88.88,0,0,0,118.48,97.76Zm66.46,17.4c-.42,0-1.49-.21-1.84.1-.18.15-.21.75-.2,1.22,0,.24,0,.47,0,.58l2.2-1a1.06,1.06,0,0,1,.28-.57l-.06-.14a.41.41,0,0,0-.41-.21Zm15.06-51a1.12,1.12,0,0,0,.73.18.15.15,0,0,1,.11-.08,1.21,1.21,0,0,1,.28-.08l.09,0a1.56,1.56,0,0,1-.26-.94,1.34,1.34,0,0,1,.31-1.17c0-.07.05-.14.07-.22a4,4,0,0,0-.7,0,1.18,1.18,0,0,0-.34,0c-.56.16-.49.45-.49,1,0,.39-.13,1,.2,1.32Zm-81.43,5.6a1,1,0,0,0,.39,0H119a7.48,7.48,0,0,0-.22-.83,1.83,1.83,0,0,0-.27-.51l-.21-.1a5.35,5.35,0,0,1,0,.9,1.2,1.2,0,0,0,.26.58Zm-.22,1.85h0v0c0,.1,0,.25,0,.33s0-.12,0-.22c0,1,0,1,1.12,1a.74.74,0,0,1,0-.18c-.06-.48-.16-1.45-.31-2.37a.15.15,0,0,1-.09,0,1.72,1.72,0,0,1-.39,0c-.08.13-.24.24-.3.39a3.43,3.43,0,0,0,0,1v0ZM115.51,86s0,0,0,0c0,.39.11.61.39.7a1.4,1.4,0,0,1,.11-.4.78.78,0,0,0,0-.09,5.81,5.81,0,0,1,.74-1.64c-.48.08-.95,0-.93.77,0-.06,0-.13,0-.17s0,.07,0,.14h0a2.14,2.14,0,0,0,.11.83.46.46,0,0,1-.07-.1,2,2,0,0,1-.07-1c.15-.48.56-.41.94-.51,0-.07.1-.14.15-.21a3.82,3.82,0,0,0-1.2.06.34.34,0,0,0-.17.22A3.84,3.84,0,0,0,115.51,86Zm3.65,23.6c-.27,0-.55,0-.76.18,0,0,0,0-.06.06a28.57,28.57,0,0,0,2.31,1.75l.17.08v0c0-.26,0-.59,0-.9a1.47,1.47,0,0,0-.17-.83c-.31-.44-1.08-.31-1.53-.31Zm-.48-28.18v0A9,9,0,0,1,120.11,79a.7.7,0,0,0,0-.14.9.9,0,0,1,0-.16,4.84,4.84,0,0,0-1.32.06c-.85.21-.61,2-.21,2.53l0,.06Zm13.25,31.09c-.67.82-1.41,1.59-2.15,2.35.55,0,1.79.25,2.18-.2s.13-1.49.08-2.09c0,0-.07,0-.11-.06Zm54-16.55v0c0,.22-.09.45-.12.69a5.44,5.44,0,0,0,0,1,.53.53,0,0,0,.52.33c.49,0,1,0,1.48,0h.2a9,9,0,0,0-2.11-2.06Zm-5.74,10.26a.36.36,0,0,0,.16.18.51.51,0,0,0,.22.07h0l.11-.08a1.27,1.27,0,0,1,.23-.12,1.12,1.12,0,0,1-.38-.48,1,1,0,0,1-.09-.42.93.93,0,0,0,.09.4,1.34,1.34,0,0,0,.39.5.73.73,0,0,1,.2,0,17.87,17.87,0,0,1-.4-4.38s-.09,0-.14,0c-.11.64-.24,1.31-.35,2,0,.29-.11.57-.17.86v.48c0-.15,0-.23.05-.24.38.26-.15.91.07,1.29ZM179.4,118h-.07l0,0h0c-.52,0-1.56-.29-1.94.26a1.06,1.06,0,0,0-.11.7c0,.21.05.42,0,.59l2.47-1.1c-.11-.15-.18-.36-.39-.42Zm6-35.5c0-1-.26-.88-1.09-1.16a10.29,10.29,0,0,1,.46,2.4,2.7,2.7,0,0,0,.11,1,.54.54,0,0,0,.37.31,1,1,0,0,0,0-.18.35.35,0,0,1,.05-.18,1,1,0,0,1-.19-.78c.06-.22.27-.35.33-.59a4.14,4.14,0,0,0-.05-.79Zm-66.26,10a1.09,1.09,0,0,0-.83,1.28c0,.86.17,1.2.81,1.28a1,1,0,0,1,.24-.79c-.07-.59-.15-1.18-.22-1.77ZM200.39,61.4h.52a1.48,1.48,0,0,1,.55.13l.13-.22a13.74,13.74,0,0,0-1.8-2.08,1.18,1.18,0,0,1,.05.37c0,.32-.08.66-.08.94h0C199.73,61.32,200,61.4,200.39,61.4Zm-88.65,42.74a7.81,7.81,0,0,1-1.08,0,3.54,3.54,0,0,1,.69,1.08c.31.23.63.45,1,.66a.93.93,0,0,1,.06.3c0-.14,0-.37,0-.61,0-.66,0-1.39-.65-1.38Zm-2.4-5.93a15.9,15.9,0,0,0-1,2.59c.27,0,.86.07,1.07-.12s.14-.74.14-1.16h0c0-.41.14-1.06-.21-1.31Zm9.86-8.4h-.1c-.24.1-.52,0-.68.31s0,.86,0,1.15c0,.76-.06.92.7,1.2-.17-.37-.45-.62-.45-1.06,0,.41.3.69.45,1h0a23.3,23.3,0,0,1,.1-2.64Zm-14.79,8.51h0c.06.34,1.1.91,1.83,1.1a.55.55,0,0,0,.11-.1,1.24,1.24,0,0,0,.31-.45c.05,0,.07-.11.12-.18C106.52,98,105,98.32,104.41,98.32Zm93-16.84h0s-.06,0-.07,0c-.25.09-.38.3-.39.82v.48a8,8,0,0,0,.11,1.46c.37-.91.73-1.79,1.11-2.77Zm-88.54,19.64a.56.56,0,0,1-.59-.23.61.61,0,0,0,0,.53,2.08,2.08,0,0,0,.29.66c.16.17.31.35.47.53a1.8,1.8,0,0,0,.19.21l.34.31c.06-.69.31-2.09-.65-2Zm27.51,22.47a0,0,0,0,1,0,0h-.15a1.12,1.12,0,0,0-1.24.62.3.3,0,0,0,0,.1c.28.14,1.15.63,1.5.49s.44-1,.51-1.29h0a1.84,1.84,0,0,1-.51.1Zm-9.29-20a3.42,3.42,0,0,0,1.51,0l-.09-.13-.24,0,.23,0a3.59,3.59,0,0,1-.21-.38L127,102.4a.51.51,0,0,1-.16.13,1.35,1.35,0,0,0,1.32.88,1.42,1.42,0,0,1-1.36-.86.17.17,0,0,1-.1,0C126.71,103,126.75,103.4,127.13,103.57Zm2.62,5.46c.11.18.29.27.37.46h0c-.55.15-.42.51-.42,1a6.33,6.33,0,0,0-.09,1,.49.49,0,0,0,.32.45h0a1,1,0,0,0,.06-.36c.05-.45.11-1.23.15-1.7,0-.19,0-.33,0-.41a.34.34,0,0,0,0-.24s0,0,0,0,0-.06,0-.07a8.7,8.7,0,0,0,.08-1.26c0-.25,0-.52,0-.77a.54.54,0,0,1-.4-.37.61.61,0,0,0-.28.4.84.84,0,0,0,0,.18v.1c0,.22,0,.45,0,.63a1.73,1.73,0,0,0,.18.92Zm60.16-47.54.07,0h-.07c.59,0,.82-.14,1-.41v-.43a6.56,6.56,0,0,1-.92.14l-.69.25-.8.33s0,0,0,0a5.06,5.06,0,0,0,1.45.13s0,0,0,0ZM190,98.8h0a5,5,0,0,1,.57,2.36,1.94,1.94,0,0,0,.39-1.8C190.87,98.83,190.53,98.8,190,98.8ZM104.74,66.62h0v.09c.09.45.84.39,1.22.38s.78-.43,1.24-.48c0,.3.18.42.45.47a8.87,8.87,0,0,0,1.93-.13.46.46,0,0,0-.23-.06,12.79,12.79,0,0,0-2.14-.28h0c-.81-.24-1.67-.22-2.5-.42A.68.68,0,0,1,104.74,66.62Zm80.09,23.27c-.44,0-.89,0-1.32,0l1.86,1.44v-.28a.24.24,0,0,1,.07-.19c0-.49,0-1-.61-1Zm-61.92,22.67a3.74,3.74,0,0,1-.88-.07h0a.91.91,0,0,1,.13.19s0,0,0,.06a11.62,11.62,0,0,0,1,.89,2.29,2.29,0,0,1,.34.07.47.47,0,0,0,0-.17v0a.25.25,0,0,1,.19-.22c-.05-.44-.19-.79-.71-.72Zm75.15-53.9a6.54,6.54,0,0,1,1,0h.16a2,2,0,0,0-.91-.76,1.63,1.63,0,0,0-1.44.29A1.19,1.19,0,0,0,198.06,58.66Zm-81.3,33.71c.75,0,1.23.13,1.24-.73V90.5a.21.21,0,0,1-.11,0h0A21.31,21.31,0,0,0,116.76,92.37Zm71.83,6.89a1.79,1.79,0,0,0,0,1.1.89.89,0,0,0,.63.35l.45.09a6.33,6.33,0,0,0-1-1.93,2.7,2.7,0,0,1-.08.39Zm-.06,13.79c0,.34,0,.68,0,1,0,.16,0,.31,0,.47l.26-.26.15-.12a1.15,1.15,0,0,1,0-.26,15.91,15.91,0,0,1,.16-1.64A.92.92,0,0,0,188.53,113.05Zm11.24-36.62c0,.08,0,.17,0,.28v0c0,.1,0,.07,0,0,0,.31,0,.64,0,1a11.7,11.7,0,0,0,.86-1.79A1.46,1.46,0,0,0,200,76c-.14,0-.18.17-.2.45ZM134.18,123.6h0l0,0c-.31,0-.62,0-.93,0h-.31a14.1,14.1,0,0,0,1.92.68s0-.07,0-.11v-.09c0-.38-.25-.52-.69-.48Zm56-36.52h-.36a7.06,7.06,0,0,0,1.24,1c.12-.84,0-1-.88-1ZM114.46,107h-.07a.49.49,0,0,1-.19-.07,1.66,1.66,0,0,1,.13.14,3.59,3.59,0,0,0,.82.7s0,.06,0,.12h0a3.1,3.1,0,0,0,0-.46c-.06-.31-.23-.43-.69-.44Zm24.32,5a2.41,2.41,0,0,0-.42-.48.59.59,0,0,1-.32-.28s0,0,0,0C138,112,138,112,138.78,112ZM128,117.64h0c1.1,0,1.18-.24,1.24-1.31v-.2c0-.86-.27-.88-1.23-.88s-1.23,0-1.26,1v.29a1.69,1.69,0,0,0,.1.75.54.54,0,0,0,.46.31,4.31,4.31,0,0,0,.68,0ZM116.81,73h-.16c-.9,0-1.05.19-1.05,1.21v0h0c0,1,.14,1.21,1.22,1.23s1.21-.14,1.27-1.23S117.86,73.05,116.81,73Zm-1.23,29.67c0,.53,0,.76.52.87a4.84,4.84,0,0,0,1.37,0c.72-.11.53-.67.53-1.31s0-1.12-.84-1.15c-.37,0-1.17-.16-1.48.13s-.11,1.08-.1,1.46Zm-1.64-4.33c-1.06,0-1.16.11-1.16,1.16,0,.79,0,1.17.79,1.24a2.89,2.89,0,0,0,1.44-.07c.29-.21.23-.84.26-1.19v-.16c0-.87-.41-1-1.33-1ZM134,115.17c-.34,0-1.21-.15-1.48.09s-.14,1.17-.16,1.57c-.06,1,.66.82,1.42.81s1,0,1-.75S135.07,115.17,134,115.17ZM109.91,74.49c0,1.12.55,1,1.56,1,.81,0,.89-.26.89-.84v-.06c0-.14,0-.29,0-.46,0-1.1-.15-1.1-1.22-1.1h0c-1.07,0-1.23.24-1.23,1.14Zm1.25,17.89c1,.07,1.21-.08,1.21-1.11v-.18c0-.94-.11-1.16-1.19-1.16s-1.18.15-1.21,1.19c0,.12,0,.22,0,.33C110,92.23,110.19,92.31,111.16,92.38ZM132,116.43c0-.8,0-1.26-.84-1.27-.39,0-1.08-.11-1.41.13a.81.81,0,0,0-.21.64c0,.17,0,.36,0,.5v.25c0,.77.21.91,1,.95h.26c1.08,0,1.23-.13,1.23-1.21ZM115.53,80.18c0,1.06.53,1,1.5.95s1-.17,1-1.09c0-1.12,0-1.43-1.21-1.37s-1.29.33-1.26,1.51Zm-3.14,13.69c-.1-1-.23-1.16-1.25-1.16s-1.23.15-1.23,1.22.18,1.16,1,1.23h.23c1.12,0,1.31-.18,1.21-1.3Zm1.53-18.29c1.11,0,1.27-.16,1.27-1.26s-.2-1.27-1.32-1.27-1.14.27-1.14,1.28,0,1.25,1.19,1.25Zm19.76,39.26c1,0,1.18-.19,1.18-1.21s0-1.25-1-1.27h-.42c-.85,0-1.1.13-1.1,1.2h0c0,1.12.18,1.28,1.31,1.28ZM114,70.24c-1.14,0-1.2.32-1.24,1.39v.1c0,1,.45,1,1.44,1s1-.33,1-1.12v-.35c0-1-.24-1-1.24-1Zm23.65,42.33c-.21-.32-.7-.18-1-.17-1.08,0-1.56-.18-1.56,1.07s.21,1.37,1.37,1.37h.18c.84,0,1.05,0,1.07-1,0-.18.06-.53.06-.81a.93.93,0,0,0-.09-.44Zm-8.36.73v.31c0-1.09-.15-1.31-1.25-1.31s-1.22.19-1.22,1.24,0,1.25,1,1.27h.31c.91,0,1.17-.12,1.17-1.21a2.16,2.16,0,0,1,0-.31ZM119.61,104c-1.1,0-1.26.14-1.26,1.24s.27,1.23,1.44,1.22c1,0,1-.32,1-1.24S120.65,104,119.61,104Zm2.81,2.8H122c-.65,0-.82.15-.83,1,0,1.14-.07,1.54,1.17,1.55.29,0,.94.13,1.16-.17s.07-1.07.1-1.38C123.71,106.65,123.41,106.76,122.42,106.75Zm-11.54-20h.65c.69,0,.86-.13.86-1,0-1.14-.23-1.47-1.41-1.46s-1,.32-1,1.28.07,1.18.95,1.21Zm6,17.26c-1.09,0-1.26.13-1.3,1.21v.17c0,1,.25,1,1.32,1s1.14-.25,1.15-1.28V105C118,104.07,117.86,103.86,116.83,104Zm.85-5.5a2.06,2.06,0,0,0-.9-.11c-.94,0-1.28,0-1.25,1s.11,1.4,1.22,1.4,1.28-.18,1.25-1.3v-.18a2.21,2.21,0,0,0-.08-.54A.45.45,0,0,1,117.68,98.5Zm-2.17-27.57a4,4,0,0,0,.06,1.5c.27.47,1.26.34,1.77.27.82-.1.69-.79.68-1.48,0-1-.34-1-1.31-.94-.69.06-1.09-.28-1.2.65Zm9.3,35.48c.87,0,1.55.15,1.61-.83s.07-1.52-1.07-1.62c-.88-.07-1.34-.17-1.4.8s-.15,1.59.86,1.65Zm-7.71-10.9h-.38c-1.18,0-1.29.62-1.18,1.71.08.92.73.76,1.53.75.36,0,.67,0,.88-.24a3,3,0,0,0,.11-1.41C118,95.59,117.66,95.51,117.1,95.51Zm10.31,8.42c-.78,0-.61.45-.61,1.07s-.23,1.17.36,1.38a4.38,4.38,0,0,0,1.73,0c.49-.2.34-.72.28-1.18a4.41,4.41,0,0,0,.06-.55v0a.33.33,0,0,1,0-.14.49.49,0,0,0,0-.12c-.1-.14-.22-.27-.33-.41a5.27,5.27,0,0,0-1.48,0Zm5.73,16.86c-.93.08-.82.84-.76,1.66s.68.83,1.49.81c1.07,0,1.07-.4,1-1.4s-.58-1.18-1.69-1.07ZM116.78,75.85c-1,0-1.2.17-1.25,1.18,0,.13,0,.26,0,.37,0,.79.23.93,1.21.93s1.25-.14,1.25-1.24h0C118,76,117.83,75.85,116.78,75.85Zm-5.6,8.08c1,0,1.21-.19,1.21-1.23s0-1.24-1.17-1.24S110,81.61,110,82.7s.16,1.23,1.22,1.23Zm16.9,22.89c-.36,0-.85-.1-1.1.19a2.79,2.79,0,0,0-.21,1.26c-.09,1.19.62.94,1.62.91s.85-.13.85-1C129.24,107.08,129.23,106.82,128.08,106.82Zm-20-11.68c.19,0,.37,0,.54,0,.5,0,.9-.07,1-.73.08-.9.19-1.72-.82-1.73h-.16c-.16,0-.49,0-.77,0a1,1,0,0,0-.56.11c-.25.22-.14.76-.12,1.08h0c0,1,0,1.24,1,1.27Zm.9-10.88c-.43,0-1.21-.15-1.6.06s-.22.86-.22,1.27c0,1,0,1.14,1,1.15.54,0,1.11.13,1.34-.44s.32-2.06-.54-2Zm28.48,33.87v0a1.06,1.06,0,0,0-.58-.17c-.12,0-.26,0-.46,0-.4,0-1-.14-1.22.35a5.46,5.46,0,0,0,0,1.34c0,.8.36.81,1.06.8a2.34,2.34,0,0,0,1.19-.18,4.32,4.32,0,0,1,0-.8C137.42,119,137.45,118.58,137.46,118.13Zm-17.81-17c-1.16,0-1.24.27-1.31,1.41-.06,1,.27,1.06,1.2,1.06s1.25-.07,1.26-1,0-1.42-1.15-1.42Zm-8.46,2.47c1,0,1.1-.29,1.18-1.3s-.11-1.18-1.16-1.18c-1.23,0-1.31.34-1.3,1.52C109.93,103.67,110.21,103.61,111.19,103.6Zm4-24.3c0-.35-.12-.62-.6-.62-.64,0-1.63-.37-1.86.38a1.39,1.39,0,0,0,0,.41c0,.29,0,.62,0,.81s0,.13,0,.19a.64.64,0,0,0,.16.53,3.18,3.18,0,0,0,1.91.09.58.58,0,0,0,.4-.62c0-.16,0-.34-.06-.54h0c0-.2,0-.41,0-.62Zm-4.11-6.6h.27c1,0,1-.13,1-1.21s-.3-1.25-1.44-1.27c-1,0-1,.31-1,1.24s.15,1.23,1.16,1.24Zm1.16,22.89c-.3-.24-1-.07-1.32-.06-1,.06-1.06.12-1,1.07,0,.27-.1,1.07.14,1.28s.77.09,1.05.09c.45,0,.48,0,.35,0,.88,0,1-.31,1-1.36,0-.24.07-.8-.17-1Zm-2.34-18.36a1.71,1.71,0,0,0,.35,1c.3.21.75,0,1.07.06,0,0,.1,0,.14,0s0,0,0,0,.1-.11.21-.11h.45v0a5.77,5.77,0,0,0,.27-.92,2,2,0,0,0-.16-1.12c-.31-.58-1.09-.42-1.67-.32s-.79.63-.72,1.36Zm.41,3.88c.45.14,1.77.2,2-.28a2.46,2.46,0,0,0,.14-.91,2,2,0,0,0-.28-1.24h-.48a.2.2,0,0,1-.14,0c-.57,0-1.41-.16-1.65.35a1.89,1.89,0,0,0-.13.74C109.81,80.33,110,81,110.32,81.11Zm12.07,22.82c-.57,0-1.08-.11-1.25.52a2.73,2.73,0,0,0,.2,1.81c.29.29,1.31.22,1.7.16.69-.09.6-.6.55-1.22C123.7,103.74,123.59,104,122.39,103.93Zm2.77,8c1,0,1.27-.1,1.28-1.17s-.09-1.25-1.14-1.26-1.32,0-1.33,1.11,0,1.34,1.19,1.32ZM112.88,81.55a3,3,0,0,0-.36,1.73c0,.72.12.72.83.72v-.07h1.05c.56,0,.63-.5.63-.92s.24-1.22,0-1.45a3.45,3.45,0,0,0-2.11,0Zm-.49,6.57c0-.55.18-1.07-.56-1-1.07,0-1.8-.28-1.87,1-.06,1.07,0,1.44,1.09,1.46.3,0,1,.13,1.2-.11S112.39,88.46,112.39,88.12Zm15.83,24c.95,0,1-.39,1-1.16v-.34c0-1-.22-1-1.22-1-1.15,0-1.11.19-1.17,1.24,0,.21-.07.46-.08.68a.59.59,0,0,0,.17.51c.25.24,1,.13,1.28.11Zm-14.19-11c-.78,0-1.35-.08-1.29.82,0,.22.11.46.11.69s-.11.43-.07.56c.19.57,1.16.42,1.68.39.93,0,.73-.5.76-1.29,0-1.06-.1-1.17-1.19-1.17Zm-6.23-20c.58,0,1.61.23,1.78-.45a8.8,8.8,0,0,0,0-1.36c0-.35.07-.61-.38-.62a5.73,5.73,0,0,1-1.24,0c-.8-.14-.89.26-.86,1s-.24,1.42.66,1.47ZM134,118c-.35,0-1.1-.16-1.38.06-.46.32-.15,1-.18,1.43,0,.17,0,.27,0,.32a1.49,1.49,0,0,0,0-.21c0,1.06.6.9,1.63.85s.76-.34.78-1.19,0-1.22-.84-1.26ZM108.87,75.85a11.1,11.1,0,0,0-1.29,0c-.62.13-.51.8-.48,1.3,0,.95,0,1.09.93,1.11.66,0,1.33.34,1.53-.44S109.79,75.77,108.87,75.85Zm-1.81-7c0,.21,0,.42,0,.53.08.52.36.61.81.61h.21c1.24,0,1.45,0,1.45-1.31,0-.51,0-.9-.52-1.09s-1.41-.37-1.73,0A2.36,2.36,0,0,0,107.06,68.82Zm2.39,5.92h.11c0-.56.16-1.28-.44-1.48-.42-.15-1.8-.25-2,.19a5,5,0,0,0-.06,1.11,2.24,2.24,0,0,0,0,.73c.19.38.51.42.92.41h0l0,0c1.08,0,1.42.34,1.42-.93Zm-2,17.56a3.42,3.42,0,0,0,1.93,0c.41-.31.19-1.53.17-2s-.87-.37-1.28-.39-.87-.14-1.11.18-.14,2,.29,2.21Zm-2.94-22.57a1,1,0,0,0,.57.14c.36,0,1.16.17,1.46-.07s.21-.91.21-1.32.11-.83-.28-1a5.48,5.48,0,0,0-1.94,0,.76.76,0,0,0-.13.44,4.61,4.61,0,0,1-.08,1,8.45,8.45,0,0,1,.19.84Zm21.91,37.81c0-.81-.34-.88-1.21-.88s-1.28.1-1.28,1v.21c.06,1.08.14,1.36,1.24,1.38.29,0,.91.11,1.12-.15a1,1,0,0,0,.12-.63c0-.2,0-.41,0-.55v-.11c0-.07,0-.17,0-.22ZM115.19,85.8c0-.94.1-1.49-.94-1.52-.86,0-1.38-.24-1.48.69-.11,1.1-.2,1.56,1,1.71,1,.12,1.41.23,1.45-.88Zm-6.77,1.32c-1.26,0-1.15.3-1.24,1.38,0,.13,0,.24,0,.35,0,.73.32.79,1.28.78s1.16-.17,1.15-1v-.14c-.06-1.05-.11-1.37-1.22-1.37h0v0Zm2.11,13.66c.56,0,1.32.16,1.58-.38a2.75,2.75,0,0,0,.22-1.32c-.19-.84-1-.8-1.7-.77-.93,0-.89,1.19-.87,1.85s.21.62.77.62ZM107.35,84.1a2.82,2.82,0,0,0,2-.22c.45-.38.58-2.46-.28-2.42h0a4.52,4.52,0,0,0-1.72.3c-.34.23-.21,1-.21,1.42h0C107.11,83.6,107,83.88,107.35,84.1Zm7.42-8.21c-.4-.14-1.71-.15-2,.23a3.59,3.59,0,0,0-.09,1.48c0,.39,0,.73.53.73a6.21,6.21,0,0,0,1.62,0c.36-.22.29-.82.31-1.27S115.27,76.08,114.77,75.89Zm.43,12.29c0-.72-.11-1.07-1-1.1s-1.55-.14-1.55.79.17,1.64,1.23,1.68l-.05,0,.09,0c.22,0,.42,0,.59,0a.74.74,0,0,0,.51-.19,1.25,1.25,0,0,0,.21-.81c0-.13,0-.24,0-.35Zm16,29.79a.34.34,0,0,0-.1,0c-.92,0-1.33,0-1.42,1-.07.82-.23,1.52.77,1.49.76,0,1.5.06,1.6-.8s.15-1.69-.85-1.69ZM118.37,108c.08,1,.36,1.12,1.36,1.18s1.17-.23,1.1-1.14c-.1-1.07-.24-1.34-1.32-1.32S118.28,107,118.37,108ZM105.45,72.62a1.52,1.52,0,0,0,1,.07c.48-.23.56-2.42,0-2.42a4.11,4.11,0,0,0-1.81.11l.55,1c.31.34-.06,1,.29,1.26Zm.55,8.84c-1,0-.8.55-.8,1.38s.06,1.26,1,1.09c.76-.13.55-.87.53-1.54s0-.93-.76-.93Zm.25,2.82-.22,0h0c-.37,0-.64,0-.78.45s-.2,1.69.15,2a.89.89,0,0,0,1.38-.51c.1-.57.25-1.75-.51-1.88Zm-.33,5.27c1.14,0,.86-1,.84-1.88,0-.55-1-.87-1.39-.52-.24.2-.23.7-.2,1.11a1.79,1.79,0,0,1,.23,1.21,1.1,1.1,0,0,0,.52.08Zm.84-10.36c0-.52-.63-.62-1-.44s-.35.62-.53,1v.42c0,.72.11,1,.88.93,1-.06.68-1.13.69-1.94Zm-1.24-3.51a1.59,1.59,0,0,0,1,0c.21-.13.34-.69.34-1.26s-.12-1-.38-1.13c0,0,0,0,0,0v-.07l-.21,0h0c-.83-.11-1,.74-1,1.52,0,.42-.12.73.21.94Zm.66.16c-.52,0-.78,0-.87.55s-.22,1.7.34,1.92a.81.81,0,0,0,1.11-.57c.11-.59.27-1.89-.58-1.9Zm6.62,22c.26.34,1.78.31,2.08.15.6-.32.34-2,.18-2.56-.36.74-.74,1.47-1.11,2.18l-.13,0v-.12c.07-1.43.16-2.85.23-4.28,0-.14.08-.3.13-.44l-.06,0a1.25,1.25,0,0,1-.21.1s-.11-.07-.11-.12c-.23,0-.74,0-1.16,0v0s0,.06-.07.09a3.45,3.45,0,0,0,.06,2c.19.41.79.31,1.19.31,0,.56-.46.23-.76.32-.46.16-.08.07-.15.38s-.48,1.52-.11,2Zm74.34-28.07a.24.24,0,0,1,.22.16,1.46,1.46,0,0,0,.3,0c.51-.09.53-.24.55-.75a4.28,4.28,0,0,0,0-1.29c-.15-.48-.42-.36-.87-.36-.79,0-1.52-.33-1.55.65,0,.51-.15,1.21.14,1.63C186.32,69.75,186.73,69.73,187.14,69.73Zm.9.56c-.1-.08-.75,0-1.06-.08s-.66,0-1,0a1,1,0,0,0-.21,1c.14.74-.33,1.36.69,1.43.7,0,1.6.25,1.74-.55.06-.36.17-1.59-.18-1.86Zm8,11.17c-.19,0-.39,0-.53,0s-.39,0-.62,0a.83.83,0,0,0-.58.16c-.28.28-.12,1.09-.12,1.45-.06.21-.12.28-.16.28s-.19-.54-.19-.75h0c0-.79,0-1.07-.85-1.1-.18,0-.38,0-.59,0-.45,0-.89.09-1,.54s-.08,1.64.33,1.91c.8.49,2.05-.38,2.94,0a4.9,4.9,0,0,0,1.71,0c.37-.19.31-.52.33-.91s.19-1,0-1.32a.76.76,0,0,0-.65-.22Zm-1.9-15.16a1.92,1.92,0,0,1,0-.22.41.41,0,0,0,.07.22h0c0,.42-.05.68.36.79a1.8,1.8,0,0,0,.5,0,5,5,0,0,0,1-.1.78.78,0,0,0,.59-.63h0a1.47,1.47,0,0,0,0-.36,1.61,1.61,0,0,0,0-.9.59.59,0,0,0-.64-.61,8.34,8.34,0,0,0-.93.11c-.76.13-.78.52-.92,1.11C194.1,65.93,194.14,66.12,194.14,66.3Zm-1.53,28.87c1,0,1.21-.16,1.21-1.18v0c0-1.09-.14-1.28-1.25-1.28s-1.21.24-1.21,1.14v.33C191.37,95.11,191.68,95.17,192.61,95.17ZM190,67.42c-.86,0-1.38-.16-1.43.81q0,.33,0,.63c0,.62.12,1.08.94,1.07s1.53,0,1.56-1c0-.2,0-.38,0-.54,0-.66-.15-1-1.06-1Zm2.18,19.35a3.21,3.21,0,0,0,1.45-.11c.44-.3.23-.82.25-1.24,0-.11,0-.21,0-.32s0,0,0-.08,0,0,0,.07c0-.57-.16-.83-.88-.83s-1.42-.14-1.6.57-.19,1.84.77,1.94Zm-5.8-19.71v0c.57,0,1.69.22,1.71-.55,0,0,.1,0,.1,0s.08-.18.07-.26c0-.36.18-1.35-.23-1.52a2.17,2.17,0,0,0-1.84-.1l.1,0-.24.07-.07,0a.7.7,0,0,1-.23.28.1.1,0,0,1,0,0,7.48,7.48,0,0,0-.19,1.56c-.14.66.41.45.83.45Zm9,3.16c-.41,0-.82-.07-1,.31a3,3,0,0,0-.13,1.4c.06.94.86.8,1.67.76,1,0,.82-.71.82-1.59s-.41-.86-1.32-.88Zm-4.83,11.3a9.19,9.19,0,0,0-1.07-.13,1,1,0,0,0-.73.2,3,3,0,0,0-.11,1.86c.14.45.49.49.88.49H190l.48,0a.54.54,0,0,0,.44-.16c.22-.22,0-.87.08-1.18a2.12,2.12,0,0,0,0-.34v.06h0v0h0a.13.13,0,0,0,0-.06c0-.13,0-.09,0,0,0-.38,0-.62-.57-.71Zm2.42-11.61c.84,0,.92-.26.92-.87v-.46c0-1.11-.15-1.16-1.23-1.16s-1.25.17-1.25,1.26c0,.12,0,.28,0,.45a.88.88,0,0,0,.24.69c.3.22,1,.09,1.34.09Zm-5.06,6a3.72,3.72,0,0,0-1.41,0c-.49.06-.62.11-.69.63a8.19,8.19,0,0,0,0,.85,2.25,2.25,0,0,0,.05.63c.12.31.33.35.61.37v0c.14,0,.17,0,.25,0h0v0c.57,0,1.41.24,1.58-.49a.31.31,0,0,0,0-.1,4.14,4.14,0,0,0,.06-.66c0-.49-.13-1-.46-1.17Zm.87,5.18c.34.29,2,.32,2.22-.19A2.19,2.19,0,0,0,191,80a2,2,0,0,1-.15.87,5,5,0,0,0,0-2,5.21,5.21,0,0,0-2.14-.14C188.35,78.89,188.15,80.83,188.73,81.06Zm3.85-2.41c-1.19,0-1.24.31-1.21,1.46s.41,1,1.4,1,1.08-.19,1.07-1.23-.15-1.25-1.26-1.25ZM193.78,65c-.23-.35-.65-.24-1-.38-1.1,0-1.32-.08-1.38,1.07a4.19,4.19,0,0,0,0,.48c0,.59.16.87,1,.9s1.46.21,1.52-.75c0-.17,0-.49,0-.77a1.29,1.29,0,0,0-.1-.55Zm-7.56,16.14a1.1,1.1,0,0,0,.65-.06h0c.13,0,.27,0,.38,0,.38,0,.69,0,.82-.51a3.46,3.46,0,0,0-.08-1.78,1.19,1.19,0,0,0-.85-.23,3.58,3.58,0,0,0-.93.1c-.62.18-.56.7-.56,1.28v0C185.66,81,185.65,81.14,186.22,81.13Zm12.63-19.28h-.3c-.93,0-1.52-.21-1.56.88s-.06,1.51,1.12,1.49c.33,0,1,.17,1.25-.12s.16-1.11.15-1.43c0-.63-.18-.8-.66-.82Zm-10.18,8.53c-.27.27-.08.9-.07,1.21,0,.48-.15,1.08.48,1.11s1.76.35,1.93-.58c.08-.4.19-1.56-.21-1.85a3.43,3.43,0,0,0-2.13.11Zm8,6.26c0-.89-.42-.77-1.25-.77-1.07,0-1.22.14-1.24,1.21v.12c0,.71,0,1.06.82,1.11.41,0,1.15.13,1.46-.17a1.1,1.1,0,0,0,.24-.83c0-.23,0-.47,0-.67Zm-4-.79c-1.11,0-1.27.17-1.3,1.25s.17,1.23,1.3,1.21,1.17-.24,1.18-1.28S193.78,75.85,192.67,75.85Zm-4.55-2.66c-.18-.26-.9-.15-1.16-.14-.83,0-1.17,0-1.21.89s-.17,1.55.9,1.59c.31,0,1.19.18,1.43,0a1.53,1.53,0,0,0,0-1.35c-.18-.3.23-.67,0-1Zm-.94,8.26c-.9,0-1.41,0-1.43,1,0,1.17,0,1.47,1.23,1.47s1.24-.17,1.24-1.27C188.22,81.73,188.17,81.44,187.18,81.45Zm2.63-5.6c-1,0-1.22-.13-1.24,1s.05,1.55,1.21,1.5S191,78,191,76.86s-.23-1-1.23-1Zm0-14c-.33,0-1-.1-1.17.18s-.09,1-.07,1.34c0,.73.11.91.86.94a3.08,3.08,0,0,0,1.21,0c.54-.29.39-1.14.36-1.66C191,61.7,190.61,61.81,189.83,61.8Zm9,14c-1,.08-1.72-.31-1.75.93s-.07,1.54,1.2,1.54a4.83,4.83,0,0,0,.67,0,.59.59,0,0,0,.54-.58,4.94,4.94,0,0,0,.08-.77c0-.56-.12-1.15-.74-1.11Zm-8.53-11.23c-1.35-.07-1.64.16-1.64,1.52h0c0,.93.31,1,1.16,1H190v0c.57,0,1-.06,1-.83,0-.28.06-.56.06-.79,0-.49-.16-.83-.85-.87ZM194.44,81a3.61,3.61,0,0,0,1.9.07.6.6,0,0,0,.32-.64c0-.12,0-.23,0-.34v-.4c0-1.06-.07-1.06-1.24-1.06-.76,0-1,0-1.17.8a5.18,5.18,0,0,0-.11.84.78.78,0,0,0,.31.73Zm-2.95-8.44c.29.27,1.53.17,1.87.1.64-.14.48-.7.48-1.29-.05-.33.15-.78-.12-1s-.62,0-.95,0c-.61-.06-1.21-.21-1.37.49-.06.28-.17,1.56.09,1.8Zm5-8.51c.24-.28.11-1.1.1-1.41,0-.52,0-.94-.71-.88s-1.35-.21-1.63.45c-.17.4-.28,1.66.13,1.94a2.89,2.89,0,0,0,2.11-.1ZM196,73c-.4.07-1.14-.17-1.5.1s-.27.94-.24,1.35c.08,1,.42,1,1.42,1,.62,0,.91.06,1-.6S197,72.85,196,73ZM193.1,95.51c-.67,0-1.57-.26-1.73.53a4,4,0,0,0,0,1.62c.31.65,2.17.48,2.32-.24a2.48,2.48,0,0,0,.1-1.27c-.06-.53-.15-.63-.72-.64Zm.71-22.05c-.16-.68-1-.45-1.65-.42-.83,0-.86.38-.75,1,0-.25-.08-.44.05.29.1.54-.27,1,.43,1.17a4.23,4.23,0,0,0,1.62-.06C194,75.25,193.91,73.91,193.81,73.46Zm3.29,1.8a2.58,2.58,0,0,0,2,.23c.56-.29.31-1.51.29-2s-1.92-.63-2.3-.24a2.67,2.67,0,0,0,0,2Zm2-4.66c-.61.1-1.27,0-1.87.07a.5.5,0,0,1-.27,0,5.09,5.09,0,0,0,.1,1.46c.1.73.49.6,1.18.6.48-.07,1,.17,1.15-.39a7.06,7.06,0,0,0,.09-1,1.13,1.13,0,0,0-.13-.61.41.41,0,0,1-.25-.07ZM192,98.32c-.86-.13-.58.9-.61,1.41-.06,1.22.51,1,1.52,1a4,4,0,0,0,.7-2.47A8.66,8.66,0,0,1,192,98.32Zm5.19-30.88a3.19,3.19,0,0,0-.16,2.19.36.36,0,0,1,.21-.08,9.42,9.42,0,0,1,1.06,0c.24,0,.73.06.94-.09a.75.75,0,0,1,.17-.1s0,0,0,0a3,3,0,0,0-.09-.43,17.94,17.94,0,0,0-2.16-1.43Zm-1,19.64-.41,0a2.57,2.57,0,0,0-1.36.09c-.37.25-.21.64-.2,1s-.2,1,.11,1.27a1,1,0,0,0,.9,0,.72.72,0,0,0,.3-.17c.22-.7.46-1.42.69-2.12a.06.06,0,0,0,0,0s0,0,0-.08Zm-2,3.69c0,.44-.15,1.88.48,1.33a.12.12,0,0,0,.07-.07,8.52,8.52,0,0,1,.58-2l-.18,0C194.38,89.72,194.17,89.92,194.17,90.77ZM191,103.48c0-.1,0-.24,0-.38-.06-.58-.09-1.17-.11-1.76a.67.67,0,0,0-.25-.22c-.07.51.21,1,0,1.53-.25-.05-.41-.28-.53-.56a6.16,6.16,0,0,0-.41-1h-.37c-.62,0-.86.19-.87,1,0,.36-.14,1.15.17,1.39a4,4,0,0,0,2.25,0h.13s0-.08,0-.13a.23.23,0,0,1-.05.1Zm.39-2c0,.6.06,1.21.13,1.81,0,0,0,0,0,0a1.06,1.06,0,0,0,.12-.2,16.48,16.48,0,0,0,1-1.9h-.66a.57.57,0,0,0-.63.34Zm-4.35,5c1,0,1.14-.19,1.14-1.22s-.07-1.2-1.19-1.2-1.27.09-1.27,1.2.2,1.22,1.32,1.22Zm-2.84,5.94c-.44,0-1-.11-1.22.31A2.67,2.67,0,0,0,183,114c.05.73.35.8,1,.82h.28c.64,0,1.13.15,1.23-.55a4.3,4.3,0,0,0,0-1.52C185.2,112.23,184.7,112.36,184.24,112.36Zm2.76-8.78c1.08,0,1.22-.24,1.22-1.15v-.3c0-1-.31-1-1.24-1s-1.18.18-1.18,1.22v0c0,1.08.1,1.22,1.2,1.22Zm.28-5.26c-1.17,0-1.38,0-1.48,1.14s0,1.29,1,1.32h.52c.83,0,.93-.14.93-1.15s.07-1.3-.94-1.31Zm.24,11.23a9.18,9.18,0,0,0-.92-.06,1.06,1.06,0,0,0-.66.16c-.41.33-.14,1.11-.14,1.56v0l0,.15a.61.61,0,0,0,0-.15c-.1,1,1.08.84,1.8.77s.62-.64.62-1.35S188.31,109.59,187.52,109.55Zm0-2.8h-.45v0c-.79.06-1.34-.1-1.35.81a4.76,4.76,0,0,0,0,1.25c.13.43.34.38.8.39.75,0,1.59.3,1.65-.65,0-.6.18-1.82-.65-1.78Zm3-2.75c-1,0-2-.35-2,.9v.1c0,1.11.14,1.42,1.34,1.42A17.23,17.23,0,0,0,191,104.3c-.06-.27-.25-.3-.49-.3Zm-2,3.54c0,.71-.27,1.85.77,1.57a7.1,7.1,0,0,1,.37-2.35h-.27c-.58,0-.86,0-.87.79Zm.29,2c-.52,0-.63,2.48.27,2.43a10.86,10.86,0,0,0,.13-2C189.21,109.81,189.15,109.58,188.85,109.59Zm-11.94,3c-.22-.31-.69-.25-1-.24h-.07c-1,0-1.29,0-1.29,1.07s0,1.39,1.17,1.41a3.32,3.32,0,0,0,.85,0,.48.48,0,0,1,.38-.37,1.93,1.93,0,0,0,.07-.6C177,113.53,177.11,112.85,176.91,112.6Zm-.31,2.66a2.14,2.14,0,0,0-.87-.06c-1.06.07-1.23.16-1.23,1.23s.23,1.22,1.34,1.22,1.13-.24,1.14-1.25a2.09,2.09,0,0,0-.13-.93.57.57,0,0,1-.25-.21Zm.32-5.45c-.23-.36-.71-.25-1.09-.25-1.2,0-1.34.25-1.31,1.44,0,.59,0,.92.63,1s1.9.24,1.86-.69c0-.39.14-1.18-.09-1.51Zm-2.85,2.73c-.28-.28-.58,0-.9-.12-.52-.24-1.28-.19-1.45.39a3.35,3.35,0,0,0,.11,1.91c.28.29,1.53.19,1.87.1.64-.14.47-.7.47-1.28,0-.29.15-.74-.1-1Zm5.19,2.63c-.45,0-1.48-.21-1.79.17s-.14,1.07-.12,1.41c0,.77.26.84,1,.89.53,0,1.17.18,1.39-.38s.28-2.1-.49-2.09ZM108.4,70.24c-1.1,0-1.27.37-1.27,1.29,0,.06,0,.13,0,.2,0,1.11.57,1,1.56,1s.91-.31.93-1.24v-.19c0-.89-.21-1-1.2-1Z" transform="translate(-97.15 -4.69)" style="fill:#644d31"/><path d="M133.16,106.8l-.31-.3-.36-.36a1,1,0,0,0-1.06-.25,1,1,0,0,0-.62.85c-.07.51-.09,1-.11,1.49a9.38,9.38,0,0,1-.2,1.94l-.23,1h1.57l.23-.46.66-1.31c.21-.44.43-.88.65-1.32h0a1.11,1.11,0,0,0-.16-1.23l-.06-.07ZM179,100.47l-.29-.13a1.46,1.46,0,0,0-1.33.22l-.19.1a1.22,1.22,0,0,0-.94,1.26,33.85,33.85,0,0,0,.4,4l.41,2.66,1.16-2.42a3,3,0,0,0,.27-.94l0-.11c.11-.68.22-1.34.34-2l.16-1a1,1,0,0,1,.07-.2,1.54,1.54,0,0,0,0-1.19l-.13-.28ZM177.42,88.8l-1.09.15a7.57,7.57,0,0,1-2.8.11l-.15,0a3.22,3.22,0,0,0-.82-.08H169.3l3,1.62a5.15,5.15,0,0,0,2.74.87,6.65,6.65,0,0,1,1,.08l.41.06h0c.52,0,1.06.08,1.62.08a22.24,22.24,0,0,0,3.28-.27l2.37-.36-2.09-1.19a6.73,6.73,0,0,0-4.16-1Zm-55.31-.75a1,1,0,0,0,.62-.21l.18-.12.17-.12,0,0a14.34,14.34,0,0,1,6.12-2.7l2.92-.52c2.32-.4,4.72-.82,7.05-1.4a8.22,8.22,0,0,0,1.74-.48l6.6-2.75-10.09,1.67-1.7.2c-1.72.21-3.51.43-5.27.62h0a14.82,14.82,0,0,0-4.6,1.06c-.5.22-1,.46-1.49.7l-1.68.78a2.2,2.2,0,0,0-1.45,2.39.66.66,0,0,0,0,.14v.77Zm64.12-1.3a5.28,5.28,0,0,0-2.44-1L182,85.57a1,1,0,0,0,.47-.17,1.39,1.39,0,0,0,.57-.75l.08-.23-.07-.24c0-.1-.05-.2-.07-.29s-.05-.24-.08-.36l0-.15L178,76.57l-1.43-1.26.07,0,.88.49c.29.15.57.31.85.47a1.25,1.25,0,0,0,.94.14l1.09-.31-.62-1c-.79-1.17-3-2.75-4.93-4.15a25.06,25.06,0,0,1-2.39-1.83,2.28,2.28,0,0,0-.22-.22l-.07-.06-.11-.11-.14-.06a12.86,12.86,0,0,0-1.83-.66h.12a8.15,8.15,0,0,1,1.75.54,35.65,35.65,0,0,1,3.83,2,5.42,5.42,0,0,0,1.14.67l3.41,1.46L177.86,70c-2.66-3-6.72-7-11-9l-.14-.06-.07,0a6.3,6.3,0,0,0-4,.19h0a1.17,1.17,0,0,0-.84,1.51,10.82,10.82,0,0,1,.31,3.34v.52a1.26,1.26,0,0,0,.78,1.26,1.33,1.33,0,0,0-.39.26,1.5,1.5,0,0,0-.38,1.1v.7l-.27-.53V72a1.89,1.89,0,0,0,0,.82V73h0v.28l.15.15.08.16h0l.15.4-.09,0a.91.91,0,0,0-.82-.07,1,1,0,0,0-.45.39,3.82,3.82,0,0,0-.34-2.67l-.1-.15.28.06.31-.38a3.59,3.59,0,0,0,.57-1.62q0-.1,0-.18a9.94,9.94,0,0,0-.2-4.8,11.37,11.37,0,0,0-4.14-6.61,19.28,19.28,0,0,0-7.24-3.46c-2.94-.61-6,.3-8.72,1.11l-.67.2c-.53.16-1,.35-1.49.53a7.47,7.47,0,0,0-1.25.66,30.55,30.55,0,0,0-4.76,3.49l-.18.17-.17.15-.06,0c-.39.3-.72.61-1,.9l-.46.42-.29.26a43.6,43.6,0,0,0-4.07,5.49,19.19,19.19,0,0,0-1.63,2.86c-.2.46-.45.9-.71,1.37a16.64,16.64,0,0,0-.88,1.74l-1.26,3.09L125,74.79c1-.88,2-1.84,3-2.78a.49.49,0,0,1,.13-.12l.15-.15.09-.09a7.62,7.62,0,0,1,1.23-1.08l1-.65a22.64,22.64,0,0,1,4.71-2.58l.21-.07c.38-.17.76-.33,1.15-.48l.17-.08a8.35,8.35,0,0,1,1.89-.66l1.43-.25c.76-.14,1.53-.27,2.28-.42a22.66,22.66,0,0,1,4.53-.52,24.21,24.21,0,0,1,4.28.54,11.65,11.65,0,0,0-2.28-.14c-1.27,0-2.58.08-3.85.09a19,19,0,0,0-3.52.43,30.37,30.37,0,0,0-12.38,6.14,53.75,53.75,0,0,0-4.74,4.4l-1.33,1.32a3,3,0,0,0-.35.45q-1.9,3-3.79,6a4.85,4.85,0,0,0-.59,1.41l-.56,2.29,1.87-1.43.22-.16a4.73,4.73,0,0,0,.45-.36,14.2,14.2,0,0,1,5.27-2.67l.06,0a27.91,27.91,0,0,1,7-1.38,61.74,61.74,0,0,0,10.49-1.83,20.67,20.67,0,0,0,6.33-2.57,26.56,26.56,0,0,0,2.69-2,3.31,3.31,0,0,1-.62,1.75,8.83,8.83,0,0,1-3.47,2.54l-.07,0A42,42,0,0,1,140,82.82c-1.12.3-2.28.54-3.41.77-1,.19-2,.39-3,.64-.72.19-1.48.34-2.2.49a21.4,21.4,0,0,0-5.74,1.78,7.56,7.56,0,0,0-3.49,3.56,3.94,3.94,0,0,0-.26,2.65l.54,2.15,1-2c.1-.2.18-.38.27-.57a5,5,0,0,1,.55-1,5.41,5.41,0,0,1,3.47-2.09c.89-.17,1.79-.27,2.74-.37l1.28-.15c1.67-.21,3.38-.34,5-.47,2-.15,4.1-.31,6.15-.63a21,21,0,0,0,8.77-2.93c.46-.31.93-.61,1.4-.9a21.51,21.51,0,0,0,4-3,14.76,14.76,0,0,0,3-4.16,6.43,6.43,0,0,0,1.72,5.83,1.85,1.85,0,0,0,.25.24,19,19,0,0,0,5.29,3.6,33.68,33.68,0,0,0,5.33,1.9,6.55,6.55,0,0,0,2.26.17l.28,0a38.2,38.2,0,0,1,5.23-.36l1,0a29.38,29.38,0,0,1,4,.24l3.27.48-2.65-2ZM167,79c.76.58,1.54,1.15,2.32,1.71l.78.57a12.62,12.62,0,0,0,3.31,2c.48.17,1,.37,1.46.56.69.28,1.41.56,2.12.78l.54.17.39.12.09,0c.81.17,1.67.33,2.42.45a49.47,49.47,0,0,1-5.77-1,7.86,7.86,0,0,1-3.3-1.52c-1.72-1.45-3.11-2.66-4.36-3.78Z" transform="translate(-97.15 -4.69)" style="fill:#885630"/><path d="M170.71,120.22c-.51-1.24-1-2.5-1.5-3.72l-.26-.65,0-.08a.8.8,0,0,0-.25-.39l-.16-.13-.5.6a13.32,13.32,0,0,1-2.32,2.81l-.3.37a10.94,10.94,0,0,1-2.53,1.51c-.53.26-1.09.52-1.62.84l-.58.36.68,0,.87.06a16,16,0,0,1,5.64,1.34c.62.29.67.81.72,1.42,0,.2,0,.24,0,.25h-.13a1,1,0,0,1-.26-.06,50,50,0,0,0-6.54-1.88l-1.87-.45-.13,0-.15,0h-.05a.43.43,0,0,0-.33.39.67.67,0,0,0,.49.92,8.2,8.2,0,0,1,1,.33c.67.23,1.35.44,2,.65a18.52,18.52,0,0,1,5.23,2.22,1.06,1.06,0,0,0,.56.21,1.86,1.86,0,0,0,.66-.23,2.13,2.13,0,0,0,1.16-2.89,2.75,2.75,0,0,1,.42-2.67,1,1,0,0,0,.08-1.08Zm-23.17,3a13.91,13.91,0,0,1-2.14.19,8.92,8.92,0,0,1-1.58-.12c-.19,0-.21-.08-.23-.25a.15.15,0,0,1,0-.08l.09,0,1.52-.34a20.91,20.91,0,0,1,4.26-.68v-.21h.19a.86.86,0,0,1,0-.16l.05-.22-.22,0a4.29,4.29,0,0,1-1.75-.74c-.2-.13-.41-.25-.61-.36a8.84,8.84,0,0,1-3.82-3.76,8.81,8.81,0,0,0-1-1.41c-.15-.18-.31-.37-.46-.57l-.24-.31-.12.37c-.07.23-.14.44-.21.66a15.2,15.2,0,0,1-.59,1.69,3.27,3.27,0,0,0,0,3,.88.88,0,0,1-.23,1.07c-.32.35-.65.71-1,1.08l-.66.74-.05,0a.62.62,0,0,0-.22.62,2.31,2.31,0,0,1,.07.47,1.51,1.51,0,0,0,.64,1.28s0,.06,0,.21,0,.09,0,.14v2.73a.69.69,0,0,0,.22.62,3.93,3.93,0,0,0,1.62.54h.05l0,0c.24-.08.34-.33.42-.52a.82.82,0,0,1,.11-.23,1.74,1.74,0,0,0,.11-.18.2.2,0,0,1,0-.08,11.34,11.34,0,0,0,1.4-.93,8.87,8.87,0,0,1,1.8-1.1c.72-.31,1.43-.66,2.12-1a16.65,16.65,0,0,1,4.71-1.78l1.31-.2-1.31-.21a13.54,13.54,0,0,0-4.4,0Zm10.54-.79a.55.55,0,0,0-.16-.4.48.48,0,0,0-.38-.11h-.17a8,8,0,0,1-1.47.14c-.19,0-.38,0-.59,0h-.46a2.75,2.75,0,0,0-.42,0h-.17a.74.74,0,0,0-.15,0,.35.35,0,0,0-.3.34.65.65,0,0,0,.54.72,6.25,6.25,0,0,0,1.57.19h0a10.31,10.31,0,0,0,1.63-.13c.53-.07.52-.45.51-.67v-.09Zm42.56-67.13a.72.72,0,0,0,.55-.76c.07-1,.16-2.1.26-3.14.11-1.42.24-2.84.36-4.34l-.24,0c-8.31,2.44-17.2,4.72-25.52,7.14-.42.12,0,.78.14,1.08,1.31,2.29,2.7,4.4,4,6.71.12.2.22.3.36.32s.29-.18.38-.21q9.85-3.44,19.73-6.85Zm-1.22-6c.89,0,1.35.46,1.38,1.42a1.77,1.77,0,0,1-1.56,1.77A1.54,1.54,0,0,1,197.75,51a1.71,1.71,0,0,1,1.67-1.7ZM112,65.4l4,.55,6.07.83h.12c.24,0,.28-.22.33-.44.54-1.78,1.08-3.56,1.64-5.34.12-.38,0-.49-.36-.59l-11.35-3-11.34-3a.57.57,0,0,0-.22,0c-.12,0-.19,0-.23.11s0,.05,0,.08l0,.19q-.41,4.19-.9,8.37c0,.35,0,.5.3.57l.21.05L112,65.4ZM102.82,58a1.79,1.79,0,0,1,1.27-.33,1.45,1.45,0,0,1,1.59,1.09,2.65,2.65,0,0,1-.56,3.14,1.69,1.69,0,0,1-2.23,0A2.73,2.73,0,0,1,102.82,58Z" transform="translate(-97.15 -4.69)" style="fill:#fff"/><path d="M199.41,49.32A1.76,1.76,0,0,0,197.73,51a1.54,1.54,0,0,0,1.49,1.48,1.8,1.8,0,0,0,1.57-1.77c0-1-.48-1.44-1.38-1.42ZM104.1,57.65a1.75,1.75,0,0,0-1.26.33,2.7,2.7,0,0,0,.07,3.9,1.68,1.68,0,0,0,2.22,0,2.6,2.6,0,0,0,.56-3.14,1.46,1.46,0,0,0-1.59-1.09Z" transform="translate(-97.15 -4.69)" style="fill:#1a1a1a"/><path d="M145.49,141.75a1.11,1.11,0,0,1-.36-.66,5.87,5.87,0,0,1,.1-2.25,21.71,21.71,0,0,0,.6-4.32c0-.58-.11-1.11-.7-1.39s-1.1,0-1.54.42a23.14,23.14,0,0,0-2.29,2.55c-.72.88-1.43,1.78-2.15,2.67-.11.14-.24.41-.47.29s-.11-.32-.08-.5c.06-.65.14-1.28.21-1.93a9.33,9.33,0,0,0,.06-2.53c-.19-1-.92-1.3-1.73-.66a4.59,4.59,0,0,0-.55.53,19.85,19.85,0,0,0-1.75,2.42,53.79,53.79,0,0,1-4.12,6c-.29.35-.6.69-.87,1.07a1.22,1.22,0,0,0-.13,1.35,1.11,1.11,0,0,0,1.1.51c.48,0,.73-.38,1-.72l3.68-5c.07-.09.1-.26.31-.2,0,.21-.06.43-.07.65a8.52,8.52,0,0,0-.06,2.42,1.16,1.16,0,0,0,1.79.88,5.17,5.17,0,0,0,1.19-.88,21.67,21.67,0,0,0,1.94-2.13c.66-.84,1.34-1.7,2-2.61a5.52,5.52,0,0,1,.1,2,13,13,0,0,0-.07,3.3,1.25,1.25,0,0,0,1.1,1.14,2.54,2.54,0,0,0,1.63-.41,1.21,1.21,0,0,0,.11-2Zm50.69.27a1.44,1.44,0,0,1-.88-.41,13.4,13.4,0,0,1-2.13-2.32c-.52-.7-.54-.7.16-1.18a4.32,4.32,0,0,0,1.88-4.17,2.18,2.18,0,0,0-2-2.22,3.15,3.15,0,0,0-2.55.84c-.17.13-.26.29-.54.1a1.25,1.25,0,0,0-1.74.23,2.38,2.38,0,0,0-.6,1.1c-.73,2.95-1.48,5.89-2.18,8.86-.24,1,.28,1.49,1.31,1.34s1.39-.68,1.55-1.88a23.26,23.26,0,0,1,.64-3.48l2.53,3.15a8.17,8.17,0,0,0,2.9,2.42,1.94,1.94,0,0,0,2.24-.44,1.09,1.09,0,0,0,.32-1.21.92.92,0,0,0-.93-.73Zm-3.55-6.87a2.43,2.43,0,0,1-.41.78A7.07,7.07,0,0,1,189.3,138a9.55,9.55,0,0,1,.65-2.5,2.23,2.23,0,0,1,1.85-1.39C192.48,134.06,192.82,134.49,192.63,135.15ZM130.41,132c-.39-.16-.83-.18-1,.34-.11.29-.31.25-.54.22A4.42,4.42,0,0,0,125,133.8a10,10,0,0,0-3.24,7.94c.09,2.09,1.3,3.11,3.34,2.64a10,10,0,0,0,7.34-9.27A3.87,3.87,0,0,0,130.41,132Zm-.56,4.57a7.29,7.29,0,0,1-2.48,4.8,3.44,3.44,0,0,1-1.9.82,1.24,1.24,0,0,1-1.47-1.37,8.71,8.71,0,0,1,1.9-5A2.63,2.63,0,0,1,129,135c.65.25.88.58.85,1.53Zm50.49-1.14a5.29,5.29,0,0,1,1.44,0,12.91,12.91,0,0,0,3.71-.44,2.07,2.07,0,0,0,1.13-.76c.41-.63.25-1.06-.48-1.08a28.61,28.61,0,0,0-4.81,0,2.3,2.3,0,0,0-2.23,1.45.23.23,0,0,1-.14.15c-1.09.28-1.47,1.18-1.77,2.1-.62,2-1.17,4.08-1.74,6.1a.86.86,0,0,0,.46,1.07,1.19,1.19,0,0,0,1,.09,18.61,18.61,0,0,1,5.79-.83,1.61,1.61,0,0,0,.74-.17,1.4,1.4,0,0,0,.69-1.41c-.08-.53-.51-.69-1-.76a8.93,8.93,0,0,0-1-.1,22.24,22.24,0,0,0-3.63.31c.19-1.33.29-1.42,1.55-1.42a7.24,7.24,0,0,0,2.77-.42,1.52,1.52,0,0,0,1-1.32c0-.45-.14-.72-.6-.74a10.42,10.42,0,0,0-1.12,0l-2.66.24a6.14,6.14,0,0,1,.37-.8c.25-.37,0-1,.49-1.23Zm-59.68-2.52a4.61,4.61,0,0,0-2-.67,5.56,5.56,0,0,0-3.59,1.39,12,12,0,0,0-3.78,6.67,3.74,3.74,0,0,0,.43,2.83,1.47,1.47,0,0,0,1.72.79,18.48,18.48,0,0,0,5.09-1.79,5,5,0,0,0,1.33-1,1.71,1.71,0,0,0,.49-1.19c0-.44-.2-.59-.61-.61a3,3,0,0,0-1.12.27c-1.21.44-2.39,1-3.65,1.3-.62.15-.83,0-.95-.62a1.93,1.93,0,0,1,0-.72,10.4,10.4,0,0,1,1.1-2.83,4.7,4.7,0,0,1,1.44-1.66,2.28,2.28,0,0,1,2.59-.24.81.81,0,0,0,.88-.07,2,2,0,0,0,.87-1.18.52.52,0,0,0-.25-.68Zm54.31.65a4,4,0,0,0-5.43.3,2.42,2.42,0,0,0-.49,3.08,15.63,15.63,0,0,0,1.63,2.43c.42.55.87,1.1,1.26,1.68.29.4.14.73-.33.88a1.16,1.16,0,0,1-.82,0,6.19,6.19,0,0,1-2.19-1.35,1.29,1.29,0,0,1-.48-.73.72.72,0,0,0-.73-.67c-.48-.05-.92-.05-1.2.46a1.67,1.67,0,0,0,.51,2.31,9.13,9.13,0,0,0,5.47,2.22,2.25,2.25,0,0,0,2.26-3,7.9,7.9,0,0,0-1.11-1.85c-.7-.92-1.43-1.82-2.09-2.78-.52-.73-.29-1.27.57-1.55a2.18,2.18,0,0,1,2.11.47c.76.59,1.41.28,1.58-.68a1.15,1.15,0,0,0-.52-1.14ZM199.69,57c.81-.28,1.62-.63,2.45-.88a.78.78,0,0,0,.61-.83c.27-3.55.54-7.11.82-10.65,0-.5,0-.59-.55-.44-2.66.84-5.32,1.65-8,2.48-.81.25-.83.25-1.19-.55-1.36-3-2.41-6.19-3.52-9.32a2.29,2.29,0,0,1,0-1.85,8.83,8.83,0,0,0,.11-3.32,1.22,1.22,0,0,1,0-.17A52.92,52.92,0,0,0,189,22.4,35.5,35.5,0,0,0,186,15c-1.34-2.53-2.78-5-4.32-7.47A6,6,0,0,0,179.16,5a4.38,4.38,0,0,0-1.29-.28,1.21,1.21,0,0,0-1.16.55,2.45,2.45,0,0,0-.4,2.52c1.11,2.41,2.12,4.87,3.09,7.33l.23.39a.38.38,0,0,1-.37-.25,40.22,40.22,0,0,0-5.85-4.71,75.62,75.62,0,0,0-8.81-5.11A3.41,3.41,0,0,0,163.35,5c-.75-.08-1.51-.15-2.25-.24A1.71,1.71,0,0,0,159,6.52c0,.63-.26.77-.78.81a1.6,1.6,0,0,0-1.16,1.13,4,4,0,0,0,1.34,3.63c2.6,2.43,5.12,4.95,7.64,7.47l.08,0a.58.58,0,0,1,.17.23h-.11a.35.35,0,0,1-.21-.12s0,0,0,0c-.37-.21-.75-.4-1.1-.64-1.76-1.17-3.49-2.37-5.25-3.51a5.54,5.54,0,0,0-2.7-1,2.67,2.67,0,0,0-2.29.85,1.63,1.63,0,0,0-.52,1.48,2.61,2.61,0,0,0,1.31,1.82,48.2,48.2,0,0,1,8,6.88,7.17,7.17,0,0,0,.68.67,6.45,6.45,0,0,1,1.53,2.08c.2.35.13.43-.25.43a35.22,35.22,0,0,0-7.3,1.2,2.66,2.66,0,0,0-2.31,1.65c-.38,1.22-.56,1.91.94,2.29a56,56,0,0,1,8.73,3,3.09,3.09,0,0,1,.68.45,20.92,20.92,0,0,0,2.13,1.78,22.79,22.79,0,0,0,7.15,3.42c.31.07.59.22.88.29a.68.68,0,0,1,.55.55,2.32,2.32,0,0,0,1.79,1.93c.13,0,.22.12.35.17a.83.83,0,0,1,.55.63c.39,1.4.8,2.8,1.24,4.19.15.47,0,.59-.41.72-2.18.63-4.35,1.29-6.52,2-.77.23-.78.25-.39,1l5.32,9.58c.74,1.35.77,1.35,2.14.65.14-.07.34-.31.46-.08s.35.52.14.76a25.33,25.33,0,0,0-1.67,2.46.54.54,0,0,0,0,.69c.59,1,1.18,2,1.76,2.94.07.11.2.25.17.34-.23.71-.48,1.43-.72,2.15a14.71,14.71,0,0,0-1.86-4.19,57,57,0,0,0-3.63-4.76c-.19-.24-.42-.45-.64-.68a19.19,19.19,0,0,0-4.1-2.8,6,6,0,0,0-2-.74,12.65,12.65,0,0,0-6.55,0,.74.74,0,0,1-1-.35,10.08,10.08,0,0,0-1.69-2.19,19.26,19.26,0,0,0-5.78-3.41,17.21,17.21,0,0,0-5.06-1,24.64,24.64,0,0,0-2.72.1,14.22,14.22,0,0,0-6.68,1.72c-.41.25-.88.39-1.3.63a25.37,25.37,0,0,0-6,4c-1.81,1.79-3.63,3.57-5.26,5.53a35.51,35.51,0,0,0-4.59,7.43.9.9,0,0,1-.4.56c-.24-1.49-.48-2.93-.71-4.36,0-.27.13-.25.31-.23.52.06,1,.09,1.55.16s.6,0,.7-.47c.13-.6.27-1.2.4-1.82.47-2.33,1.16-4.58,1.77-6.86.11-.43,0-.59-.41-.7-2.24-.53-4.47-1.12-6.71-1.66-.42-.1-.62-.25-.49-.7a50.76,50.76,0,0,1,1.42-5.28,1.13,1.13,0,0,1,.32-.51,2,2,0,0,0,.94-1.77,1.2,1.2,0,0,1,.82-1.25c1.07-.51,2.1-1.1,3.11-1.69a4.91,4.91,0,0,0,1.91-1.95c1.89-3.55,3.46-7.28,5.74-10.61a7,7,0,0,1,.59-.87,55.81,55.81,0,0,1,4.52-4.58,2.09,2.09,0,0,0,.68-1.67,2.73,2.73,0,0,0-.89-1.79,1.86,1.86,0,0,0-1.63-.86,1.93,1.93,0,0,1-.52-.08c.11-.23.29-.28.45-.38l5.95-3.86,7.22-4.65c.31-.2.45-.35.11-.65a1.64,1.64,0,0,1-.21-.25c-.49-.58-.49-.58-1.17-.17L127.41,26.33c-.59.36-.59.36-.88-.3A48.53,48.53,0,0,1,125,21.29a.65.65,0,0,1,.27-.8c1.69-1.35,3.24-2.87,4.8-4.35a3.58,3.58,0,0,0,1.1-2.16c.12-1-.54-1.52-1.44-1.16a9.58,9.58,0,0,0-1.29.62,61,61,0,0,1-12.59,5c-.26.07-.48.15-.69-.12a7.86,7.86,0,0,0-1.64-1.22.42.42,0,0,0-.36-.08,2.45,2.45,0,0,0-1.56.85c-.93,1.37-2.1,2.58-3,4-1,1.65-2,3.29-3.08,4.85-.21.3-.3.34-.5,0-1.23-2.18-2.49-4.36-3.72-6.54a18.45,18.45,0,0,0-1.31-2,2.22,2.22,0,0,0-2.1-.92c-.15,0-.35,0-.41.21a6.37,6.37,0,0,0-.33,1.94A36.11,36.11,0,0,0,98,24.11c.67,2.68,1.43,5.34,2.24,8s1.64,5.16,2.49,7.75c.07.22.19.42-.12.6s-1,.34-1.09.74.29.88.46,1.32l0,.1c.14.33.21.84.47,1s.64-.3,1-.48.38-.13.51.17c.73,1.71,1.48,3.42,2.22,5.13a1,1,0,0,1,0,.8,24.64,24.64,0,0,0-1.12,4.23c-.07.4-.23.4-.54.32l-4.88-1.24c-.72-.18-.72-.18-.8.55v.06Q98.39,59,97.84,64.81c0,.35,0,.49.4.53,1.13.14,2.26.33,3.39.49.21,0,.39,0,.33.36-.25,1.32-.45,2.66-.73,4a1,1,0,0,0,.2,1l1.17,1.55a1.13,1.13,0,0,1,.22,1.22,1.22,1.22,0,0,0-.2.69c0,2.44,0,4.87.16,7.3.06,1.19,0,2.37.07,3.55.06,3.14.24,6.26.35,9.4.06,1.53-.21,3.05-.14,4.58a.64.64,0,0,0,.49.72c.93.3,1.83.68,2.78,1a1.68,1.68,0,0,1,1.08.92,2.49,2.49,0,0,1,.22,1.28,1,1,0,0,0,.48.91c1.45,1,2.89,2.11,4.33,3.18,3.82,2.81,7.63,5.64,11.46,8.44.35.27.43.48.22.86s-.32.79-.52,1.15a.53.53,0,0,0,.18.79,16.64,16.64,0,0,1,1.38,1.1,1.16,1.16,0,0,1,.29,1.22c-.09.28-.51,0-.78,0s-.36,0-.55-.08c-1.81-.3-3.61-.76-5.46-.92a81.55,81.55,0,0,0-8.85-.4c-.15,0-.39-.14-.43.17s-.1.52.18.68a2.35,2.35,0,0,0,.45.22,27.78,27.78,0,0,1,4.73,2.27,17.88,17.88,0,0,0,3,1.58c.19.07.39.23.63,0l-4.88-3.89a.7.7,0,0,1,.58-.09,37.65,37.65,0,0,1,5.79.88q6.27,1.5,12.44,3.36a13.88,13.88,0,0,1,4,1.42.76.76,0,0,1,.44.76c.07.08.16.2.06.27s-.21-.07-.3-.14c-.95-.09-1.91-.16-2.85-.26a61.92,61.92,0,0,0-8.16-.56c-2.06.06-4.11-.09-6.15.06-2.9.19-5.8.57-8.68.88-.14,0-.37,0-.37.16a.46.46,0,0,0,.35.5,2.9,2.9,0,0,0,.66.07c1.47.06,2.92,0,4.38.07,3.63.09,7.27-.07,10.9.24,1.31.12,2.63.06,3.91.3,6,1.12,12,2.31,18,3.61a9.18,9.18,0,0,1,2.11.61c-.32.29-.74.38-.93.8-1.28,3-2.12,6.09-3.11,9.16a1,1,0,0,0,.71,1.27,1.63,1.63,0,0,0,2.06-1.3c.12-.63.23-1.26.31-1.91a.42.42,0,0,1,.31-.4c.78-.3,1.54-.63,2.31-.94a9.43,9.43,0,0,0,3.1-1.9,3.87,3.87,0,0,0,1.46-2.76.83.83,0,0,1,.37-.78,33.89,33.89,0,0,0,3.57-3.31,33.68,33.68,0,0,1,3.52-3.12c.14-.11.25-.28.47-.2l3.28,1.29c-2.19,1.34-4.27,2.62-6.34,3.87a1.32,1.32,0,0,1-.31.12,4.76,4.76,0,0,0-2,1.18,10.13,10.13,0,0,0-3.19,7.91c.08,2.11,1.29,3.1,3.35,2.63a10,10,0,0,0,7.22-8.08,3.56,3.56,0,0,0-.45-3c-.33-.4-.68-.78-1-1.14l.22-.15a76.75,76.75,0,0,1,14.51-6.28c6.09-2.1,12.31-3.77,18.54-5.37l-.44-.1-1.21.11a29.4,29.4,0,0,0-5.1.79l-.1,0a1.36,1.36,0,0,1-.55.08,1.42,1.42,0,0,0-.28,0c.38-.37,1.47-1.55,1.77-1.46v0h0s.11-.13.11-.13a.53.53,0,0,1,.44-.29,3.88,3.88,0,0,1,1.15-1.1,7.16,7.16,0,0,1,1-.51h0c.94,0,1.87-1.14,2.85-1.53,0,0,0-.06-.08-.1A19.12,19.12,0,0,0,194,117c-2.89,1.07-5.87,1.9-8.68,3.14-4.35,1.89-8.68,3.79-12.86,6.06a4,4,0,0,1-.45.21c-.11-1-.21-2-.33-3,0-.2.07-.29.24-.37,3.7-2,7.42-3.9,11.29-5.5,3.18-1.32,6.33-2.76,9.52-4,0,0,0-.06.06-.06h.05a.11.11,0,0,1,0,.16l-.06,0h0a19.08,19.08,0,0,0-2.18,3.87.36.36,0,0,0,.39-.1c.66-.71,1.32-1.39,2-2.1a23.67,23.67,0,0,1,4.12-3.75c.1-.08.27-.13.2-.29s-.27-.08-.4,0c-1.45.29-2.89.56-4.33.9-.48.11-.45-.06-.46-.4,0-1.15.15-2.28.19-3.43a3.85,3.85,0,0,1,.34-1.45c.58-1.32,1.15-2.63,1.75-4a8.38,8.38,0,0,0,.57-2.07c.19-1.13.33-2.26.44-3.4.18-1.75.8-3.39,1.1-5.13a33.85,33.85,0,0,1,1.5-6.5c.73-1.85,1.44-3.71,2.18-5.55,1-2.51,2.34-4.88,3-7.56a3.89,3.89,0,0,0,0-2.69,13.16,13.16,0,0,1-.47-1.58,2.23,2.23,0,0,1-.07-1.2,5.78,5.78,0,0,0-.37-4.19c-.21-.37,0-.59.25-.82.52-.53.55-.77.1-1.35s-1-1.31-1.59-1.91-.9-1-1.36-1.54c-.33-.19-.3-.32.07-.45Zm-37.86,84.33a3.29,3.29,0,0,1-1.9.81,1.23,1.23,0,0,1-1.45-1.34,8.79,8.79,0,0,1,1.94-5.14,2.64,2.64,0,0,1,3-.7c.66.27.88.59.87,1.58a7.39,7.39,0,0,1-2.49,4.79ZM180.71,44.1c-.14-.4-.31-.61-.75-.51s-.8-.1-1-.56a5.89,5.89,0,0,0-1.27-2.11,6.5,6.5,0,0,0-2.36-.68c-.61-.15-1.21-.34-1.83-.43a8.46,8.46,0,0,1-3.59-1.61c-1.77-1.31-3.6-2.52-5.47-3.67a10.78,10.78,0,0,1-1.78-.35c-1.63-.34-3.25-.69-4.88-1-.39-.07-.46-.37-.49-.63a.8.8,0,0,1,.38-.85,4.72,4.72,0,0,1,1.7-.46,56.21,56.21,0,0,1,7.88-.76,6.35,6.35,0,0,1,1.83.38,1.06,1.06,0,0,0,1-.17c1.27-.84,2.55-1.65,3.81-2.48.2-.12.57-.21.41-.55l-.08-.12a.38.38,0,0,0-.26-.07h-.33a6.84,6.84,0,0,0-3.92,1.17,1.66,1.66,0,0,1-1.81-.32c-2-3-4.83-5.21-7.51-7.56-1.2-1-2.37-2.12-3.63-3.08a1,1,0,0,1-.26-1.15c.28-.43.65-.24,1-.09a17.64,17.64,0,0,1,3.09,1.72,117.33,117.33,0,0,0,10.39,6.36c.1,0,.19.11.29.15.54.18.82-.05.73-.62a1.55,1.55,0,0,0-.36-.78c-2.86-3.37-5.87-6.59-8.82-9.87-.62-.67-1.35-1.26-2-1.87a5,5,0,0,1-1.3-1.63,1,1,0,0,1,.14-1.11.55.55,0,0,1,.8-.14,16.26,16.26,0,0,1,2.83,1.71c1.56,1.19,3.14,2.37,4.72,3.55l4.72,3.53c.13.1.26.2.37.3.29.26.55.54.83.83l.17.16a2,2,0,0,0,.35.36c.32.19.66.36,1,0a.53.53,0,0,0,.18-.32s0-.08,0-.13,0,0,0-.05a1,1,0,0,0-.26-.42l-1-1.1a25.21,25.21,0,0,0-1.83-1.75c-2-1.7-4.14-3.34-6.25-4.95a33.51,33.51,0,0,0-3.49-2,4.27,4.27,0,0,1-1-.93.83.83,0,0,1-.14-.88c.13-.31.44-.3.7-.33a2.15,2.15,0,0,1,1.17.3c2.72,1.34,5.39,2.77,8,4.32q.32.18.63.39c1.45.93,2.83,2,4.19,3.06a11,11,0,0,1,1.66,1.92c.23.28.07.54-.14.73a2.41,2.41,0,0,1-.5.33c-.19.12-.42.24-.35.5s.32.3.53.34a1.63,1.63,0,0,0,.93-.08c1-.41,1.81.28,2.45,1,.17.18.24.55.55.43s.36-.47.33-.8a17.77,17.77,0,0,0-.49-2.6,40.76,40.76,0,0,0-2.45-6.29c-.31-.75-.64-1.49-1-2.24A1.07,1.07,0,0,1,178,6.43c.18-.23.48,0,.72.09a3.87,3.87,0,0,1,1.82,1.94c.47.89,1,1.7,1.54,2.56a50.81,50.81,0,0,1,2.56,4.46,44,44,0,0,1,2.83,6.89A58.14,58.14,0,0,1,189,28.9c.1.85,0,1.66.05,2.48a8.71,8.71,0,0,1-.72,4.67,1.38,1.38,0,0,0,.07,1.22c1.48,3.13,2.7,6.35,3.92,9.58.16.43.09.6-.35.72-2.83.83-5.65,1.69-8.48,2.55-.41.13-.54,0-.66-.35q-1.07-2.84-2.07-5.67ZM163,61.94a5.58,5.58,0,0,1,3.52-.19.32.32,0,0,0,.09,0,33.21,33.21,0,0,1,4.51,1.52,1.66,1.66,0,0,1,.66.45,11.85,11.85,0,0,1,2.52,2.38c1.11,1.43,2.22,2.88,3.26,4.53l-.19-.08h0a6.38,6.38,0,0,1-1.08-.61,36.23,36.23,0,0,0-3.95-2.08,8.21,8.21,0,0,0-1.94-.59,19.07,19.07,0,0,0-5.33-.24c-.49,0-1,0-1.49,0a.47.47,0,0,1-.54-.54,13.46,13.46,0,0,0-.35-4.1c-.08-.29.08-.4.32-.48Zm-.36,10.14a1.17,1.17,0,0,1,0-.11.26.26,0,0,1,0-.08s0-.06,0-.1a.32.32,0,0,0,0-.09s0-.07,0-.09,0-.06,0-.09,0-.07,0-.1,0,0,0-.08,0-.07,0-.1,0-.06,0-.08,0-.07,0-.1,0-.06,0-.09,0-.07,0-.1a.13.13,0,0,1,0-.08.34.34,0,0,1,0-.1V69.13c0-.48.15-.66.63-.65s.95,0,1.43,0l.44,0,.71,0a12.9,12.9,0,0,1,2.24.14,5.9,5.9,0,0,1,3.22,1,16.94,16.94,0,0,1,1.64.84l3.88,2.37a2.19,2.19,0,0,1,.69.63c.42.6.87,1.22,1.31,1.84.07.1.18.21.08.34a.21.21,0,0,1-.11.08h0a.42.42,0,0,1-.3-.08l-1.74-1a28,28,0,0,0-6.36-2.54l-.58-.15a11.7,11.7,0,0,0-1.9-.45l-.88-.2s0,.07.1.14l.07.09a1.1,1.1,0,0,0,.23.2l.12,0c1.33.68,3.58,1.1,5.23,1.86l0,0-.08,0-.55-.25-.16-.07,0,0,0,0,.16.07.55.25.07,0h0l.37.19A18.73,18.73,0,0,1,176,75.5l1.58,1.21a11.72,11.72,0,0,1,4.52,6.85c0,.09,0,.17,0,.25l.06.09a.75.75,0,0,1,.1.56s0,.09,0,.13c0,.41-.35.24-.53.24a14.41,14.41,0,0,1-3.57-.65h0l-1-.31c-1.24-.44-2.41-1-3.6-1.39a16.4,16.4,0,0,1-3.88-2.42,45.78,45.78,0,0,1-5.87-4.79,2.12,2.12,0,0,1-.47-.61c-.12-.3-.25-.6-.36-.91l-.21-.54c0-.12-.09-.23-.14-.36s0,0,0,0a.15.15,0,0,1,0-.06h0s0,0,0-.06a1.06,1.06,0,0,1,0-.61Zm8.86.86-.13,0h0Zm-.18-.07h0l-.28-.1-.11,0,.11,0,.28.1Zm-2.8-.92-.09,0Zm-.72-.22c0-.11,0-.16,0-.17a.41.41,0,0,0,.17,0h0c-.07,0-.17,0-.2.11Zm-6.2,3.07c0-.14.12-.21.2-.19v0s.08.05.12.14a9,9,0,0,0,1.76,2.33c.73.71,1.52,1.35,2.28,2,1.58,1.42,3.18,2.82,4.8,4.18A8.79,8.79,0,0,0,174.35,85a82.87,82.87,0,0,0,9.23,1.49,4.16,4.16,0,0,1,2.19.92h0l.14.11a43,43,0,0,0-5.19-.27,40.66,40.66,0,0,0-5.63.4,5.68,5.68,0,0,1-2-.16,31.29,31.29,0,0,1-5.2-1.86,17.86,17.86,0,0,1-5-3.44c-.12-.12-.23-.21-.34-.33a5.85,5.85,0,0,1-1.19-1.64v-.06a6.3,6.3,0,0,1-.1-4.15c.11-.41.24-.82.37-1.22Zm15.26,24.66h-.36c-.23,0-.45.06-.68.07a.51.51,0,0,0-.51.34c-.09.22-.22.42-.33.64a.93.93,0,0,0-.05.1,9,9,0,0,1-1.85,2.82c-.17.18-.35.35-.54.52a18.48,18.48,0,0,1-1.46,1.19,11.51,11.51,0,0,1-2.74,1.31l-.22.09-.19.08-.12,0-.18.06c-.21.08-.38.21-.27.53a.66.66,0,0,0,.69.47,1,1,0,0,0,.24,0,3.38,3.38,0,0,0,.88-.19c.28-.1.56-.23.85-.35a6.44,6.44,0,0,1,.61-.24,19.32,19.32,0,0,1-.49,2l-.13.31c-.17.38-.34.76-.52,1.13s-.24.49-.37.73a21.69,21.69,0,0,1-2.37,3.84c-.19.25-.4.48-.61.71a10.14,10.14,0,0,1-1.48,1.29l-.6.42q-.6.38-1.23.72c-.33.18-.66.34-1,.49l-.38.17a2.88,2.88,0,0,0-.31.13,2.77,2.77,0,0,0-.26.1l-.71.26a.88.88,0,0,1-.23.07c-.25.09-.5.17-.76.24-.79.24-1.59.44-2.39.61-.31.07-.63.12-1,.18h-.11l-1,.16-1,.14a12.6,12.6,0,0,1-3.42-.1.28.28,0,0,1-.13,0l-.17,0a3.64,3.64,0,0,1-.84-.35c-.37-.2-.71-.41-1.07-.59s-.51-.27-.76-.42-.65-.4-.94-.62a3.68,3.68,0,0,1-1.37-1.64,9,9,0,0,0-.53-1.13,2.81,2.81,0,0,0-.19-.31,15.94,15.94,0,0,0-1.61-2.16c-.24-.28-.48-.56-.74-.83s-.24-.28-.36-.4c-.49-.56-1-1.1-1.52-1.62l-.4-.4a16.47,16.47,0,0,0-1.68-1.45c-.14-.11-.3-.22-.45-.32-.46-.33-.94-.63-1.42-.91l-.36-.22-.35-.22a9.28,9.28,0,0,1-3.63-4.35.34.34,0,0,0-.06-.12,1.23,1.23,0,0,0-1.29-.73,3.6,3.6,0,0,1-1.47-.28h0a2.64,2.64,0,0,1-.77-.49l-.15-.09a5.41,5.41,0,0,1-.35-.53,33.25,33.25,0,0,1-2.26-3.86l0,0,0-.08v0c-.13-.38-.27-.77-.42-1.15-.08-.17-.15-.34-.21-.5a2,2,0,0,1-.1-.61,2.62,2.62,0,0,1,0-.29,1.29,1.29,0,0,0,0-.19.26.26,0,0,0,0-.08,1.22,1.22,0,0,1,.07-.17,2.73,2.73,0,0,1,.75-.83l.39-.3c.27-.19.55-.36.82-.54.42-.26.84-.5,1.28-.72a24.56,24.56,0,0,1,5-1.85l.31-.07c.2,0,.41,0,.62-.08s.41,0,.62,0h.62a1.62,1.62,0,0,0,.31,0c.7,0,1.4-.07,2.11-.11,1.05-.07,2.11-.15,3.16-.25s2.11-.21,3.17-.33a20.38,20.38,0,0,0,5.51-1.4l1.09-.49c.21-.12.43-.22.64-.33l.37-.2c.84-.45,1.69-.88,2.5-1.36a.66.66,0,0,1,.33-.2h0v.07a.33.33,0,0,1-.11.2l-.13.08a22,22,0,0,1-2.91,2.63l-.29.27-1,.8a12.54,12.54,0,0,0,3.5-.46,9.83,9.83,0,0,0,4.28-2.56,12.11,12.11,0,0,0,.81-1,13.65,13.65,0,0,0,1.63-2.83,9.75,9.75,0,0,0,2.2,3.36c.06.07.11.16.17.23l.17.22a1.5,1.5,0,0,0,.35.36,1.65,1.65,0,0,0,.27.19l.26.2.13.1c.61.48,1.24,1,1.87,1.42.42.31.85.6,1.28.9.65.45,1.3.89,1.93,1.34a19.53,19.53,0,0,0,2.74,1.56l.72.32c.73.31,1.47.58,2.22.82l.13,0a9.88,9.88,0,0,0,1.46.23l.54,0a1.34,1.34,0,0,1,.35.14,1.77,1.77,0,0,1,.39.3,2.63,2.63,0,0,1,.88,1.29.3.3,0,0,1,0,.14.11.11,0,0,1,0,.06c-.05.1-.14.18-.19.28-.17.3-.36.59-.5.9a1.11,1.11,0,0,1-.07.16,1.82,1.82,0,0,0,0,1.53,9.5,9.5,0,0,0,1.71-2.21,6.22,6.22,0,0,0,.33-.69c.07-.15.12-.32.18-.49s0-.34.06-.49-.14-.41-.06-.53,0,0,0,0l.08,0,.16,0a1.73,1.73,0,0,1,.32,0,2.86,2.86,0,0,1,.82.12c.17.06.11.27.1.43v0a4.41,4.41,0,0,1-.43,1.42,2.22,2.22,0,0,1-.14.32,9.84,9.84,0,0,1-1.12,2.19A3.66,3.66,0,0,1,176.81,99.46Zm1.54,2.64c-.19,1-.34,2-.51,2.94a2.59,2.59,0,0,1-.28,1l-.05-.26a.61.61,0,0,1-.07.14,32.19,32.19,0,0,1-.43-4.13c0-.31.2-.38.39-.45s.73-.48.95-.31l.07.08s0,0,0,0c.25.2,0,.65-.11,1ZM157.54,123a9.63,9.63,0,0,1-1.61.13,7.54,7.54,0,0,1-1.63-.18.44.44,0,0,1-.38-.51c0-.15.13-.15.24-.15a.6.6,0,0,1,.23,0h1.53a5.91,5.91,0,0,0,1.39-.14,1,1,0,0,1,.24,0c.18,0,.32,0,.34.31s.05.48-.35.53Zm-26.23-12.62h0a34.43,34.43,0,0,0,.33-3.51c0-.24.15-.22.29-.09s.44.44.66.65h0l.09.08a.29.29,0,0,1,.07.35l-1.31,2.64-.14,0s0,0,0-.07Zm45.29-19.5a12.13,12.13,0,0,0-1.49-.14,5.34,5.34,0,0,1-2.65-.94h.1l-.21-.11c.14,0,.3,0,.44,0a4.17,4.17,0,0,1,.49.08,13,13,0,0,0,4.12-.25,6.16,6.16,0,0,1,3.84,1h-.07l.19.1a18.54,18.54,0,0,1-4.76.18Zm-52.69-18a28.11,28.11,0,0,1,1.54-2.54c.28-.41.56-.82.85-1.21.14-.2.3-.4.45-.59.45-.6.92-1.17,1.4-1.73s.95-1.13,1.45-1.69,1-1.11,1.46-1.68a5.3,5.3,0,0,1,.67-.57l.15-.18c.47-.4.87-.81,1.4-1.23l.07-.06.4-.36a29.17,29.17,0,0,1,4.67-3.42,5.09,5.09,0,0,1,.5-.3l.65-.28a.61.61,0,0,1,.17-.07c.33-.14.67-.26,1-.38l.69-.21c.82-.24,1.63-.44,2.44-.69a14.28,14.28,0,0,1,4.58-.67h.66a9.86,9.86,0,0,1,3.34,1c.46.21.93.41,1.39.63l.34.17c.34.17.69.34,1,.54s.44.25.66.38.44.26.64.42a12.24,12.24,0,0,1,1.21,1,9.64,9.64,0,0,1,2.71,4.22,16.1,16.1,0,0,1,.76,3.62,10.09,10.09,0,0,1-.56,3.47c0,.17-.11.21-.17.2s-.13-.13-.2-.21c-.42-.5-.84-1-1.26-1.47a12.43,12.43,0,0,0-6.11-4,24.81,24.81,0,0,0-5.82-.9,22.26,22.26,0,0,0-4.72.54c-1.24.24-2.47.43-3.7.66a10,10,0,0,0-2.26.83c-.35.15-.7.31-1.06.44l-.11,0a28.92,28.92,0,0,0-6,3.34,9.5,9.5,0,0,0-1.42,1.28l-.06,0-.38.38c-.88.86-1.75,1.74-2.71,2.52a12.27,12.27,0,0,1-1.58,1.56A8.37,8.37,0,0,1,123.91,72.88Zm-.39,5.64a1.72,1.72,0,0,1,.24-.31,72.63,72.63,0,0,1,6-5.65,29.58,29.58,0,0,1,12.05-6,15.5,15.5,0,0,1,3.34-.41c1.3,0,2.59-.06,3.87-.1a12.12,12.12,0,0,1,6.84,1.9A11.79,11.79,0,0,1,158,69.64l.08.08a12.84,12.84,0,0,1,1.88,2.4,3.27,3.27,0,0,1,.19,2.42,11.16,11.16,0,0,1-3.48,5.79,31.14,31.14,0,0,1-5.29,3.79,19.78,19.78,0,0,1-8.43,2.8c-3.7.55-7.45.61-11.17,1.1-1.35.17-2.71.28-4.06.52a6.32,6.32,0,0,0-4,2.41,14.33,14.33,0,0,0-.94,1.77,1.6,1.6,0,0,1,0-.21,3.1,3.1,0,0,1,.21-2.1,6.56,6.56,0,0,1,3.12-3.16c2.43-1.28,5.15-1.54,7.75-2.2,2.11-.53,4.28-.84,6.38-1.42a42.52,42.52,0,0,0,8.35-3.22,10,10,0,0,0,3.84-2.84,4.27,4.27,0,0,0,.71-3.27c0-.19-.09-.29-.16-.31s-.17.05-.29.16a30.53,30.53,0,0,1-3.35,2.63,19.49,19.49,0,0,1-6.08,2.46,61.51,61.51,0,0,1-10.34,1.82,28.48,28.48,0,0,0-7.26,1.42A15.13,15.13,0,0,0,120,85.35a6.76,6.76,0,0,1-.76.57,2.07,2.07,0,0,0,0-.22l-.15.11v0a.6.6,0,0,1,.13-.09,3.29,3.29,0,0,1,.5-1.17q1.88-3,3.78-6Zm14,3.7,3.07-.5.53-.1a7.12,7.12,0,0,1-2,.63c-3.28.82-6.63,1.3-10,1.92A15.28,15.28,0,0,0,122.73,87a2.45,2.45,0,0,1-.37.26c-.15.09-.22.07-.25-.06a.37.37,0,0,1,0-.11,1.39,1.39,0,0,1,1-1.61L126.23,84a13.56,13.56,0,0,1,4.35-1C132.9,82.79,135.22,82.49,137.56,82.22Zm-.12-.11h0Zm-12-54.9c.06.16.07.29-.1.38l-1.5.93-.27.12a1.69,1.69,0,0,0-.18-.3l-3.17-3.63c-.14-.17-.28-.32,0-.48,1-.59,1.83-1.55,2.93-2.05.28-.13.38-.14.52.17C124.36,23.92,124.84,25.6,125.43,27.21Zm-8.58-7.4c1.49-.53,3-1.14,4.43-1.73A59.17,59.17,0,0,0,127.37,15c.21-.11.41-.25.62-.37s.34-.33.58-.21.18.45.18.79-.15.65-.48.94c-2,1.89-4.13,3.68-6.3,5.41a17.93,17.93,0,0,1-2.87,1.53c-.2.1-.31,0-.42-.14-.71-.9-1.4-1.82-2.1-2.72-.27-.32.1-.31.27-.38ZM104.09,39.06c-1.61-5-3.29-9.9-4.63-15-.31-1.17-.44-2.4-.66-3.59a.6.6,0,0,1,.39-.66c.31-.16.33.21.44.35,2.21,3.05,3.71,6.5,5.51,9.78.54,1,1.14,1.94,1.72,2.91.11.18.2.34.48.24s.25-.31.2-.54a20.24,20.24,0,0,0-1.13-2.88,1.07,1.07,0,0,1,0-.94c.81-1.66,1.93-3.11,2.82-4.7s1.85-2.75,2.64-4.21a1.22,1.22,0,0,1,2-.28,5.71,5.71,0,0,1,1,1.34,24.25,24.25,0,0,0,3.79,4.31c.95,1,1.93,1.89,2.94,2.76.34.3.39.75.57,1.13a.21.21,0,0,1-.11.32.94.94,0,0,0-.18.11,2.08,2.08,0,0,1-2.59.12,18.34,18.34,0,0,1-5.06-3.79l-.17-.14c-.68-.51-.71-.48-1,.3s-.51,1.6-.86,2.36c-.13.27.07.55.27.75s.38.57.79.52a.36.36,0,0,0,.32-.33c.1-.46.22-.93.35-1.5a55.19,55.19,0,0,0,4.92,3.42l-1.63.92c-4.18,2.35-8.37,4.7-12.53,7.07-.34.18-.48.22-.62-.2Zm1.46,3.26c-.15-.32-.1-.46.2-.64q7.57-4.69,15.14-9.41c.26-.17.52-.08.77-.13a7.79,7.79,0,0,0,2.52-1s.15-.07.18-.12c.56-1.26,1.82-1.68,2.87-2.17a35.87,35.87,0,0,0,7-3.72,1.08,1.08,0,0,1,1.38,0A1.24,1.24,0,0,1,136,26.5a3.27,3.27,0,0,1-.94,1.7,32.23,32.23,0,0,0-5.17,6.4,49.42,49.42,0,0,0-3.66,6.5,4.41,4.41,0,0,1-.85,1.21,15.11,15.11,0,0,1-5,3.74,1,1,0,0,0-.63.93c0,.35-.15.69-.17,1a2.83,2.83,0,0,1-1.12,2.24c-.23.18-.26.48-.35.73l-1.6,5.36s0,.09,0,.11,0,.19-.09.23a.86.86,0,0,1-.66-.13c-2.62-.6-5.21-1.26-7.8-2a9.79,9.79,0,0,0-1-.21c-.52-.07-.56-.31-.32-.71A11.56,11.56,0,0,1,108.42,49a.72.72,0,0,0,0-.9c-1.12-1.86-2-3.85-2.89-5.8Zm-5.44,21.46-.21,0c-.26-.07-.34-.23-.3-.58q.47-4.17.9-8.37a.84.84,0,0,1,0-.18.32.32,0,0,0,0-.09.22.22,0,0,1,.22-.11.74.74,0,0,1,.23,0l11.34,3,11.35,3c.37.1.48.21.35.59l-1.63,5.35c-.06.21-.1.44-.34.44a.23.23,0,0,1-.11,0L115.89,66l-4-.55q-5.89-.84-11.83-1.63Zm3.11,5.4a.65.65,0,0,1,0-.5,1.34,1.34,0,0,1,.09-.24.26.26,0,0,1,0,.08,1.65,1.65,0,0,1-.12.66ZM138,121.7h0c-.14,0-.16.1-.23.14l-.11.08a1.88,1.88,0,0,1-.23.16,1.18,1.18,0,0,0-.45.51s0,0,0,0,0,.09,0,.09h0v.08c-.14.41-.21.7-.28.91a1.56,1.56,0,0,0-.06.15.2.2,0,0,1-.06.09.18.18,0,0,1,0,.07.21.21,0,0,1-.14.07h0A.79.79,0,0,1,136,124l-.8-.28s-.06,0-.07,0l-.07,0-.16-.07h-.05v-.06h0c-.42-.14-.81-.23-1.19-.38s-.47-.15-.71-.25a4,4,0,0,0-.88-.21c-.82-.29-1.65-.43-2.44-.71a1,1,0,0,1-.25,0v0c-.56-.12-1-.26-1.55-.36a.68.68,0,0,1-.66-.87,5,5,0,0,0,0-.67c0-.07,0-.1,0-.24s-.21-.31-.32-.49a.65.65,0,0,1-.09-.16c-.07-.07-.21-.14-.21-.22s-.08-.06-.13-.09c-.43-.41-.31-1-.25-1.48,0,0,0-.11,0-.16s0-.23,0-.33,0-.11,0-.15c.23-.88.29-1.71-.66-2.23-.11-.07-.18-.14-.32-.24v0c-.42-.33-.89-.69-1.32-1-.07-.14-.09-.17-.23-.22a8.42,8.42,0,0,1-1.81-1.34c-.14-.08-.3-.15-.44-.24h.06c-.09-.14-.18-.13-.26-.2a3.56,3.56,0,0,0-.35-.22c-.7-.61-1.66-1.17-2.42-1.86a2,2,0,0,1-.64-.46v0c-.75-.52-1.48-1-2.21-1.59h0c-.08,0-.08-.07-.22-.14a7.44,7.44,0,0,1-1.21-.84.36.36,0,0,0-.34-.15c-.34-.28-.63-.4-.92-.66l-.35-.24a13.09,13.09,0,0,1-2.32-1.68l-.07-.07-.13-.15a1,1,0,0,1-.15-.25.81.81,0,0,1-.07-.22V103a17.36,17.36,0,0,1-1.27-1.76l0-.08a.32.32,0,0,1,0-.09.86.86,0,0,1,0-.15.62.62,0,0,1,.14-.31s0-.07,0-.12a11.78,11.78,0,0,1,1-2.56v-.21a.77.77,0,0,0,0-.18.45.45,0,0,0,0-.08l0,0a.21.21,0,0,0-.1-.06h0a.66.66,0,0,0-.34.13,1.31,1.31,0,0,0-.32.25l-.12.09s0,.07-.08.11,0,0,0,0,0,0,0,0,0,0,0,0v0a9.76,9.76,0,0,1-1.07.9c-.07.07-.2.15-.2.22h0a.32.32,0,0,1-.42.07c-.61-.27-1.21-.52-1.82-.8a.52.52,0,0,1-.24-.37c0-.06,0-.12,0-.18s0-.1,0-.16v0a5.58,5.58,0,0,1,.31-2.56,1.52,1.52,0,0,0,0-.21,20.23,20.23,0,0,1,.43-2.47v-.37h0c-.13-.9-.14-1.79-.2-2.69,0-.15,0-.31,0-.46-.08-1.68-.2-3.35-.25-5-.13-3.5-.41-7-.31-10.49a3.9,3.9,0,0,0-.28-1.51c-.05-.11-.1-.22-.16-.33a8.75,8.75,0,0,0-.58-1,1.55,1.55,0,0,1-.28-1.39c.21-.82.37-1.66.52-2.49.07-.4.19-.61.64-.45a2.45,2.45,0,0,0,.55,0c.74.17,1.51.19,2.26.37a.45.45,0,0,1,.2,0,12.39,12.39,0,0,1,2.12.29.48.48,0,0,1,.23,0c.84.12,1.69.21,2.53.35a1,1,0,0,1,.55.1h.07c1,.12,1.76.19,2.6.33h-.08v0c.56.07.92.14,1.36.22a9.27,9.27,0,0,0,1.35.18h.11a.45.45,0,0,0,.13,0,.43.43,0,0,1,.44.41c.22,1.33.41,2.67.69,4,0,.1,0,.18,0,.27s.07.43.11.64c.13.65.24,1.3.37,1.94a1.41,1.41,0,0,0,0,.22v0c.14.85.3,1.61.44,2.41v.26a10.2,10.2,0,0,0-.76,1,9.28,9.28,0,0,0-1,1.76c-.18.43-.41.88-.59,1.32h0a9,9,0,0,1-.58,1.31s0,0,0,.06,0,.14-.07.18h0c-.24.63-.5,1.25-.8,1.85-.1.19-.21.39-.33.59s-.14.22-.14.32a6.53,6.53,0,0,1-.53,1.56,4.25,4.25,0,0,1-.44,1.33,12.4,12.4,0,0,1-.76,2.3,1.07,1.07,0,0,0-.11.33v0s0,.11-.06.17a.76.76,0,0,1-.06.18s0,0,0,.06c-.07,1.45-.15,2.9-.22,4.34l.12,0c.18-.37.37-.72.55-1.09s.32-.71.52-1.08a2.19,2.19,0,0,0,.3-.76c.42-.7.8-1.41,1.23-2A.69.69,0,0,0,117,92c.37-.56.79-1.31,1.23-2,.15-.25.31-.47.45-.72h0c.1-.28.25-.32.38-.45a1.17,1.17,0,0,1,.48-.38c0,.11,0,.21,0,.31s0,0,0,.06a.49.49,0,0,1-.05.16s0,0,0,.06a.45.45,0,0,1,0,.11.49.49,0,0,0,0,.12s0,.07,0,.11a.24.24,0,0,1,0,.08h0a23.74,23.74,0,0,0-.14,2.69s0,.11,0,.14h0c.12.84.26,1.68.37,2.53h0s0,.18,0,.25c.14.85.33,1.7.42,2.56,0,0,0,.07,0,.1a.9.9,0,0,1,0,.16,7,7,0,0,0,1,1.73c.23.32.47.7.68,1h0v0c.71.61,1.3,1.25,2.09,1.81.11,0,.22.14.33.14h0v.07c.28,0,.52.25.81.17a.39.39,0,0,0,.16-.07s.1-.06.11-.1-.05-.2-.15-.24c-1.16-.73-1-1.93-1.11-3h0a9.07,9.07,0,0,1,.72.81.7.7,0,0,0,.14.16c.09.11.19.21.29.32a6,6,0,0,0,.64.59,4.36,4.36,0,0,0,.73.52c.11,0,.22.14.32.14h0c.85.41,1.58.8,2.35,1.21a1,1,0,0,1,.47.21,6.61,6.61,0,0,1,.53,2.68s.06.09.07.16a.57.57,0,0,1,0,.19,10.13,10.13,0,0,1,0,2.46.24.24,0,0,1,0,.22s0,0,0,.08h0a9.5,9.5,0,0,1-.23,2.43c0,.8-.26,1.57-.35,2.38a.26.26,0,0,1,0,.1c0,.15-.11.33.23.29h0c.76-.79,1.52-1.57,2.22-2.45v.06a.78.78,0,0,1,.34-.57,10.16,10.16,0,0,0,.89-1.17c.29-.4.59-.8.88-1.21,0,0,0,0,0-.07a.4.4,0,0,1,.16-.26.16.16,0,0,1,.09,0h.08a.69.69,0,0,1,.3.11c.15.09.31.18.45.28a7.23,7.23,0,0,1,2.43,1.58c.07.07.16.08.23.22a2.3,2.3,0,0,1,.77.78l.23.21s0,0,0,0c1.11.94,1.2,1.45.39,2.7a.16.16,0,0,1-.09.08,2,2,0,0,1-.15.33,1.06,1.06,0,0,1-.11.21.93.93,0,0,0-.05.1,3.3,3.3,0,0,0-.53,1.08,2.71,2.71,0,0,0-.07,1c.16.55.3,1.11.41,1.68a8.68,8.68,0,0,1,.17,1,1.53,1.53,0,0,1-1,1.69Zm3.74,6.85c-.18.23-.21.69-.51.65h0s0,0-.08,0a3.77,3.77,0,0,1-1.56-.5c-.17-.12-.13-.33-.13-.53v-2.65c0-.19.07-.4-.11-.53-.62-.39-.47-1.06-.62-1.63-.06-.22.1-.33.23-.48.54-.6,1.08-1.21,1.63-1.81a1.05,1.05,0,0,0,.25-1.31,3.09,3.09,0,0,1,0-2.84c.32-.76.53-1.56.83-2.46l.08.1h0a13.21,13.21,0,0,1,1.46,2,9,9,0,0,0,3.89,3.84,6.93,6.93,0,0,0,2.42,1.11h.13c.09,0,.23,0,.2.14s-.09.08-.18.07h0a.11.11,0,0,1-.08,0,16.48,16.48,0,0,0-2.89.4c-.5.1-1,.22-1.5.34l-1.34.29-.09,0h0c-.2,0-.28.14-.25.34a.41.41,0,0,0,.39.42,7.87,7.87,0,0,0,1.53.1h.08a14.23,14.23,0,0,0,2.06-.2,15,15,0,0,1,2.31-.18,14.29,14.29,0,0,1,2.25.17c-2.52.41-4.6,1.83-6.88,2.78-1.18.5-2.09,1.44-3.22,2-.08.1-.13.26-.21.35Zm7.29,1.86s0,0,0,0h-.1l-.07-.07-5.05-1.25c.58-.47,1-.73,1.71-.47,1.15.45,2.22,1.09,3.33,1.61a.25.25,0,0,1,.17.05s0,0,0,.07v0Zm5,5.39a3.83,3.83,0,0,1-1.08,1.08,8.46,8.46,0,0,1-2.83,1.42,12.91,12.91,0,0,1,1.44-3.43,1.8,1.8,0,0,1,2.21-.43A1,1,0,0,1,154,135.8Zm6.56-7.48c-1.29,1-2.58,2.09-3.79,3.23a.59.59,0,0,1-.85.09,53.46,53.46,0,0,0-6.43-3.2c-1-.41-2-.57-3-.93.11-.21.32-.21.49-.26,2.16-.81,4.35-1.52,6.46-2.47a2.83,2.83,0,0,1,1.63,0,3.6,3.6,0,0,0,2.31-.27.45.45,0,0,1,.42-.05l5,2c-.72.6-1.45,1.2-2.19,1.79Zm10.07-7.15a3,3,0,0,0-.45,2.87,1.89,1.89,0,0,1-1.07,2.63,1.34,1.34,0,0,1-.7.21.77.77,0,0,1-.52-.17c-2.2-1.52-4.81-2-7.27-2.9a10,10,0,0,0-1.06-.33c-.42-.1-.39-.38-.34-.68s.16-.24.27-.22a.8.8,0,0,1,.37.08,69.66,69.66,0,0,1,8.37,2.32,1.07,1.07,0,0,0,.25.07c.2,0,.25-.21.23-.48-.06-.63-.12-1.25-.85-1.59a16.35,16.35,0,0,0-5.71-1.36q-.44,0-.87-.06c1.39-.84,2.92-1.29,4.18-2.38a5.22,5.22,0,0,0,.43-.39l2.34-2.83c.1-.15.18-.31.28-.46l.07,0,0,0a.65.65,0,0,1,.3.43c.59,1.45,1.16,2.92,1.76,4.37a.78.78,0,0,1,0,.87Zm30.1-59.78a.39.39,0,0,1,.08.14.15.15,0,0,1,0,.13.24.24,0,0,1-.09.08l0,.08,0,0s0,0,0,0a0,0,0,0,1,0,0h0v0a1.59,1.59,0,0,0,.06,2.43.46.46,0,0,1,.08.21c.57.75.1,1.49,0,2.24,0,.07,0,.1-.08.12l0,0a1,1,0,0,1-.17,0h-.06c-.49-.14-1-.3-1.47-.45,0,0-.07,0-.12,0s-.07,0-.11,0a1.64,1.64,0,0,1-.69-.11,1.48,1.48,0,0,0-1.71.29l0,.12a1.7,1.7,0,0,0,1,.55,25.75,25.75,0,0,1,4,2,.84.84,0,0,1,.34.88,4.62,4.62,0,0,1-.11.61L201,72.6a.73.73,0,0,1-.12.45c0,1-.67,1.72-1,2.56a.59.59,0,0,0-.12.24A16,16,0,0,1,199,77.6s0,.09-.07.14v0s0,0,0,0,0,0,0,.05a.13.13,0,0,1,0,0,1.52,1.52,0,0,1-.34.77,11.11,11.11,0,0,1-1.09,2.53.37.37,0,0,0-.1.21c-.37.85-.75,1.86-1.11,2.79-.09.34-.16.67-.24,1l0,.08s0,0,0,0,0,.06,0,.08a2.56,2.56,0,0,1-.21,1.13c-.07.22-.13.48-.2.7a.35.35,0,0,1,0,.12c-.39,1.78-.78,3.57-1.18,5.34-.32,1.47-.45,3-.69,4.42s-.28,2.8-.62,4.15a14.09,14.09,0,0,1-1.25,2.81,26.71,26.71,0,0,1-1.21,2.61l0,.08a1.34,1.34,0,0,0-.07.18.38.38,0,0,0,0,.1c0,.07,0,.13,0,.2a.75.75,0,0,0,0,.21,1.48,1.48,0,0,1,0,.21v.21c0,.14,0,.28,0,.42a36.19,36.19,0,0,0-.24,4.53.46.46,0,0,1-.34.54l-.34.13c-.22.08-.45.18-.66.28l-.35.14a5.35,5.35,0,0,1-.58.2v0a.15.15,0,0,1-.07,0l-.77.32-.55.22a3.6,3.6,0,0,1-1.24.54l-.21.13c-.89.39-1.82.8-2.66,1.19,0,0-.08,0-.11,0a11.54,11.54,0,0,0-1.45.65l-1.55.66c-.81.37-1.63.71-2.45,1.07a.33.33,0,0,1-.1,0c-.74.28-1.52.69-2.22,1a9.27,9.27,0,0,1-1,.45c-.65.26-.79.23-.93-.43-.42-.31-.46-.83-.62-1.27s-.28-.88-.42-1.31c0-.14-.1-.11-.1-.19a1.94,1.94,0,0,1-.21-.58s0-.07,0-.1,0-.07-.06-.11l0-.1h0c-.2-.59-.41-1.17-.55-1.76a7.44,7.44,0,0,1-.47-1.18,1.41,1.41,0,0,1,0-.41c0-.07,0-.13.05-.2s0-.07,0-.09c.12-.29.3-.55.44-.82s.18-.45.28-.68.18-.39.28-.67.37-.92.65-1.41a1.67,1.67,0,0,1,.11-.34c.26-.85.54-1.73.88-2.56,0,0,0-.07,0-.09.1-.51.58-.69.86-1h0c.14,0,.21-.12.28-.12a1.44,1.44,0,0,1,.25-.28c.16-.19.3-.38.44-.58l.2-.3c.26-.39.5-.8.8-1.19.1-.13.18-.32.34-.32h.07c.22.06.15.32.12.49a5.39,5.39,0,0,0,0,1.92c.07.49.16,1,.2,1.47,0,.07,0,.16,0,.23a3.52,3.52,0,0,1,.21,1.11c.11.48.21.94.35,1.42a19.09,19.09,0,0,1,1,2.66h0c.48.7,1,1.51,1.44,2.29a6,6,0,0,0,.43.52h0v.11c.14,0,.21.31.42,0,0-.14-.07-.14-.11-.14a2.07,2.07,0,0,1-.18-.47c0-.09-.07-.21-.09-.29s-.05-.2-.07-.3a.89.89,0,0,0,0-.14,2.74,2.74,0,0,0-.05-.28c0-.14,0-.28-.07-.43s-.05-.3-.07-.44a.18.18,0,0,1-.05-.16,1,1,0,0,0,0-.16c0-.17,0-.34-.07-.51l-.13-1c0-.17-.07-.34-.08-.51a21.28,21.28,0,0,1,.21-5.52h.08c.17-.84.34-1.81.51-2.72H180a17.33,17.33,0,0,0,.44,4.54.34.34,0,0,1,0,.1c.21.58.44,1.16.62,1.75,0,.12.08.25.12.36a1.8,1.8,0,0,0,.17.34l.16.21c0,.07.13.14.13.21a3.39,3.39,0,0,1,.32.35c.08.1.15.21.24.31.29.28.6.55,1,.92,0-.27-.07-.55-.1-.82s-.07-.5-.1-.79c0,0-.07,0-.07-.07,0-.21,0-.42-.05-.63-.09-.65-.16-1.29-.24-1.93a.76.76,0,0,1,0-.15c0-.06,0-.16,0-.16a16.6,16.6,0,0,1-.11-2.43s0-.07,0-.1a.45.45,0,0,1,0-.2,6.5,6.5,0,0,1,0-2,5.88,5.88,0,0,0,0-.6s0-.07,0-.11a9.26,9.26,0,0,1,.32-2.77.56.56,0,0,1,0-.1c.07-.43.14-.93.21-1.4s.14-.94.19-1.4c0-.2.09-.3.2-.3a.45.45,0,0,1,.24.1l.29.18.44.28a3.12,3.12,0,0,1,.41.33.15.15,0,0,0,.06,0,.36.36,0,0,0,.09.07h0a7.21,7.21,0,0,1,2.2,2.09,2.06,2.06,0,0,1,.31.28,1.8,1.8,0,0,1,.33.61,6.28,6.28,0,0,1,1,1.88,1.39,1.39,0,0,0,.06.19c0,.05,0,0,0,.17a2.06,2.06,0,0,1,.25.49c.07.17.13.34.2.49l.11.24a.5.5,0,0,0,.1.14.44.44,0,0,0,.24.14c.16-.52-.21-1-.07-1.5h0c0-.14,0-.14,0-.21a9.93,9.93,0,0,0-.63-2.66,1.22,1.22,0,0,1,0-.23,12.82,12.82,0,0,0-1-2.45.57.57,0,0,1-.22-.36,1.68,1.68,0,0,1-.32-.48l-.22-.37v.1s0,0,0,0h0a15.86,15.86,0,0,0-1.3-1.64l-.05,0c-.06-.06-.12-.06-.17-.2a4.79,4.79,0,0,1-1-.86s-.09,0-.11-.1,0,0-.14-.1c-.71-.47-1.23-1.06-1.85-1.49-.11-.14-.25-.05-.31-.28a44.57,44.57,0,0,1,5.41.21v-.07h0a10.47,10.47,0,0,1,2.56.66s.06,0,.1,0v0a7.77,7.77,0,0,1,1.63.64c.11.05.25.24.38.07s-.06-.27-.14-.38c-.21-.3-.41-.59-.63-.89-.05-.07-.12-.14-.12-.21-.42-.41-.74-.87-1.11-1.28a4.38,4.38,0,0,1-.35-.38,6.36,6.36,0,0,1-1.22-1c-.07,0-.14-.12-.21-.12s-.38-.2-.57-.33-.38-.24-.56-.36-.14-.07-.21-.12l-2.58-.94s-.08,0-.08,0h-.1a.67.67,0,0,1-.42-.17.45.45,0,0,1-.15-.21s0,0,0-.07a.78.78,0,0,1-.05-.37,5.56,5.56,0,0,0-.07-1.29,2.41,2.41,0,0,0-.07-.37c0-.12-.05-.23-.08-.35a3.41,3.41,0,0,1-.08-.37c-.05-.17-.09-.34-.15-.52,0,0-.05,0-.05-.05a21.25,21.25,0,0,0-.73-2.56,2.75,2.75,0,0,1-.1-.34,2.05,2.05,0,0,1-.34-1c0-.11,0-.21,0-.32s0-.11,0-.15a3.72,3.72,0,0,1,.11-.48c.06-.21.13-.42.2-.64,0,0,0-.09,0-.09h0a22.1,22.1,0,0,1,.86-2.75s0,0,0,0l.06,0s0,0,0,0a1.53,1.53,0,0,0,.31-1.08,1.84,1.84,0,0,0-.16-.61,6.18,6.18,0,0,0-.35-.74.14.14,0,0,0-.08-.07s0,0,0,0a6.75,6.75,0,0,1-1.22-2.08l-.1-.22s0-.06-.05-.1,0,0,0,0a.69.69,0,0,1,0-.1h0s0,0,0,0a1.17,1.17,0,0,1,.07-.25c0-.06.06-.1.08-.15a.49.49,0,0,1,.12-.13s0,0,.05,0c.38-.55.73-1.13,1.16-1.66a1.53,1.53,0,0,0,.29-1.48c-.24-.8-.21-.82.59-1.11.14-.06,1.85-.71,2.53-.92l.44-.17.11,0,.33-.12c.88-.34,1.77-.67,2.66-1h.09a18.91,18.91,0,0,1,2.59-1,2.89,2.89,0,0,1,.35-.11c.15-.11.57-.21.71-.32.7-.23,1.26-.55,1.9-.69.93-.71,1.69-.41,2.32.46.08.06.17.11.25.18s.17.24.31.38c.58.66,1.21,1.31,1.82,2Zm-19.78.77-.23.06c-.21,0-.32-.07-.46-.33q-1.92-3.45-3.89-6.89c-.17-.29-.22-.45.2-.56l24.93-7.3.35-.09v0h0c-.13,1.5-.26,2.92-.37,4.33l-.25,3.14a.74.74,0,0,1-.55.76q-9.89,3.4-19.75,6.85ZM140,93.76c2.33.2,4.64.66,7,1a2.51,2.51,0,0,1,.92.21,3,3,0,0,1,1.32,1.7,10.88,10.88,0,0,1,.6,3.31,2.41,2.41,0,0,1-.84,2.22,3.32,3.32,0,0,0-1.17,1.63,2.59,2.59,0,0,1,2.27.92,9.35,9.35,0,0,0,1.31,1.28,2.22,2.22,0,0,0,3.43-.48c.34-.55.66-1.11,1-1.65a4.19,4.19,0,0,1,1.9-1.87c.54-.18.31-.45.12-.68a1.23,1.23,0,0,0-1.64-.11,9.55,9.55,0,0,0-2.24,2.2,3.49,3.49,0,0,1-.66.67.63.63,0,0,1-.93,0c-.34-.34-.68-.69-1-1a.58.58,0,0,1-.18-.84,4.26,4.26,0,0,0,.47-2.42,8.31,8.31,0,0,0-1.76-5.08c-.14-.16-.14-.24.06-.38a5.48,5.48,0,0,0,2.39-4.11c0-.44,0-.79-.39-.91s-.58.23-.73.52A20.31,20.31,0,0,1,150,91.55a2.38,2.38,0,0,1-2.45.9c-3.35-.52-6.7-.86-10.07-1a.61.61,0,0,0-.48,0,9.28,9.28,0,0,0-2.83,2.75s.08,0,.11,0,.21,0,.33-.06a16.8,16.8,0,0,1,5.4-.42Zm31.27,1.31c-.82.41-1.64.84-2.43,1.31a1.76,1.76,0,0,1-.66.28,23.91,23.91,0,0,1-4.24.44,4,4,0,0,1-2.15-.76,1.71,1.71,0,0,1-.86-1.19,1.26,1.26,0,0,1,.61,0,13,13,0,0,0,2.24.32A20,20,0,0,0,169,94.27l1.66-.61c.25-.08.32-.17.1-.41a.85.85,0,0,0-.86-.19,33.06,33.06,0,0,1-11-.27c-1.06-.2-2.18-.27-2.59-1.58a9.82,9.82,0,0,1-.3-1.06,2.14,2.14,0,0,0-.55-1,.51.51,0,0,0-.53-.23c-.22.06-.21.3-.21.47a17.52,17.52,0,0,0,.11,1.77,3.71,3.71,0,0,0,.66,1.8,5,5,0,0,0,3,2c.91.21.91.22,1,1.16.05.41.1.78.48,1a4.85,4.85,0,0,0,2.13.86,2.56,2.56,0,0,1,1.42.39,3.38,3.38,0,0,0,1.87.58c.49,0,1,.06,1.49.14a1,1,0,0,0,.94-.29c1.4-1.16,2.78-2.33,4.08-3.62a.54.54,0,0,0-.69-.07ZM159.7,106.44a.29.29,0,0,0-.45-.13,9.38,9.38,0,0,1-3.58.8c-.52.07-1.17-.08-1.55.3-.93.91-1.72.53-2.53-.11a.75.75,0,0,0-.15-.09,3.24,3.24,0,0,0-3.65,0,2,2,0,0,1-1.56.4,1.07,1.07,0,0,0-1.12.22,4.13,4.13,0,0,1-.59.41c-.55.37-.55.42,0,.83a.93.93,0,0,0,.39.18,4.15,4.15,0,0,0,3.3-.46,2.6,2.6,0,0,1,3,.18,2.67,2.67,0,0,0,2.81.27,17.17,17.17,0,0,1,3.83-1.25c.19,0,.39-.1.57.05.57.52,1.1.16,1.64-.05.21-.09.23-.26.22-.47,0-.45-.38-.7-.58-1Zm-5.1,3.67a14,14,0,0,0-4.13.72c-1.08.36-2.29.62-2.85,1.87a17.66,17.66,0,0,0-.51,2.24,3.85,3.85,0,0,0,.44,1.64c.1.14.14.37.38.35s.34-.22.41-.39a11,11,0,0,0,.47-1.7,2.87,2.87,0,0,1,1.65-2.06c1-.42,2-.81,3-1.21a1.13,1.13,0,0,1,.6-.07c1.25.19,2.56.13,3.67.86a.44.44,0,0,0,.36.07c.43-.1.47-.24.21-.58a4.24,4.24,0,0,0-3.72-1.74Zm-9.8-12.78c.85-.08,1.69-.19,2.52-.3.23,0,.58,0,.64-.22s-.27-.45-.47-.63a.92.92,0,0,0-.41-.15,4.84,4.84,0,0,0-2.56-.09,12.16,12.16,0,0,1-5.2,0c-.47-.11-1-.11-1.52-.18a11,11,0,0,0-2.07.62c-.48.22-.51.49-.08.81a.79.79,0,0,0,.81.19,2.71,2.71,0,0,1,2.9.56,3,3,0,0,0,3.07.51,10.62,10.62,0,0,0,1.71-.88,2,2,0,0,1,.66-.24Zm-15.05,1.58A1.89,1.89,0,0,0,129,97a2.07,2.07,0,0,1-.81-1.18,4.23,4.23,0,0,0-.79-1.8c-.14-.14-.24-.45-.49-.35a.9.9,0,0,0-.66.67,2.89,2.89,0,0,0,1.63,3.24A2.84,2.84,0,0,1,129.2,99c.1.21.11.62.42.55s.06-.45.13-.61Z" transform="translate(-97.15 -4.69)" style="fill:#1a1a1a"/><path d="M103.33,68.52s0,0,0-.08-.07.15-.1.24a.93.93,0,0,0,0,.5,1.28,1.28,0,0,0,.13-.66" transform="translate(-97.15 -4.69)" style="fill:#2e2e2e"/><path d="M179.63,97.59a9.91,9.91,0,0,0,1.12-2.2c0-.11.09-.21.14-.32a3.89,3.89,0,0,0,.42-1.42v0c0-.15.06-.37-.1-.42a2.75,2.75,0,0,0-.81-.13,2.91,2.91,0,0,0-.32,0,.65.65,0,0,0-.16,0,.29.29,0,0,0-.08,0l0,0c-.09.13.11.35.05.52s0,.34-.05.49-.11.33-.18.49a7.32,7.32,0,0,1-.33.69,9.84,9.84,0,0,1-1.71,2.21,1.82,1.82,0,0,1,0-1.53,1.11,1.11,0,0,1,.07-.16c.14-.31.33-.6.49-.9.06-.09.14-.18.2-.28s0,0,0,0a.23.23,0,0,0,0-.14,2.49,2.49,0,0,0-.87-1.3,3,3,0,0,0-.39-.29,1.15,1.15,0,0,0-.35-.14l-.54-.06a7.06,7.06,0,0,1-1.46-.23l-.13,0c-.75-.23-1.49-.51-2.22-.81l-.72-.33A17.61,17.61,0,0,1,169,89.78c-.65-.45-1.3-.89-1.93-1.34-.42-.29-.86-.59-1.28-.9-.64-.45-1.26-.92-1.87-1.42l-.13-.1c-.08-.07-.18-.12-.27-.19l-.26-.2a1.45,1.45,0,0,1-.35-.35l-.17-.23-.17-.22a10.09,10.09,0,0,1-2.2-3.37,13.39,13.39,0,0,1-1.63,2.83c-.27.34-.53.66-.82,1a9.38,9.38,0,0,1-4.27,2.56,12.61,12.61,0,0,1-3.51.46l1-.8.29-.26a22.09,22.09,0,0,0,2.91-2.64l.13-.08a.31.31,0,0,0,.11-.2v-.07l0,0a.61.61,0,0,0-.33.19c-.81.48-1.66.92-2.5,1.37l-.37.2c-.21.11-.42.22-.65.32s-.71.34-1.08.49A20,20,0,0,1,144,88.22c-1.06.13-2.11.22-3.17.32s-2.11.19-3.16.26l-2.11.11h-.31l-.62,0L134,89c-.21,0-.41.05-.62.09a2,2,0,0,0-.31.07,24.91,24.91,0,0,0-5,1.84c-.44.23-.87.47-1.28.72a7.81,7.81,0,0,0-.82.55l-.39.29a2.51,2.51,0,0,0-.75.83.77.77,0,0,0-.07.17.32.32,0,0,1,0,.09s0,.12,0,.18,0,.2,0,.3a3.14,3.14,0,0,0,.28,1.12,27.14,27.14,0,0,0,2.68,5,3.35,3.35,0,0,0,.52.6l.78.5a3.82,3.82,0,0,0,1.48.28,1.23,1.23,0,0,1,1.35.87,9.23,9.23,0,0,0,3.63,4.35c.11.07.22.15.35.22l.35.21c.49.29,1,.59,1.42.92l.45.32a18,18,0,0,1,1.69,1.45,4.93,4.93,0,0,1,.39.4c.52.52,1,1.06,1.52,1.61.13.14.24.28.37.41l.73.83a16.8,16.8,0,0,1,1.62,2.15c.07.1.12.21.18.31a8.46,8.46,0,0,1,.54,1.14,3.63,3.63,0,0,0,1.36,1.63,9.53,9.53,0,0,0,.94.62c.26.14.49.29.76.43s.71.4,1.07.59a4.9,4.9,0,0,0,.85.35l.16,0a.5.5,0,0,1,.13,0,13.49,13.49,0,0,0,3.42.1l1-.14.95-.16h.12l.95-.18c.81-.17,1.61-.37,2.39-.61.26-.07.51-.15.76-.24a1,1,0,0,1,.23-.07q.36-.12.72-.27l.25-.1.31-.12.38-.17,1-.49c.41-.23.82-.47,1.22-.72l.61-.42a11.39,11.39,0,0,0,1.47-1.3c.22-.22.41-.46.61-.7a23.14,23.14,0,0,0,2.38-3.84l.36-.73c.19-.37.35-.75.52-1.13.05-.1.09-.21.13-.31a13.93,13.93,0,0,0,.49-2l-.6.24c-.3.13-.58.26-.86.35a3.24,3.24,0,0,1-.87.2l-.24,0a.62.62,0,0,1-.69-.47c-.11-.32.06-.45.27-.53a.48.48,0,0,1,.18-.06l.11,0,.2-.09.21-.08a10.53,10.53,0,0,0,4.21-2.5c.18-.17.36-.34.53-.53a9,9,0,0,0,1.86-2.81,1,1,0,0,0,0-.1c.1-.22.24-.42.34-.64a.5.5,0,0,1,.5-.34c.23,0,.45-.06.68-.07h.37a3.54,3.54,0,0,0,2.8-1.83Zm-50,1.93c-.31.07-.32-.34-.42-.55a2.75,2.75,0,0,0-1.32-1.35,2.86,2.86,0,0,1-1.63-3.24.92.92,0,0,1,.66-.67c.27-.1.35.21.49.35a4.23,4.23,0,0,1,.79,1.8A2.07,2.07,0,0,0,129,97a1.89,1.89,0,0,1,.75,1.87c-.07.16.18.54-.13.61Zm4.59-5.31s-.06,0-.11,0a9,9,0,0,1,2.83-2.74c.15-.12.32-.06.47-.06,3.38.21,6.73.55,10.08,1.06a2.39,2.39,0,0,0,2.45-.91,20.31,20.31,0,0,0,1.21-1.71c.16-.28.39-.65.73-.52s.45.48.39.91a5.54,5.54,0,0,1-2.39,4.11c-.2.14-.2.23-.06.38a8.31,8.31,0,0,1,1.76,5.08,4.53,4.53,0,0,1-.48,2.42.59.59,0,0,0,.19.84c.36.31.7.65,1,1a.63.63,0,0,0,.93,0,4.19,4.19,0,0,0,.66-.67,9.32,9.32,0,0,1,2.23-2.2,1.23,1.23,0,0,1,1.65.12c.18.22.42.49-.13.67a4.15,4.15,0,0,0-1.9,1.87c-.36.54-.69,1.1-1,1.65a2.23,2.23,0,0,1-3.44.48,9.84,9.84,0,0,1-1.3-1.28,2.58,2.58,0,0,0-2.27-.92,3.45,3.45,0,0,1,1.17-1.63,2.4,2.4,0,0,0,.84-2.22,11.58,11.58,0,0,0-.6-3.31,2.89,2.89,0,0,0-1.33-1.7,2.42,2.42,0,0,0-.91-.21c-2.32-.33-4.61-.79-7-1a17.81,17.81,0,0,0-5.45.4.58.58,0,0,1-.28.08Zm8.22,4.24a3.06,3.06,0,0,1-3.07-.51,2.72,2.72,0,0,0-2.9-.56.79.79,0,0,1-.81-.19c-.43-.33-.4-.6.08-.81a11.22,11.22,0,0,1,2.07-.62,15.15,15.15,0,0,1,1.52.18,12.32,12.32,0,0,0,5.2,0,4.64,4.64,0,0,1,2.56.09,1.52,1.52,0,0,1,.41.15c.2.18.52.35.47.63s-.41.19-.64.22c-.84.11-1.67.22-2.52.3a1.87,1.87,0,0,0-.66.24,10.62,10.62,0,0,1-1.71.88Zm15.7,14a.47.47,0,0,1-.37-.07c-1.12-.74-2.42-.67-3.67-.86a1.16,1.16,0,0,0-.59.07c-1,.4-2,.78-3,1.21a2.83,2.83,0,0,0-1.64,2.06,13.06,13.06,0,0,1-.48,1.7c-.08.18-.16.38-.41.39s-.28-.21-.38-.35a3.61,3.61,0,0,1-.43-1.64,17.62,17.62,0,0,1,.5-2.24c.56-1.25,1.77-1.51,2.86-1.87a14.1,14.1,0,0,1,4.12-.72,4.28,4.28,0,0,1,3.74,1.74c.24.34.2.48-.22.58Zm1.91-4.49c-.53.23-1.07.58-1.63.06-.17-.16-.37-.1-.58-.06A17.11,17.11,0,0,0,154,109.2a2.71,2.71,0,0,1-2.82-.27,2.57,2.57,0,0,0-3-.18,4.16,4.16,0,0,1-3.29.46,1.07,1.07,0,0,1-.39-.18c-.51-.43-.51-.48,0-.83a6.19,6.19,0,0,0,.59-.41,1.09,1.09,0,0,1,1.11-.23,2,2,0,0,0,1.56-.39,3.24,3.24,0,0,1,3.66,0l.14.08c.82.66,1.59,1,2.53.11.38-.36,1-.22,1.55-.29a9.78,9.78,0,0,0,3.59-.8.28.28,0,0,1,.45.12c.2.36.53.62.56,1.06,0,.21,0,.38-.21.46Zm7.84-9.21a1.08,1.08,0,0,1-.94.29c-.5-.08-1-.1-1.5-.14a3.54,3.54,0,0,1-1.87-.57,2.65,2.65,0,0,0-1.42-.4,4.88,4.88,0,0,1-2.12-.86,1.11,1.11,0,0,1-.48-1c-.09-.94-.1-1-1-1.16a4.93,4.93,0,0,1-3-2,3.71,3.71,0,0,1-.66-1.8c-.07-.59-.1-1.18-.12-1.77,0-.17,0-.41.21-.47a.52.52,0,0,1,.54.23,2.29,2.29,0,0,1,.55,1,10,10,0,0,0,.29,1.07c.41,1.31,1.55,1.38,2.59,1.57a33.05,33.05,0,0,0,11,.27c.31,0,.61-.1.86.2s.15.31-.1.4l-1.66.61a19.88,19.88,0,0,1-5.26,1.25,12.22,12.22,0,0,1-2.24-.32,1.33,1.33,0,0,0-.6,0,1.71,1.71,0,0,0,.86,1.18,3.88,3.88,0,0,0,2.15.76,22.24,22.24,0,0,0,4.23-.44,1.83,1.83,0,0,0,.66-.28c.79-.48,1.61-.9,2.44-1.31a.58.58,0,0,1,.7,0,49.7,49.7,0,0,1-4.09,3.65ZM123.15,22.16c-1.1.51-1.88,1.48-2.92,2.06-.29.15-.15.31,0,.48l3.16,3.63a1.21,1.21,0,0,1,.18.29,2.08,2.08,0,0,0,.27-.11l1.51-.93c.17-.1.15-.22.1-.38-.6-1.62-1.07-3.29-1.76-4.88-.16-.3-.27-.28-.54-.16Zm-4.46.78c.11.14.23.25.42.14A19.3,19.3,0,0,0,122,21.54c2.17-1.71,4.28-3.5,6.31-5.4.32-.29.55-.59.48-.94s.09-.63-.19-.79-.39.11-.57.21-.41.26-.62.37a66.06,66.06,0,0,1-6.1,3.12c-1.47.58-2.92,1.2-4.43,1.73-.17.06-.52.06-.24.41l2.07,2.69Zm.18,8.31A48.93,48.93,0,0,1,114,27.83c-.14.58-.25,1-.35,1.51a.35.35,0,0,1-.32.32c-.41.07-.58-.29-.79-.52a.71.71,0,0,1-.27-.74c.35-.76.56-1.59.86-2.37s.34-.8,1-.29a1.77,1.77,0,0,1,.17.14,18.5,18.5,0,0,0,5.06,3.78,2.06,2.06,0,0,0,2.59-.11l.18-.11a.22.22,0,0,0,.11-.33c-.18-.38-.23-.83-.57-1.12-1-.87-2-1.82-2.94-2.76a24,24,0,0,1-3.79-4.32,7.22,7.22,0,0,0-1-1.34,1.21,1.21,0,0,0-2,.29c-.79,1.46-1.83,2.75-2.64,4.2s-2,3-2.82,4.7a1.07,1.07,0,0,0,0,.94,18.43,18.43,0,0,1,1.13,2.89c0,.22.09.42-.2.53s-.37,0-.48-.24c-.58-1-1.18-1.91-1.72-2.91-1.8-3.28-3.3-6.72-5.51-9.78-.11-.14-.13-.5-.44-.35a.59.59,0,0,0-.39.66c.22,1.2.35,2.42.66,3.59,1.34,5.05,3,10,4.63,15,.14.43.28.38.6.19l12.54-7.06c.53-.28,1-.59,1.64-.93ZM108.45,49a11.63,11.63,0,0,0-1.75,4.67c-.22.4-.19.65.33.71.32,0,.65.14,1,.21,2.59.7,5.18,1.35,7.79,2a.87.87,0,0,0,.66.13c.12,0,.1-.13.1-.22a.22.22,0,0,1,0-.12l1.6-5.36c.09-.25.11-.55.35-.73A2.77,2.77,0,0,0,119.63,48c0-.35.15-.68.17-1a1,1,0,0,1,.64-.93,15.07,15.07,0,0,0,5-3.74,4.41,4.41,0,0,0,.85-1.21,48.3,48.3,0,0,1,3.66-6.5,32.47,32.47,0,0,1,5.16-6.4,3.26,3.26,0,0,0,.95-1.7,1.23,1.23,0,0,0-.47-1.28,1.09,1.09,0,0,0-1.38,0,36,36,0,0,1-7,3.71c-1.06.49-2.32.92-2.87,2.17,0,0-.11.08-.18.12a7.73,7.73,0,0,1-2.52,1c-.25.06-.51,0-.78.13q-7.55,4.73-15.13,9.41c-.3.18-.36.32-.2.65a60.07,60.07,0,0,0,2.91,5.78.78.78,0,0,1,0,.91Zm8.09,7.46a.13.13,0,0,0,0,.08S116.52,56.46,116.54,56.45Zm66.84-6.36c2.82-.87,5.64-1.72,8.49-2.55.45-.12.52-.29.35-.71-1.23-3.22-2.46-6.45-3.93-9.58a1.44,1.44,0,0,1-.07-1.23,8.52,8.52,0,0,0,.72-4.67c-.1-.82.06-1.65,0-2.48a56.36,56.36,0,0,0-1.48-6.52,41.85,41.85,0,0,0-2.83-6.9A46.2,46.2,0,0,0,182,11c-.49-.87-1.07-1.69-1.53-2.56a4,4,0,0,0-1.83-1.94c-.23-.1-.54-.31-.72-.08a1.08,1.08,0,0,0-.28,1.07c.31.74.65,1.49,1,2.23A41.34,41.34,0,0,1,181.07,16a14.55,14.55,0,0,1,.5,2.6c0,.33,0,.69-.34.81s-.38-.26-.55-.44c-.63-.69-1.46-1.38-2.45-1a1.55,1.55,0,0,1-.93.08c-.21,0-.47-.09-.53-.33s.17-.38.35-.51a5,5,0,0,0,.51-.32c.21-.2.36-.47.14-.74a11.81,11.81,0,0,0-1.66-1.92c-1.37-1.07-2.75-2.13-4.19-3.06-.22-.12-.43-.26-.64-.39-2.59-1.56-5.26-3-8-4.32a2.28,2.28,0,0,0-1.17-.29c-.28,0-.58,0-.71.32a.83.83,0,0,0,.14.89,4.3,4.3,0,0,0,1,.92,27.66,27.66,0,0,1,3.49,2c2.11,1.62,4.2,3.25,6.24,5a20,20,0,0,1,1.83,1.74l1.06,1.1a.91.91,0,0,1,.25.42s0,0,0,.06v.12a.61.61,0,0,1-.18.33c-.34.33-.67.15-1,0a1.93,1.93,0,0,1-.35-.35l-.17-.17c-.28-.28-.53-.56-.83-.83l-.36-.3-4.73-3.53-4.71-3.54a16.07,16.07,0,0,0-2.83-1.72.57.57,0,0,0-.8.14.93.93,0,0,0-.14,1.11,5.23,5.23,0,0,0,1.29,1.63,21.44,21.44,0,0,1,2,1.87c3,3.28,6,6.5,8.82,9.87a1.52,1.52,0,0,1,.37.79c.08.54-.2.8-.73.61a1.68,1.68,0,0,1-.3-.15,115.73,115.73,0,0,1-10.38-6.36,17.37,17.37,0,0,0-3.1-1.72c-.34-.15-.7-.33-1,.09a1,1,0,0,0,.25,1.15c1.27,1,2.43,2,3.63,3.08,2.69,2.34,5.52,4.53,7.51,7.56a1.66,1.66,0,0,0,1.82.32,6.78,6.78,0,0,1,3.91-1.17h.34a.35.35,0,0,1,.25.07.2.2,0,0,1,.08.13c.16.33-.21.42-.4.55L170,30.66a1.09,1.09,0,0,1-1,.17,7,7,0,0,0-1.83-.38,53.36,53.36,0,0,0-7.87.76,4.94,4.94,0,0,0-1.71.46.81.81,0,0,0-.38.85c0,.27.1.56.5.63l4.88,1a10.46,10.46,0,0,0,1.77.35c1.86,1.17,3.7,2.38,5.47,3.67a8.34,8.34,0,0,0,3.59,1.61c.62.1,1.23.28,1.83.43a7.07,7.07,0,0,1,2.36.68A6.07,6.07,0,0,1,178.88,43a.82.82,0,0,0,1,.56c.43-.11.6.12.74.51.66,1.88,1.35,3.76,2,5.63.2.4.32.52.73.39Z" transform="translate(-97.15 -4.69)" style="fill:#f6e5cc"/></svg>