<?xml version="1.0" encoding="utf-8"?>
<!-- Generator: Adobe Illustrator 23.0.2, SVG Export Plug-In . SVG Version: 6.00 Build 0)  -->
<svg version="1.1" id="Layer_1" xmlns="http://www.w3.org/2000/svg" xmlns:xlink="http://www.w3.org/1999/xlink" x="0px" y="0px"
	 viewBox="0 0 434.94 337.46" style="enable-background:new 0 0 434.94 337.46;" xml:space="preserve">
<style type="text/css">
	.st0{fill:#FFFFFF;}
	.st1{fill:#5F6BDD;}
	.st2{fill:#2D2C56;}
	.st3{fill:#F7F7F7;}
	.st4{fill:#737AFB;}
	.st5{opacity:0.25;}
	.st6{fill:#D98E9D;}
	.st7{fill:#E0E4ED;}
	.st8{opacity:0.3;fill:#737AFB;}
	.st9{fill:#37354C;}
	.st10{fill:#EAD18C;}
	.st11{opacity:0.5;fill:url(#SVGID_1_);}
	.st12{fill:url(#SVGID_2_);}
	.st13{fill:#EEBCC5;}
	.st14{fill:#EFF2F7;}
	.st15{fill:#2D2B42;}
	.st16{fill:url(#SVGID_3_);}
	.st17{opacity:0.5;fill:url(#SVGID_4_);}
	.st18{fill:url(#SVGID_5_);}
	.st19{fill:url(#SVGID_6_);}
	.st20{fill:#9B5342;}
	.st21{fill:#BCBACE;}
	.st22{fill:url(#SVGID_7_);}
</style>
<g>
	<g>
		<path class="st0" d="M392.75,0H42.18c-7.03,0-12.72,5.7-12.72,12.72v241.43h376.02V12.72C405.48,5.7,399.78,0,392.75,0z"/>
		<path class="st0" d="M430.49,249.81H4.45c-2.46,0-4.45,1.99-4.45,4.45v5.77c0,2.46,1.99,4.45,4.45,4.45h426.04
			c2.46,0,4.45-1.99,4.45-4.45v-5.77C434.94,251.81,432.95,249.81,430.49,249.81z"/>
		<g>
			<path class="st1" d="M392.3,5.36H42.64c-4.34,0-7.85,3.52-7.85,7.85v237.32h365.37V13.21C400.15,8.87,396.64,5.36,392.3,5.36z"/>
			<rect x="47.91" y="22.91" class="st2" width="339.11" height="219.25"/>
		</g>
		<path class="st3" d="M219.37,15.21c0,1.05-0.85,1.9-1.9,1.9s-1.9-0.85-1.9-1.9c0-1.05,0.85-1.9,1.9-1.9S219.37,14.15,219.37,15.21
			z"/>
		<path class="st4" d="M254.02,256.24h-73.11c-0.96,0-1.74,0.78-1.74,1.74c0,0.96,0.78,1.74,1.74,1.74h73.11
			c0.96,0,1.74-0.78,1.74-1.74C255.77,257.02,254.99,256.24,254.02,256.24z"/>
		<g class="st5">
			<rect x="90.47" y="35" class="st6" width="34" height="6"/>
			<rect x="59.76" y="35" class="st0" width="14" height="6"/>
			<rect x="59.76" y="46" class="st0" width="14" height="6"/>
			<rect x="59.76" y="59" class="st0" width="14" height="6"/>
			<rect x="59.76" y="72" class="st0" width="14" height="6"/>
			<rect x="59.76" y="85" class="st0" width="14" height="6"/>
			<rect x="59.76" y="98" class="st0" width="14" height="6"/>
			<rect x="131.47" y="35" class="st7" width="114" height="6"/>
			<g>
				<rect x="102.47" y="46" class="st6" width="34" height="6"/>
				<rect x="143.47" y="46" class="st7" width="114.01" height="6"/>
			</g>
			<g>
				<rect x="122.47" y="59" class="st6" width="34" height="6"/>
				<rect x="163.47" y="59" class="st7" width="114" height="6"/>
			</g>
			<g>
				<rect x="142.47" y="72" class="st6" width="34" height="6"/>
				<rect x="183.47" y="72" class="st7" width="114.01" height="6"/>
			</g>
			<g>
				<rect x="122.47" y="85" class="st6" width="34" height="6"/>
				<rect x="163.47" y="85" class="st7" width="174.01" height="6"/>
			</g>
			<g>
				<rect x="102.47" y="98" class="st6" width="34" height="6"/>
				<rect x="143.47" y="98" class="st7" width="74" height="6"/>
			</g>
		</g>
		<g class="st5">
			<rect x="90.47" y="115.02" class="st6" width="34" height="6"/>
			<rect x="59.76" y="115.02" class="st0" width="14" height="6"/>
			<rect x="59.76" y="126.02" class="st0" width="14" height="6"/>
			<rect x="59.76" y="139.02" class="st0" width="14" height="6"/>
			<rect x="59.76" y="152.02" class="st0" width="14" height="6"/>
			<rect x="59.76" y="165.02" class="st0" width="14" height="6"/>
			<rect x="59.76" y="178.02" class="st0" width="14" height="6"/>
			<rect x="131.47" y="115.02" class="st7" width="114" height="6"/>
			<g>
				<rect x="102.47" y="126.02" class="st6" width="34" height="6"/>
				<rect x="143.47" y="126.02" class="st7" width="114.01" height="6"/>
			</g>
			<g>
				<rect x="122.47" y="139.02" class="st6" width="34" height="6"/>
				<rect x="163.47" y="139.02" class="st7" width="114" height="6"/>
			</g>
			<rect x="90.47" y="195.02" class="st6" width="34" height="6"/>
			<rect x="59.76" y="195.02" class="st0" width="14" height="6"/>
			<rect x="59.76" y="206.02" class="st0" width="14" height="6"/>
			<rect x="59.76" y="219.02" class="st0" width="14" height="6"/>
			<rect x="131.47" y="195.02" class="st7" width="114" height="6"/>
			<g>
				<rect x="102.47" y="206.02" class="st6" width="34" height="6"/>
				<rect x="143.47" y="206.02" class="st7" width="114.01" height="6"/>
			</g>
			<g>
				<rect x="122.47" y="219.02" class="st6" width="34" height="6"/>
				<rect x="163.47" y="219.02" class="st7" width="114" height="6"/>
			</g>
			<g>
				<rect x="142.47" y="152.02" class="st6" width="34" height="6"/>
				<rect x="183.47" y="152.02" class="st7" width="174.01" height="6"/>
			</g>
			<g>
				<rect x="122.47" y="165.02" class="st6" width="34" height="6"/>
				<rect x="163.47" y="165.02" class="st7" width="114" height="6"/>
			</g>
			<g>
				<rect x="102.47" y="178.02" class="st6" width="34" height="6"/>
				<rect x="143.47" y="178.02" class="st7" width="114.01" height="6"/>
			</g>
		</g>
	</g>
	<rect x="93.99" y="249.81" class="st8" width="13.31" height="14.67"/>
	<rect x="119.87" y="249.81" class="st8" width="13.31" height="14.67"/>
	<rect x="318.07" y="249.81" class="st8" width="13.31" height="14.67"/>
	<rect x="341.04" y="249.81" class="st8" width="13.31" height="14.67"/>
	<g>
		<path class="st2" d="M113.84,308.36l0.05,7.21c0,0-0.91,4.61-1.64,9.53c-0.73,4.92-1.27,10.14-0.55,11.35
			c1.46,2.43,4.37,0,4.86-2.43c0.49-2.43,1.21-17.48,1.21-17.48l0.49-9.71L113.84,308.36z"/>
		<path class="st2" d="M106.46,307.4l1.11,6.47c0,0,2.19,17.73,0.97,20.4c-1.21,2.67-5.1,1.46-4.86-2.19
			c0.24-3.64-0.73-16.51-0.73-16.51l-2.19-7.77L106.46,307.4z"/>
		<g>
			<path class="st9" d="M109.47,228.44l0.53,7.98l-20.56,9.92c-3.71,2-5.5,6.34-4.28,10.38l14.24,52.92l7.05-2.24l-6.26-48.68
				c-0.44-2.99,1.62-5.79,4.61-6.25l7.32-1.15l7.8-7.95l-9.01,8.09c-2.18,1.96-3.26,4.87-2.87,7.78l5.79,49.12l6.41,1.6l2.86-48.37
				c0.21-3.07,2.27-5.69,5.2-6.62l12.67-4.02c2.02-1.23,3.27-3.4,3.33-5.76l-0.53-17.03L109.47,228.44z"/>
			<path class="st10" d="M145.09,246.3l-3.39-66.09c0,0-14.06-0.84-18.24-0.84c-2.28,0-6.17,1.08-9.24,2.07
				c-2.89,0.93-5.29,0.84-6.69,3.53l-23.05,44.18l14.16,1.35l4.72-5.4l-2.4-3.64l8.61-20.31l-1.69,36.88L145.09,246.3z"/>
			<linearGradient id="SVGID_1_" gradientUnits="userSpaceOnUse" x1="93.9858" y1="209.7537" x2="109.5707" y2="209.7537">
				<stop  offset="0" style="stop-color:#EAD18C;stop-opacity:0"/>
				<stop  offset="1" style="stop-color:#524F63;stop-opacity:0.7"/>
			</linearGradient>
			<path class="st11" d="M109.27,193.1l-15.28,27.6l4.76,5.57c0,0,1.93,0.39,3.77-0.21l0.85-0.97l-2.4-3.64l8.61-20.31L109.27,193.1
				z"/>
			<path class="st0" d="M127.6,190.97c4.64,0,8.41-3.77,8.41-8.41c0-0.94-0.16-1.84-0.45-2.69c-4.33-0.23-9.76-0.5-12.1-0.5
				c-1.03,0-2.39,0.23-3.85,0.56c-0.27,0.83-0.42,1.71-0.42,2.63C119.19,187.21,122.95,190.97,127.6,190.97z"/>
			<linearGradient id="SVGID_2_" gradientUnits="userSpaceOnUse" x1="98.8925" y1="237.0834" x2="184.4411" y2="203.2453">
				<stop  offset="0" style="stop-color:#EAD18C;stop-opacity:0"/>
				<stop  offset="1" style="stop-color:#524F63;stop-opacity:0.7"/>
			</linearGradient>
			<polygon class="st12" points="143.36,191.62 145.09,246.68 122.35,241.23 			"/>
			<path class="st13" d="M122.04,172.58c0.39,0.79,3.15,11.63,3.15,11.63s0.99,1.77,3.35,1.58c2.37-0.2,3.35-3.55,3.35-3.55
				l-4.14-13.6L122.04,172.58z"/>
			<path class="st13" d="M136.63,165.9c0,7.47-7.93,15.73-15.4,15.73c-7.47,0-11.65-8.27-11.65-15.73c0-7.47,6.05-13.52,13.52-13.52
				C130.58,152.38,136.63,158.43,136.63,165.9z"/>
			
				<ellipse transform="matrix(0.1609 -0.987 0.987 0.1609 -61.7468 261.3371)" class="st13" cx="122.83" cy="166.98" rx="15.23" ry="15.23"/>
			<g>
				<path class="st14" d="M112.06,178.28c-1.79,0-3.78-1.52-4.45-3.39c-0.35-0.99-0.28-1.96,0.2-2.64c0.42-0.6,1.12-0.93,1.96-0.93
					c1.79,0,3.78,1.52,4.45,3.39c0.35,0.99,0.28,1.95-0.2,2.63C113.6,177.95,112.9,178.28,112.06,178.28z M109.77,171.86
					c-0.67,0-1.21,0.25-1.53,0.71c-0.38,0.54-0.43,1.32-0.13,2.15c0.6,1.67,2.37,3.04,3.95,3.04c0.67,0,1.21-0.25,1.53-0.71
					c0.38-0.54,0.43-1.32,0.13-2.15C113.12,173.22,111.35,171.86,109.77,171.86z"/>
			</g>
			<g>
				<path class="st14" d="M121.02,178.28c-1.79,0-3.78-1.52-4.45-3.39c-0.35-0.99-0.28-1.96,0.2-2.64c0.42-0.6,1.12-0.93,1.96-0.93
					c1.79,0,3.78,1.52,4.45,3.39c0.35,0.99,0.28,1.95-0.2,2.63C122.56,177.95,121.87,178.28,121.02,178.28z M118.74,171.86
					c-0.67,0-1.21,0.25-1.53,0.71c-0.38,0.54-0.43,1.32-0.13,2.15c0.6,1.67,2.37,3.04,3.95,3.04c0.67,0,1.21-0.25,1.53-0.71
					c0.38-0.54,0.43-1.32,0.13-2.15C122.09,173.22,120.32,171.86,118.74,171.86z"/>
			</g>
			<path class="st15" d="M113.66,175.73c0.24,0.42,0.21,0.9-0.08,1.06c-0.29,0.17-0.72-0.04-0.96-0.46
				c-0.24-0.42-0.21-0.9,0.08-1.06C112.98,175.1,113.41,175.31,113.66,175.73z"/>
			<path class="st15" d="M120.42,176.05c0.24,0.42,0.21,0.9-0.08,1.06c-0.29,0.17-0.72-0.04-0.96-0.46
				c-0.24-0.42-0.21-0.9,0.08-1.06C119.75,175.42,120.18,175.63,120.42,176.05z"/>
		</g>
		<path class="st13" d="M125.69,239.95c-0.59-0.2-5.59-2.62-9.14-2.62c-3.55,0-7.89,3.75-7.89,3.75s-0.59,1.97,1.77,1.58
			c2.37-0.39-0.33,1.49-0.33,1.49s0.13,0.09,2.89,0.48c2.76,0.39,13.52-0.18,13.52-0.18L125.69,239.95z"/>
		<path class="st10" d="M141.7,180.22l1.9,43.5l-17.88,16.17l0.85,4.54l25.18-13.44c2.43-1.3,3.8-3.98,3.42-6.71l-4.59-33.28
			c-0.38-4.15-2.89-7.81-6.63-9.65L141.7,180.22z"/>
		<g>
			<path class="st0" d="M127.52,248.16H81.98v-3.34h45.54c0.92,0,1.67,0.75,1.67,1.67l0,0
				C129.19,247.41,128.44,248.16,127.52,248.16z"/>
			<path class="st0" d="M115.03,248.16H71.11c-1.94,0-3.64-1.31-4.14-3.18l-7.75-29.2c-0.72-2.72,1.33-5.38,4.14-5.38h38.35
				c1.94,0,3.64,1.31,4.14,3.18L115.03,248.16z"/>
			<linearGradient id="SVGID_3_" gradientUnits="userSpaceOnUse" x1="95.0416" y1="229.1082" x2="19.1708" y2="227.3159">
				<stop  offset="0" style="stop-color:#484EC2;stop-opacity:0"/>
				<stop  offset="1" style="stop-color:#444BCC;stop-opacity:0.5"/>
			</linearGradient>
			<path class="st16" d="M63.36,210.39c-2.81,0-4.86,2.66-4.14,5.38l7.75,29.2c0.24,0.9,0.76,1.66,1.45,2.22l26.7-36.81H63.36z"/>
			<path class="st4" d="M89.17,231.86c0.48,1.9-0.72,3.45-2.68,3.45c-1.96,0-3.94-1.54-4.42-3.45c-0.48-1.9,0.72-3.45,2.68-3.45
				C86.71,228.41,88.68,229.96,89.17,231.86z"/>
		</g>
		<path class="st4" d="M122.83,151.76c-7.81,0-14.24,5.89-15.12,13.47c2.65,1.96,6.1,2.83,9.34,2.26c3.83-0.67,7.27-3.31,8.91-6.84
			c-0.12,1.69-0.23,3.39,0.05,5.06c0.28,1.67,1,3.32,2.31,4.4c0.1-1.18,0.21-2.41,0.83-3.43s1.9-1.72,3.01-1.29
			c0.79,0.31,1.3,1.13,1.42,1.98c0.12,0.84-0.1,1.7-0.41,2.49c-0.49,1.24-1.21,2.4-2.12,3.38c1.8,0.28,3.69,0.5,5.5,0.32
			c0.95-1.99,1.5-4.21,1.5-6.57C138.05,158.58,131.24,151.76,122.83,151.76z"/>
		<path class="st13" d="M135.89,169.49c0,2.55-2.07,4.61-4.61,4.61c-2.55,0-4.61-2.07-4.61-4.61c0-2.55,2.07-4.61,4.61-4.61
			C133.83,164.88,135.89,166.95,135.89,169.49z"/>
		<polygon class="st13" points="106.46,307.4 107.29,312.23 102.45,313.76 101.11,308.99 		"/>
		<polygon class="st13" points="113.88,313.76 117.88,314.53 118.13,309.44 113.84,308.36 		"/>
	</g>
	<g>
		<path class="st2" d="M320.47,308.36l-0.05,7.21c0,0,0.91,4.61,1.64,9.53c0.73,4.92,1.27,10.14,0.55,11.35
			c-1.46,2.43-4.37,0-4.86-2.43c-0.49-2.43-1.21-17.48-1.21-17.48l-0.49-9.71L320.47,308.36z"/>
		<path class="st2" d="M327.85,307.4l-1.11,6.47c0,0-2.19,17.73-0.97,20.4c1.21,2.67,5.1,1.46,4.86-2.19
			c-0.24-3.64,0.73-16.51,0.73-16.51l2.19-7.77L327.85,307.4z"/>
		<g>
			<path class="st4" d="M324.84,228.44l-0.53,7.98l20.56,9.92c3.71,2,5.5,6.34,4.27,10.38l-14.24,52.92l-7.05-2.24l6.26-48.68
				c0.44-2.99-1.62-5.79-4.61-6.25l-7.32-1.15l-7.8-7.95l9.01,8.09c2.18,1.96,3.26,4.87,2.87,7.78l-5.79,49.12l-6.41,1.6
				l-2.86-48.37c-0.21-3.07-2.27-5.69-5.2-6.62l-12.67-4.02c-2.02-1.23-3.27-3.4-3.33-5.76l0.53-17.03L324.84,228.44z"/>
			<path class="st6" d="M289.22,246.3l3.39-66.09c0,0,14.06-0.84,18.24-0.84c2.28,0,6.17,1.08,9.24,2.07
				c2.89,0.93,5.29,0.84,6.69,3.53l23.05,44.18l-14.16,1.35l-4.72-5.4l2.4-3.64l-8.61-20.31l1.69,36.88L289.22,246.3z"/>
			
				<linearGradient id="SVGID_4_" gradientUnits="userSpaceOnUse" x1="285.9849" y1="209.7537" x2="301.5698" y2="209.7537" gradientTransform="matrix(-1 0 0 1 626.3101 0)">
				<stop  offset="0" style="stop-color:#D37897;stop-opacity:0"/>
				<stop  offset="0.8988" style="stop-color:#BC547C"/>
			</linearGradient>
			<path class="st17" d="M325.05,193.1l15.28,27.6l-4.76,5.57c0,0-1.93,0.39-3.77-0.21l-0.85-0.97l2.4-3.64l-8.61-20.31
				L325.05,193.1z"/>
			<path class="st0" d="M311.47,199.33c-4.64,0-13.16-12.13-13.16-16.77c0-0.94,0.16-1.84,0.45-2.69c4.33-0.23,9.76-0.5,12.1-0.5
				c1.03,0,2.39,0.23,3.85,0.56c0.27,0.83,0.42,1.71,0.42,2.63C315.12,187.21,316.11,199.33,311.47,199.33z"/>
			
				<linearGradient id="SVGID_5_" gradientUnits="userSpaceOnUse" x1="290.8917" y1="237.0833" x2="376.4402" y2="203.2453" gradientTransform="matrix(-1 0 0 1 626.3101 0)">
				<stop  offset="0" style="stop-color:#D37897;stop-opacity:0"/>
				<stop  offset="0.8988" style="stop-color:#BC547C"/>
			</linearGradient>
			<polygon class="st18" points="290.95,191.62 289.22,246.68 311.96,241.23 			"/>
			<path class="st13" d="M312.27,172.58c-0.39,0.79-3.15,11.63-3.15,11.63s-0.99,1.77-3.35,1.58c-2.37-0.2-3.35-3.55-3.35-3.55
				l4.14-13.6L312.27,172.58z"/>
			<path class="st13" d="M297.68,165.9c0,7.47,7.93,15.73,15.4,15.73c7.47,0,11.65-8.27,11.65-15.73c0-7.47-6.05-13.52-13.52-13.52
				S297.68,158.43,297.68,165.9z"/>
			
				<ellipse transform="matrix(0.987 -0.1609 0.1609 0.987 -22.8146 52.3084)" class="st13" cx="311.48" cy="166.98" rx="15.23" ry="15.23"/>
			<path class="st15" d="M321.51,175.26c-0.3,0.53-0.26,1.12,0.1,1.33c0.36,0.21,0.9-0.05,1.2-0.57c0.3-0.53,0.26-1.12-0.1-1.33
				C322.35,174.48,321.81,174.73,321.51,175.26z"/>
			<path class="st15" d="M313.85,176.09c-0.33,0.58-0.28,1.23,0.12,1.46s0.99-0.05,1.32-0.63c0.33-0.58,0.28-1.23-0.12-1.46
				S314.18,175.51,313.85,176.09z"/>
		</g>
		<path class="st13" d="M308.62,239.95c0.59-0.2,5.59-2.62,9.14-2.62c3.55,0,7.89,3.75,7.89,3.75s0.59,1.97-1.77,1.58
			c-2.37-0.39,0.33,1.49,0.33,1.49s-0.13,0.09-2.89,0.48c-2.76,0.39-13.52-0.18-13.52-0.18L308.62,239.95z"/>
		<path class="st6" d="M292.61,180.22l-1.9,43.5l17.88,16.17l-0.85,4.54l-25.18-13.44c-2.43-1.3-3.8-3.98-3.42-6.71l4.59-33.28
			c0.38-4.15,2.89-7.81,6.63-9.65L292.61,180.22z"/>
		<g>
			<path class="st0" d="M306.79,248.16h45.54v-3.34h-45.54c-0.92,0-1.67,0.75-1.67,1.67l0,0
				C305.12,247.41,305.87,248.16,306.79,248.16z"/>
			<path class="st0" d="M319.28,248.16h43.92c1.94,0,3.64-1.31,4.14-3.18l7.75-29.2c0.72-2.72-1.33-5.38-4.14-5.38H332.6
				c-1.94,0-3.64,1.31-4.14,3.18L319.28,248.16z"/>
			
				<linearGradient id="SVGID_6_" gradientUnits="userSpaceOnUse" x1="287.0408" y1="229.1082" x2="211.17" y2="227.3159" gradientTransform="matrix(-1 0 0 1 626.3101 0)">
				<stop  offset="0" style="stop-color:#484EC2;stop-opacity:0"/>
				<stop  offset="1" style="stop-color:#444BCC;stop-opacity:0.5"/>
			</linearGradient>
			<path class="st19" d="M370.95,210.39c2.81,0,4.86,2.66,4.14,5.38l-7.75,29.2c-0.24,0.9-0.76,1.66-1.45,2.22l-26.7-36.81H370.95z"
				/>
			<path class="st4" d="M345.15,231.86c-0.48,1.9,0.72,3.45,2.68,3.45c1.96,0,3.94-1.54,4.42-3.45c0.48-1.9-0.72-3.45-2.68-3.45
				C347.61,228.41,345.63,229.96,345.15,231.86z"/>
		</g>
		<path class="st4" d="M311.48,151.76c7.81,0,14.24,5.89,15.12,13.47c-2.65,1.96-6.1,2.83-9.34,2.26c-3.83-0.67-7.27-3.31-8.91-6.84
			c0.12,1.69,0.23,3.39-0.05,5.06c-0.28,1.67-1,3.32-2.31,4.4c-0.1-1.18-0.21-2.41-0.83-3.43c-0.62-1.01-1.9-1.72-3.01-1.29
			c-0.79,0.31-1.3,1.13-1.42,1.98c-0.12,0.84,0.1,1.7,0.41,2.49c0.49,1.24,1.21,2.4,2.12,3.38c-1.8,0.28-3.69,0.5-5.5,0.32
			c-0.95-1.99-1.5-4.21-1.5-6.57C296.26,158.58,303.07,151.76,311.48,151.76z"/>
		<path class="st13" d="M298.42,169.49c0,2.55,2.07,4.61,4.61,4.61c2.55,0,4.61-2.07,4.61-4.61c0-2.55-2.07-4.61-4.61-4.61
			C300.48,164.88,298.42,166.95,298.42,169.49z"/>
		<polygon class="st13" points="327.85,307.4 327.02,312.23 331.86,313.76 333.2,308.99 		"/>
		<polygon class="st13" points="320.43,313.76 316.44,314.53 316.18,309.44 320.47,308.36 		"/>
	</g>
	<circle class="st4" cx="303.05" cy="150.45" r="9.82"/>
	<rect x="192.11" y="249.81" class="st8" width="13.31" height="14.67"/>
	<rect x="238.52" y="250.56" class="st8" width="13.31" height="13.92"/>
	<g>
		<path class="st9" d="M211.23,153.97l-5.4,6.63l-2.7,5.65l-2.48,7.1c0,0-4.38,4.08-4.14,4.14c0.24,0.06-0.25,4.97,0.24,5.71
			c0.49,0.74,5.42,6.63,5.42,6.63s4.77,3.11,6.67,3.52c1.9,0.41,11.48,4.58,11.48,4.58l5.89-5.65l-2.21-2.95
			c0,0,6.14-3.68,6.88-4.17c0.74-0.49,3.68-3.44,3.68-3.44s-0.12-2.57-0.55-4.23c-0.43-1.66-3.38-9.76-3.38-9.76
			s-3.93-5.65-4.42-6.63c-0.49-0.98-2.7-4.17-2.7-4.17L211.23,153.97z"/>
		<path class="st4" d="M235.04,231.96l-37.64,0.29l-0.29-38.28c-0.02-2.26,1.8-4.11,4.06-4.12l29.46-0.22
			c2.26-0.02,4.11,1.8,4.12,4.06L235.04,231.96z"/>
		<path class="st9" d="M208.8,189.82c0,0,2.84,3.28,2.84,10.15s0.23,19.52,0.23,19.52l8.45,0.04v-19.89c0,0-0.72-6.82,4.69-11.98
			l-9.2,0.23L208.8,189.82z"/>
		<path class="st13" d="M215.64,197.81L215.64,197.81c-2.53,0.02-4.6-2.02-4.62-4.55l-0.11-13.93c0-0.34,0.27-0.62,0.61-0.62
			l7.93-0.06c0.34,0,0.62,0.27,0.62,0.61l0.11,13.93C220.21,195.72,218.17,197.79,215.64,197.81z"/>
		<path class="st20" d="M231.57,176.13c0-0.16,0.01-0.31,0.01-0.47c0-1.38-0.17-2.72-0.5-4.01v-1.78c0-8.74-7.15-15.88-15.88-15.88
			l0,0c-8.74,0-15.88,7.15-15.88,15.88v6.25H231.57z"/>
		<path class="st13" d="M229.87,171.7v-1.53c0-8.06-6.59-14.65-14.65-14.65l0,0c-8.06,0-14.65,6.59-14.65,14.65v6
			c0,0.4,0.05,0.79,0.13,1.17c0.96,7.29,7.19,12.93,14.75,12.93c8.22,0,14.88-6.66,14.88-14.88
			C230.33,174.12,230.17,172.88,229.87,171.7z"/>
		<path class="st9" d="M210.72,178.02c0,0.62-0.5,1.13-1.13,1.13c-0.62,0-1.13-0.5-1.13-1.13c0-0.62,0.5-1.13,1.13-1.13
			C210.22,176.89,210.72,177.4,210.72,178.02z"/>
		<path class="st9" d="M221.42,178.02c0,0.62-0.5,1.13-1.13,1.13c-0.62,0-1.13-0.5-1.13-1.13c0-0.62,0.5-1.13,1.13-1.13
			C220.92,176.89,221.42,177.4,221.42,178.02z"/>
		<path class="st13" d="M204.79,177.49c0,2.29-1.85,4.14-4.14,4.14c-2.29,0-4.14-1.85-4.14-4.14c0-2.29,1.85-4.14,4.14-4.14
			C202.94,173.34,204.79,175.2,204.79,177.49z"/>
		<path class="st13" d="M234.01,177.49c0,2.29-1.85,4.14-4.14,4.14c-2.29,0-4.14-1.85-4.14-4.14c0-2.29,1.85-4.14,4.14-4.14
			C232.16,173.34,234.01,175.2,234.01,177.49z"/>
		<path class="st21" d="M216.34,248.94l-18.45,8.66l3.42,56.27h-6.61l-13.37-57.7c-0.59-2.55,0.52-5.19,2.75-6.55l17.46-10.7
			L216.34,248.94z"/>
		<path class="st6" d="M200.55,174.76c-1.4,0.12-2.49,1.29-2.49,2.72c0,1.43,1.1,2.6,2.49,2.72V174.76z"/>
		<path class="st6" d="M229.59,174.76c1.4,0.12,2.49,1.29,2.49,2.72c0,1.43-1.1,2.6-2.49,2.72V174.76z"/>
		<rect x="211.79" y="201.33" class="st9" width="8.51" height="45.35"/>
		<path class="st9" d="M225.51,171.71c0.39,1.26,0.97,2.7,2.24,3.05c1,0.28,2.04-0.26,2.9-0.85c0.47-0.33,0.96-0.73,1.04-1.3
			c0.07-0.47-0.16-0.93-0.39-1.35c-0.88-1.63-1.78-3.27-3.01-4.65c-1.09-1.23-3.06-3.22-4.22-1.12
			C223.28,166.94,225.06,170.28,225.51,171.71z"/>
		<path class="st9" d="M227.05,162.32c-3.24-2.41-7.24-3.84-11.56-3.84l0.17-2.62c-4.3,0-8.46,4.04-11.69,6.43
			c2.82,3.21,6.95,6.23,11.55,6.23C220.11,168.52,224.23,165.5,227.05,162.32z"/>
		<path class="st4" d="M176.55,224.42c-0.55-0.82-0.72-1.84-0.48-2.8c2.12-8.47,17.26-28.4,17.93-29.24c1-1.26,6.18-2.39,6.18-2.39
			l0.6,13.68l-13.68,16.09c-0.9,1.06-1.08,2.55-0.47,3.79l10.8,21.97l-5.7,1.59L176.55,224.42z"/>
		<path class="st21" d="M225.91,238.92l17.46,10.7c2.23,1.37,3.34,4.01,2.75,6.55l-13.37,57.7h-6.61l3.42-56.27l-18.45-8.66
			L225.91,238.92z"/>
		<path class="st4" d="M253.15,223.96c0.44-0.77,0.61-1.66,0.44-2.53c-1.66-8.28-15.21-28.21-15.89-29.05
			c-1-1.26-6.18-2.39-6.18-2.39l-0.6,13.68l11.76,15.71c0.79,1.05,0.97,2.44,0.49,3.66l-8.91,22.48l5.7,1.59L253.15,223.96z"/>
		<path class="st9" d="M205.06,171.71c-0.39,1.26-0.97,2.7-2.24,3.05c-1,0.28-2.04-0.26-2.9-0.85c-0.47-0.33-0.96-0.73-1.04-1.3
			c-0.07-0.47,0.16-0.93,0.39-1.35c0.88-1.63,1.78-3.27,3.01-4.65c1.09-1.23,3.06-3.22,4.22-1.12
			C207.3,166.94,205.51,170.28,205.06,171.71z"/>
		<path class="st13" d="M200.02,245.73c0,2.63-2.14,4.77-4.77,4.77s-4.77-2.14-4.77-4.77s2.14-4.77,4.77-4.77
			S200.02,243.09,200.02,245.73z"/>
		<path class="st4" d="M228.45,158.39c-1.95-5.12-12.89-6.85-13.03-6.87v0l0,0l0,0v0c-0.14,0.02-11.08,1.75-13.03,6.87
			c-1.96,5.16-7.84,19.65-7.59,23.57c0.25,3.93,7.37,7.86,7.37,7.86h6.63c0,0-9.82-6.63-10.8-9.58c-0.98-2.95,2.7-6.14,3.66-6.9
			c4.13-7.02,8.12-11.35,10.73-13.74c1.72-1.58,4.36-1.58,6.08,0c2.61,2.39,6.6,6.72,10.73,13.74c0.96,0.76,4.64,3.96,3.66,6.9
			c-0.98,2.95-9.78,9.53-9.78,9.53l5.61,0.05c0,0,7.12-3.93,7.37-7.86C236.29,178.03,230.42,163.55,228.45,158.39z"/>
		<path class="st13" d="M241.63,246.59c0.16-2.63-1.85-4.89-4.47-5.05c-2.63-0.16-4.89,1.85-5.05,4.47
			c-0.16,2.63,1.85,4.89,4.47,5.05C239.21,251.22,241.47,249.22,241.63,246.59z"/>
		<path class="st4" d="M234.61,225.02v20.5c0,0-11.58,4.33-13.23,4.1c-1.65-0.23-1.65-18.23-1.65-18.23l2.13-5.47L234.61,225.02z"/>
		<path class="st4" d="M197.43,225.02v20.5c0,0,11.58,4.33,13.23,4.1c1.65-0.23,1.65-18.23,1.65-18.23l-2.13-5.47L197.43,225.02z"/>
		<path class="st2" d="M201.31,313.87l0.91,8.43c0,0-8.54,14.14-11.91,14.48c-3.37,0.34-1.92-5.62,0-8.35
			c1.92-2.73,5.68-8.44,5.68-8.44l1.44-6.12H201.31z"/>
		<path class="st2" d="M227.33,313.87l-0.91,8.43c0,0,8.54,14.14,11.91,14.48c3.37,0.34,1.92-5.62,0-8.35
			c-1.92-2.73-5.68-8.44-5.68-8.44l-1.44-6.12H227.33z"/>
		<g>
			<path class="st0" d="M194.7,251.34h43.3c1.64,0,3.07-1.13,3.44-2.73l3.66-15.65c0.55-3.03-1.8-5.82-4.88-5.79l-49.59,0.38
				c-3.08,0.02-5.38,2.84-4.79,5.87l5.54,15.58C191.87,250.4,193.2,251.34,194.7,251.34z"/>
			<linearGradient id="SVGID_7_" gradientUnits="userSpaceOnUse" x1="208.4406" y1="239.1635" x2="163.5985" y2="240.2227">
				<stop  offset="0" style="stop-color:#484EC2;stop-opacity:0"/>
				<stop  offset="1" style="stop-color:#444BCC;stop-opacity:0.5"/>
			</linearGradient>
			<path class="st22" d="M221.18,227.31l-30.56,0.23c-3.08,0.02-5.38,2.84-4.79,5.87l5.54,15.58c0.5,1.41,1.83,2.35,3.33,2.35h7.77
				L221.18,227.31z"/>
			<ellipse class="st4" cx="214.95" cy="241.29" rx="4.36" ry="4.03"/>
		</g>
	</g>
</g>
</svg>
