<?xml version="1.0" encoding="utf-8"?>
<!-- Generator: Adobe Illustrator 23.0.2, SVG Export Plug-In . SVG Version: 6.00 Build 0)  -->
<svg version="1.1" id="Layer_1" xmlns="http://www.w3.org/2000/svg" xmlns:xlink="http://www.w3.org/1999/xlink" x="0px" y="0px"
	 viewBox="0 0 440.97 389.03" style="enable-background:new 0 0 440.97 389.03;" xml:space="preserve">
<style type="text/css">
	.st0{fill:#8FD8DE;}
	.st1{fill:#FCB8A5;}
	.st2{fill:#0F6693;}
	.st3{opacity:0.35;fill:#0F6693;}
	.st4{opacity:0.24;fill:#0F6693;}
	.st5{fill:#F5A692;}
	.st6{fill:#81276A;}
	.st7{fill:none;stroke:#FCB8A5;stroke-width:3;stroke-linecap:round;stroke-linejoin:round;stroke-miterlimit:10;}
	.st8{fill:#113159;}
	.st9{fill:#FFFFFF;}
	.st10{opacity:0.11;fill:#3863B1;}
	.st11{fill:#FCFCFC;}
	.st12{fill:none;stroke:#113159;stroke-width:3;stroke-linecap:round;stroke-linejoin:round;stroke-miterlimit:10;}
	.st13{fill:#FF7C89;}
	.st14{fill:#3863B1;}
	.st15{fill:none;stroke:#FFFFFF;stroke-width:2;stroke-miterlimit:10;}
	.st16{fill:#E83666;}
	.st17{fill:#7CB642;}
	.st18{fill:#FEC448;}
	.st19{font-family:'Montserrat-Bold';}
	.st20{font-size:25.5019px;}
	.st21{font-size:20.161px;}
	.st22{font-size:22.4091px;}
	.st23{letter-spacing:1;}
	.st24{font-size:20.5552px;}
</style>
<path class="st0" d="M419.97,291.15h-32.55c3.8-3.81,6.16-9.05,6.16-14.82v-1.27c0-11.55-9.45-21-21-21h-8.26
	c-8.72-2.79-15.04-10.96-15.04-20.61v0c0-11.95,9.69-21.64,21.64-21.64H400c11.55,0,21-9.45,21-21v-1.27c0-11.55-9.45-21-21-21
	h-8.48c-11.95,0-21.64-9.69-21.64-21.64c0-11.95,9.69-21.64,21.64-21.64h3.73c11.55,0,21-9.45,21-21V103c0-11.55-9.45-21-21-21
	h-7.82c-9.66-2.08-16.87-10.29-16.87-20.11c0-11.39,9.71-20.63,21.68-20.63h17.15c11.35,0,20.63-9.28,20.63-20.63v0
	C430,9.28,420.72,0,409.37,0H56.3C44.95,0,35.67,9.28,35.67,20.63v0c0,11.35,9.28,20.63,20.63,20.63h29.34
	c11.97,0,21.68,9.24,21.68,20.63c0,9.82-7.21,18.03-16.87,20.11H43.67c-11.55,0-21,9.45-21,21v1.27c0,11.55,9.45,21,21,21h41.85
	c11.95,0,21.64,9.69,21.64,21.64c0,11.95-9.69,21.64-21.64,21.64H48.42c-11.55,0-21,9.45-21,21v1.27c0,11.55,9.45,21,21,21h16.48
	c11.95,0,21.64,9.69,21.64,21.64v0c0,9.65-6.32,17.82-15.04,20.61H21c-11.55,0-21,9.45-21,21v1.27c0,11.55,9.45,21,21,21h32.55
	c-3.8,3.81-6.16,9.05-6.16,14.82v1.27c0,11.55,9.45,21,21,21h-1.17c11.95,0,21.64,9.69,21.64,21.64v0
	c0,11.95-9.69,21.64-21.64,21.64h32.97h240.06h32.97c-11.95,0-21.64-9.69-21.64-21.64v0c0-11.95,9.69-21.64,21.64-21.64h46.74
	c11.55,0,21-9.45,21-21v-1.27C440.97,300.6,431.52,291.15,419.97,291.15z"/>
<g>
	<path class="st1" d="M344,210.43c0,0,1.16-17.38,5.79-20.85c4.63-3.48,30.12-2.32,30.12-2.32s8.11-19.69,11.58-18.54
		c3.48,1.16,2.32,4.63,2.32,4.63l-10.43,24.33l-30.12,11.58L344,210.43z"/>
	<path class="st1" d="M98,210.43c0,0-1.16-17.38-5.79-20.85c-4.63-3.48-30.12-2.32-30.12-2.32s-8.11-19.69-11.58-18.54
		c-3.48,1.16-2.32,4.63-2.32,4.63l10.43,24.33l30.12,11.58L98,210.43z"/>
	<polygon class="st2" points="175.06,378.52 168.72,255.8 230.51,255.8 228.92,378.52 	"/>
	<path class="st2" d="M80,207.36l15.84,69.43c0,0,3.17,11.3,17.43,11.3l64.96,6.46l-0.79-38.75h-60.99l-19.01-53.28L80,207.36z"/>
	<polygon class="st2" points="266.94,378.52 273.28,255.8 227.34,255.8 228.92,378.52 	"/>
	<path class="st2" d="M362,207.36l-15.84,69.43c0,0-3.17,11.3-17.43,11.3l-64.96,6.46l0.79-38.75h60.99l19.01-53.28L362,207.36z"/>
	<path class="st3" d="M95.78,276.52l0.06,0.28c0,0,3.17,11.3,17.43,11.3l64.96,6.46l-0.37-18.04H95.78z"/>
	<path class="st3" d="M264.14,276.52l-0.37,18.04l64.96-6.46c14.26,0,17.43-11.3,17.43-11.3l0.06-0.28H264.14z"/>
	<path class="st2" d="M266.8,379.52h23.79l32.18-40.91c0,0,6.8-9.57-2.17-20.66l-35.82-54.57l-29.64,24.98l38.35,47.43L266.8,379.52
		z"/>
	<path class="st2" d="M168.2,379.52h-23.79l-32.18-40.91c0,0-6.8-9.57,2.17-20.66l35.82-54.57l29.64,24.98l-38.35,47.43
		L168.2,379.52z"/>
	<path class="st4" d="M266.8,379.52h6.19c14.93-14.85,21.78-31.77,36.54-46.79l-45.69-51.69l-8.68,7.32l38.35,47.43L266.8,379.52z"
		/>
	<path class="st4" d="M173.26,282.81c-15.92,15.78-27.87,34.53-43.7,50.4c7.23,9.75,9.55,15.44,15.27,23.39
		c5.52,7.65,11.04,15.31,16.61,22.92h6.76l-26.7-43.73l38.35-47.43L173.26,282.81z"/>
	<rect x="211" y="233.52" class="st1" width="20" height="31"/>
	<polygon class="st5" points="231,264.52 211,238.52 231,233.52 	"/>
	<path class="st1" d="M243,239.52h-47c-9.9,0-18-8.1-18-18v-61c0-9.9,8.1-18,18-18h47c9.9,0,18,8.1,18,18v61
		C261,231.42,252.9,239.52,243,239.52z"/>
	<path class="st1" d="M243,239.52h-47c-9.9,0-18-8.1-18-18v-61c0-9.9,8.1-18,18-18h47c9.9,0,18,8.1,18,18v61
		C261,231.42,252.9,239.52,243,239.52z"/>
	<path class="st6" d="M258,150.61v45.91c0,9.9-8.1,18-18,18h-41c-9.9,0-18-8.1-18-18v-45.91c-1.89,2.85-3,6.25-3,9.91v61
		c0,9.9,8.1,18,18,18h47c9.9,0,18-8.1,18-18v-61C261,156.86,259.89,153.46,258,150.61z"/>
	<path class="st6" d="M240.15,227.52h-41.3c-2.67,0-4.85-2.18-4.85-4.85v-16.3c0-2.67,2.18-4.85,4.85-4.85h41.3
		c2.67,0,4.85,2.18,4.85,4.85v16.3C245,225.33,242.82,227.52,240.15,227.52z"/>
	<path class="st7" d="M231,211.77c0,6.9-5.6,9.5-12.5,9.5c-6.9,0-12.5-2.6-12.5-9.5"/>
	<ellipse class="st1" cx="221" cy="264.52" rx="14" ry="10"/>
	<g>
		<rect x="199.5" y="351.52" class="st8" width="43" height="19"/>
		<path class="st9" d="M265.33,378.18c-1.16-6-8.72-10.67-17.83-10.67h-53c-9.11,0-16.67,4.67-17.83,10.67H265.33z"/>
		<path class="st9" d="M270,355.52h-98c-9.9,0-18-8.1-18-18v-71c0-9.9,8.1-18,18-18h98c9.9,0,18,8.1,18,18v71
			C288,347.42,279.9,355.52,270,355.52z"/>
		<path class="st10" d="M280.85,252.2c-10.67,9.94-22.15,19.15-33,28.85c-13.63,12.19-27.17,24.48-40.79,36.69
			c-13.35,11.98-26.94,23.69-40.17,35.81c-0.32,0.29-0.64,0.59-0.97,0.88c1.9,0.69,3.94,1.08,6.07,1.08h98c9.9,0,18-8.1,18-18v-71
			C288,260.69,285.18,255.5,280.85,252.2z"/>
	</g>
	<path class="st6" d="M257.48,150.52c0,0-72.48,28-89.48,4c-18.97-26.79,1-38,5.94-40c4.85-1.96,19.28-6,27.84,12
		c0,0-5.35-13,6.43-16c11.78-3,21.42,18,21.42,18s14.99-10,26.77-3c11.78,7,8.57,23,8.57,26s-4.55,28.25-4.55,28.25L257.48,150.52z"
		/>
	<path class="st11" d="M166,125.52c0,0-2,11,3,20s15,16,30,14C199,159.52,170,163.52,166,125.52z"/>
	<path class="st11" d="M204.83,133.71c0,0-1.16,6.39,1.74,11.62c2.9,5.23,8.71,9.29,17.42,8.13
		C224,153.46,207.16,155.78,204.83,133.71z"/>
	<path class="st11" d="M229.76,134.8c0,0-0.8,4.41,1.2,8.02c2.01,3.61,6.02,6.42,12.03,5.62C243,148.44,231.37,150.04,229.76,134.8z
		"/>
	<g>
		<g>
			<circle class="st12" cx="195.29" cy="176.02" r="18.79"/>
			<circle class="st12" cx="243.76" cy="176.02" r="18.79"/>
		</g>
		<path class="st13" d="M220,196.02L220,196.02c-1.93,0-3.5-1.57-3.5-3.5v-23c0-1.93,1.57-3.5,3.5-3.5h0c1.92,0,3.5,1.57,3.5,3.5v23
			C223.5,194.44,221.92,196.02,220,196.02z"/>
		<path class="st12" d="M214,178.02c0-2.76,2.46-5,5.5-5c3.04,0,5.5,2.24,5.5,5"/>
		<circle class="st8" cx="196" cy="186.52" r="4"/>
		<circle class="st8" cx="245" cy="186.52" r="4"/>
		<circle class="st8" cx="175" cy="175.52" r="2"/>
		<circle class="st8" cx="264.02" cy="175.52" r="1.98"/>
	</g>
	<path class="st11" d="M182,216.52c0,0-2,17,14,18C196,234.52,182,230.52,182,216.52z"/>
	<path class="st11" d="M257,216.52c0,0,2,17-14,18C243,234.52,257,230.52,257,216.52z"/>
</g>
<g>
	<g>
		<g>
			<g>
				<rect x="17" y="86.86" class="st14" width="115" height="69.65"/>
				<rect x="17" y="86.86" class="st8" width="115" height="12.66"/>
				<line class="st15" x1="25" y1="108.52" x2="122" y2="147.52"/>
				<line class="st15" x1="121.58" y1="107.51" x2="25.42" y2="148.52"/>
			</g>
			<circle class="st16" cx="125" cy="92.52" r="2"/>
			<circle class="st17" cx="119" cy="92.52" r="2"/>
			<circle class="st18" cx="113" cy="92.52" r="2"/>
		</g>
		<g>
			<path class="st14" d="M379,143.52h-55c-3.85,0-7-3.15-7-7v-35c0-3.85,3.15-7,7-7h55c3.85,0,7,3.15,7,7v35
				C386,140.37,382.85,143.52,379,143.52z"/>
			<text transform="matrix(1 0 0 1 331.226 126.4615)" class="st11 st19 st20">&lt;/&gt;</text>
		</g>
		<g>
			<g>
				<ellipse class="st9" cx="210" cy="58.52" rx="46" ry="32"/>
				<polygon class="st9" points="222,75.52 237,111.52 238,63.52 				"/>
			</g>
			<text transform="matrix(1 0 0 1 181.8203 64.8985)" class="st14 st19 st21">HTML</text>
		</g>
		<g>
			<g>
				<ellipse class="st9" cx="303" cy="187.71" rx="32" ry="22.26"/>
				<polygon class="st9" points="294.65,199.54 284.22,224.58 283.52,191.19 				"/>
			</g>
			<text transform="matrix(1 0 0 1 286.8203 193.8985)" class="st14 st19 st21">css</text>
		</g>
		<g>
			<text transform="matrix(1 0 0 1 116.1992 199.5543)"><tspan x="0" y="0" class="st9 st19 st22 st23">{</tspan><tspan x="7.71" y="0" class="st9 st19 st22">   }</tspan></text>
			<path class="st2" d="M137.33,188.16c-1.2,0-2.26,0.6-2.9,1.52c-0.64-0.92-1.7-1.52-2.9-1.52c-1.95,0-3.53,1.58-3.53,3.53
				c0,0.73,0.22,1.41,0.6,1.97c0.63,0.94,3.87,3.89,5.83,5.85c1.2-1.2,5.2-4.91,5.83-5.85c0.38-0.56,0.6-1.24,0.6-1.97
				C140.87,189.74,139.29,188.16,137.33,188.16z"/>
		</g>
	</g>
	<text transform="matrix(1 0 0 1 299.7538 51.3463)" class="st9 st19 st24">www</text>
</g>
<g>
	<g>
		<line class="st15" x1="274" y1="76.52" x2="311" y2="76.52"/>
		<line class="st15" x1="285" y1="82.52" x2="322" y2="82.52"/>
	</g>
	<g>
		<line class="st15" x1="92" y1="23.52" x2="129" y2="23.52"/>
		<line class="st15" x1="103" y1="29.52" x2="140" y2="29.52"/>
	</g>
	<g>
		<line class="st15" x1="337" y1="310.52" x2="374" y2="310.52"/>
		<line class="st15" x1="348" y1="316.52" x2="385" y2="316.52"/>
	</g>
	<g>
		<line class="st15" x1="30" y1="276.52" x2="67" y2="276.52"/>
		<line class="st15" x1="41" y1="282.52" x2="78" y2="282.52"/>
	</g>
</g>
<rect x="68.77" y="377.7" class="st8" width="306" height="11.33"/>
</svg>
