<?xml version="1.0" encoding="utf-8"?>
<!-- Generator: Adobe Illustrator 23.0.2, SVG Export Plug-In . SVG Version: 6.00 Build 0)  -->
<svg version="1.1" id="Layer_1" xmlns="http://www.w3.org/2000/svg" xmlns:xlink="http://www.w3.org/1999/xlink" x="0px" y="0px"
	 viewBox="0 0 523.09 375.16" style="enable-background:new 0 0 523.09 375.16;" xml:space="preserve">
<style type="text/css">
	.st0{fill:#506575;}
	.st1{fill:#414042;}
	.st2{fill:#F7B288;}
	.st3{opacity:0.76;fill:#D16C59;}
	.st4{fill:#D16C59;}
	.st5{fill:#FFFFFF;}
	.st6{opacity:0.62;fill:#B1B6BC;}
	.st7{fill:#7D91A4;}
	.st8{fill:#4C4151;}
	.st9{fill:#F9F3F2;}
	.st10{fill:#A7A9AC;}
	.st11{fill:#D1D3D4;}
	.st12{fill:#939598;}
	.st13{fill:none;stroke:#6D6E71;stroke-width:3;stroke-miterlimit:10;}
	.st14{fill:#ED4235;}
	.st15{fill:#6D6E71;}
	.st16{fill:none;stroke:#D62F1C;stroke-width:4;stroke-miterlimit:10;}
	.st17{fill:none;stroke:#939598;stroke-width:4;stroke-miterlimit:10;}
	.st18{fill:none;stroke:#939598;stroke-width:2;stroke-miterlimit:10;}
	.st19{fill:#48484C;}
	.st20{fill:#6D6F72;}
	.st21{fill:#BCD0D8;}
	.st22{fill:#5A7182;}
	.st23{fill:#D62F1C;}
	.st24{fill:#B1B6BC;}
	.st25{fill:none;stroke:#A72E1F;stroke-width:5;stroke-miterlimit:10;}
	.st26{fill:#FCAE92;}
	.st27{fill:none;stroke:#C5D9DF;stroke-width:12;stroke-linecap:round;stroke-miterlimit:10;}
	.st28{fill:none;stroke:#C5D9DF;stroke-width:12;stroke-miterlimit:10;}
	.st29{fill:#EF9D79;}
	.st30{fill:#DC765D;}
	.st31{fill:none;stroke:#FFFFFF;stroke-width:12;stroke-linecap:round;stroke-miterlimit:10;}
</style>
<g>
	<path class="st0" d="M150.75,66.06h1.01c4.2,0,7.64,3.44,7.64,7.64v15.1c0,4.2-3.44-5.09-7.64-5.09h-1.01
		c-4.2,0-7.64,9.3-7.64,5.09V73.7C143.11,69.5,146.55,66.06,150.75,66.06z"/>
	<path class="st1" d="M162.15,55.5c-2.15-1.58-6.21-2.64-10.88-2.64c-4.67,0-8.74,1.06-10.88,2.64H162.15z"/>
	<rect x="140.38" y="55.5" class="st0" width="21.77" height="12.17"/>
	<polygon class="st1" points="140.38,48.18 162.15,48.18 162.15,66.11 140.38,60.35 	"/>
	<polygon class="st1" points="143.56,71.92 140.38,67.67 162.15,67.67 158.96,71.92 	"/>
</g>
<g>
	<path class="st2" d="M432.51,144.46c0,0-14.28,180.27-27.03,179.4c-33.43-2.29-41.41,3-79.72,8.88
		C284.26,339.11,237.81,342,211,342c-19.26,0-31.81,2.43-46.01,3.34c-15.97,1.03-35.71-57.22-8.54-65.65
		c25.48-7.9,81.18-125.68,71.73-161.28c-0.06-0.25-0.13-0.49-0.2-0.72c-0.03-0.09-0.05-0.18-0.08-0.27
		c-0.06-0.22-0.14-0.44-0.21-0.65c-0.02-0.05-0.04-0.1-0.05-0.15c-0.04-0.12-0.09-0.24-0.13-0.36c-0.04-0.11-0.09-0.23-0.14-0.34
		c-0.01-0.03-0.02-0.06-0.04-0.1c-0.08-0.2-0.17-0.4-0.25-0.59c-0.08-0.18-0.17-0.36-0.25-0.53c-0.03-0.05-0.05-0.1-0.08-0.15
		c-0.1-0.18-0.19-0.37-0.3-0.55c-0.04-0.07-0.08-0.15-0.12-0.22c-0.13-0.23-0.28-0.45-0.43-0.67c-0.15-0.23-0.31-0.45-0.48-0.66
		c-2.7-3.47-7.87-4.94-10.3-8.61c-15.39-23.16-22.61-50.25-22.61-50.25c-0.11,0.11-0.24,0.23-0.36,0.34
		c-0.07,0.06-0.15,0.13-0.22,0.18c-0.11,0.09-0.22,0.18-0.33,0.26c-11.4,8.58-56.61,4.27-68.18,1.47c-3.73-0.9-8.38-4.09-12.29-8.16
		c-8.58-8.9-13.64-22.03,2.13-24.6c32.17-5.25,55.76-8.25,74.79-18.9c6.36-3.55,13.78-4.2,21.18-4.2c15.33,0,59.95,42.38,98.1,62.6
		C367.94,94.75,387.35,146.91,432.51,144.46z"/>
	<path class="st3" d="M426.21,144.73c-5.6-0.06-11.8-0.85-18.4-2.3c-3.52,28.98-35.65,131.61-50.94,166
		c-52.66,18.54-99.27,18.98-160.01,11.83c2.7-9.33,2.7-20.89-1.94-32.55c24.09-8.73,38.85-22.39,51.77-35.32
		c13.37-13.37,75.79-4.46,75.79-4.46s-25.15-12.62-29.3-17.2c-15.73-17.38-24.41-37.96-33.33-69.63
		c-8.22-29.2-29.99-51.05-40.33-56.04l-68.26,157.18c0,0-11.65,23.54-8.15,29.65c1.49,2.6,8.67,3.3,17.23,2.69l5.12,23.93l3.13,4.14
		c-3.8,4.78,2.6,13.47,10.54,21.4c1.72-0.18,3.45-0.37,5.22-0.55l0.55,0.72c5.73-0.96,3.03-0.64,11.14-1.59
		c0.12-0.03,0.23-0.09,0.34-0.16c4.48-0.29,9.3-0.48,14.63-0.48c26.82,0,73.26-2.89,114.76-9.26c35.1-5.39,44.74-10.28,71.83-9.3
		c0.54,0.02,1.08,0.04,1.63,0.07c0.2,0.01,0.39,0.02,0.59,0.03c0.37,0.02,0.74,0.04,1.11,0.05c0.24,0.01,0.48,0.02,0.73,0.04
		c1.24,0.07,2.51,0.14,3.83,0.23c8.56,0.59,17.82-80.59,22.97-133.93C427.65,169.79,426.85,152.76,426.21,144.73z"/>
	<path class="st4" d="M228.17,118.41c-0.06-0.25-0.13-0.49-0.2-0.72c-0.03-0.09-0.05-0.18-0.08-0.27c-0.06-0.22-0.14-0.44-0.21-0.65
		c-0.02-0.05-0.04-0.1-0.05-0.15c-0.04-0.12-0.09-0.24-0.13-0.36c-0.04-0.11-0.1-0.23-0.14-0.34c-0.01-0.03-0.02-0.06-0.04-0.1
		c-0.08-0.2-0.17-0.4-0.25-0.59c-0.08-0.18-0.17-0.36-0.25-0.53c-0.03-0.05-0.05-0.1-0.08-0.15c-0.1-0.18-0.19-0.37-0.3-0.55
		c-0.04-0.07-0.08-0.15-0.12-0.22c-0.13-0.23-0.28-0.45-0.43-0.67c-0.15-0.23-0.31-0.45-0.48-0.66c-2.7-3.47-7.87-4.94-10.3-8.61
		c-15.39-23.16-22.61-50.25-22.61-50.25c-0.11,0.11-0.24,0.23-0.36,0.34c-0.07,0.06-0.15,0.13-0.22,0.18
		c-0.11,0.09-0.22,0.18-0.33,0.26c-11.4,8.58-56.61,4.27-68.18,1.47c-3.73-0.9-8.38-4.09-12.29-8.16
		c14.95,6.64,45.61,5.03,59.29,2.03c16.88-3.7,23.7-9.43,25.39-19.62c0,0,5.61-8.28,3.65,13.06c-1.97,21.33,19.92,57.65,29.36,72.29
		C230.52,118.14,230.06,118.91,228.17,118.41z"/>
	<path class="st5" d="M449.46,334.39c-0.01,0.01-0.02,0.01-0.04,0.01c-0.45,0.2-1.17,0.36-2.09,0.5
		c-9.65,1.39-42.37-0.51-42.37-0.51c-0.74-10.71-0.58-29.67,0.07-52.04c1.46-50.33,5.43-117.96,7.32-147.97
		c13.29-0.5,27.41,0.86,35.73,2.89c0.96,0.24,1.83,0.48,2.63,0.73c0.45,0.14,0.87,0.29,1.27,0.44c0.16,0.06,0.31,0.11,0.45,0.17
		c0.24,0.1,0.47,0.19,0.69,0.29c0.56,0.25,1.03,0.52,1.39,0.78c0.08,0.06,0.15,0.11,0.22,0.17c0.08,0.06,0.16,0.13,0.22,0.2
		C458.34,143.43,454.5,332.09,449.46,334.39z"/>
	<path class="st6" d="M449.46,334.39c-0.01,0.01-0.02,0.01-0.04,0.01c-0.2,0.07-0.92,0.24-2.09,0.5
		c-9.65,1.39-42.37-0.51-42.37-0.51c-0.74-10.71-0.58-29.67,0.07-52.04c34.14-31.1,41.31-121.75,43.05-145.08
		c0.96,0.24,1.83,0.48,2.63,0.73c0.45,0.15,0.88,0.29,1.27,0.44c0.16,0.06,0.31,0.11,0.45,0.17c0.24,0.1,0.47,0.19,0.69,0.29
		c0.56,0.25,1.03,0.52,1.39,0.78c0.08,0.06,0.15,0.11,0.22,0.17c0.08,0.06,0.16,0.13,0.22,0.2
		C458.34,143.43,454.5,332.09,449.46,334.39z"/>
	
		<ellipse transform="matrix(0.7071 -0.7071 0.7071 0.7071 -105.0244 392.3221)" class="st7" cx="421.06" cy="322.94" rx="7.56" ry="7.56"/>
	<path class="st8" d="M523.09,138.37v236.79c-19.26,0-74.54,0-74.54,0c-5.95-19.24,0.92-203.39,4.4-242.84
		C469.04,130.41,506.08,135.69,523.09,138.37z"/>
	<path class="st4" d="M135.53,373.2c-17.51-0.48-30.25-10.19-34.55-13.85c-4.3-3.66-5.57-9.23-5.73-14.97
		c-0.16-5.73,3.03-10.35,3.03-10.35c-14.49-6.85-30.57-17.83-35.35-22.61s-6.05-13.37-7.01-25.32l-1.5-42.31
		c-17.98-2.66-41.36-6.99-41.17-11.5c0.32-7.32,5.57-20.38,8.44-27.54l16.39-35.35L5.81,150.78c2.01-2.66,3.94-5.1,5.81-7.34
		c2.32-2.8,4.55-5.28,6.67-7.5c10.98-11.49,19.32-15.95,25.69-19.32c2.51-1.32,4.72-2.06,7.08-2.46c5.71-0.96,12.28,0.1,26.07-0.32
		l-0.01,0.2l-2.27,125.03l67.84,36.85C142.69,275.92,153.04,373.68,135.53,373.2z"/>
	<path class="st2" d="M80.05,112.07l-2.93,1.98c-9.75,3.18-16.86,7.3-20.53,13.99c-7.54,13.76-11.14,24.36-11.14,24.36
		c-2.83-5.66-25.29-7.48-38.95-3.4c3.18-4.46,9.68-11.48,11.8-13.7c10.98-11.49,19.32-15.95,25.69-19.32
		c2.51-1.32,4.72-2.06,7.08-2.46C56.77,112.56,66.27,112.49,80.05,112.07z"/>
</g>
<g id="timer">
	
		<ellipse transform="matrix(0.7071 -0.7071 0.7071 0.7071 -84.734 160.4064)" class="st9" cx="151.26" cy="182.49" rx="87.65" ry="87.65"/>
	<g>
		<g>
			<path class="st10" d="M108.89,204.22c13.17-5.12,26.34-10.24,39.51-15.36c21-8.17,42.01-16.33,63.01-24.5
				c4.84-1.88,9.68-3.76,14.52-5.65c2.37-0.92,1.34-4.79-1.06-3.86c-13.17,5.12-26.34,10.24-39.51,15.36
				c-21,8.17-42.01,16.33-63.01,24.5c-4.84,1.88-9.68,3.76-14.52,5.65C105.45,201.28,106.48,205.15,108.89,204.22L108.89,204.22z"/>
		</g>
	</g>
	<path class="st11" d="M151.26,90.88c-53.76,0-97.34,43.58-97.34,97.34s43.58,97.34,97.34,97.34c53.76,0,97.34-43.58,97.34-97.34
		S205.02,90.88,151.26,90.88z M151.26,270.3c-45.33,0-82.08-36.75-82.08-82.08s36.75-82.08,82.08-82.08
		c45.33,0,82.08,36.75,82.08,82.08S196.59,270.3,151.26,270.3z"/>
	<path class="st10" d="M111.41,202.29c0,1.6-1.3,2.9-2.9,2.9c-1.6,0-2.9-1.3-2.9-2.9c0-1.6,1.3-2.9,2.9-2.9
		C110.11,199.39,111.41,200.69,111.41,202.29z"/>
	<g>
		<g>
			<g>
				<g>
					<path class="st12" d="M145.26,111.1c-0.43-4.09-0.86-8.19-1.29-12.28c-0.2-1.9-3.2-1.92-3,0c0.43,4.09,0.86,8.19,1.29,12.28
						C142.46,113,145.46,113.02,145.26,111.1L145.26,111.1z"/>
				</g>
			</g>
			<g>
				<g>
					<path class="st12" d="M161.55,266.16c-0.43-4.09-0.86-8.19-1.29-12.28c-0.2-1.9-3.2-1.92-3,0c0.43,4.09,0.86,8.19,1.29,12.28
						C158.75,268.06,161.76,268.08,161.55,266.16L161.55,266.16z"/>
				</g>
			</g>
			<g>
				<g>
					<path class="st12" d="M137.78,111.88c-0.86-4.03-1.71-8.05-2.57-12.08c-0.4-1.89-3.29-1.09-2.89,0.8
						c0.86,4.03,1.71,8.05,2.57,12.08C135.29,114.56,138.18,113.77,137.78,111.88L137.78,111.88z"/>
				</g>
			</g>
			<g>
				<g>
					<path class="st12" d="M170.2,264.38c-0.86-4.03-1.71-8.05-2.57-12.08c-0.4-1.89-3.29-1.09-2.89,0.8
						c0.86,4.03,1.71,8.05,2.57,12.08C167.71,267.06,170.6,266.27,170.2,264.38L170.2,264.38z"/>
				</g>
			</g>
			<g>
				<g>
					<path class="st12" d="M130.53,113.82c-1.27-3.91-2.54-7.83-3.82-11.74c-0.59-1.83-3.49-1.05-2.89,0.8
						c1.27,3.91,2.54,7.83,3.82,11.74C128.23,116.45,131.12,115.67,130.53,113.82L130.53,113.82z"/>
				</g>
			</g>
			<g>
				<g>
					<path class="st12" d="M178.7,262.1c-1.27-3.91-2.54-7.83-3.82-11.74c-0.59-1.83-3.49-1.05-2.89,0.8
						c1.27,3.91,2.54,7.83,3.82,11.74C176.41,264.73,179.3,263.94,178.7,262.1L178.7,262.1z"/>
				</g>
			</g>
			<g>
				<g>
					<path class="st12" d="M123.36,116.16c-1.67-3.76-3.35-7.52-5.02-11.28c-0.78-1.76-3.37-0.24-2.59,1.51
						c1.67,3.76,3.35,7.52,5.02,11.28C121.55,119.43,124.14,117.91,123.36,116.16L123.36,116.16z"/>
				</g>
			</g>
			<g>
				<g>
					<path class="st12" d="M186.77,258.59c-1.67-3.76-3.35-7.52-5.02-11.28c-0.78-1.76-3.37-0.24-2.59,1.51
						c1.67,3.76,3.35,7.52,5.02,11.28C184.97,261.86,187.55,260.34,186.77,258.59L186.77,258.59z"/>
				</g>
			</g>
			<g>
				<g>
					<path class="st12" d="M110.36,123.66c-2.42-3.33-4.84-6.66-7.26-9.99c-1.12-1.55-3.73-0.05-2.59,1.51
						c2.42,3.33,4.84,6.66,7.26,9.99C108.9,126.72,111.5,125.23,110.36,123.66L110.36,123.66z"/>
				</g>
			</g>
			<g>
				<g>
					<path class="st12" d="M202,249.79c-2.42-3.33-4.84-6.66-7.26-9.99c-1.12-1.55-3.73-0.05-2.59,1.51
						c2.42,3.33,4.84,6.66,7.26,9.99C200.54,252.85,203.14,251.36,202,249.79L202,249.79z"/>
				</g>
			</g>
			<g>
				<g>
					<path class="st12" d="M104.29,128.09c-2.75-3.06-5.51-6.12-8.26-9.18c-1.29-1.44-3.41,0.69-2.12,2.12
						c2.75,3.06,5.51,6.12,8.26,9.18C103.46,131.64,105.58,129.52,104.29,128.09L104.29,128.09z"/>
				</g>
			</g>
			<g>
				<g>
					<path class="st12" d="M208.61,243.95c-2.75-3.06-5.51-6.12-8.26-9.18c-1.29-1.44-3.41,0.69-2.12,2.12
						c2.75,3.06,5.51,6.12,8.26,9.18C207.79,247.51,209.9,245.38,208.61,243.95L208.61,243.95z"/>
				</g>
			</g>
			<g>
				<g>
					<path class="st12" d="M98.98,133.4c-3.06-2.75-6.12-5.51-9.18-8.26c-1.43-1.29-3.56,0.83-2.12,2.12
						c3.06,2.75,6.12,5.51,9.18,8.26C98.29,136.81,100.42,134.69,98.98,133.4L98.98,133.4z"/>
				</g>
			</g>
			<g>
				<g>
					<path class="st12" d="M214.84,237.72c-3.06-2.75-6.12-5.51-9.18-8.26c-1.43-1.29-3.56,0.83-2.12,2.12
						c3.06,2.75,6.12,5.51,9.18,8.26C214.15,241.13,216.28,239.02,214.84,237.72L214.84,237.72z"/>
				</g>
			</g>
			<g>
				<g>
					<path class="st12" d="M93.95,139c-3.33-2.42-6.66-4.84-9.99-7.26c-1.56-1.14-3.06,1.47-1.51,2.59
						c3.33,2.42,6.66,4.84,9.99,7.26C94,142.73,95.5,140.13,93.95,139L93.95,139z"/>
				</g>
			</g>
			<g>
				<g>
					<path class="st12" d="M220.08,230.64c-3.33-2.42-6.66-4.84-9.99-7.26c-1.56-1.14-3.06,1.47-1.51,2.59
						c3.33,2.42,6.66,4.84,9.99,7.26C220.13,234.37,221.63,231.77,220.08,230.64L220.08,230.64z"/>
				</g>
			</g>
			<g>
				<g>
					<path class="st12" d="M86.44,152c-3.76-1.67-7.52-3.35-11.28-5.02c-1.75-0.78-3.28,1.81-1.51,2.59
						c3.76,1.67,7.52,3.35,11.28,5.02C86.68,155.37,88.21,152.78,86.44,152L86.44,152z"/>
				</g>
			</g>
			<g>
				<g>
					<path class="st12" d="M228.87,215.41c-3.76-1.67-7.52-3.35-11.28-5.02c-1.75-0.78-3.28,1.81-1.51,2.59
						c3.76,1.67,7.52,3.35,11.28,5.02C229.11,218.78,230.63,216.2,228.87,215.41L228.87,215.41z"/>
				</g>
			</g>
			<g>
				<g>
					<path class="st12" d="M83.39,158.86c-3.91-1.27-7.83-2.54-11.74-3.82c-1.84-0.6-2.63,2.3-0.8,2.89
						c3.91,1.27,7.83,2.54,11.74,3.82C84.44,162.35,85.22,159.46,83.39,158.86L83.39,158.86z"/>
				</g>
			</g>
			<g>
				<g>
					<path class="st12" d="M231.67,207.04c-3.91-1.27-7.83-2.54-11.74-3.82c-1.84-0.6-2.63,2.3-0.8,2.89
						c3.91,1.27,7.83,2.54,11.74,3.82C232.71,210.53,233.5,207.63,231.67,207.04L231.67,207.04z"/>
				</g>
			</g>
			<g>
				<g>
					<path class="st12" d="M81.45,166.12c-4.03-0.86-8.05-1.71-12.08-2.57c-1.88-0.4-2.69,2.49-0.8,2.89
						c4.03,0.86,8.05,1.71,12.08,2.57C82.53,169.41,83.34,166.52,81.45,166.12L81.45,166.12z"/>
				</g>
			</g>
			<g>
				<g>
					<path class="st12" d="M233.95,198.53c-4.03-0.86-8.05-1.71-12.08-2.57c-1.88-0.4-2.69,2.49-0.8,2.89
						c4.03,0.86,8.05,1.71,12.08,2.57C235.03,201.83,235.84,198.94,233.95,198.53L233.95,198.53z"/>
				</g>
			</g>
			<g>
				<g>
					<path class="st12" d="M79.87,173.49c-4.09-0.43-8.19-0.86-12.28-1.29c-1.92-0.2-1.9,2.8,0,3c4.09,0.43,8.19,0.86,12.28,1.29
						C81.79,176.69,81.78,173.69,79.87,173.49L79.87,173.49z"/>
				</g>
			</g>
			<g>
				<g>
					<path class="st12" d="M234.93,189.78c-4.09-0.43-8.19-0.86-12.28-1.29c-1.92-0.2-1.9,2.8,0,3c4.09,0.43,8.19,0.86,12.28,1.29
						C236.84,192.98,236.83,189.98,234.93,189.78L234.93,189.78z"/>
				</g>
			</g>
			<g>
				<g>
					<path class="st12" d="M79.87,188.49c-4.09,0.43-8.19,0.86-12.28,1.29c-1.9,0.2-1.92,3.2,0,3c4.09-0.43,8.19-0.86,12.28-1.29
						C81.77,191.29,81.8,188.29,79.87,188.49L79.87,188.49z"/>
				</g>
			</g>
			<g>
				<g>
					<path class="st12" d="M234.93,172.2c-4.09,0.43-8.19,0.86-12.28,1.29c-1.9,0.2-1.92,3.2,0,3c4.09-0.43,8.19-0.86,12.28-1.29
						C236.83,175,236.85,171.99,234.93,172.2L234.93,172.2z"/>
				</g>
			</g>
			<g>
				<g>
					<path class="st12" d="M80.65,195.97c-4.03,0.86-8.05,1.71-12.08,2.57c-1.89,0.4-1.09,3.29,0.8,2.89
						c4.03-0.86,8.05-1.71,12.08-2.57C83.34,198.46,82.54,195.57,80.65,195.97L80.65,195.97z"/>
				</g>
			</g>
			<g>
				<g>
					<path class="st12" d="M233.15,163.55c-4.03,0.86-8.05,1.71-12.08,2.57c-1.89,0.4-1.09,3.29,0.8,2.89
						c4.03-0.86,8.05-1.71,12.08-2.57C235.84,166.04,235.04,163.15,233.15,163.55L233.15,163.55z"/>
				</g>
			</g>
			<g>
				<g>
					<path class="st12" d="M82.6,203.22c-3.91,1.27-7.83,2.54-11.74,3.82c-1.83,0.59-1.05,3.49,0.8,2.89
						c3.91-1.27,7.83-2.54,11.74-3.82C85.22,205.52,84.44,202.63,82.6,203.22L82.6,203.22z"/>
				</g>
			</g>
			<g>
				<g>
					<path class="st12" d="M230.87,155.05c-3.91,1.27-7.83,2.54-11.74,3.82c-1.83,0.59-1.05,3.49,0.8,2.89
						c3.91-1.27,7.83-2.54,11.74-3.82C233.5,157.35,232.72,154.45,230.87,155.05L230.87,155.05z"/>
				</g>
			</g>
			<g>
				<g>
					<path class="st12" d="M84.93,210.39c-3.76,1.67-7.52,3.35-11.28,5.02c-1.76,0.78-0.24,3.37,1.51,2.59
						c3.76-1.67,7.52-3.35,11.28-5.02C88.2,212.2,86.68,209.61,84.93,210.39L84.93,210.39z"/>
				</g>
			</g>
			<g>
				<g>
					<path class="st12" d="M227.36,146.98c-3.76,1.67-7.52,3.35-11.28,5.02c-1.76,0.78-0.24,3.37,1.51,2.59
						c3.76-1.67,7.52-3.35,11.28-5.02C230.63,148.78,229.11,146.2,227.36,146.98L227.36,146.98z"/>
				</g>
			</g>
			<g>
				<g>
					<path class="st12" d="M92.43,223.39c-3.33,2.42-6.66,4.84-9.99,7.26c-1.55,1.12-0.05,3.73,1.51,2.59
						c3.33-2.42,6.66-4.84,9.99-7.26C95.49,224.85,94,222.25,92.43,223.39L92.43,223.39z"/>
				</g>
			</g>
			<g>
				<g>
					<path class="st12" d="M218.56,131.75c-3.33,2.42-6.66,4.84-9.99,7.26c-1.55,1.12-0.05,3.73,1.51,2.59
						c3.33-2.42,6.66-4.84,9.99-7.26C221.62,133.21,220.13,130.61,218.56,131.75L218.56,131.75z"/>
				</g>
			</g>
			<g>
				<g>
					<path class="st12" d="M96.86,229.46c-3.06,2.75-6.12,5.51-9.18,8.26c-1.44,1.29,0.69,3.41,2.12,2.12
						c3.06-2.75,6.12-5.51,9.18-8.26C100.42,230.29,98.29,228.17,96.86,229.46L96.86,229.46z"/>
				</g>
			</g>
			<g>
				<g>
					<path class="st12" d="M212.72,125.14c-3.06,2.75-6.12,5.51-9.18,8.26c-1.44,1.29,0.69,3.41,2.12,2.12
						c3.06-2.75,6.12-5.51,9.18-8.26C216.28,125.96,214.15,123.85,212.72,125.14L212.72,125.14z"/>
				</g>
			</g>
			<g>
				<g>
					<path class="st12" d="M102.17,234.77c-2.75,3.06-5.51,6.12-8.26,9.18c-1.29,1.43,0.83,3.56,2.12,2.12
						c2.75-3.06,5.51-6.12,8.26-9.18C105.58,235.46,103.46,233.33,102.17,234.77L102.17,234.77z"/>
				</g>
			</g>
			<g>
				<g>
					<path class="st12" d="M206.49,118.91c-2.75,3.06-5.51,6.12-8.26,9.18c-1.29,1.43,0.83,3.56,2.12,2.12
						c2.75-3.06,5.51-6.12,8.26-9.18C209.9,119.6,207.79,117.47,206.49,118.91L206.49,118.91z"/>
				</g>
			</g>
			<g>
				<g>
					<path class="st12" d="M107.77,239.8c-2.42,3.33-4.84,6.66-7.26,9.99c-1.14,1.56,1.47,3.06,2.59,1.51
						c2.42-3.33,4.84-6.66,7.26-9.99C111.5,239.75,108.9,238.25,107.77,239.8L107.77,239.8z"/>
				</g>
			</g>
			<g>
				<g>
					<path class="st12" d="M199.41,113.67c-2.42,3.33-4.84,6.66-7.26,9.99c-1.14,1.56,1.47,3.06,2.59,1.51
						c2.42-3.33,4.84-6.66,7.26-9.99C203.14,113.62,200.54,112.12,199.41,113.67L199.41,113.67z"/>
				</g>
			</g>
			<g>
				<g>
					<path class="st12" d="M120.77,247.31c-1.67,3.76-3.35,7.52-5.02,11.28c-0.78,1.75,1.81,3.28,2.59,1.51
						c1.67-3.76,3.35-7.52,5.02-11.28C124.14,247.07,121.55,245.54,120.77,247.31L120.77,247.31z"/>
				</g>
			</g>
			<g>
				<g>
					<path class="st12" d="M184.18,104.88c-1.67,3.76-3.35,7.52-5.02,11.28c-0.78,1.75,1.81,3.28,2.59,1.51
						c1.67-3.76,3.35-7.52,5.02-11.28C187.55,104.64,184.97,103.12,184.18,104.88L184.18,104.88z"/>
				</g>
			</g>
			<g>
				<g>
					<path class="st12" d="M127.63,250.36c-1.27,3.91-2.54,7.83-3.82,11.74c-0.6,1.84,2.3,2.63,2.89,0.8
						c1.27-3.91,2.54-7.83,3.82-11.74C131.12,249.31,128.23,248.53,127.63,250.36L127.63,250.36z"/>
				</g>
			</g>
			<g>
				<g>
					<path class="st12" d="M175.81,102.08c-1.27,3.91-2.54,7.83-3.82,11.74c-0.6,1.84,2.3,2.63,2.89,0.8
						c1.27-3.91,2.54-7.83,3.82-11.74C179.3,101.04,176.41,100.25,175.81,102.08L175.81,102.08z"/>
				</g>
			</g>
			<g>
				<g>
					<path class="st12" d="M134.89,252.3c-0.86,4.03-1.71,8.05-2.57,12.08c-0.4,1.88,2.49,2.69,2.89,0.8
						c0.86-4.03,1.71-8.05,2.57-12.08C138.18,251.22,135.29,250.41,134.89,252.3L134.89,252.3z"/>
				</g>
			</g>
			<g>
				<g>
					<path class="st12" d="M142.26,253.88c-0.43,4.09-0.86,8.19-1.29,12.28c-0.2,1.92,2.8,1.9,3,0c0.43-4.09,0.86-8.19,1.29-12.28
						C145.46,251.96,142.46,251.97,142.26,253.88L142.26,253.88z"/>
				</g>
			</g>
			<g>
				<g>
					<path class="st12" d="M158.55,98.82c-0.43,4.09-0.86,8.19-1.29,12.28c-0.2,1.92,2.8,1.9,3,0c0.43-4.09,0.86-8.19,1.29-12.28
						C161.76,96.91,158.75,96.92,158.55,98.82L158.55,98.82z"/>
				</g>
			</g>
			<g>
				<g>
					<path class="st12" d="M167.31,99.8c-0.86,4.03-1.71,8.05-2.57,12.08c-0.4,1.88,2.49,2.69,2.89,0.8
						c0.86-4.03,1.71-8.05,2.57-12.08C170.6,98.72,167.71,97.91,167.31,99.8L167.31,99.8z"/>
				</g>
			</g>
		</g>
		<circle class="st13" cx="151.26" cy="182.49" r="71.6"/>
		<g>
			<g>
				<g>
					<path class="st14" d="M155.76,112.45c0-4.02,0-8.03,0-12.05c0-5.79-9-5.8-9,0c0,4.02,0,8.03,0,12.05
						C146.76,118.25,155.76,118.26,155.76,112.45L155.76,112.45z"/>
				</g>
			</g>
			<g>
				<g>
					<path class="st15" d="M153.76,264.57c0-4.02,0-8.03,0-12.05c0-3.22-5-3.22-5,0c0,4.02,0,8.03,0,12.05
						C148.76,267.79,153.76,267.79,153.76,264.57L153.76,264.57z"/>
				</g>
			</g>
			<g>
				<g>
					<path class="st15" d="M118.4,120.58c-2.01-3.48-4.02-6.96-6.02-10.43c-1.61-2.79-5.93-0.27-4.32,2.52
						c2.01,3.48,4.02,6.96,6.02,10.43C115.69,125.89,120.02,123.37,118.4,120.58L118.4,120.58z"/>
				</g>
			</g>
			<g>
				<g>
					<path class="st15" d="M194.46,252.31c-2.01-3.48-4.02-6.96-6.02-10.43c-1.61-2.79-5.93-0.27-4.32,2.52
						c2.01,3.48,4.02,6.96,6.02,10.43C191.75,257.62,196.07,255.11,194.46,252.31L194.46,252.31z"/>
				</g>
			</g>
			<g>
				<g>
					<path class="st15" d="M91.87,145.31c-3.48-2.01-6.96-4.02-10.43-6.02c-2.79-1.61-5.31,2.71-2.52,4.32
						c3.48,2.01,6.96,4.02,10.43,6.02C92.14,151.24,94.66,146.92,91.87,145.31L91.87,145.31z"/>
				</g>
			</g>
			<g>
				<g>
					<path class="st15" d="M223.61,221.37c-3.48-2.01-6.96-4.02-10.43-6.02c-2.79-1.61-5.31,2.71-2.52,4.32
						c3.48,2.01,6.96,4.02,10.43,6.02C223.88,227.3,226.4,222.98,223.61,221.37L223.61,221.37z"/>
				</g>
			</g>
			<g>
				<g>
					<path class="st15" d="M81.23,179.99c-4.02,0-8.03,0-12.05,0c-3.22,0-3.22,5,0,5c4.02,0,8.03,0,12.05,0
						C84.44,184.99,84.45,179.99,81.23,179.99L81.23,179.99z"/>
				</g>
			</g>
			<g>
				<g>
					<path class="st15" d="M233.34,179.99c-4.02,0-8.03,0-12.05,0c-3.22,0-3.22,5,0,5c4.02,0,8.03,0,12.05,0
						C236.56,184.99,236.57,179.99,233.34,179.99L233.34,179.99z"/>
				</g>
			</g>
			<g>
				<g>
					<path class="st15" d="M89.35,215.35c-3.48,2.01-6.96,4.02-10.43,6.02c-2.79,1.61-0.27,5.93,2.52,4.32
						c3.48-2.01,6.96-4.02,10.43-6.02C94.66,218.06,92.14,213.73,89.35,215.35L89.35,215.35z"/>
				</g>
			</g>
			<g>
				<g>
					<path class="st15" d="M221.08,139.29c-3.48,2.01-6.96,4.02-10.43,6.02c-2.79,1.61-0.27,5.93,2.52,4.32
						c3.48-2.01,6.96-4.02,10.43-6.02C226.39,142,223.88,137.68,221.08,139.29L221.08,139.29z"/>
				</g>
			</g>
			<g>
				<g>
					<path class="st15" d="M114.08,241.88c-2.01,3.48-4.02,6.96-6.02,10.43c-1.61,2.79,2.71,5.31,4.32,2.52
						c2.01-3.48,4.02-6.96,6.02-10.43C120.01,241.61,115.69,239.09,114.08,241.88L114.08,241.88z"/>
				</g>
			</g>
			<g>
				<g>
					<path class="st15" d="M190.14,110.14c-2.01,3.48-4.02,6.96-6.02,10.43c-1.61,2.79,2.71,5.31,4.32,2.52
						c2.01-3.48,4.02-6.96,6.02-10.43C196.07,109.87,191.75,107.35,190.14,110.14L190.14,110.14z"/>
				</g>
			</g>
		</g>
	</g>
	<g>
		<line class="st16" x1="151.34" y1="139.81" x2="151.34" y2="132.46"/>
		<line class="st17" x1="151.34" y1="232.52" x2="151.34" y2="225.17"/>
		<line class="st17" x1="130" y1="145.52" x2="126.33" y2="139.17"/>
		<line class="st17" x1="176.35" y1="225.81" x2="172.68" y2="219.45"/>
		<line class="st17" x1="114.37" y1="161.15" x2="108.02" y2="157.48"/>
		<line class="st17" x1="194.66" y1="207.5" x2="188.3" y2="203.83"/>
		<line class="st17" x1="108.66" y1="182.49" x2="101.31" y2="182.49"/>
		<line class="st17" x1="201.36" y1="182.49" x2="194.02" y2="182.49"/>
		<line class="st17" x1="114.37" y1="203.83" x2="108.02" y2="207.5"/>
		<line class="st17" x1="194.66" y1="157.48" x2="188.3" y2="161.15"/>
		<line class="st17" x1="130" y1="219.45" x2="126.33" y2="225.81"/>
		<line class="st17" x1="176.35" y1="139.17" x2="172.68" y2="145.52"/>
		<circle class="st18" cx="151.17" cy="182.49" r="50.16"/>
	</g>
	<g>
		<path class="st19" d="M151.26,281.42c-54.55,0-98.93-44.38-98.93-98.93c0-54.55,44.38-98.93,98.93-98.93
			c54.55,0,98.93,44.38,98.93,98.93C250.19,237.04,205.81,281.42,151.26,281.42z M151.26,102c-44.38,0-80.49,36.11-80.49,80.49
			s36.11,80.49,80.49,80.49c44.38,0,80.49-36.11,80.49-80.49S195.64,102,151.26,102z"/>
		<path class="st20" d="M151.26,85.15c53.76,0,97.34,43.58,97.34,97.34s-43.58,97.34-97.34,97.34s-97.34-43.58-97.34-97.34
			S97.5,85.15,151.26,85.15 M151.26,264.56c45.33,0,82.08-36.75,82.08-82.08c0-45.33-36.75-82.08-82.08-82.08
			s-82.08,36.75-82.08,82.08C69.18,227.82,105.93,264.56,151.26,264.56 M151.26,81.96c-26.85,0-52.09,10.46-71.08,29.44
			c-18.99,18.99-29.44,44.23-29.44,71.08s10.46,52.09,29.44,71.08c18.99,18.99,44.23,29.44,71.08,29.44
			c26.85,0,52.09-10.46,71.08-29.44c18.99-18.99,29.44-44.23,29.44-71.08s-10.46-52.09-29.44-71.08
			C203.36,92.42,178.11,81.96,151.26,81.96L151.26,81.96z M151.26,261.38c-21.07,0-40.89-8.21-55.79-23.11
			c-14.9-14.9-23.11-34.71-23.11-55.79c0-21.07,8.21-40.89,23.11-55.79c14.9-14.9,34.71-23.11,55.79-23.11
			c21.07,0,40.89,8.21,55.79,23.11c14.9,14.9,23.11,34.71,23.11,55.79c0,21.07-8.21,40.89-23.11,55.79
			C192.15,253.17,172.33,261.38,151.26,261.38L151.26,261.38z"/>
	</g>
	<path class="st21" d="M243.32,202.36l-2.87-14.33l-7.24-0.97c-1.65,29.93-19.33,55.59-44.61,68.53c1.26,3.4,2.81,7.59,2.81,7.59
		l29.93-16.24L243.32,202.36z"/>
	<path class="st5" d="M208.19,241.61c1.36,1.76,4.56,5.65,4.56,5.65l14.97-14.01l3.18-11.14l-6.23-2.89
		C220.47,227.6,214.87,235.17,208.19,241.61z"/>
	<path class="st1" d="M150.34,86.46l-50.63,14.01l-35.7,38.83c-0.23,0.47-0.46,0.94-0.69,1.41l-7.61,60.42
		c0.23,1.17,35.24,55.09,35.24,55.09l37.56,11.91l1.48-6.35c-35.02-9.37-60.81-41.32-60.81-79.29l0,0l0,0c0,0,0-0.01,0-0.01
		c0-0.92,0.16-5.11,0.22-6.01l0,0c3.08-42.52,38.55-76.06,81.86-76.06c19.53,0,37.47,6.83,51.56,18.22
		c1.66-1.72,3.69-3.91,3.88-4.47v-7.96L150.34,86.46z"/>
	<path class="st7" d="M244.2,135.9c-17.08-34.01-52.29-57.36-92.94-57.36c-57.41,0-103.95,46.54-103.95,103.95
		c0,55.19,43.02,100.34,97.35,103.74c2.18,0.13,4.38,0.2,6.6,0.2c7.41,0,14.64-0.78,21.61-2.25c7.45-1.57,14.61-3.95,21.37-7.02
		c35.96-16.35,60.97-52.59,60.97-94.67C255.21,165.74,251.25,149.91,244.2,135.9z M151.26,270.14c-48.41,0-87.65-39.24-87.65-87.65
		s39.24-87.65,87.65-87.65s87.65,39.24,87.65,87.65S199.67,270.14,151.26,270.14z"/>
	<path class="st22" d="M138.41,269.19c-42.31-6.22-74.8-42.67-74.8-86.71c0-0.68,0.01-1.35,0.03-2.03
		c-3.7-15.89-8.69-26.3-10.88-31.22c-3.52,10.44-5.44,21.62-5.44,33.25c0,57.41,46.54,103.95,103.95,103.95
		c4.94,0,17.78-1.14,22.54-1.81C173.27,284.49,145.77,279.11,138.41,269.19z"/>
	<circle class="st23" cx="151.26" cy="182.49" r="5.18"/>
	<g>
		<g>
			<path class="st23" d="M108.89,201.03c13.17-5.12,26.34-10.24,39.51-15.36c21-8.17,42.01-16.33,63.01-24.5
				c4.84-1.88,9.68-3.76,14.52-5.65c2.37-0.92,1.34-4.79-1.06-3.86c-13.17,5.12-26.34,10.24-39.51,15.36
				c-21,8.17-42.01,16.33-63.01,24.5c-4.84,1.88-9.68,3.76-14.52,5.65C105.45,198.1,106.48,201.97,108.89,201.03L108.89,201.03z"/>
		</g>
	</g>
	<path class="st24" d="M149.26,182.49c0-1.1,0.89-2,2-2c1.1,0,2,0.89,2,2c0,1.1-0.89,2-2,2
		C150.16,184.48,149.26,183.59,149.26,182.49z"/>
	<path class="st25" d="M151.26,182.49"/>
	<path class="st23" d="M111.41,199.11c0,1.6-1.3,2.9-2.9,2.9c-1.6,0-2.9-1.3-2.9-2.9c0-1.6,1.3-2.9,2.9-2.9
		C110.11,196.2,111.41,197.5,111.41,199.11z"/>
	<path class="st26" d="M244.2,135.9c-0.3,5.11-0.43,12.44,0.89,16.28c3.34,9.7,5.15,20.11,5.15,30.94
		c0,49.03-37.08,89.4-84.72,94.59c-1.17,0.13-3.24,1.25-5.45,2.67c4.78,1.71,9.48,2.99,12.8,3.8c47.04-9.94,82.34-51.7,82.34-101.69
		C255.21,165.74,251.25,149.91,244.2,135.9z"/>
	<path class="st27" d="M83.01,115.02c-6.97,7.05-12.86,15.18-17.39,24.11"/>
	<path class="st28" d="M131.23,88.61c-4.02,0.85-7.94,1.96-11.76,3.3"/>
	<path class="st27" d="M229.2,126.47c-17.42-24.2-45.84-39.96-77.94-39.96c-1.46,0-2.91,0.03-4.35,0.1"/>
	<path class="st22" d="M194.24,277.15c-6.76,3.08-13.92,5.45-21.37,7.02c-6.97,1.48-14.2,2.25-21.61,2.25c-2.22,0-4.42-0.07-6.6-0.2
		l4.91-9.01c8.28,0.96,20.7,0,30.89-2.87C185.96,272.81,191.09,274.33,194.24,277.15z"/>
</g>
<g>
	<path class="st2" d="M0.2,167.18c-1.27,12.9,3.82,18.84,7.64,25.16s16.31,16.95,25,18.95c7.64,1.75,17.05-0.7,19.42-9.27
		c3.34-12.06,1.22-23.03-2.87-31.8c-4.45-9.55-29.93-32-38.13-25.74C4.27,149.8,1.24,156.64,0.2,167.18z"/>
	<path class="st29" d="M15.64,171c-4.19,4.92-3.98,14.01-2.55,19.42c1.43,5.41,10.03,16.24,13.37,17.35s-0.7-2.39-1.11-11.94
		c-0.64-14.81,3.03-16.08,1.43-19.58C24.93,172.16,19.31,166.7,15.64,171z"/>
	<path class="st2" d="M44.3,227.36c16.92,8.52,36.09,24.19,41.87,32.32c5.09,7.16,6.69,18.19,4.14,26.43
		c-2.07,6.69-9.08,12.74-21.02,9.55c-11.94-3.18-39.33-15.44-46.65-22.93c-5.77-5.9-13.69-12.58-9.55-39.33
		C14.93,221.57,28.17,219.24,44.3,227.36z"/>
	<path class="st29" d="M62.29,259.2c-9.31-2.77-15.44-2.71-19.58,0.16s-7.48,9.24-5.89,14.81c1.91,6.69,9.23,12.74,14.97,14.33
		s14.01,5.89,12.74,2.87c-1.98-4.7-3.18-7.48-1.75-16.56C63.96,267.3,69.78,261.43,62.29,259.2z"/>
	<path class="st2" d="M178.68,358.87c-8.55,5.16-26.11,12.58-37.57,14.17c-11.46,1.59-21.02-3.82-23.4-10.67
		c-1.74-5.01-2.76-13.18-0.56-19.12c0.95-2.57,2.5-4.73,4.86-6.03c5.31-2.93,47.13-10.83,51.74-11.62
		c2.67-0.46,6.88-0.32,10.34,1.94c0,0,0,0,0.01,0c2.51,1.64,4.62,4.41,5.42,8.88C191.57,347.89,186.32,354.26,178.68,358.87z"/>
	<path class="st29" d="M147.47,346.45c1.47,5.6,6.85,10.03,10.99,9.55c4.14-0.48,19.11-3.82,20.06-6.37
		c0.96-2.55-0.16-8.92-2.39-13.53c-2.23-4.62-5.57-8.44-8.28-7.64c-2.71,0.8-15.44,3.98-17.99,6.69S146.68,343.43,147.47,346.45z"/>
	<path class="st30" d="M184.08,327.54c-22.37,6.48-46.5,12.06-66.94,15.71c0.95-2.57,2.5-4.73,4.86-6.03
		c5.31-2.93,47.13-10.83,51.74-11.62C176.41,325.14,180.62,325.28,184.08,327.54z"/>
	<path class="st2" d="M97.96,298.53c13.34-13.91,56.52-14.33,66.07-14.65s15.99-0.28,20.7,5.57c4.62,5.73,5.5,20.86,2.71,27.38
		c-3.82,8.92-45.98,17.07-45.22,16.88c11.13-2.85-22.29,5.57-34.39,3.03C97.85,334.64,86.65,310.31,97.96,298.53z"/>
	<path class="st29" d="M168.81,288.5c-12.56,1.46-18.23,2.95-24.52,6.69c-5.89,3.5-8.31,11.35-6.37,18.95
		c2.07,8.12,12.4,11.37,17.35,10.35c6.21-1.27,23.4-3.18,24.36-5.09c0.96-1.91-2.71-8.78-3.82-16.24
		C174.22,292.48,175.65,287.7,168.81,288.5z"/>
</g>
<path class="st31" d="M119.47,91.91c-13.89,4.88-26.33,12.86-36.47,23.12 M146.91,86.61c-5.35,0.24-10.59,0.92-15.68,2"/>
</svg>
