<?xml version="1.0" encoding="utf-8"?>
<!-- Generator: Adobe Illustrator 23.0.2, SVG Export Plug-In . SVG Version: 6.00 Build 0)  -->
<svg version="1.1" id="Layer_1" xmlns="http://www.w3.org/2000/svg" xmlns:xlink="http://www.w3.org/1999/xlink" x="0px" y="0px"
	 viewBox="0 0 38.97 40.73" style="enable-background:new 0 0 38.97 40.73;" xml:space="preserve">
<style type="text/css">
	.st0{fill:#DCB326;}
	.st1{fill:#CD9F00;}
	.st2{fill:#ECC53A;}
	.st3{fill:#FFFFFF;}
</style>
<g id="XMLID_2069_">
	<g id="XMLID_2079_">
		<path id="XMLID_2150_" class="st0" d="M38.08,28.48c0-0.02,0-0.04-0.01-0.07c0-0.05-0.01-0.12-0.02-0.2
			c-0.01-0.16-0.03-0.38-0.04-0.63c-0.03-0.5-0.08-1.15-0.12-1.79c-0.08-1.28-0.15-2.53-0.15-2.53v0c-0.01-0.2,0.15-0.37,0.36-0.38
			c0.21-0.01,0.39,0.14,0.4,0.34c0,0,0,0.06,0.01,0.15c0.01,0.1,0.01,0.24,0.03,0.42c0.02,0.35,0.05,0.83,0.08,1.36
			c0.02,0.26,0.03,0.53,0.05,0.81c0.32-1.94,0.41-3.96,0.15-5.93L0.17,21.04c0,0-0.03,2.84,0.84,6.36c0-0.03,0-0.06,0-0.08
			c0-0.08-0.01-0.15-0.02-0.2c-0.02-0.1-0.03-0.21-0.03-0.33s-0.01-0.23-0.01-0.35c0-0.46,0.04-0.9,0.04-0.9l0-0.01
			c0.02-0.2,0.2-0.35,0.41-0.33c0.21,0.02,0.37,0.19,0.35,0.39l0,0c0,0,0,0.01,0,0.01c0,0.01,0,0.03,0,0.05
			c0,0.05-0.01,0.11-0.01,0.19c-0.01,0.16-0.02,0.37-0.02,0.58c0,0.11,0,0.21,0.01,0.31c0.01,0.1,0.01,0.19,0.03,0.26
			c0.01,0.08,0.02,0.17,0.03,0.27c0.01,0.09,0.01,0.19,0.01,0.3c0,0.29-0.02,0.61-0.03,0.85c-0.02,0.24-0.03,0.41-0.03,0.41
			c-0.01,0.13-0.1,0.24-0.21,0.29c0.22,0.69,0.48,1.39,0.78,2.09c0.01-0.1,0.02-0.21,0.03-0.32c0.04-0.29,0.05-0.62,0.05-0.93
			c0-0.6-0.05-1.11-0.05-1.14l0,0l0,0c-0.02-0.2,0.14-0.38,0.35-0.39c0.21-0.02,0.4,0.13,0.42,0.33c0,0.01,0.05,0.55,0.05,1.2
			c0,0.33-0.01,0.68-0.05,1.01c-0.04,0.29-0.05,0.59-0.05,0.86c0,0.52,0.05,0.91,0.05,0.92l0,0l0,0h0c0,0.03,0,0.07,0,0.1
			c0.12,0.23,0.25,0.46,0.39,0.68c0.19,0.31,0.39,0.61,0.6,0.89c0-0.08,0.01-0.16,0.01-0.24c0.02-0.43,0.04-0.88,0.06-1.29
			c0.05-0.82,0.09-1.49,0.09-1.49l0,0c0.01-0.2,0.2-0.35,0.41-0.34c0.21,0.01,0.37,0.19,0.36,0.39c0,0,0,0.02,0,0.07
			c0,0.04-0.01,0.11-0.01,0.19c-0.01,0.16-0.03,0.39-0.04,0.65c-0.03,0.53-0.07,1.22-0.1,1.86c-0.02,0.42-0.03,0.81-0.03,1.11
			c0.69,0.74,1.48,1.39,2.32,1.95c0.03-0.43,0.05-0.93,0.07-1.4c0.04-1.03,0.05-1.99,0.05-2.21c0-0.03,0-0.04,0-0.04h0
			c0-0.2,0.18-0.36,0.39-0.36c0.21,0,0.38,0.17,0.38,0.37c0,0-0.02,1.66-0.09,3.1c-0.02,0.36-0.04,0.7-0.07,1
			c0.72,0.42,1.47,0.79,2.23,1.11c0-0.12,0.01-0.24,0.01-0.37c0.01-0.24,0.04-0.56,0.07-0.91c0.03-0.35,0.07-0.72,0.1-1.07
			c0.07-0.69,0.13-1.27,0.13-1.27l0,0c0.02-0.2,0.21-0.34,0.42-0.32c0.21,0.02,0.36,0.2,0.34,0.4c0,0,0,0.02-0.01,0.06
			c0,0.04-0.01,0.09-0.02,0.16c-0.01,0.14-0.04,0.33-0.06,0.56c-0.05,0.45-0.11,1.03-0.15,1.55c-0.03,0.34-0.05,0.66-0.06,0.88
			c-0.01,0.23-0.02,0.45-0.02,0.64c1.05,0.39,2.1,0.69,3.09,0.92l0-0.01c0.02-0.41,0.03-0.87,0.05-1.33
			c0.03-0.91,0.05-1.8,0.06-2.14c0-0.1,0-0.15,0-0.15v0c0-0.2,0.18-0.36,0.39-0.35c0.21,0,0.38,0.17,0.37,0.37c0,0-0.05,2-0.11,3.46
			c0,0.11-0.01,0.22-0.01,0.32c0.93,0.19,1.8,0.31,2.55,0.39c0-0.06,0-0.12,0-0.18c0-0.37,0.02-0.78,0.05-1.19
			c0.03-0.41,0.08-0.81,0.12-1.17c0.09-0.72,0.17-1.25,0.17-1.26h0c0.03-0.2,0.23-0.33,0.44-0.3c0.21,0.03,0.35,0.22,0.32,0.41
			c0,0,0,0,0,0.01s0,0.02-0.01,0.04c-0.01,0.03-0.01,0.09-0.02,0.15c-0.02,0.13-0.05,0.32-0.08,0.54c-0.06,0.45-0.13,1.04-0.18,1.63
			C18.02,39.7,18,40.1,18,40.44c0,0.09,0,0.17,0,0.25c0.15,0.01,0.28,0.02,0.42,0.03c0.82,0.04,1.91-0.03,3.14-0.18
			c0-0.24-0.02-0.53-0.04-0.84c-0.03-0.35-0.06-0.73-0.1-1.08c-0.07-0.7-0.15-1.3-0.17-1.42c0-0.02,0-0.03,0-0.03l0,0
			c-0.03-0.2,0.12-0.38,0.33-0.41c0.21-0.03,0.4,0.11,0.43,0.31c0,0,0.18,1.33,0.27,2.5c0.02,0.31,0.04,0.6,0.05,0.86
			c0.88-0.13,1.8-0.29,2.74-0.48c-0.01-0.09-0.02-0.2-0.03-0.31c-0.03-0.36-0.07-0.8-0.1-1.23c-0.06-0.86-0.12-1.67-0.12-1.67v0
			c-0.01-0.2,0.15-0.37,0.36-0.39c0.21-0.01,0.39,0.14,0.41,0.34c0,0,0,0.03,0.01,0.1c0,0.06,0.01,0.15,0.02,0.26
			c0.01,0.22,0.04,0.52,0.06,0.86c0.05,0.64,0.1,1.39,0.15,1.88c0.9-0.2,1.79-0.42,2.63-0.65c0-0.21,0-0.46,0-0.71
			c0-0.88-0.01-1.89-0.02-2.35c0-0.15,0-0.24,0-0.24v0c0-0.2,0.17-0.37,0.38-0.37c0.21,0,0.39,0.16,0.39,0.36
			c0,0,0.02,1.42,0.02,2.59c0,0.17,0,0.34,0,0.49c0.72-0.22,1.39-0.44,1.99-0.67c0-0.08,0-0.16,0-0.25c0-0.66-0.05-1.56-0.1-2.33
			c-0.05-0.77-0.11-1.41-0.12-1.55c0-0.02,0-0.03,0-0.03v0c-0.02-0.2,0.14-0.38,0.35-0.39c0.21-0.02,0.4,0.13,0.41,0.33
			c0,0,0.06,0.63,0.11,1.44c0.06,0.79,0.11,1.74,0.11,2.47c0.36-0.16,0.69-0.32,0.96-0.47c0.34-0.2,0.7-0.49,1.07-0.86
			c-0.02-0.14-0.04-0.29-0.06-0.46c-0.06-0.49-0.12-1.09-0.18-1.67c-0.12-1.16-0.23-2.24-0.23-2.24v0c-0.02-0.2,0.14-0.38,0.35-0.4
			c0.21-0.02,0.4,0.13,0.42,0.33c0,0,0,0.05,0.01,0.13c0.01,0.08,0.02,0.2,0.03,0.35c0.03,0.29,0.07,0.7,0.12,1.15
			c0.07,0.66,0.15,1.41,0.22,2.03c0.33-0.42,0.65-0.89,0.97-1.41c-0.01-0.11-0.03-0.23-0.04-0.35c-0.06-0.61-0.12-1.34-0.16-2.05
			c-0.09-1.42-0.13-2.74-0.13-2.74v0c-0.01-0.2,0.16-0.37,0.37-0.37s0.39,0.15,0.39,0.35c0,0,0,0.03,0,0.09
			c0,0.06,0.01,0.14,0.01,0.25c0.01,0.21,0.02,0.52,0.04,0.87c0.03,0.71,0.08,1.64,0.14,2.49c0.01,0.1,0.02,0.2,0.02,0.3
			c0.3-0.58,0.58-1.2,0.85-1.85c-0.02-0.1-0.03-0.2-0.04-0.31c-0.08-0.59-0.15-1.31-0.2-2.01c-0.11-1.41-0.18-2.74-0.18-2.74l0,0
			c-0.01-0.2,0.15-0.37,0.37-0.38c0.21-0.01,0.39,0.15,0.4,0.35c0,0,0,0.03,0,0.09c0,0.06,0.01,0.14,0.01,0.24
			c0.01,0.21,0.03,0.5,0.05,0.85c0.04,0.67,0.1,1.53,0.18,2.33c0.13-0.4,0.25-0.8,0.37-1.21c0-0.01-0.01-0.02-0.01-0.04
			C38.08,28.52,38.08,28.5,38.08,28.48z"/>
		<path id="XMLID_2148_" class="st1" d="M1.7,28.84c0,0,0.02-0.17,0.03-0.41c0.02-0.24,0.03-0.55,0.03-0.85c0-0.1,0-0.2-0.01-0.3
			c-0.01-0.09-0.01-0.18-0.03-0.27c-0.01-0.07-0.02-0.16-0.03-0.26c-0.01-0.1-0.01-0.2-0.01-0.31c0-0.21,0.01-0.42,0.02-0.58
			c0-0.08,0.01-0.15,0.01-0.19c0-0.02,0-0.04,0-0.05c0-0.01,0-0.01,0-0.01l0-0.01c0.02-0.2-0.14-0.38-0.35-0.39
			C1.18,25.2,1,25.35,0.98,25.55l0,0c0,0-0.04,0.44-0.04,0.9c0,0.12,0,0.23,0.01,0.35s0.02,0.22,0.03,0.33
			C0.99,27.18,1,27.24,1,27.32c0,0.03,0,0.05,0,0.08c0.14,0.56,0.3,1.14,0.49,1.73C1.61,29.08,1.69,28.97,1.7,28.84z"/>
		<polygon id="XMLID_2146_" class="st1" points="3.01,32.77 2.93,32.77 3.01,32.77 		"/>
		<polygon id="XMLID_2144_" class="st1" points="2.93,32.77 3.01,32.77 3.01,32.77 		"/>
		<path id="XMLID_2142_" class="st1" d="M3.06,32.76c0,0-0.05-0.4-0.05-0.92c0-0.26,0.01-0.56,0.05-0.86
			c0.04-0.33,0.05-0.69,0.05-1.01c0-0.65-0.05-1.19-0.05-1.2c-0.02-0.2-0.21-0.35-0.42-0.33c-0.21,0.02-0.37,0.19-0.35,0.39l0,0l0,0
			c0,0.03,0.05,0.54,0.05,1.14c0,0.31-0.01,0.64-0.05,0.93c-0.01,0.11-0.02,0.21-0.03,0.32c0.22,0.52,0.47,1.04,0.74,1.55
			L3.06,32.76z"/>
		<polygon id="XMLID_2139_" class="st1" points="3.01,32.77 3.01,32.77 3.06,32.76 3.06,32.76 		"/>
		<path id="XMLID_2138_" class="st1" d="M3.06,32.76L3.06,32.76L3.06,32.76l-0.05,0.01c0.02,0.03,0.03,0.06,0.05,0.09
			C3.06,32.83,3.06,32.79,3.06,32.76z"/>
		<polygon id="XMLID_2137_" class="st1" points="3.06,32.76 3.06,32.76 3.06,32.76 		"/>
		<polygon id="XMLID_2115_" class="st1" points="3.01,32.77 3.06,32.76 3.06,32.76 3.01,32.77 		"/>
		<polygon id="XMLID_2110_" class="st1" points="3.06,32.76 3.06,32.76 3.06,32.76 3.06,32.76 		"/>
		<path id="XMLID_2109_" class="st1" d="M4.92,32.36c0.02-0.27,0.03-0.49,0.04-0.65c0.01-0.08,0.01-0.14,0.01-0.19
			c0-0.04,0-0.07,0-0.07c0.01-0.2-0.15-0.37-0.36-0.39c-0.21-0.01-0.39,0.14-0.41,0.34l0,0c0,0-0.05,0.67-0.09,1.49
			c-0.02,0.41-0.05,0.86-0.06,1.29c0,0.08-0.01,0.16-0.01,0.24c0.23,0.31,0.48,0.61,0.75,0.89c0-0.3,0.01-0.69,0.03-1.11
			C4.85,33.59,4.89,32.9,4.92,32.36z"/>
		<path id="XMLID_2108_" class="st1" d="M8,33.64c0-0.2-0.17-0.36-0.38-0.37c-0.21,0-0.38,0.16-0.39,0.36l0,0c0,0,0,0.01,0,0.04
			c0,0.21-0.02,1.18-0.05,2.21c-0.02,0.48-0.04,0.97-0.07,1.4c0.24,0.16,0.49,0.31,0.73,0.46c0.03-0.3,0.05-0.65,0.07-1
			C7.98,35.3,8,33.64,8,33.64z"/>
		<path id="XMLID_2106_" class="st1" d="M10.91,37.63c0.04-0.52,0.1-1.1,0.15-1.55c0.02-0.23,0.04-0.42,0.06-0.56
			c0.01-0.07,0.01-0.12,0.02-0.16c0-0.04,0.01-0.06,0.01-0.06c0.02-0.2-0.13-0.38-0.34-0.4c-0.21-0.02-0.4,0.12-0.42,0.32l0,0
			c0,0-0.06,0.58-0.13,1.27c-0.03,0.35-0.07,0.72-0.1,1.07c-0.03,0.35-0.05,0.67-0.07,0.91c-0.01,0.13-0.01,0.25-0.01,0.37
			c0.25,0.11,0.51,0.2,0.76,0.3c0-0.19,0.01-0.4,0.02-0.64C10.86,38.29,10.88,37.97,10.91,37.63z"/>
		<path id="XMLID_2104_" class="st1" d="M14.81,36.44c0-0.2-0.16-0.37-0.37-0.37c-0.21,0-0.39,0.15-0.39,0.35l0,0c0,0,0,0.06,0,0.15
			c-0.01,0.35-0.03,1.23-0.06,2.14c-0.02,0.46-0.03,0.92-0.05,1.33l0,0.01c0.26,0.06,0.51,0.11,0.76,0.16c0-0.1,0.01-0.21,0.01-0.32
			C14.76,38.44,14.81,36.44,14.81,36.44z"/>
		<path id="XMLID_2102_" class="st1" d="M18.05,39.31c0.05-0.59,0.12-1.19,0.18-1.63c0.03-0.22,0.06-0.41,0.08-0.54
			c0.01-0.06,0.02-0.12,0.02-0.15c0-0.02,0-0.03,0.01-0.04s0-0.01,0-0.01c0.03-0.2-0.11-0.38-0.32-0.41
			c-0.21-0.03-0.4,0.11-0.44,0.3h0c0,0-0.09,0.54-0.17,1.26c-0.04,0.36-0.09,0.76-0.12,1.17c-0.03,0.41-0.05,0.82-0.05,1.19
			c0,0.06,0,0.12,0,0.18c0.27,0.03,0.53,0.05,0.77,0.07c0-0.08,0-0.16,0-0.25C18,40.1,18.02,39.7,18.05,39.31z"/>
		<path id="XMLID_2100_" class="st1" d="M22,37.07c-0.03-0.2-0.22-0.34-0.43-0.31c-0.21,0.03-0.36,0.21-0.33,0.41l0,0
			c0,0,0,0.01,0,0.03c0.02,0.13,0.1,0.73,0.17,1.42c0.04,0.35,0.07,0.72,0.1,1.08c0.02,0.31,0.04,0.6,0.04,0.84
			c0.25-0.03,0.5-0.07,0.76-0.1c-0.01-0.26-0.02-0.56-0.05-0.86C22.18,38.4,22,37.08,22,37.07z"/>
		<path id="XMLID_2098_" class="st1" d="M25.6,37.05c-0.01-0.11-0.01-0.2-0.02-0.26c0-0.06-0.01-0.09-0.01-0.09
			c-0.01-0.2-0.2-0.35-0.41-0.34c-0.21,0.01-0.37,0.19-0.36,0.39l0,0c0,0,0.05,0.81,0.12,1.67c0.03,0.43,0.07,0.87,0.1,1.23
			c0.01,0.11,0.02,0.21,0.03,0.31c0.25-0.05,0.5-0.11,0.75-0.16c-0.05-0.5-0.1-1.25-0.15-1.88C25.63,37.57,25.61,37.27,25.6,37.05z"
			/>
		<path id="XMLID_2096_" class="st1" d="M29.19,35.82c0-0.2-0.18-0.36-0.39-0.36c-0.21,0-0.38,0.17-0.38,0.37l0,0c0,0,0,0.09,0,0.24
			c0.01,0.45,0.02,1.47,0.02,2.35c0,0.26,0,0.5,0,0.71c0.26-0.07,0.52-0.15,0.77-0.22c0-0.16,0-0.32,0-0.49
			C29.21,37.24,29.19,35.83,29.19,35.82z"/>
		<path id="XMLID_2094_" class="st1" d="M31.74,34.02c-0.02-0.2-0.2-0.35-0.41-0.33c-0.21,0.02-0.37,0.19-0.35,0.39l0,0
			c0,0,0,0.01,0,0.03c0.01,0.14,0.07,0.78,0.12,1.55c0.05,0.77,0.1,1.67,0.1,2.33c0,0.09,0,0.17,0,0.25
			c0.27-0.1,0.53-0.21,0.77-0.31c0-0.73-0.06-1.68-0.11-2.47C31.8,34.65,31.74,34.02,31.74,34.02z"/>
		<path id="XMLID_2093_" class="st1" d="M34.34,32.63c-0.01-0.15-0.03-0.27-0.03-0.35c-0.01-0.08-0.01-0.13-0.01-0.13
			c-0.02-0.2-0.21-0.35-0.42-0.33c-0.21,0.02-0.37,0.2-0.35,0.4l0,0c0,0,0.11,1.08,0.23,2.24c0.06,0.58,0.13,1.18,0.18,1.67
			c0.02,0.17,0.04,0.32,0.06,0.46c0.22-0.23,0.45-0.49,0.68-0.78c-0.07-0.62-0.15-1.37-0.22-2.03
			C34.41,33.33,34.37,32.92,34.34,32.63z"/>
		<path id="XMLID_2091_" class="st1" d="M36.13,30.45c-0.02-0.36-0.03-0.66-0.04-0.87c0-0.11-0.01-0.19-0.01-0.25
			c0-0.06,0-0.09,0-0.09c-0.01-0.2-0.18-0.36-0.39-0.35s-0.38,0.17-0.37,0.37l0,0c0,0,0.04,1.33,0.13,2.74
			c0.04,0.71,0.1,1.44,0.16,2.05c0.01,0.12,0.03,0.24,0.04,0.35c0.22-0.37,0.44-0.76,0.65-1.17c-0.01-0.1-0.02-0.2-0.02-0.3
			C36.21,32.09,36.16,31.16,36.13,30.45z"/>
		<polygon id="XMLID_2089_" class="st1" points="38.07,31.99 38.01,32.03 38.07,32 38.07,31.99 		"/>
		<polygon id="XMLID_2087_" class="st1" points="38.07,31.99 38.01,32.03 38.07,31.99 		"/>
		<polygon id="XMLID_2085_" class="st1" points="38.07,32 38.07,32 38.07,31.99 		"/>
		<polygon id="XMLID_2084_" class="st1" points="38.07,31.99 38.07,31.99 38.07,31.99 		"/>
		<path id="XMLID_2082_" class="st1" d="M37.5,26.62c-0.01-0.1-0.01-0.19-0.01-0.24c0-0.06,0-0.09,0-0.09
			c-0.01-0.2-0.19-0.36-0.4-0.35c-0.21,0.01-0.37,0.18-0.37,0.38l0,0c0,0,0.06,1.33,0.18,2.74c0.06,0.7,0.12,1.43,0.2,2.01
			c0.01,0.11,0.03,0.21,0.04,0.31c0.21-0.51,0.4-1.04,0.58-1.59c-0.07-0.8-0.13-1.66-0.18-2.33C37.53,27.12,37.52,26.82,37.5,26.62z
			"/>
		<path id="XMLID_2081_" class="st1" d="M38.63,25.14c-0.03-0.52-0.06-1-0.08-1.36c-0.01-0.18-0.02-0.32-0.03-0.42
			c-0.01-0.1-0.01-0.15-0.01-0.15c-0.01-0.2-0.19-0.35-0.4-0.34c-0.21,0.01-0.37,0.18-0.36,0.38l0,0c0,0,0.07,1.25,0.15,2.53
			c0.04,0.64,0.08,1.29,0.12,1.79c0.02,0.25,0.03,0.47,0.04,0.63c0.01,0.08,0.01,0.15,0.02,0.2c0,0.03,0,0.05,0.01,0.07
			c0,0.02,0,0.04,0.01,0.06c0,0.01,0.01,0.02,0.01,0.04c0.23-0.85,0.43-1.73,0.58-2.63C38.66,25.68,38.64,25.41,38.63,25.14z"/>
	</g>
	<path id="XMLID_2077_" class="st2" d="M22.04,0.41c0,0-8.75-2.02-14,2.85C2.79,8.12-0.83,13.34,0.17,21.04
		c1,7.71,4.12,13.52,13.25,15.53c9.12,2.02,16.5,0.59,20.5-4.39c4-4.98,5.5-10.08,4.75-15.89c-0.75-5.81-3.52-11.26-6.82-13.04
		C28.54,1.48,22.04,0.41,22.04,0.41z"/>
	<path id="XMLID_2070_" class="st3" d="M24.26,19.36c-0.66-1.16-1.85-1.62-3-2.06c-0.08-0.03-0.16-0.06-0.24-0.09l-1.11-0.43
		l-0.17-4.24c0.11,0.01,0.21,0.03,0.32,0.05c0.24,0.05,0.47,0.11,0.75,0.22c0.14,0.05,0.28,0.11,0.41,0.18
		c0.17,0.08,0.18,0.09,0.33,0.18l0.03,0.02c0.46,0.29,1.03,0.19,1.34-0.22c0.16-0.21,0.22-0.5,0.16-0.77
		c-0.05-0.25-0.18-0.46-0.39-0.59c-0.91-0.57-1.95-0.92-3.03-1.02l-0.09-2.31C19.8,8,19.86,7.62,19.72,7.27l-0.27-0.7
		c-0.17-0.43-0.71-0.68-1.17-0.53c-0.45,0.14-0.69,0.52-0.67,1.05l0.14,3.59c-0.79,0.15-1.52,0.45-2.17,0.88
		c-0.59,0.39-1.03,0.93-1.24,1.51c-0.22,0.62-0.22,1.29,0.01,2c0.35,1.09,1.27,1.98,2.71,2.64c0.3,0.14,0.62,0.28,0.98,0.42
		l0.27,6.95c-0.16,0.02-0.31,0.03-0.45,0.01c-0.5-0.04-0.92-0.21-1.39-0.56c-0.41-0.31-0.81-0.75-1.14-1.29
		c-0.32-0.52-0.61-1.18-0.84-1.75c-0.09-0.23-0.28-0.4-0.52-0.5c-0.25-0.1-0.53-0.1-0.76,0.01c-0.48,0.22-0.69,0.77-0.49,1.27
		c0.47,1.15,1.04,2.34,1.96,3.25c1.06,1.04,2.31,1.56,3.62,1.48c0.03,0,0.06,0,0.09-0.01l0.18,3.62c0.01,0.23,0.12,0.44,0.32,0.6
		c0.19,0.15,0.43,0.24,0.67,0.24c0.04,0,0.09,0,0.13-0.01c0.5-0.08,0.82-0.52,0.8-1.08l-0.19-3.9c0.47-0.22,0.96-0.51,1.55-0.91
		c1.23-0.83,2.05-1.73,2.49-2.75C24.84,21.65,24.81,20.33,24.26,19.36z M22.49,20.16c0.02,0.05,0.05,0.1,0.09,0.15
		c0.02,0.03,0.03,0.06,0.05,0.1c0.01,0.03,0.03,0.07,0.05,0.12c0,0.01,0,0.02,0.01,0.03c0.01,0.02,0.01,0.04,0.02,0.06
		c0,0.01,0.01,0.02,0.01,0.03c0.02,0.1,0.04,0.2,0.05,0.3c0,0.01,0,0.02,0,0.04c0,0.02,0,0.05,0.01,0.08h0c0,0.05,0,0.1,0,0.14
		c-0.01,0.11-0.02,0.22-0.04,0.32v0c-0.01,0.03-0.01,0.07-0.02,0.1l-0.01,0.03c-0.01,0.04-0.02,0.08-0.04,0.12
		c-0.03,0.1-0.07,0.21-0.11,0.3c-0.02,0.05-0.04,0.09-0.07,0.15c0,0.01-0.02,0.03-0.03,0.05c-0.01,0.01-0.01,0.03-0.02,0.03
		c-0.13,0.21-0.28,0.42-0.46,0.63c-0.42,0.47-1.04,0.97-1.76,1.38l-0.22-5.45c0.26,0.1,0.52,0.2,0.77,0.29l0.11,0.04
		c0.24,0.09,0.48,0.19,0.71,0.29c0.27,0.12,0.36,0.16,0.6,0.34C22.32,19.95,22.39,20.02,22.49,20.16z M16.1,14.07
		c0-0.03,0-0.07,0.01-0.1c0-0.04,0.01-0.07,0.01-0.11l0-0.02c0,0,0-0.01,0-0.01c0.02-0.06,0.05-0.12,0.07-0.19
		c0-0.01,0-0.01,0.01-0.02c0-0.01,0.01-0.01,0.01-0.02l0.03-0.05c0.04-0.05,0.07-0.1,0.11-0.14c0.01-0.01,0.01-0.01,0.02-0.02
		l0.01-0.01c0.07-0.06,0.13-0.11,0.18-0.15c0.04-0.03,0.09-0.07,0.14-0.1c0.03-0.02,0.05-0.04,0.08-0.06l0,0
		c0.02-0.01,0.04-0.02,0.05-0.03c0.38-0.19,0.68-0.32,1-0.4L17.96,16c-0.2-0.09-0.37-0.17-0.53-0.25c-0.43-0.23-0.81-0.55-1.07-0.91
		c0-0.01-0.01-0.02-0.02-0.03l-0.01-0.02c-0.03-0.05-0.05-0.1-0.08-0.15c-0.02-0.05-0.05-0.1-0.07-0.16c0-0.01-0.01-0.02-0.01-0.03
		c-0.01-0.03-0.02-0.04-0.02-0.06c-0.02-0.07-0.03-0.14-0.04-0.21c0-0.02-0.01-0.05-0.01-0.07c0-0.01,0-0.02-0.01-0.03
		C16.09,14.08,16.1,14.07,16.1,14.07z"/>
</g>
</svg>
