<svg xmlns="http://www.w3.org/2000/svg" viewBox="0 0 50 100"><title>grbkg_logo_pyro</title><g id="Layer_2" data-name="Layer 2"><path d="M9.45,82.57v3l8.42-4.28.78-.41V72.75L14.4,74.86A8.47,8.47,0,0,0,9.45,82.57Z" transform="translate(0 0)" style="fill:#fff;fill-rule:evenodd"/><path d="M37.37,32.26,24,24.29,9.53,15.56v4a7.82,7.82,0,0,0,1.24,4.3,11.22,11.22,0,0,0,3.89,3.51l7.2,4.17,14.32,8.19,1.08-.54A4.08,4.08,0,0,0,39,37.8a3.64,3.64,0,0,0,.63-2,3.59,3.59,0,0,0-.49-2A4.8,4.8,0,0,0,37.37,32.26Z" transform="translate(0 0)" style="fill:#fff;fill-rule:evenodd"/><path d="M37.3,49.91a4.86,4.86,0,0,0-1.47-1.41L31,50.87l-1.78.89L27.1,52.87v6.81l2.13-1.12,6.38-3.3h0a4.11,4.11,0,0,0,1.65-1.44,3.57,3.57,0,0,0,.55-2,3.35,3.35,0,0,0-.53-1.89Z" transform="translate(0 0)" style="fill:#fff;fill-rule:evenodd"/><path d="M0,0V100H50V0ZM44.6,46.14a10.34,10.34,0,0,1,1.69,5.68,10.63,10.63,0,0,1-1.71,5.78,12.15,12.15,0,0,1-4.74,4.19L29.23,67.28,27.1,68.37V85.24L20.78,88.5v0l-2.13,1.1v0l-.76.39L7.32,95.4,1,98.66V82.57c0-6,3.41-11.23,9.19-14.22l1.73-.89L18.65,64V48.41l2.13-1.12L23,46.22l4.8-2.36L10.1,33.71a19.08,19.08,0,0,1-6.63-6.1,14.71,14.71,0,0,1-2.4-8V1.45L7.64,5.38,42.06,26a12.53,12.53,0,0,1,4.45,4.34A10.05,10.05,0,0,1,48,36a10.58,10.58,0,0,1-1.83,5.71,11.88,11.88,0,0,1-2.78,2.84A15.35,15.35,0,0,1,44.6,46.14Z" transform="translate(0 0)" style="fill:#fff;fill-rule:evenodd"/></g></svg>