<?xml version="1.0" encoding="utf-8"?>
<!-- Generator: Adobe Illustrator 23.0.2, SVG Export Plug-In . SVG Version: 6.00 Build 0)  -->
<svg version="1.1" id="Layer_1" xmlns="http://www.w3.org/2000/svg" xmlns:xlink="http://www.w3.org/1999/xlink" x="0px" y="0px"
	 viewBox="0 0 100 100" style="enable-background:new 0 0 100 100;" xml:space="preserve">
<style type="text/css">
	.st0{fill:#FFFFFF;}
	.st1{fill:#B2261B;}
</style>
<g>
	<path class="st0" d="M0,0v100h100V0H0z M86.9,49.57c-0.79,0.21-8.2,2.19-10.29,2.74c3.04,4.07,8.86,11.86,9.35,12.59
		c0.67,0.99,0.06,1.28-0.93,1.69S62,74.93,60.5,75.38c-1.93,0.58-2.79,0.87-4.05-0.88c-0.94-1.31-6.02-10.47-8.51-14.98
		c-4.72,1.24-13.35,3.49-15.84,4.09c-2.43,0.58-3.47-0.87-3.87-1.77c-0.4-0.9-14.72-31.75-15.62-33.87
		c-0.9-2.12,0.09-2.52,0.99-2.59c0.9-0.07,13.51-1.12,15.15-1.2s1.8,0.3,2.52,1.37l18.17,30.38l22.85-5.47
		c-1.27-1.79-7.01-9.94-7.57-10.72c-0.62-0.87,0.02-1.28,1.03-1.45c1.01-0.17,9.76-1.64,10.51-1.75c0.75-0.11,1.34-0.37,2.56,1.09
		c1.22,1.47,8.13,10.12,8.63,10.68C87.95,48.87,87.82,49.32,86.9,49.57z"/>
</g>
<g>
	<path class="st0" d="M77.65,39c-0.42-0.58-0.72-0.48-1.06-0.41c-0.34,0.08-7.95,1.45-8.41,1.51s-0.31,0.33-0.12,0.59l6.69,9.18
		c0,0,8.18-2.03,8.68-2.14c0.5-0.11,0.87-0.28,0.66-0.56C83.86,46.9,78.07,39.58,77.65,39z"/>
</g>
<g>
	<path class="st0" d="M73.35,52.91l-22.28,5.8c0,0,6.84,11.83,7.36,12.59c0.53,0.76,0.85,0.7,1.25,0.53
		c0.41-0.18,21.42-7.27,22.07-7.5s0.44-0.44,0.23-0.76c-0.2-0.32-7.21-9.84-7.56-10.39C74.08,52.61,73.91,52.73,73.35,52.91z"/>
</g>
<g>
	<path class="st1" d="M29.01,26.63c-0.15-0.27-0.11-0.35-0.53-0.33s-12.31,1.08-12.51,1.08c-0.2,0-0.21,0.31,0,0.7
		c0.21,0.39,15.35,31.6,15.42,31.84s0.08,0.31,0.76,0.16c0.68-0.16,13.48-3.22,13.75-3.28s0.45-0.21,0.16-0.72
		S29.01,26.63,29.01,26.63z"/>
</g>
</svg>
