<svg id="Layer_1" data-name="Layer 1" xmlns="http://www.w3.org/2000/svg" viewBox="0 0 770 400"><title>grbkg_pyro</title><path d="M0,0V400H770V0ZM196.78,144a42.5,42.5,0,0,1-7.31,22.75A47.1,47.1,0,0,1,178.39,178a58,58,0,0,1,4.87,6.29,41,41,0,0,1,6.72,22.6A42.28,42.28,0,0,1,183.19,230a48.67,48.67,0,0,1-18.91,16.7L122,268.54l-8.5,4.35v67.23l-25.19,13v.07l-8.5,4.36v-.08l-3,1.56L34.69,380.61l-25.19,13V329.49c0-23.87,13.59-44.78,36.64-56.67L53,269.27l26.82-13.66V193.33l8.5-4.43,8.72-4.29,19.13-9.38-70.4-40.49c-11.09-6.35-20.17-14.55-26.45-24.3A58.48,58.48,0,0,1,9.8,78.37V6.19L36,21.86,173.14,104a49.71,49.71,0,0,1,17.73,17.29A40.23,40.23,0,0,1,196.78,144Zm155.45,38.3c-4.56,20.45-13.26,47-68.08,47H269.36l-9.14,40.24H217.15l16.9-72.61H278l0,0h8.36c14.8,0,21.76-8.7,23.93-18.06,2.18-9.79-2.83-15.22-14.14-15.22H284.8l-7.64,32.48-34.81-34.8,7.21-31h51.12C359.2,130.29,357,162.05,352.23,182.28Zm63.19,87.23H371.26l10.66-45.46-25.67-93.76h45.46l10,55.69,37.63-55.69H499.6l-74.83,97.89Zm199.17-88.1c-4.13,17.41-14.79,32.85-39.81,37.64l27.84,50.46h-50l-18.27-52.2-12.18,52.2H479.07l17.6-75.61,42.87.56h8.27c15.23,0,21.53-5.43,24.36-16.31,2.18-10-2-14.57-15-14.57H546.72l-7,30.06-34.88-34.88,6.63-28.47h52.43C620.68,130.29,618.94,162.49,614.59,181.41ZM757.9,202.3c-7.83,34.37-25,69.39-80.7,69.39-59.61,0-62.43-40.46-54.38-74,8-34.59,25.66-69.61,80.92-69.61C763.56,128.12,765.73,168.58,757.9,202.3Z" style="fill:#fff"/><path d="M43.19,329.49v12l33.54-17.07,3.1-1.62V290.33l-16.92,8.42C50.13,305.33,43.19,316.33,43.19,329.49Z" style="fill:#fff"/><path d="M154.15,199.31a19.4,19.4,0,0,0-5.83-5.61l-19.21,9.46L122,206.7l-8.5,4.43v27.11l8.5-4.42,25.41-13.16h.07a16.15,16.15,0,0,0,6.58-5.76,14.19,14.19,0,0,0,2.22-8,13.39,13.39,0,0,0-2.15-7.53Z" style="fill:#fff"/><path d="M702.43,162.49c-25.67-1.31-32.19,15.66-37.2,35.46-4.13,15.87-10.87,38.06,12.62,39.37,26.1,1.74,32.63-15.66,37.63-35.24C719.83,186.42,726.58,163.79,702.43,162.49Z" style="fill:#fff"/><path d="M154.45,129,101.33,97.21,43.48,62.42v16a31.33,31.33,0,0,0,5,17.14c3.48,5.39,8.8,10.12,15.52,14L92.61,126.1l57.11,32.65,4.29-2.14a16.45,16.45,0,0,0,6.72-5.54,14.53,14.53,0,0,0,2.51-7.91,14.34,14.34,0,0,0-1.92-7.75A19.3,19.3,0,0,0,154.45,129Z" style="fill:#fff"/></svg>