<svg xmlns="http://www.w3.org/2000/svg" viewBox="0 0 325 85"><title>grbkg_logo_pyro_text</title><g id="Layer_1" data-name="Layer 1"><path d="M283.07,22.17c-13.95-.71-17.5,8.51-20.22,19.27-2.25,8.62-5.91,20.68,6.86,21.39,14.19.94,17.74-8.51,20.46-19.15C292.54,35.17,296.2,22.88,283.07,22.17Z" style="fill:#fff"/><path d="M0,0V85H325V0ZM83.44,32.93C81,44,76.23,58.45,46.43,58.45h-8l-5,21.87H10l9.19-39.45H43.08l0,0h4.55c8,0,11.82-4.73,13-9.81,1.18-5.32-1.54-8.28-7.69-8.28H46.78L42.62,40.41,23.7,21.5,27.62,4.68H55.41C87.23,4.68,86,21.94,83.44,32.93Zm43.05,47.39h-24l5.8-24.7-14-50.94H119l5.44,30.26L144.94,4.68h27.32L131.58,57.86ZM234.23,32.45c-2.25,9.46-8,17.85-21.64,20.45l15.14,27.42h-27.2L190.59,52,184,80.32H160.55l9.57-41.08,23.31.31h4.49c8.28,0,11.71-3,13.25-8.87,1.18-5.43-1.07-7.92-8.16-7.92h-5.68l-3.8,16.34-19-19,3.6-15.47h28.5C237.54,4.68,236.6,22.17,234.23,32.45Zm79,11.35c-4.26,18.67-13.6,37.7-43.87,37.7-32.41,0-34-22-29.57-40.18,4.38-18.79,14-37.82,44-37.82C316.31,3.5,317.49,25.48,313.23,43.8Z" style="fill:#fff"/></g></svg>