<svg id="Layer_1" data-name="Layer 1" xmlns="http://www.w3.org/2000/svg" viewBox="0 0 205.97 141"><title>laravel</title><path d="M252.56,70.39C251.2,68.86,232.34,45.26,229,41.25s-4.94-3.28-7-3-25.9,4.3-28.67,4.77-4.51,1.58-2.81,4c1.52,2.12,17.2,24.36,20.65,29.26L148.85,91.19,99.27,8.29c-2-2.93-2.39-3.95-6.88-3.75S53.49,7.61,51,7.81s-5.14,1.3-2.69,7.08,41.52,90,42.61,92.44,3.92,6.43,10.55,4.83c6.8-1.63,30.35-7.78,43.23-11.15,6.8,12.32,20.67,37.3,23.23,40.88,3.43,4.78,5.79,4,11,2.4,4.11-1.25,64.24-22.87,67-24s4.38-1.92,2.54-4.62c-1.34-2-17.21-23.25-25.51-34.36,5.69-1.52,25.92-6.9,28.08-7.49C253.58,73.16,253.92,71.92,252.56,70.39ZM139.21,93.57c-.75.16-35.67,8.51-37.53,8.94s-1.87.21-2.08-.43S58.08,16.27,57.51,15.2s-.55-1.91,0-1.91,33-2.9,34.12-3,1,.19,1.45.91c0,0,45.76,79,46.55,80.36S140,93.41,139.21,93.57ZM237.67,112c.56.88,1.12,1.44-.64,2.07s-59.1,20-60.22,20.47-2,.64-3.42-1.43S153.3,98.77,153.3,98.77L214.09,83c1.52-.48,2-.8,2.95.71S237.11,111.14,237.67,112Zm3.9-43.16c-1.36.3-23.69,5.83-23.69,5.83l-18.25-25c-.52-.72-.94-1.44.34-1.62s22-3.91,23-4.13,1.74-.47,2.89,1.11,16.94,21.56,17.54,22.32S242.93,68.56,241.57,68.86Z" transform="translate(-47.38 -4.52)" style="fill:#e74430"/></svg>