<svg id="Layer_1" data-name="Layer 1" xmlns="http://www.w3.org/2000/svg" viewBox="0 0 226.88 59.37"><title>logo_laravel_and_sign</title><path d="M86.4,27.74c-.58-.65-8.52-10.59-9.92-12.27s-2.08-1.38-2.94-1.26-10.9,1.81-12.07,2-1.9.66-1.18,1.67L69,30.21,42.73,36.5,21.85,1.59C21,.36,20.84-.08,19,0S2.57,1.3,1.54,1.39s-2.16.54-1.13,3S17.89,42.26,18.35,43.29a3.53,3.53,0,0,0,4.44,2c2.86-.69,12.78-3.28,18.2-4.7,2.87,5.19,8.71,15.71,9.79,17.22,1.44,2,2.43,1.68,4.65,1,1.73-.52,27.05-9.62,28.19-10.09s1.84-.81,1.07-1.95C84.12,46,77.44,37,73.94,32.34l11.83-3.15C86.83,28.9,87,28.38,86.4,27.74ZM38.67,37.5c-.32.06-15,3.58-15.81,3.76s-.78.09-.87-.18S4.5,5,4.26,4.5s-.23-.8,0-.8S18.15,2.47,18.63,2.45s.44.08.61.38L38.85,36.67C39.18,37.25,39,37.43,38.67,37.5Zm41.46,7.77c.23.37.47.6-.27.87S55,54.56,54.5,54.76s-.84.27-1.44-.6S44.6,39.69,44.6,39.69L70.2,33c.64-.21.84-.34,1.24.3S79.89,44.9,80.13,45.27Zm1.64-18.18c-.58.13-10,2.46-10,2.46L64.11,19c-.22-.3-.4-.61.14-.68s9.27-1.65,9.67-1.74.74-.2,1.22.47,7.13,9.07,7.38,9.4S82.34,27,81.77,27.09Z" style="fill:#e74430"/><path d="M100.26,43.86a1.39,1.39,0,0,1-.41-1V17.65a.55.55,0,0,1,.55-.55h2.11a.53.53,0,0,1,.54.55V41.26h9.89a.53.53,0,0,1,.55.54v1.92a.51.51,0,0,1-.16.39.53.53,0,0,1-.39.16H101.26A1.37,1.37,0,0,1,100.26,43.86Z" style="fill:#e74430"/><path d="M118.26,43.07a6.13,6.13,0,0,1-.18-8.73A8.4,8.4,0,0,1,123,32.23l5.08-.71a2.44,2.44,0,0,0,1.64-.76,2.62,2.62,0,0,0,.51-1.74v-.31a3.67,3.67,0,0,0-1.47-3,5.69,5.69,0,0,0-3.65-1.15,6.28,6.28,0,0,0-3,.68,5.18,5.18,0,0,0-2,1.9.9.9,0,0,1-.78.5.87.87,0,0,1-.51-.19l-1.06-.7a.91.91,0,0,1-.35-.67.93.93,0,0,1,.12-.39,8.07,8.07,0,0,1,3.1-2.95,9.37,9.37,0,0,1,4.56-1.08,9.65,9.65,0,0,1,4.18.88A6.62,6.62,0,0,1,132.15,25a6.8,6.8,0,0,1,1,3.71v15a.51.51,0,0,1-.16.39.53.53,0,0,1-.39.16H131a.57.57,0,0,1-.39-.16.55.55,0,0,1-.16-.39V41a8.58,8.58,0,0,1-3.1,2.76,8.8,8.8,0,0,1-4.13,1A7.11,7.11,0,0,1,118.26,43.07ZM127,41a7.39,7.39,0,0,0,2.45-2.56,6.17,6.17,0,0,0,.88-3v-1.6l-6,.82-1.1.16q-3.9.59-3.9,3.67a3.19,3.19,0,0,0,1.17,2.58,4.61,4.61,0,0,0,3,1A6.21,6.21,0,0,0,127,41Z" style="fill:#e74430"/><path d="M137.53,44.11a.51.51,0,0,1-.16-.39v-1.8a.5.5,0,0,1,.16-.39.53.53,0,0,1,.39-.16h3.24V24.92h-3.24a.55.55,0,0,1-.55-.55V22.69a.5.5,0,0,1,.16-.39.53.53,0,0,1,.39-.16h4.89a1.4,1.4,0,0,1,1.4,1.41V25.5l2.27-1.75a11.26,11.26,0,0,1,2.29-1.47,4.63,4.63,0,0,1,1.85-.37h1.18a.54.54,0,0,1,.41.15.6.6,0,0,1,.13.4v1.91a.53.53,0,0,1-.54.55h-.86a4.1,4.1,0,0,0-1.84.41,14.54,14.54,0,0,0-2.58,1.78l-2.31,1.83V41.37h4.54a.57.57,0,0,1,.39.16.53.53,0,0,1,.15.39v1.8a.54.54,0,0,1-.15.39.57.57,0,0,1-.39.16H137.92A.53.53,0,0,1,137.53,44.11Z" style="fill:#e74430"/><path d="M156.52,43.07a6.14,6.14,0,0,1-.17-8.73,8.4,8.4,0,0,1,4.87-2.11l5.08-.71a2.46,2.46,0,0,0,1.64-.76,2.62,2.62,0,0,0,.51-1.74v-.31a3.67,3.67,0,0,0-1.47-3,5.73,5.73,0,0,0-3.65-1.15,6.26,6.26,0,0,0-3,.68,5.27,5.27,0,0,0-2,1.9.9.9,0,0,1-.78.5.87.87,0,0,1-.51-.19l-1.05-.7a.88.88,0,0,1-.35-.67.89.89,0,0,1,.11-.39,8.1,8.1,0,0,1,3.11-2.95,9.33,9.33,0,0,1,4.55-1.08,9.69,9.69,0,0,1,4.19.88A6.62,6.62,0,0,1,170.42,25a6.89,6.89,0,0,1,1,3.71v15a.55.55,0,0,1-.16.39.53.53,0,0,1-.39.16h-1.64a.53.53,0,0,1-.39-.16.51.51,0,0,1-.16-.39V41a8.61,8.61,0,0,1-3.11,2.76,8.76,8.76,0,0,1-4.12,1A7.12,7.12,0,0,1,156.52,43.07Zm8.72-2a7.36,7.36,0,0,0,2.44-2.56,6.07,6.07,0,0,0,.88-3v-1.6l-6,.82-1.09.16q-3.91.59-3.91,3.67a3.19,3.19,0,0,0,1.17,2.58,4.63,4.63,0,0,0,3,1A6.22,6.22,0,0,0,165.24,41Z" style="fill:#e74430"/><path d="M182.54,44.13a.72.72,0,0,1-.3-.37L174.89,23a.82.82,0,0,1,0-.27.54.54,0,0,1,.17-.41.61.61,0,0,1,.45-.18h1.8a.82.82,0,0,1,.45.14.67.67,0,0,1,.29.37l6.18,17.82,6.06-17.82a.67.67,0,0,1,.29-.37.82.82,0,0,1,.45-.14h1.72a.61.61,0,0,1,.53.26.66.66,0,0,1,.05.6L186,43.76a.72.72,0,0,1-.3.37.82.82,0,0,1-.45.14H183A.82.82,0,0,1,182.54,44.13Z" style="fill:#e74430"/><path d="M200.22,43.13A8.21,8.21,0,0,1,197.14,40,8.39,8.39,0,0,1,196,35.74V30.16a8.39,8.39,0,0,1,1.14-4.28,8.21,8.21,0,0,1,3.08-3.11,8.53,8.53,0,0,1,8.52,0,8.17,8.17,0,0,1,3.09,3.11A8.39,8.39,0,0,1,213,30.16v2.65a1.37,1.37,0,0,1-.41,1,1.39,1.39,0,0,1-1,.41H199.05v1.72a5.42,5.42,0,0,0,.72,2.74,5.41,5.41,0,0,0,4.71,2.69h5.67a.53.53,0,0,1,.39.16.5.5,0,0,1,.16.39v1.8a.51.51,0,0,1-.16.39.53.53,0,0,1-.39.16h-5.67A8.34,8.34,0,0,1,200.22,43.13Zm9.7-11.72V30a5.42,5.42,0,0,0-2.7-4.71A5.42,5.42,0,0,0,199.05,30v1.45Z" style="fill:#e74430"/><path d="M219.55,43.86a1.39,1.39,0,0,1-.41-1V17.49h-3.63a.52.52,0,0,1-.55-.55V15.15a.53.53,0,0,1,.15-.39.54.54,0,0,1,.4-.16h5.27A1.4,1.4,0,0,1,222.19,16V41.37h4.14a.53.53,0,0,1,.39.16.5.5,0,0,1,.16.39v1.8a.51.51,0,0,1-.16.39.53.53,0,0,1-.39.16h-5.78A1.37,1.37,0,0,1,219.55,43.86Z" style="fill:#e74430"/></svg>