<?xml version="1.0" encoding="utf-8"?>
<!-- Generator: Adobe Illustrator 23.0.2, SVG Export Plug-In . SVG Version: 6.00 Build 0)  -->
<svg version="1.1" xmlns="http://www.w3.org/2000/svg" xmlns:xlink="http://www.w3.org/1999/xlink" x="0px" y="0px"
	 viewBox="0 0 120.24 82.32" style="enable-background:new 0 0 120.24 82.32;" xml:space="preserve">
<style type="text/css">
	.st0{display:none;}
	.st1{display:inline;}
	.st2{fill:#FFFFFF;}
	.st3{fill:#09376E;}
	.st4{fill:#448CC7;}
	.st5{fill:none;stroke:#C3E1F7;stroke-width:2;stroke-miterlimit:10;}
	.st6{fill:none;stroke:#448CC7;stroke-width:2;stroke-linecap:round;stroke-linejoin:round;stroke-miterlimit:10;}
	.st7{opacity:0.28;}
	.st8{clip-path:url(#SVGID_2_);}
	.st9{fill:none;stroke:#448CC7;stroke-miterlimit:10;}
	.st10{fill:none;stroke:#09376E;stroke-width:2.4;stroke-miterlimit:10;}
	.st11{fill:none;stroke:#09376E;stroke-width:3;stroke-miterlimit:10;}
	.st12{fill:#FB503B;}
</style>
<g id="Layer_1" class="st0">
	<g class="st1">
		<g>
			<path class="st2" d="M-77.36-22.33c0,2.61-12.39,4.73-27.68,4.73c-15.29,0-27.68-2.12-27.68-4.73c0-2.61,12.39-4.73,27.68-4.73
				C-89.75-27.06-77.36-24.95-77.36-22.33z"/>
			<rect x="-114.83" y="-55.37" class="st3" width="19.57" height="32.89"/>
			<g>
				<path class="st4" d="M-93.59-22.64c0,0.5-0.41,0.91-0.91,0.91h-21.09c-0.5,0-0.91-0.41-0.91-0.91l0,0c0-0.5,0.41-0.91,0.91-0.91
					h21.09C-94-23.55-93.59-23.15-93.59-22.64L-93.59-22.64z"/>
				<path class="st4" d="M-93.59-28.79c0,0.5-0.41,0.91-0.91,0.91h-21.09c-0.5,0-0.91-0.41-0.91-0.91l0,0c0-0.5,0.41-0.91,0.91-0.91
					h21.09C-94-29.7-93.59-29.29-93.59-28.79L-93.59-28.79z"/>
				<path class="st4" d="M-93.59-34.94c0,0.5-0.41,0.91-0.91,0.91h-21.09c-0.5,0-0.91-0.41-0.91-0.91l0,0c0-0.5,0.41-0.91,0.91-0.91
					h21.09C-94-35.84-93.59-35.44-93.59-34.94L-93.59-34.94z"/>
				<path class="st4" d="M-93.59-41.08c0,0.5-0.41,0.91-0.91,0.91h-21.09c-0.5,0-0.91-0.41-0.91-0.91l0,0c0-0.5,0.41-0.91,0.91-0.91
					h21.09C-94-41.99-93.59-41.58-93.59-41.08L-93.59-41.08z"/>
				<path class="st4" d="M-93.59-47.23c0,0.5-0.41,0.91-0.91,0.91h-21.09c-0.5,0-0.91-0.41-0.91-0.91l0,0c0-0.5,0.41-0.91,0.91-0.91
					h21.09C-94-48.13-93.59-47.73-93.59-47.23L-93.59-47.23z"/>
			</g>
		</g>
		<path class="st2" d="M-60.8-57.22l-7.88-18.43v-3.61c0-0.32-0.03-0.64-0.09-0.94c-1.14-15.72-14.24-28.12-30.24-28.12v23.85h-1.21
			c-2.88,0-5.21,2.33-5.21,5.21v1.3h-23.93c0.01,14.55,10.26,26.69,23.93,29.63v7.75c0,2.88,2.33,5.21,5.21,5.21h26.33
			c2.88,0,5.21-2.33,5.21-5.21v-14.95h6.77C-60.91-55.54-60.41-56.3-60.8-57.22z"/>
		<path class="st4" d="M-99.03-52.9v-25.11h25.1c-0.01-13.85-11.24-25.08-25.09-25.08c-13.86,0-25.09,11.23-25.09,25.09
			C-124.12-64.14-112.89-52.9-99.03-52.9z"/>
		<path class="st2" d="M-102.82-111.93C-102.83-111.93-102.83-111.93-102.82-111.93c-16.75,0-30.32,13.57-30.32,30.32
			c0,0.01,0,0.01,0,0.02h30.32V-111.93z"/>
		
			<ellipse transform="matrix(0.2281 -0.9736 0.9736 0.2281 -0.5003 -156.6166)" class="st3" cx="-99.03" cy="-77.99" rx="16.6" ry="16.6"/>
		<path class="st5" d="M-99.04-75.7c0,0,0,27.89,0,29.78c0,1.9-0.28,3.64,2.6,3.64c5.2,0,19.83,0,19.83,0"/>
		
			<ellipse transform="matrix(0.1606 -0.987 0.987 0.1606 -6.1414 -163.2073)" class="st2" cx="-99.03" cy="-77.99" rx="8.79" ry="8.79"/>
		<path class="st4" d="M-95.32-77.99c0,2.05-1.66,3.71-3.71,3.71c-2.05,0-3.71-1.66-3.71-3.71c0-2.05,1.66-3.71,3.71-3.71
			C-96.98-81.7-95.32-80.04-95.32-77.99z"/>
		<path class="st4" d="M-66.67-75.47h-8.35c-2.45,0-4.44,2.2-4.44,4.91c0,2.71,1.99,4.91,4.44,4.91h12.15L-66.67-75.47z"/>
		<path class="st4" d="M-77.55-49.32c-0.87,0-1.57,0.7-1.57,1.57v13.79h5.22c3.46,0,6.27-2.81,6.27-6.27v-9.09H-77.55z"/>
	</g>
</g>
<g id="Layer_2" class="st0">
	<g class="st1">
		<g>
			<g>
				<g>
					<polyline class="st6" points="-103.36,-97.72 -103.36,-121.38 -96.05,-125.93 -96.05,-133.88 					"/>
					<polyline class="st6" points="-110.17,-97.72 -110.17,-122.16 -117.49,-126.71 -117.49,-133.88 					"/>
				</g>
				<g>
					<g>
						<polyline class="st6" points="-96.77,-96.84 -96.77,-115.3 -86.37,-121.77 -86.37,-133.88 						"/>
					</g>
					<g>
						<polyline class="st6" points="-116.76,-96.84 -116.76,-115.3 -127.16,-121.77 -127.16,-133.88 						"/>
					</g>
				</g>
				<g>
					<g>
						<g>
							<polyline class="st6" points="-88.84,-88.87 -88.84,-110.07 -75.69,-119.24 -75.69,-133.88 							"/>
						</g>
					</g>
					<g>
						<g>
							<polyline class="st6" points="-124.69,-88.87 -124.69,-110.07 -137.84,-119.24 -137.84,-133.88 							"/>
						</g>
					</g>
				</g>
				<g>
					<path class="st3" d="M-137.84-137.89c1.94,0,3.51,1.57,3.51,3.51c0,1.94-1.57,3.51-3.51,3.51c-1.94,0-3.51-1.57-3.51-3.51
						C-141.35-136.32-139.78-137.89-137.84-137.89z"/>
					<path class="st3" d="M-75.69-137.89c1.94,0,3.51,1.57,3.51,3.51c0,1.94-1.57,3.51-3.51,3.51c-1.94,0-3.51-1.57-3.51-3.51
						C-79.2-136.32-77.63-137.89-75.69-137.89z"/>
				</g>
				<g>
					<path class="st3" d="M-86.55-137.89c1.94,0,3.51,1.57,3.51,3.51c0,1.94-1.57,3.51-3.51,3.51c-1.94,0-3.51-1.57-3.51-3.51
						C-90.06-136.32-88.49-137.89-86.55-137.89z"/>
					<path class="st3" d="M-96.23-137.89c1.94,0,3.51,1.57,3.51,3.51c0,1.94-1.57,3.51-3.51,3.51c-1.94,0-3.51-1.57-3.51-3.51
						C-99.73-136.32-98.16-137.89-96.23-137.89z"/>
					<path class="st3" d="M-117.31-137.89c1.94,0,3.51,1.57,3.51,3.51c0,1.94-1.57,3.51-3.51,3.51c-1.94,0-3.51-1.57-3.51-3.51
						C-120.81-136.32-119.24-137.89-117.31-137.89z"/>
					<path class="st3" d="M-126.98-137.89c1.94,0,3.51,1.57,3.51,3.51c0,1.94-1.57,3.51-3.51,3.51c-1.94,0-3.51-1.57-3.51-3.51
						C-130.49-136.32-128.92-137.89-126.98-137.89z"/>
				</g>
			</g>
			<g>
				<g>
					<polyline class="st6" points="-110.17,-55.41 -110.17,-32.29 -117.49,-27.74 -117.49,-19.8 					"/>
					<polyline class="st6" points="-103.36,-55.41 -103.36,-31.52 -96.05,-26.97 -96.05,-19.8 					"/>
				</g>
				<g>
					<g>
						<polyline class="st6" points="-116.76,-57.47 -116.76,-38.38 -127.16,-31.91 -127.16,-19.8 						"/>
					</g>
					<g>
						<polyline class="st6" points="-96.77,-57.47 -96.77,-38.38 -86.37,-31.91 -86.37,-19.8 						"/>
					</g>
				</g>
				<g>
					<g>
						<g>
							<polyline class="st6" points="-124.69,-64.81 -124.69,-43.61 -137.84,-34.44 -137.84,-19.8 							"/>
						</g>
					</g>
					<g>
						<g>
							<polyline class="st6" points="-88.84,-64.81 -88.84,-43.61 -75.69,-34.44 -75.69,-19.8 							"/>
						</g>
					</g>
				</g>
				<g>
					<path class="st3" d="M-75.69-15.79c-1.94,0-3.51-1.57-3.51-3.51c0-1.94,1.57-3.51,3.51-3.51c1.94,0,3.51,1.57,3.51,3.51
						C-72.19-17.36-73.75-15.79-75.69-15.79z"/>
					<path class="st3" d="M-137.84-15.79c-1.94,0-3.51-1.57-3.51-3.51c0-1.94,1.57-3.51,3.51-3.51c1.94,0,3.51,1.57,3.51,3.51
						C-134.33-17.36-135.9-15.79-137.84-15.79z"/>
				</g>
				<g>
					<path class="st3" d="M-126.98-15.79c-1.94,0-3.51-1.57-3.51-3.51c0-1.94,1.57-3.51,3.51-3.51c1.94,0,3.51,1.57,3.51,3.51
						C-123.47-17.36-125.04-15.79-126.98-15.79z"/>
					<path class="st3" d="M-117.31-15.79c-1.94,0-3.51-1.57-3.51-3.51c0-1.94,1.57-3.51,3.51-3.51c1.94,0,3.51,1.57,3.51,3.51
						C-113.8-17.36-115.37-15.79-117.31-15.79z"/>
					<path class="st3" d="M-96.23-15.79c-1.94,0-3.51-1.57-3.51-3.51c0-1.94,1.57-3.51,3.51-3.51c1.94,0,3.51,1.57,3.51,3.51
						C-92.72-17.36-94.29-15.79-96.23-15.79z"/>
					<path class="st3" d="M-86.55-15.79c-1.94,0-3.51-1.57-3.51-3.51c0-1.94,1.57-3.51,3.51-3.51c1.94,0,3.51,1.57,3.51,3.51
						C-83.05-17.36-84.61-15.79-86.55-15.79z"/>
				</g>
			</g>
		</g>
		<g>
			<path class="st2" d="M-57.13-76.84c0,0-22.22,29.38-49.64,29.38s-49.64-29.38-49.64-29.38s22.22-29.38,49.64-29.38
				S-57.13-76.84-57.13-76.84z"/>
			
				<ellipse transform="matrix(0.2316 -0.9728 0.9728 0.2316 -7.2882 -162.9061)" class="st4" cx="-106.77" cy="-76.84" rx="23.28" ry="23.28"/>
			
				<ellipse transform="matrix(0.7071 -0.7071 0.7071 0.7071 23.0628 -98.0004)" class="st3" cx="-106.77" cy="-76.84" rx="19.83" ry="19.83"/>
			<path class="st4" d="M-98.92-76.84c0,4.34-3.51,7.85-7.85,7.85c-4.34,0-7.85-3.51-7.85-7.85c0-4.34,3.51-7.85,7.85-7.85
				C-102.43-84.69-98.92-81.18-98.92-76.84z"/>
			<g class="st7">
				<defs>
					
						<ellipse id="SVGID_1_" transform="matrix(0.7071 -0.7071 0.7071 0.7071 23.0628 -98.0004)" class="st7" cx="-106.77" cy="-76.84" rx="19.83" ry="19.83"/>
				</defs>
				<clipPath id="SVGID_2_">
					<use xlink:href="#SVGID_1_"  style="overflow:visible;"/>
				</clipPath>
				<g class="st8">
					<g>
						<g>
							<polyline class="st9" points="-113.45,-99.29 -113.45,-91.13 -110.28,-89.46 -110.28,-82.66 							"/>
							<polyline class="st9" points="-100.08,-99.29 -100.08,-91.13 -103.25,-89.46 -103.25,-82.66 							"/>
						</g>
						<g>
							<polyline class="st9" points="-100.08,-54.39 -100.08,-62.55 -103.25,-64.22 -103.25,-71.02 							"/>
							<polyline class="st9" points="-113.45,-54.39 -113.45,-62.55 -110.28,-64.22 -110.28,-71.02 							"/>
						</g>
					</g>
					<g>
						<g>
							<polyline class="st9" points="-129.22,-70.15 -121.05,-70.15 -119.39,-73.33 -112.59,-73.33 							"/>
							<polyline class="st9" points="-129.22,-83.53 -121.05,-83.53 -119.39,-80.35 -112.59,-80.35 							"/>
						</g>
						<g>
							<polyline class="st9" points="-84.31,-83.53 -92.48,-83.53 -94.14,-80.35 -100.94,-80.35 							"/>
							<polyline class="st9" points="-84.31,-70.15 -92.48,-70.15 -94.14,-73.33 -100.94,-73.33 							"/>
						</g>
					</g>
				</g>
			</g>
			<path class="st2" d="M-108.76-83.92c0,1.99-1.62,3.61-3.61,3.61s-3.61-1.62-3.61-3.61c0-1.99,1.62-3.61,3.61-3.61
				S-108.76-85.91-108.76-83.92z"/>
		</g>
	</g>
</g>
<g id="Layer_3" class="st0">
	<g class="st1">
		<path class="st3" d="M-116.32-90.67c0,3.1-1.3,5.61-2.89,5.61c-1.6,0-2.89-2.51-2.89-5.61s1.3-5.61,2.89-5.61
			C-117.62-96.29-116.32-93.77-116.32-90.67z"/>
		<ellipse class="st3" cx="-73.29" cy="-90.67" rx="2.89" ry="5.61"/>
	</g>
	<g class="st1">
		<path class="st4" d="M-111.26-84.48c0,1.2-0.97,2.17-2.17,2.17h-4.35c-1.2,0-2.17-0.97-2.17-2.17v-12.68
			c0-1.2,0.97-2.17,2.17-2.17h4.35c1.2,0,2.17,0.97,2.17,2.17V-84.48z"/>
		<path class="st4" d="M-72.55-84.48c0,1.2-0.97,2.17-2.17,2.17h-4.35c-1.2,0-2.17-0.97-2.17-2.17v-12.68c0-1.2,0.97-2.17,2.17-2.17
			h4.35c1.2,0,2.17,0.97,2.17,2.17V-84.48z"/>
	</g>
	<g class="st1">
		<path class="st10" d="M-84.75-25.58c0,6.35-5.15,11.5-11.5,11.5l0,0c-6.35,0-11.5-5.15-11.5-11.5v-10.65
			c0-6.35,5.15-14.34,11.5-14.34l0,0c6.35,0,11.5,7.99,11.5,14.34V-25.58z"/>
		<g>
			<g>
				<rect x="-93.84" y="-18.57" class="st4" width="2.64" height="7.08"/>
			</g>
			<g>
				<rect x="-101.3" y="-18.57" class="st4" width="2.64" height="7.08"/>
			</g>
		</g>
		<path class="st3" d="M-92.71-10.47c0,0.84-0.68,1.52-1.52,1.52h-4.05c-0.84,0-1.52-0.68-1.52-1.52v-9.12
			c0-0.84,0.68-1.52,1.52-1.52h4.05c0.84,0,1.52,0.68,1.52,1.52V-10.47z"/>
		<g>
			<path class="st4" d="M-96.98-31.19c0,2.09-1.7,3.79-3.79,3.79h-6.6c-2.09,0-3.79-1.7-3.79-3.79V-39c0-2.09,1.7-3.79,3.79-3.79
				h6.6c2.09,0,3.79,1.7,3.79,3.79V-31.19z"/>
			<path class="st4" d="M-81.35-31.19c0,2.09-1.7,3.79-3.79,3.79h-6.6c-2.09,0-3.79-1.7-3.79-3.79V-39c0-2.09,1.7-3.79,3.79-3.79
				h6.6c2.09,0,3.79,1.7,3.79,3.79V-31.19z"/>
		</g>
		<g>
			<g>
				<g>
					<path class="st11" d="M-113.99-56.69c0,0-17.2,1.88-11.05,26.85"/>
					<g>
						<path class="st4" d="M-123.33-19.31c-0.51,0.08-0.98-0.26-1.07-0.76l-0.94-6.87c-0.08-0.51,0.26-0.98,0.76-1.07l0,0
							c0.51-0.08,0.98,0.26,1.07,0.76l0.94,6.87C-122.48-19.88-122.82-19.4-123.33-19.31L-123.33-19.31z"/>
						<path class="st4" d="M-120.51-17.05c-0.35,0.38-0.94,0.4-1.31,0.05l-2.18-2.03c-0.38-0.35-0.4-0.94-0.05-1.31l0,0
							c0.35-0.38,0.94-0.4,1.31-0.05l2.18,2.03C-120.18-18.01-120.16-17.43-120.51-17.05L-120.51-17.05z"/>
						<path class="st3" d="M-122.4-19.83c-0.1,0.59-0.65,0.98-1.24,0.89c-0.59-0.1-0.98-0.65-0.89-1.24
							c0.1-0.59,0.65-0.98,1.24-0.89C-122.7-20.97-122.31-20.41-122.4-19.83z"/>
					</g>
					<g>
						<path class="st4" d="M-118.73-21.26c-0.41,0.31-0.99,0.24-1.3-0.16l-4.1-5.6c-0.31-0.41-0.24-0.99,0.16-1.3l0,0
							c0.41-0.31,0.99-0.24,1.3,0.16l4.1,5.6C-118.25-22.16-118.32-21.58-118.73-21.26L-118.73-21.26z"/>
						<path class="st4" d="M-115.3-20.59c-0.17,0.48-0.7,0.74-1.19,0.56l-2.8-1.01c-0.48-0.17-0.74-0.7-0.56-1.19l0,0
							c0.17-0.48,0.7-0.74,1.19-0.56l2.8,1.01C-115.38-21.6-115.13-21.07-115.3-20.59L-115.3-20.59z"/>
						<path class="st3" d="M-118.21-21.87c-0.03,0.59-0.54,1.05-1.13,1.02c-0.59-0.03-1.05-0.54-1.02-1.13
							c0.03-0.59,0.54-1.05,1.13-1.02C-118.63-22.97-118.17-22.47-118.21-21.87z"/>
					</g>
					<g>
						<path class="st4" d="M-118.14-29.77c0.02,0.56-0.42,1.04-0.98,1.06l-4.49,0.16c-0.56,0.02-1.04-0.42-1.06-0.98l0,0
							c-0.02-0.56,0.42-1.04,0.98-1.06l4.49-0.16C-118.63-30.77-118.16-30.33-118.14-29.77L-118.14-29.77z"/>
						<path class="st4" d="M-115.32-28.31c-0.2,0.53-0.79,0.79-1.32,0.58l-2.4-0.98c-0.53-0.2-0.79-0.79-0.58-1.32l0,0
							c0.2-0.53,0.79-0.79,1.32-0.58l2.4,0.98C-115.38-29.42-115.12-28.83-115.32-28.31L-115.32-28.31z"/>
						<path class="st3" d="M-117.95-29.87c0.03,0.59-0.42,1.1-1.01,1.13c-0.59,0.03-1.1-0.42-1.13-1.01
							c-0.03-0.59,0.42-1.1,1.01-1.13C-118.49-30.91-117.98-30.46-117.95-29.87z"/>
					</g>
					<path class="st2" d="M-120.33-27.21c0.3,0.88-0.17,1.84-1.05,2.14l-3.1,1.06c-0.88,0.3-1.84-0.17-2.14-1.05l-1.51-4.44
						c-0.3-0.88,0.17-1.84,1.05-2.14l3.1-1.06c0.88-0.3,1.84,0.17,2.14,1.05L-120.33-27.21z"/>
				</g>
				<path class="st4" d="M-110.03-52.51c0,0.91-0.74,1.64-1.64,1.64h-2.48c-0.91,0-1.64-0.74-1.64-1.64v-7.39
					c0-0.91,0.74-1.64,1.64-1.64h2.48c0.91,0,1.64,0.74,1.64,1.64V-52.51z"/>
			</g>
			<g>
				<g>
					<path class="st11" d="M-78.51-56.69c0,0,17.2,1.88,11.05,26.85"/>
					<g>
						<path class="st4" d="M-69.18-19.31c0.51,0.08,0.98-0.26,1.07-0.76l0.94-6.87c0.08-0.51-0.26-0.98-0.76-1.07l0,0
							c-0.51-0.08-0.98,0.26-1.07,0.76l-0.94,6.87C-70.03-19.88-69.68-19.4-69.18-19.31L-69.18-19.31z"/>
						<path class="st4" d="M-71.99-17.05c0.35,0.38,0.94,0.4,1.31,0.05l2.18-2.03c0.38-0.35,0.4-0.94,0.05-1.31l0,0
							c-0.35-0.38-0.94-0.4-1.31-0.05l-2.18,2.03C-72.32-18.01-72.34-17.43-71.99-17.05L-71.99-17.05z"/>
						<path class="st3" d="M-70.1-19.83c0.1,0.59,0.65,0.98,1.24,0.89c0.59-0.1,0.98-0.65,0.89-1.24c-0.1-0.59-0.65-0.98-1.24-0.89
							C-69.8-20.97-70.2-20.41-70.1-19.83z"/>
					</g>
					<g>
						<path class="st4" d="M-73.78-21.26c0.41,0.31,0.99,0.24,1.3-0.16l4.1-5.6c0.31-0.41,0.24-0.99-0.16-1.3l0,0
							c-0.41-0.31-0.99-0.24-1.3,0.16l-4.1,5.6C-74.26-22.16-74.18-21.58-73.78-21.26L-73.78-21.26z"/>
						<path class="st4" d="M-77.2-20.59c0.17,0.48,0.7,0.74,1.19,0.56l2.8-1.01c0.48-0.17,0.74-0.7,0.56-1.19l0,0
							c-0.17-0.48-0.7-0.74-1.19-0.56l-2.8,1.01C-77.12-21.6-77.37-21.07-77.2-20.59L-77.2-20.59z"/>
						<path class="st3" d="M-74.3-21.87c0.03,0.59,0.54,1.05,1.13,1.02c0.59-0.03,1.05-0.54,1.02-1.13
							c-0.03-0.59-0.54-1.05-1.13-1.02C-73.87-22.97-74.33-22.47-74.3-21.87z"/>
					</g>
					<g>
						<path class="st4" d="M-74.36-29.77c-0.02,0.56,0.42,1.04,0.98,1.06l4.49,0.16c0.56,0.02,1.04-0.42,1.06-0.98l0,0
							c0.02-0.56-0.42-1.04-0.98-1.06l-4.49-0.16C-73.87-30.77-74.34-30.33-74.36-29.77L-74.36-29.77z"/>
						<path class="st4" d="M-77.19-28.31c0.2,0.53,0.79,0.79,1.32,0.58l2.4-0.98c0.53-0.2,0.79-0.79,0.58-1.32l0,0
							c-0.2-0.53-0.79-0.79-1.32-0.58l-2.4,0.98C-77.13-29.42-77.39-28.83-77.19-28.31L-77.19-28.31z"/>
						<path class="st3" d="M-74.56-29.87c-0.03,0.59,0.42,1.1,1.01,1.13c0.59,0.03,1.1-0.42,1.13-1.01c0.03-0.59-0.42-1.1-1.01-1.13
							C-74.01-30.91-74.52-30.46-74.56-29.87z"/>
					</g>
					<path class="st2" d="M-72.17-27.21c-0.3,0.88,0.17,1.84,1.05,2.14l3.1,1.06c0.88,0.3,1.84-0.17,2.14-1.05l1.51-4.44
						c0.3-0.88-0.17-1.84-1.05-2.14l-3.1-1.06c-0.88-0.3-1.84,0.17-2.14,1.05L-72.17-27.21z"/>
				</g>
				<path class="st4" d="M-82.47-52.51c0,0.91,0.74,1.64,1.64,1.64h2.48c0.91,0,1.64-0.74,1.64-1.64v-7.39
					c0-0.91-0.74-1.64-1.64-1.64h-2.48c-0.91,0-1.64,0.74-1.64,1.64V-52.51z"/>
			</g>
		</g>
		<rect x="-99.92" y="-72.24" class="st3" width="7.33" height="14.02"/>
		<path class="st4" d="M-89.8-55.92c0,0.95-0.77,1.72-1.72,1.72h-9.47c-0.95,0-1.72-0.77-1.72-1.72v-7.75
			c0-0.95,0.77-1.72,1.72-1.72h9.47c0.95,0,1.72,0.77,1.72,1.72V-55.92z"/>
		<path class="st2" d="M-78.97-60.1c0-2.04-1.65-3.69-3.69-3.69h-27.19c-2.04,0-3.69,1.65-3.69,3.69v8.38h0v7.96
			c0,9.55,7.74,17.28,17.28,17.28c9.55,0,17.28-7.74,17.28-17.28v-7.96h0V-60.1z"/>
		<path class="st9" d="M-96.25-106.63"/>
		<g>
			<path class="st2" d="M-81.84-104.14v15.83c0,6.93-6.45,10.65-14.41,10.65s-14.41-3.72-14.41-10.65v-15.83
				c-1.54,1.24-2.87,2.68-3.94,4.27v22.38c3.72,5.52,10.55,8.71,18.35,8.71s14.63-3.19,18.35-8.71v-22.38
				C-78.97-101.47-80.31-102.9-81.84-104.14z"/>
		</g>
		<path class="st3" d="M-96.25-77.67c7.96,0,14.41-3.72,14.41-10.65v-15.83c-3.8-3.07-8.85-4.96-14.41-4.96
			c-5.56,0-10.61,1.88-14.41,4.96v15.83C-110.66-81.39-104.21-77.67-96.25-77.67z"/>
		<g>
			<path class="st4" d="M-83.67-54.16c0,2.32-1.88,4.19-4.19,4.19c-2.32,0-4.19-1.88-4.19-4.19s1.88-4.19,4.19-4.19
				C-85.55-58.36-83.67-56.48-83.67-54.16z"/>
			<path class="st3" d="M-85.88-54.16c0,1.1-0.89,1.99-1.99,1.99c-1.1,0-1.99-0.89-1.99-1.99s0.89-1.99,1.99-1.99
				C-86.77-56.15-85.88-55.26-85.88-54.16z"/>
			<path class="st4" d="M-86.51-44.43c0,0.75-0.61,1.35-1.35,1.35c-0.75,0-1.35-0.61-1.35-1.35s0.61-1.35,1.35-1.35
				C-87.12-45.78-86.51-45.18-86.51-44.43z"/>
			<path class="st4" d="M-86.51-39.35c0,0.75-0.61,1.35-1.35,1.35c-0.75,0-1.35-0.61-1.35-1.35s0.61-1.35,1.35-1.35
				C-87.12-40.71-86.51-40.1-86.51-39.35z"/>
			<path class="st4" d="M-94.49-55.82c0,0.24-0.2,0.44-0.44,0.44h-13.47c-0.24,0-0.44-0.2-0.44-0.44l0,0c0-0.24,0.2-0.44,0.44-0.44
				h13.47C-94.68-56.26-94.49-56.06-94.49-55.82L-94.49-55.82z"/>
			<path class="st4" d="M-94.49-52.51c0,0.24-0.2,0.44-0.44,0.44h-13.47c-0.24,0-0.44-0.2-0.44-0.44l0,0c0-0.24,0.2-0.44,0.44-0.44
				h13.47C-94.68-52.95-94.49-52.75-94.49-52.51L-94.49-52.51z"/>
		</g>
		<path class="st9" d="M-96.25-115.88"/>
		<path class="st2" d="M-91.1-108.34c0,0.69-2.31,1.26-5.15,1.26s-5.15-0.56-5.15-1.26c0-0.69,2.31-1.26,5.15-1.26
			S-91.1-109.04-91.1-108.34z"/>
		<line class="st9" x1="-96.25" y1="-108.49" x2="-96.25" y2="-115.88"/>
		<path class="st3" d="M-93.35-117.2c0,1.61-1.3,2.91-2.91,2.91c-1.61,0-2.91-1.3-2.91-2.91c0-1.61,1.3-2.91,2.91-2.91
			C-94.65-120.11-93.35-118.8-93.35-117.2z"/>
		<g>
			<path class="st4" d="M-99.92-89.8c0,1.09-0.88,1.97-1.97,1.97l0,0c-1.09,0-1.97-0.88-1.97-1.97v-5.25c0-1.09,0.88-1.97,1.97-1.97
				l0,0c1.09,0,1.97,0.88,1.97,1.97V-89.8z"/>
			<path class="st4" d="M-88.65-89.8c0,1.09-0.88,1.97-1.97,1.97l0,0c-1.09,0-1.97-0.88-1.97-1.97v-5.25c0-1.09,0.88-1.97,1.97-1.97
				l0,0c1.09,0,1.97,0.88,1.97,1.97V-89.8z"/>
		</g>
	</g>
</g>
<g id="Layer_4">
	<path class="st12" d="M119.78,38.46c-0.8-0.9-11.8-14.67-13.74-17.01c-1.94-2.34-2.88-1.92-4.08-1.74s-15.12,2.51-16.74,2.79
		c-1.62,0.27-2.64,0.92-1.64,2.31c0.88,1.24,10.04,14.22,12.06,17.08l-36.4,8.72L30.29,2.2c-1.15-1.71-1.39-2.31-4.01-2.19
		C23.65,0.13,3.57,1.8,2.14,1.92c-1.43,0.12-3,0.76-1.57,4.13C2,9.43,24.81,58.59,25.44,60.02c0.64,1.43,2.29,3.75,6.16,2.82
		c3.97-0.95,17.72-4.54,25.23-6.51C60.81,63.52,68.9,78.11,70.4,80.2c2,2.79,3.38,2.33,6.45,1.4c2.4-0.73,37.5-13.35,39.08-14
		s2.56-1.12,1.49-2.7c-0.79-1.16-10.05-13.57-14.9-20.06c3.32-0.88,15.13-4.03,16.39-4.37C120.38,40.07,120.58,39.35,119.78,38.46z
		 M53.61,51.99c-0.44,0.09-20.82,4.97-21.91,5.22c-1.09,0.25-1.09,0.12-1.21-0.25C30.36,56.59,6.25,6.86,5.91,6.24
		s-0.32-1.11,0-1.11c0.32,0,19.25-1.69,19.92-1.73c0.67-0.04,0.6,0.11,0.85,0.53c0,0,26.71,46.1,27.18,46.91
		S54.04,51.89,53.61,51.99z M111.09,62.76c0.33,0.51,0.65,0.84-0.37,1.21c-1.02,0.37-34.5,11.67-35.16,11.95s-1.16,0.37-2-0.84
		c-0.84-1.21-11.73-20.06-11.73-20.06l35.49-9.24c0.88-0.28,1.16-0.47,1.72,0.42C99.6,47.09,110.77,62.25,111.09,62.76z
		 M113.37,37.56c-0.8,0.17-13.83,3.41-13.83,3.41L88.88,26.34c-0.3-0.42-0.55-0.85,0.2-0.95c0.75-0.1,12.86-2.29,13.41-2.41
		c0.55-0.12,1.02-0.27,1.69,0.65c0.67,0.92,9.89,12.58,10.24,13.03C114.76,37.11,114.16,37.39,113.37,37.56z"/>
</g>
</svg>
