<svg id="Layer_1" data-name="Layer 1" xmlns="http://www.w3.org/2000/svg" viewBox="0 0 751.65 387.42"><title>logo_pyro_sign</title><path d="M415.27,221.28l-9.35,41.33H361.76l10.66-45.46-25.67-93.76h45.46l10,55.69,37.63-55.69H490.1Z"/><path d="M667.7,264.79c-59.61,0-62.43-40.47-54.38-74,8-34.58,25.66-69.61,80.92-69.61,59.82,0,62,40.47,54.16,74.18C740.57,229.76,723.39,264.79,667.7,264.79Zm25.23-109.21c-25.67-1.3-32.19,15.67-37.2,35.46-4.13,15.88-10.87,38.07,12.62,39.38,26.1,1.74,32.63-15.67,37.63-35.24C710.33,179.51,717.08,156.89,692.93,155.58Z"/><path d="M291.18,123.39H240.06l-7.21,31,34.81,34.81,7.64-32.49h11.31c11.31,0,16.32,5.44,14.14,15.23-2.17,9.35-9.13,18.06-23.93,18.06h-8.36l0,0H224.55l-16.9,72.61h43.07l9.14-40.24h14.79c54.82,0,63.52-26.54,68.08-47C347.52,155.15,349.7,123.39,291.18,123.39Z"/><path d="M605.09,174.51c4.35-18.93,6.09-51.12-50.68-51.12H502l-6.63,28.46,34.88,34.88,7-30.06h10.44c13.05,0,17.19,4.57,15,14.58-2.83,10.87-9.13,16.31-24.36,16.31H530L487.17,187l-17.6,75.61h43.07l12.18-52.21,18.27,52.21h50l-27.85-50.47C590.3,207.36,601,191.91,605.09,174.51Z"/><path d="M54.45,103.28l28.66,16.63,57.11,32.65,4.29-2.14a16.53,16.53,0,0,0,6.72-5.54,14.53,14.53,0,0,0,2.51-7.91,14.38,14.38,0,0,0-1.92-7.76,19.28,19.28,0,0,0-6.87-6.42L91.83,91,34,56.22v16a31.33,31.33,0,0,0,5,17.14c3.48,5.39,8.8,10.12,15.52,14ZM78.83,182.7l-8.5,4.43v62.28L43.51,263.08l-6.87,3.55C13.59,278.52,0,299.43,0,323.29v64.13l25.19-13L67.3,352.84l3-1.55v.08l8.5-4.37v-.07l25.19-13V266.7l8.5-4.36,42.26-21.87h0a48.73,48.73,0,0,0,18.91-16.69,42.31,42.31,0,0,0,6.79-23.05,41,41,0,0,0-6.72-22.61h0a57.91,57.91,0,0,0-4.87-6.28A47.47,47.47,0,0,0,180,160.54a42.53,42.53,0,0,0,7.31-22.76,40.25,40.25,0,0,0-5.91-22.68,49.69,49.69,0,0,0-17.73-17.28L26.45,15.66.3,0V72.18a58.43,58.43,0,0,0,9.53,32.06c6.28,9.75,15.36,18,26.45,24.31L106.68,169l-19.13,9.38Zm-8.5,101.43v32.51l-3.1,1.63L33.69,335.33v-12c0-13.15,6.94-24.15,19.72-30.73h0Zm42.19-56.51-8.5,4.43V204.94l8.5-4.44,7.09-3.54,19.21-9.46a19.42,19.42,0,0,1,5.83,5.62v.07a13.43,13.43,0,0,1,2.15,7.54,14.21,14.21,0,0,1-2.22,8,16.3,16.3,0,0,1-6.58,5.76h-.07Z" style="fill-rule:evenodd"/></svg>