<svg id="Layer_1" data-name="Layer 1" xmlns="http://www.w3.org/2000/svg" viewBox="0 0 561.01 143.57"><title>logo_pyro_text</title><path d="M224.27,100.28l-9.35,41.33H170.76l10.66-45.46L155.75,2.39h45.46l10,55.69L248.85,2.39H299.1Z" transform="translate(-0.65 -0.21)"/><path d="M477.7,143.79c-59.61,0-62.43-40.47-54.38-74C431.36,35.24,449,.21,504.24.21c59.82,0,62,40.47,54.16,74.18C550.57,108.76,533.39,143.79,477.7,143.79ZM502.93,34.58c-25.67-1.3-32.19,15.67-37.2,35.46-4.13,15.88-10.87,38.07,12.62,39.38C504.45,111.16,511,93.75,516,74.18,520.33,58.51,527.08,35.89,502.93,34.58Z" transform="translate(-0.65 -0.21)"/><path d="M84.18,2.39H33.06l-7.21,31L60.66,68.16,68.3,35.67H79.61c11.31,0,16.32,5.44,14.14,15.23C91.58,60.25,84.62,69,69.82,69H61.46l0,0H17.55L.65,141.61H43.72l9.14-40.24H67.65c54.82,0,63.52-26.54,68.08-47C140.52,34.15,142.7,2.39,84.18,2.39Z" transform="translate(-0.65 -0.21)"/><path d="M413.09,53.51c4.35-18.93,6.09-51.12-50.68-51.12H310l-6.63,28.46,34.88,34.88,7-30.06h10.44c13,0,17.19,4.57,15,14.58-2.83,10.87-9.13,16.31-24.36,16.31H338L295.17,66l-17.6,75.61h43.07L332.82,89.4l18.27,52.21h50L373.28,91.14C398.3,86.36,409,70.91,413.09,53.51Z" transform="translate(-0.65 -0.21)"/></svg>