<svg id="Layer_1" data-name="Layer 1" xmlns="http://www.w3.org/2000/svg" viewBox="0 0 770 400"><title>tmp_pyro_logo</title><rect width="770" height="400" style="fill:#ddd"/><path d="M424.77,228.18l-9.35,41.33H371.26l10.66-45.46-25.67-93.76h45.46l10,55.69,37.63-55.69H499.6Z"/><path d="M677.2,271.69c-59.61,0-62.43-40.46-54.38-74,8-34.59,25.66-69.61,80.92-69.61,59.82,0,62,40.46,54.16,74.18C750.07,236.67,732.89,271.69,677.2,271.69Zm25.23-109.2c-25.67-1.31-32.19,15.66-37.2,35.45-4.13,15.88-10.87,38.07,12.62,39.38,26.1,1.74,32.63-15.66,37.63-35.24C719.83,186.42,726.58,163.79,702.43,162.49Z"/><path d="M300.68,130.29H249.56l-7.21,31,34.81,34.8,7.64-32.48h11.31c11.31,0,16.32,5.43,14.14,15.22-2.17,9.36-9.13,18.06-23.93,18.06H278l0,0H234.05l-16.9,72.61h43.07l9.14-40.24h14.79c54.82,0,63.52-26.54,68.08-47C357,162.05,359.2,130.29,300.68,130.29Z"/><path d="M614.59,181.41c4.35-18.92,6.09-51.12-50.68-51.12H511.48l-6.63,28.47,34.88,34.88,7-30.06h10.44c13.05,0,17.19,4.56,15,14.57-2.83,10.88-9.13,16.31-24.36,16.31h-8.27l-42.87-.56-17.6,75.61h43.07l12.18-52.2,18.27,52.2h50l-27.84-50.46C599.8,214.26,610.46,198.82,614.59,181.41Z"/><path d="M64,109.48,92.61,126.1l57.11,32.65,4.29-2.14a16.45,16.45,0,0,0,6.72-5.54,14.53,14.53,0,0,0,2.51-7.91,14.34,14.34,0,0,0-1.92-7.75,19.3,19.3,0,0,0-6.87-6.43L101.33,97.21,43.48,62.42v16a31.33,31.33,0,0,0,5,17.14c3.48,5.39,8.8,10.12,15.52,14ZM88.33,188.9l-8.5,4.43v62.28L53,269.27l-6.87,3.55c-23,11.89-36.64,32.8-36.64,56.67v64.12l25.19-13L76.8,359l3-1.55v.07l8.5-4.36v-.07l25.19-13V272.89l8.5-4.35,42.26-21.87h0A48.67,48.67,0,0,0,183.19,230,42.31,42.31,0,0,0,190,206.92a41,41,0,0,0-6.72-22.6h0a58,58,0,0,0-4.87-6.29,47.1,47.1,0,0,0,11.08-11.3A42.5,42.5,0,0,0,196.78,144a40.23,40.23,0,0,0-5.91-22.68A49.71,49.71,0,0,0,173.14,104L36,21.86,9.8,6.19V78.37a58.48,58.48,0,0,0,9.53,32.07c6.28,9.75,15.36,17.95,26.45,24.3l70.4,40.49-19.13,9.38Zm-8.5,101.43v32.51l-3.1,1.62L43.19,341.53v-12c0-13.16,6.94-24.16,19.72-30.74h0ZM122,233.82l-8.5,4.42V211.13l8.5-4.43,7.09-3.54,19.21-9.46a19.4,19.4,0,0,1,5.83,5.61v.08a13.39,13.39,0,0,1,2.15,7.53,14.19,14.19,0,0,1-2.22,8,16.15,16.15,0,0,1-6.58,5.76h-.07Z" style="fill-rule:evenodd"/></svg>